<svg width="291" height="291" viewBox="0 0 291 291" fill="none" xmlns="http://www.w3.org/2000/svg">
<path opacity="0.3" d="M273.786 73.792C268.353 87.5451 259.715 50.7555 245.962 45.3228C232.209 39.8901 197.84 42.2129 203.272 28.4598C208.705 14.7066 248.787 13.5382 262.54 18.9709C276.293 24.4037 279.218 60.0388 273.786 73.792Z" fill="#BBC2C8"/>
<circle opacity="0.1" cx="248.622" cy="278.541" r="11.4749" fill="#D19267"/>
<circle opacity="0.1" cx="229.498" cy="70.0804" r="11.4749" fill="#D19267"/>
<circle opacity="0.1" cx="11.4749" cy="142.754" r="11.4749" fill="#D19267"/>
<rect x="162.069" y="75.041" width="123.452" height="164.603" rx="18" transform="rotate(30 162.069 75.041)" fill="#FFEBCC"/>
<circle opacity="0.1" cx="80.3242" cy="247.942" r="21.0373" fill="#03A9F4"/>
<rect x="74.5867" y="85.3809" width="137.699" height="183.598" rx="18" fill="#B44F18"/>
<circle opacity="0.1" cx="186.467" cy="115.023" r="33.4684" fill="#301008"/>
<circle cx="194.117" cy="105.461" r="33.4684" fill="#FFF6F4"/>
<path d="M206.388 99.6916L191.871 114.208L183.195 105.532" stroke="#243B4D" stroke-width="2" stroke-linecap="round"/>
<rect x="95.624" y="114.066" width="36.3371" height="36.3371" rx="5" fill="white"/>
<path d="M99.449 179.092H190.292" stroke="white" stroke-width="5"/>
<path d="M99.449 203.953H190.292" stroke="white" stroke-width="5"/>
<path d="M99.449 228.816L149.173 228.816" stroke="white" stroke-width="5"/>
<path d="M232.815 147.049C234.28 146.577 235.707 147.868 235.383 149.373L233.01 160.412C232.686 161.917 230.854 162.507 229.712 161.474L221.34 153.899C220.198 152.866 220.603 150.985 222.068 150.513L232.815 147.049Z" fill="#FBCBCB"/>
<path d="M52.096 264.321C52.8287 264.085 53.5423 264.731 53.3804 265.483L51.7346 273.136C51.5727 273.889 50.6569 274.184 50.086 273.668L44.2813 268.416C43.7105 267.899 43.9128 266.958 44.6455 266.722L52.096 264.321Z" fill="#FBCBCB"/>
<path d="M88.4332 63.5107C89.1659 63.2746 89.8794 63.9202 89.7176 64.6728L88.0717 72.3257C87.9099 73.0783 86.994 73.3734 86.4232 72.857L80.6185 67.6052C80.0476 67.0887 80.2499 66.1479 80.9826 65.9118L88.4332 63.5107Z" fill="#FBCBCB"/>
</svg>
