<svg width="172" height="162" viewBox="0 0 172 162" fill="none" xmlns="http://www.w3.org/2000/svg">
<circle opacity="0.1" cx="3.89443" cy="3.89443" r="3.89443" transform="matrix(1 0 0 -1 124.622 72.4355)" fill="#27308C"/>
<circle opacity="0.2" cx="2.33666" cy="2.33666" r="2.33666" transform="matrix(1 0 0 -1 59.1953 158.893)" fill="#27308C"/>
<mask id="mask0_2209_14656" style="mask-type:alpha" maskUnits="userSpaceOnUse" x="21" y="17" width="72" height="72">
<rect x="16.3564" y="34.75" width="62.3108" height="62.3108" rx="16" transform="rotate(-20.959 16.3564 34.75)" fill="#FFC467"/>
</mask>
<g mask="url(#mask0_2209_14656)">
<rect x="16.3564" y="34.75" width="62.3108" height="62.3108" rx="16" transform="rotate(-20.959 16.3564 34.75)" fill="#BBC2C8"/>
<path opacity="0.15" d="M35.9875 56.6527C35.2585 46.7383 42.7047 38.1102 52.619 37.3811L91.2876 34.5377C101.202 33.8087 109.83 41.2549 110.559 51.1692L115.665 120.609C116.006 125.242 111.179 128.488 107.017 126.425L77.531 111.813L50.4994 130.581C46.6837 133.23 41.4343 130.725 41.0937 126.093L35.9875 56.6527Z" fill="#151A53"/>
<path opacity="0.15" d="M24.4102 29.9716C23.2629 27.1141 25.6391 24.0862 28.6874 24.5213L32.332 25.0415C35.3803 25.4766 36.8144 29.0485 34.9134 31.4708L32.6406 34.367C30.7397 36.7893 26.9293 36.2454 25.7819 33.388L24.4102 29.9716Z" fill="#151A53"/>
</g>
<path opacity="0.1" d="M68.5152 66.0996C69.9611 56.2642 79.1065 49.4632 88.9419 50.9091L127.303 56.5487C137.138 57.9946 143.939 67.14 142.493 76.9754L132.366 145.862C131.69 150.458 126.273 152.576 122.659 149.657L97.0595 128.978L66.5914 141.414C62.2907 143.17 57.7122 139.582 58.3878 134.987L68.5152 66.0996Z" fill="#946849"/>
<path d="M39.8825 55.8753C39.1535 45.961 46.5997 37.3328 56.514 36.6038L95.1826 33.7604C105.097 33.0313 113.725 40.4775 114.454 50.3919L119.56 119.832C119.901 124.465 115.074 127.711 110.912 125.648L81.4261 111.035L54.3944 129.804C50.5787 132.453 45.3293 129.948 44.9887 125.315L39.8825 55.8753Z" fill="#B44F18"/>
<path d="M25.1734 27.62C24.0261 24.7625 26.4023 21.7346 29.4506 22.1697L33.0951 22.69C36.1434 23.1251 37.5776 26.6969 35.6766 29.1193L33.4038 32.0154C31.5028 34.4378 27.6925 33.8939 26.5451 31.0364L25.1734 27.62Z" fill="#FF9E87"/>
<path d="M6.15552 116.342C5.21642 114.003 7.16139 111.524 9.65646 111.881C12.1515 112.237 13.3254 115.16 11.7694 117.143C10.2135 119.126 7.09462 118.681 6.15552 116.342Z" fill="#FF9E87"/>
<path d="M147.496 98.1381C145.669 93.5901 149.452 88.7707 154.303 89.4632C159.155 90.1558 161.438 95.8409 158.412 99.6964C155.386 103.552 149.322 102.686 147.496 98.1381Z" fill="#FF9E87"/>
<path d="M111.15 151.781C108.991 149.586 110.017 145.876 112.997 145.103L116.561 144.179C119.541 143.406 122.241 146.149 121.42 149.117L120.439 152.665C119.618 155.633 115.892 156.599 113.733 154.405L111.15 151.781Z" fill="#FFE1DA"/>
<path d="M63.9844 54.4082L91.172 52.409" stroke="white" stroke-width="3"/>
<path opacity="0.3" d="M137.676 30.0528C135.463 35.654 131.945 20.6709 126.344 18.4584C120.743 16.2458 106.746 17.1918 108.958 11.5906C111.171 5.98947 127.495 5.51364 133.096 7.72619C138.697 9.93874 139.888 24.4517 137.676 30.0528Z" fill="#243B4D"/>
</svg>
