<svg width="244" height="240" viewBox="0 0 244 240" fill="none" xmlns="http://www.w3.org/2000/svg">
<rect x="9.50729" y="63.2325" width="6.36094" height="6.36094" rx="3.18047" transform="rotate(159.041 9.50729 63.2325)" stroke="#9E9FA9" stroke-width="2"/>
<mask id="mask0_1199_33598" style="mask-type:alpha" maskUnits="userSpaceOnUse" x="5" y="71" width="71" height="71">
<rect x="1" y="88.8213" width="61.0026" height="61.0026" rx="16" transform="rotate(-20.959 1 88.8213)" fill="#FFC467"/>
</mask>
<g mask="url(#mask0_1199_33598)">
<rect x="1" y="88.8213" width="61.0026" height="61.0026" rx="16" transform="rotate(-20.959 1 88.8213)" fill="#DDAE95"/>
<rect opacity="0.15" x="28.2188" y="80.8486" width="145" height="91" rx="20" transform="rotate(-4.49304 28.2188 80.8486)" fill="#151B5E"/>
</g>
<rect opacity="0.2" x="52.9023" y="79.001" width="145" height="91" rx="20" transform="rotate(8.15099 52.9023 79.001)" fill="#DAA885"/>
<rect x="33.2188" y="78.8486" width="145" height="91" rx="20" transform="rotate(-4.49304 33.2188 78.8486)" fill="#243B4D"/>
<path opacity="0.11" d="M35.2552 104.769C34.3899 93.7569 42.6153 84.1286 53.627 83.2633L158.304 75.0378C169.316 74.1725 178.944 82.3978 179.81 93.4096L180.045 96.4004L116.345 125.057C112.116 126.96 107.358 127.334 102.884 126.115L35.4903 107.759L35.2552 104.769Z" fill="#5B5B5B"/>
<path d="M34.7855 98.7872C33.9202 87.7754 42.1455 78.1472 53.1573 77.2819L157.835 69.0564C168.846 68.1911 178.475 76.4164 179.34 87.4282L179.732 92.4128L113.575 114.467C110.482 115.498 107.183 115.757 103.966 115.222L35.1772 103.772L34.7855 98.7872Z" fill="#BBC2C8"/>
<circle opacity="0.2" cx="3" cy="3" r="3" transform="matrix(1 0 0 -1 100 221)" fill="#27308C"/>
<path d="M55.5867 50.637C54.4393 47.7796 56.8156 44.7516 59.8639 45.1867L68.4372 46.4105C71.4855 46.8456 72.9197 50.4175 71.0187 52.8398L65.6722 59.6527C63.7712 62.075 59.9608 61.5311 58.8135 58.6737L55.5867 50.637Z" fill="#B44F18"/>
<path d="M31.903 166.37C30.6973 163.367 33.1944 160.185 36.3978 160.643C39.6012 161.1 41.1083 164.854 39.1106 167.399C37.1129 169.945 33.1087 169.373 31.903 166.37Z" fill="#B44F18"/>
<path d="M213.368 142.999C211.023 137.16 215.879 130.973 222.108 131.862C228.337 132.751 231.268 140.05 227.383 145C223.499 149.95 215.712 148.838 213.368 142.999Z" fill="#B44F18"/>
<path opacity="0.2" d="M165.325 210.468C163.165 208.273 164.191 204.564 167.172 203.79L175.554 201.616C178.535 200.843 181.235 203.587 180.414 206.554L178.105 214.901C177.285 217.869 173.559 218.835 171.399 216.641L165.325 210.468Z" fill="#FF9E87"/>
<path opacity="0.3" d="M200.759 55.5854C197.919 62.7767 193.402 43.5401 186.211 40.6994C179.02 37.8588 161.049 39.0733 163.889 31.882C166.73 24.6908 187.688 24.0799 194.879 26.9205C202.071 29.7612 203.6 48.3941 200.759 55.5854Z" fill="#735039"/>
<path d="M134.782 2.37234C132.545 1.42632 126.995 1.31171 122.691 8.4215C118.387 15.5313 112.031 15.82 109.391 15.0756" stroke="#030014" stroke-width="3" stroke-linecap="round"/>
<path d="M44.659 238.416C44.4122 237.544 43.1794 235.959 40.2219 236.592C37.2645 237.226 35.7358 235.519 35.3412 234.586" stroke="#030014" stroke-width="3" stroke-linecap="round"/>
<path d="M223.016 191.147C222.678 192.546 223.148 195.701 227.734 197.13C232.32 198.559 233.104 202.113 232.923 203.711" stroke="#030014" stroke-width="3" stroke-linecap="round"/>
</svg>
