<svg width="376" height="277" viewBox="0 0 376 277" fill="none" xmlns="http://www.w3.org/2000/svg">
<path d="M334.422 208.402H198.528C197.36 208.4 196.24 207.931 195.414 207.099C194.588 206.266 194.124 205.138 194.122 203.961V4.44084C194.126 3.26498 194.591 2.13854 195.417 1.30779C196.243 0.477039 197.361 0.00956472 198.528 0.00756836H334.422C335.589 0.00956472 336.708 0.477039 337.533 1.30779C338.359 2.13854 338.825 3.26498 338.829 4.44084V203.961C338.827 205.138 338.362 206.266 337.536 207.099C336.71 207.931 335.59 208.4 334.422 208.402ZM198.528 0.197024C197.972 0.193029 197.421 0.299792 196.906 0.511181C196.392 0.72257 195.923 1.03442 195.528 1.42879C195.134 1.82316 194.82 2.29229 194.606 2.8092C194.391 3.32611 194.28 3.88062 194.279 4.44084V203.961C194.279 205.088 194.724 206.17 195.515 206.967C196.306 207.764 197.379 208.212 198.498 208.212H334.422C335.541 208.212 336.614 207.764 337.405 206.967C338.196 206.17 338.641 205.088 338.641 203.961V4.44084C338.641 3.3133 338.196 2.23194 337.405 1.43465C336.614 0.637361 335.541 0.189445 334.422 0.189445L198.528 0.197024Z" fill="#F0F0F0"/>
<path d="M177.683 208.402H41.7588C40.5906 208.4 39.4709 207.931 38.6449 207.099C37.819 206.266 37.354 205.138 37.3521 203.961V4.44085C37.354 3.26368 37.819 2.1353 38.6449 1.30291C39.4709 0.470522 40.5906 0.0020037 41.7588 0H177.683C178.851 0.0020037 179.971 0.470522 180.797 1.30291C181.623 2.1353 182.088 3.26368 182.09 4.44085V203.961C182.088 205.138 181.623 206.266 180.797 207.099C179.971 207.931 178.851 208.4 177.683 208.402ZM41.7588 0.197036C40.6412 0.197034 39.5693 0.643908 38.7783 1.43956C37.9874 2.23521 37.542 3.31462 37.5401 4.44085V203.961C37.5401 205.088 37.9845 206.17 38.7757 206.967C39.5668 207.764 40.6399 208.212 41.7588 208.212H177.683C178.802 208.212 179.875 207.764 180.666 206.967C181.457 206.17 181.902 205.088 181.902 203.961V4.44085C181.902 3.31331 181.457 2.23195 180.666 1.43466C179.875 0.637373 178.802 0.189456 177.683 0.189456L41.7588 0.197036Z" fill="#F0F0F0"/>
<path d="M376 254.682H0V254.872H376V254.682Z" fill="#F0F0F0"/>
<path d="M132.901 150.322V18.4985L44.3378 18.4985L44.3378 150.322H132.901Z" fill="#F5F5F5"/>
<path d="M129.141 22.28H48.0903V146.533H129.141V22.28Z" fill="#FAFAFA"/>
<path d="M80.1105 146.518V79.3973H77.3356L72.583 71.0991L68.3267 63.68V49.9785H67.319V63.68L63.0627 71.0991L58.31 79.3973H55.5352V146.518H80.1105Z" fill="#F5F5F5"/>
<path d="M59.062 62.3308H48.0903V146.51H59.062V62.3308Z" fill="#F5F5F5"/>
<path d="M111.123 122.381V61.3232L87.0591 71.2886V122.381H111.123Z" fill="#F5F5F5"/>
<path d="M129.141 79.3975H104.573V146.51H129.141V79.3975Z" fill="#F0F0F0"/>
<path d="M111.16 83.5046H107.348V85.3083H111.16V83.5046Z" fill="#F5F5F5"/>
<path d="M118.763 83.5046H114.951V85.3083H118.763V83.5046Z" fill="#F5F5F5"/>
<path d="M126.374 83.5046H122.561V85.3083H126.374V83.5046Z" fill="#F5F5F5"/>
<path d="M111.16 87.9607H107.348V89.7643H111.16V87.9607Z" fill="#F5F5F5"/>
<path d="M118.763 87.9607H114.951V89.7643H118.763V87.9607Z" fill="#F5F5F5"/>
<path d="M126.374 87.9607H122.561V89.7643H126.374V87.9607Z" fill="#F5F5F5"/>
<path d="M111.16 92.4241H107.348V94.2277H111.16V92.4241Z" fill="#F5F5F5"/>
<path d="M118.763 92.4241H114.951V94.2277H118.763V92.4241Z" fill="#F5F5F5"/>
<path d="M126.374 92.4241H122.561V94.2277H126.374V92.4241Z" fill="#F5F5F5"/>
<path d="M111.16 96.8804H107.348V98.684H111.16V96.8804Z" fill="#F5F5F5"/>
<path d="M118.763 96.8804H114.951V98.684H118.763V96.8804Z" fill="#F5F5F5"/>
<path d="M126.374 96.8804H122.561V98.684H126.374V96.8804Z" fill="#F5F5F5"/>
<path d="M111.16 101.344H107.348V103.148H111.16V101.344Z" fill="#F5F5F5"/>
<path d="M118.763 101.344H114.951V103.148H118.763V101.344Z" fill="#F5F5F5"/>
<path d="M126.374 101.344H122.561V103.148H126.374V101.344Z" fill="#F5F5F5"/>
<path d="M111.16 105.8H107.348V107.603H111.16V105.8Z" fill="#F5F5F5"/>
<path d="M118.763 105.8H114.951V107.603H118.763V105.8Z" fill="#F5F5F5"/>
<path d="M126.374 105.8H122.561V107.603H126.374V105.8Z" fill="#F5F5F5"/>
<path d="M111.16 110.263H107.348V112.067H111.16V110.263Z" fill="#F5F5F5"/>
<path d="M118.763 110.263H114.951V112.067H118.763V110.263Z" fill="#F5F5F5"/>
<path d="M126.374 110.263H122.561V112.067H126.374V110.263Z" fill="#F5F5F5"/>
<path d="M111.16 114.72H107.348V116.523H111.16V114.72Z" fill="#F5F5F5"/>
<path d="M118.763 114.72H114.951V116.523H118.763V114.72Z" fill="#F5F5F5"/>
<path d="M126.374 114.72H122.561V116.523H126.374V114.72Z" fill="#F5F5F5"/>
<path d="M111.16 119.183H107.348V120.987H111.16V119.183Z" fill="#F5F5F5"/>
<path d="M118.763 119.183H114.951V120.987H118.763V119.183Z" fill="#F5F5F5"/>
<path d="M126.374 119.183H122.561V120.987H126.374V119.183Z" fill="#F5F5F5"/>
<path d="M111.16 123.639H107.348V125.443H111.16V123.639Z" fill="#F5F5F5"/>
<path d="M118.763 123.639H114.951V125.443H118.763V123.639Z" fill="#F5F5F5"/>
<path d="M126.374 123.639H122.561V125.443H126.374V123.639Z" fill="#F5F5F5"/>
<path d="M111.16 128.095H107.348V129.899H111.16V128.095Z" fill="#F5F5F5"/>
<path d="M118.763 128.095H114.951V129.899H118.763V128.095Z" fill="#F5F5F5"/>
<path d="M126.374 128.095H122.561V129.899H126.374V128.095Z" fill="#F5F5F5"/>
<path d="M111.16 132.559H107.348V134.362H111.16V132.559Z" fill="#F5F5F5"/>
<path d="M118.763 132.559H114.951V134.362H118.763V132.559Z" fill="#F5F5F5"/>
<path d="M126.374 132.559H122.561V134.362H126.374V132.559Z" fill="#F5F5F5"/>
<path d="M72.6582 79.3975H48.0903V146.51H72.6582V79.3975Z" fill="#F0F0F0"/>
<path d="M54.6779 83.5046H50.8652V85.3083H54.6779V83.5046Z" fill="#F5F5F5"/>
<path d="M62.2809 83.5046H58.4683V85.3083H62.2809V83.5046Z" fill="#F5F5F5"/>
<path d="M69.8908 83.5046H66.0781V85.3083H69.8908V83.5046Z" fill="#F5F5F5"/>
<path d="M54.6779 87.9607H50.8652V89.7643H54.6779V87.9607Z" fill="#F5F5F5"/>
<path d="M62.2809 87.9607H58.4683V89.7643H62.2809V87.9607Z" fill="#F5F5F5"/>
<path d="M69.8908 87.9607H66.0781V89.7643H69.8908V87.9607Z" fill="#F5F5F5"/>
<path d="M54.6779 92.4241H50.8652V94.2277H54.6779V92.4241Z" fill="#F5F5F5"/>
<path d="M62.2809 92.4241H58.4683V94.2277H62.2809V92.4241Z" fill="#F5F5F5"/>
<path d="M69.8908 92.4241H66.0781V94.2277H69.8908V92.4241Z" fill="#F5F5F5"/>
<path d="M54.6779 96.8804H50.8652V98.684H54.6779V96.8804Z" fill="#F5F5F5"/>
<path d="M62.2809 96.8804H58.4683V98.684H62.2809V96.8804Z" fill="#F5F5F5"/>
<path d="M69.8908 96.8804H66.0781V98.684H69.8908V96.8804Z" fill="#F5F5F5"/>
<path d="M54.6779 101.344H50.8652V103.148H54.6779V101.344Z" fill="#F5F5F5"/>
<path d="M62.2809 101.344H58.4683V103.148H62.2809V101.344Z" fill="#F5F5F5"/>
<path d="M69.8908 101.344H66.0781V103.148H69.8908V101.344Z" fill="#F5F5F5"/>
<path d="M54.6779 105.8H50.8652V107.603H54.6779V105.8Z" fill="#F5F5F5"/>
<path d="M62.2809 105.8H58.4683V107.603H62.2809V105.8Z" fill="#F5F5F5"/>
<path d="M69.8908 105.8H66.0781V107.603H69.8908V105.8Z" fill="#F5F5F5"/>
<path d="M54.6779 110.263H50.8652V112.067H54.6779V110.263Z" fill="#F5F5F5"/>
<path d="M62.2809 110.263H58.4683V112.067H62.2809V110.263Z" fill="#F5F5F5"/>
<path d="M69.8908 110.263H66.0781V112.067H69.8908V110.263Z" fill="#F5F5F5"/>
<path d="M54.6779 114.72H50.8652V116.523H54.6779V114.72Z" fill="#F5F5F5"/>
<path d="M62.2809 114.72H58.4683V116.523H62.2809V114.72Z" fill="#F5F5F5"/>
<path d="M69.8908 114.72H66.0781V116.523H69.8908V114.72Z" fill="#F5F5F5"/>
<path d="M54.6779 119.183H50.8652V120.987H54.6779V119.183Z" fill="#F5F5F5"/>
<path d="M62.2809 119.183H58.4683V120.987H62.2809V119.183Z" fill="#F5F5F5"/>
<path d="M69.8908 119.183H66.0781V120.987H69.8908V119.183Z" fill="#F5F5F5"/>
<path d="M54.6779 123.639H50.8652V125.443H54.6779V123.639Z" fill="#F5F5F5"/>
<path d="M62.2809 123.639H58.4683V125.443H62.2809V123.639Z" fill="#F5F5F5"/>
<path d="M69.8908 123.639H66.0781V125.443H69.8908V123.639Z" fill="#F5F5F5"/>
<path d="M54.6779 128.095H50.8652V129.899H54.6779V128.095Z" fill="#F5F5F5"/>
<path d="M62.2809 128.095H58.4683V129.899H62.2809V128.095Z" fill="#F5F5F5"/>
<path d="M69.8908 128.095H66.0781V129.899H69.8908V128.095Z" fill="#F5F5F5"/>
<path d="M54.6779 132.559H50.8652V134.362H54.6779V132.559Z" fill="#F5F5F5"/>
<path d="M62.2809 132.559H58.4683V134.362H62.2809V132.559Z" fill="#F5F5F5"/>
<path d="M69.8908 132.559H66.0781V134.362H69.8908V132.559Z" fill="#F5F5F5"/>
<path d="M116.86 79.3971H107.348L112.1 71.099L116.86 62.7932L121.613 71.099L126.366 79.3971H116.86Z" fill="#F0F0F0"/>
<path d="M117.357 49.9785H116.35V68.9014H117.357V49.9785Z" fill="#F0F0F0"/>
<path d="M102.535 83.5046H76.2002V146.518H102.535V83.5046Z" fill="#F0F0F0"/>
<path d="M88.0667 81.3525H78.1328V89.9008H88.0667V81.3525Z" fill="#F0F0F0"/>
<path d="M81.6899 80.7158H79.0278V88.3926H81.6899V80.7158Z" fill="#F0F0F0"/>
<path d="M87.2319 80.7158H84.5698V88.3926H87.2319V80.7158Z" fill="#F0F0F0"/>
<path d="M100.851 81.3828H94.9326V87.3469H100.851V81.3828Z" fill="#F0F0F0"/>
<path d="M83.8781 88.8625H80.0654V90.6662H83.8781V88.8625Z" fill="#F5F5F5"/>
<path d="M91.4806 88.8625H87.668V90.6662H91.4806V88.8625Z" fill="#F5F5F5"/>
<path d="M99.091 88.8625H95.2783V90.6662H99.091V88.8625Z" fill="#F5F5F5"/>
<path d="M83.8781 93.3262H80.0654V95.1298H83.8781V93.3262Z" fill="#F5F5F5"/>
<path d="M91.4806 93.3262H87.668V95.1298H91.4806V93.3262Z" fill="#F5F5F5"/>
<path d="M99.091 93.3262H95.2783V95.1298H99.091V93.3262Z" fill="#F5F5F5"/>
<path d="M83.8781 97.782H80.0654V99.5856H83.8781V97.782Z" fill="#F5F5F5"/>
<path d="M91.4806 97.782H87.668V99.5856H91.4806V97.782Z" fill="#F5F5F5"/>
<path d="M99.091 97.782H95.2783V99.5856H99.091V97.782Z" fill="#F5F5F5"/>
<path d="M83.8781 102.246H80.0654V104.049H83.8781V102.246Z" fill="#F5F5F5"/>
<path d="M91.4806 102.246H87.668V104.049H91.4806V102.246Z" fill="#F5F5F5"/>
<path d="M99.091 102.246H95.2783V104.049H99.091V102.246Z" fill="#F5F5F5"/>
<path d="M83.8781 106.702H80.0654V108.506H83.8781V106.702Z" fill="#F5F5F5"/>
<path d="M91.4806 106.702H87.668V108.506H91.4806V106.702Z" fill="#F5F5F5"/>
<path d="M99.091 106.702H95.2783V108.506H99.091V106.702Z" fill="#F5F5F5"/>
<path d="M83.8781 111.165H80.0654V112.969H83.8781V111.165Z" fill="#F5F5F5"/>
<path d="M91.4806 111.165H87.668V112.969H91.4806V111.165Z" fill="#F5F5F5"/>
<path d="M99.091 111.165H95.2783V112.969H99.091V111.165Z" fill="#F5F5F5"/>
<path d="M83.8781 115.621H80.0654V117.425H83.8781V115.621Z" fill="#F5F5F5"/>
<path d="M91.4806 115.621H87.668V117.425H91.4806V115.621Z" fill="#F5F5F5"/>
<path d="M99.091 115.621H95.2783V117.425H99.091V115.621Z" fill="#F5F5F5"/>
<path d="M83.8781 120.077H80.0654V121.881H83.8781V120.077Z" fill="#F5F5F5"/>
<path d="M91.4806 120.077H87.668V121.881H91.4806V120.077Z" fill="#F5F5F5"/>
<path d="M99.091 120.077H95.2783V121.881H99.091V120.077Z" fill="#F5F5F5"/>
<path d="M83.8781 124.541H80.0654V126.345H83.8781V124.541Z" fill="#F5F5F5"/>
<path d="M91.4806 124.541H87.668V126.345H91.4806V124.541Z" fill="#F5F5F5"/>
<path d="M99.091 124.541H95.2783V126.345H99.091V124.541Z" fill="#F5F5F5"/>
<path d="M83.8781 128.997H80.0654V130.801H83.8781V128.997Z" fill="#F5F5F5"/>
<path d="M91.4806 128.997H87.668V130.801H91.4806V128.997Z" fill="#F5F5F5"/>
<path d="M99.091 128.997H95.2783V130.801H99.091V128.997Z" fill="#F5F5F5"/>
<path d="M83.8781 133.46H80.0654V135.264H83.8781V133.46Z" fill="#F5F5F5"/>
<path d="M91.4806 133.46H87.668V135.264H91.4806V133.46Z" fill="#F5F5F5"/>
<path d="M99.091 133.46H95.2783V135.264H99.091V133.46Z" fill="#F5F5F5"/>
<path d="M83.8781 137.916H80.0654V139.72H83.8781V137.916Z" fill="#F5F5F5"/>
<path d="M91.4806 137.916H87.668V139.72H91.4806V137.916Z" fill="#F5F5F5"/>
<path d="M99.091 137.916H95.2783V139.72H99.091V137.916Z" fill="#F5F5F5"/>
<path opacity="0.2" d="M123.757 22.28L48.0903 98.5323V76.6312L102.031 22.28H123.757Z" fill="white"/>
<path opacity="0.2" d="M129.141 49.8877V65.514L48.7521 146.533H48.0903V131.566L129.141 49.8877Z" fill="white"/>
<path d="M331.105 151.254V19.4307L242.542 19.4307V151.254H331.105Z" fill="#F5F5F5"/>
<path d="M327.345 23.2122H246.295V147.465H327.345V23.2122Z" fill="#FAFAFA"/>
<path d="M278.315 147.45V80.337H275.54L270.787 72.0312L266.539 64.6121V50.9106H265.523V64.6121L261.275 72.0312L256.514 80.337H253.747V147.45H278.315Z" fill="#F5F5F5"/>
<path d="M257.267 63.271H246.295V147.45H257.267V63.271Z" fill="#F5F5F5"/>
<path d="M309.328 123.313V62.2554L285.264 72.2208V123.313H309.328Z" fill="#F5F5F5"/>
<path d="M327.346 80.3372H302.778V147.45H327.346V80.3372Z" fill="#F0F0F0"/>
<path d="M309.365 84.4368H305.553V86.2404H309.365V84.4368Z" fill="#F5F5F5"/>
<path d="M316.968 84.4368H313.155V86.2404H316.968V84.4368Z" fill="#F5F5F5"/>
<path d="M324.578 84.4368H320.766V86.2404H324.578V84.4368Z" fill="#F5F5F5"/>
<path d="M309.365 88.9004H305.553V90.704H309.365V88.9004Z" fill="#F5F5F5"/>
<path d="M316.968 88.9004H313.155V90.704H316.968V88.9004Z" fill="#F5F5F5"/>
<path d="M324.578 88.9004H320.766V90.704H324.578V88.9004Z" fill="#F5F5F5"/>
<path d="M309.365 93.3562H305.553V95.1598H309.365V93.3562Z" fill="#F5F5F5"/>
<path d="M316.968 93.3562H313.155V95.1598H316.968V93.3562Z" fill="#F5F5F5"/>
<path d="M324.578 93.3562H320.766V95.1598H324.578V93.3562Z" fill="#F5F5F5"/>
<path d="M309.365 97.8201H305.553V99.6237H309.365V97.8201Z" fill="#F5F5F5"/>
<path d="M316.968 97.8201H313.155V99.6237H316.968V97.8201Z" fill="#F5F5F5"/>
<path d="M324.578 97.8201H320.766V99.6237H324.578V97.8201Z" fill="#F5F5F5"/>
<path d="M309.365 102.276H305.553V104.079H309.365V102.276Z" fill="#F5F5F5"/>
<path d="M316.968 102.276H313.155V104.079H316.968V102.276Z" fill="#F5F5F5"/>
<path d="M324.578 102.276H320.766V104.079H324.578V102.276Z" fill="#F5F5F5"/>
<path d="M309.365 106.74H305.553V108.543H309.365V106.74Z" fill="#F5F5F5"/>
<path d="M316.968 106.74H313.155V108.543H316.968V106.74Z" fill="#F5F5F5"/>
<path d="M324.578 106.74H320.766V108.543H324.578V106.74Z" fill="#F5F5F5"/>
<path d="M309.365 111.196H305.553V112.999H309.365V111.196Z" fill="#F5F5F5"/>
<path d="M316.968 111.196H313.155V112.999H316.968V111.196Z" fill="#F5F5F5"/>
<path d="M324.578 111.196H320.766V112.999H324.578V111.196Z" fill="#F5F5F5"/>
<path d="M309.365 115.659H305.553V117.463H309.365V115.659Z" fill="#F5F5F5"/>
<path d="M316.968 115.659H313.155V117.463H316.968V115.659Z" fill="#F5F5F5"/>
<path d="M324.578 115.659H320.766V117.463H324.578V115.659Z" fill="#F5F5F5"/>
<path d="M309.365 120.115H305.553V121.919H309.365V120.115Z" fill="#F5F5F5"/>
<path d="M316.968 120.115H313.155V121.919H316.968V120.115Z" fill="#F5F5F5"/>
<path d="M324.578 120.115H320.766V121.919H324.578V120.115Z" fill="#F5F5F5"/>
<path d="M309.365 124.571H305.553V126.375H309.365V124.571Z" fill="#F5F5F5"/>
<path d="M316.968 124.571H313.155V126.375H316.968V124.571Z" fill="#F5F5F5"/>
<path d="M324.578 124.571H320.766V126.375H324.578V124.571Z" fill="#F5F5F5"/>
<path d="M309.365 129.035H305.553V130.839H309.365V129.035Z" fill="#F5F5F5"/>
<path d="M316.968 129.035H313.155V130.839H316.968V129.035Z" fill="#F5F5F5"/>
<path d="M324.578 129.035H320.766V130.839H324.578V129.035Z" fill="#F5F5F5"/>
<path d="M309.365 133.491H305.553V135.294H309.365V133.491Z" fill="#F5F5F5"/>
<path d="M316.968 133.491H313.155V135.294H316.968V133.491Z" fill="#F5F5F5"/>
<path d="M324.578 133.491H320.766V135.294H324.578V133.491Z" fill="#F5F5F5"/>
<path d="M270.863 80.3372H246.295V147.45H270.863V80.3372Z" fill="#F0F0F0"/>
<path d="M252.882 84.4368H249.07V86.2404H252.882V84.4368Z" fill="#F5F5F5"/>
<path d="M260.493 84.4368H256.68V86.2404H260.493V84.4368Z" fill="#F5F5F5"/>
<path d="M268.095 84.4368H264.283V86.2404H268.095V84.4368Z" fill="#F5F5F5"/>
<path d="M252.882 88.9004H249.07V90.704H252.882V88.9004Z" fill="#F5F5F5"/>
<path d="M260.493 88.9004H256.68V90.704H260.493V88.9004Z" fill="#F5F5F5"/>
<path d="M268.095 88.9004H264.283V90.704H268.095V88.9004Z" fill="#F5F5F5"/>
<path d="M252.882 93.3562H249.07V95.1598H252.882V93.3562Z" fill="#F5F5F5"/>
<path d="M260.493 93.3562H256.68V95.1598H260.493V93.3562Z" fill="#F5F5F5"/>
<path d="M268.095 93.3562H264.283V95.1598H268.095V93.3562Z" fill="#F5F5F5"/>
<path d="M252.882 97.8201H249.07V99.6237H252.882V97.8201Z" fill="#F5F5F5"/>
<path d="M260.493 97.8201H256.68V99.6237H260.493V97.8201Z" fill="#F5F5F5"/>
<path d="M268.095 97.8201H264.283V99.6237H268.095V97.8201Z" fill="#F5F5F5"/>
<path d="M252.882 102.276H249.07V104.079H252.882V102.276Z" fill="#F5F5F5"/>
<path d="M260.493 102.276H256.68V104.079H260.493V102.276Z" fill="#F5F5F5"/>
<path d="M268.095 102.276H264.283V104.079H268.095V102.276Z" fill="#F5F5F5"/>
<path d="M252.882 106.74H249.07V108.543H252.882V106.74Z" fill="#F5F5F5"/>
<path d="M260.493 106.74H256.68V108.543H260.493V106.74Z" fill="#F5F5F5"/>
<path d="M268.095 106.74H264.283V108.543H268.095V106.74Z" fill="#F5F5F5"/>
<path d="M252.882 111.196H249.07V112.999H252.882V111.196Z" fill="#F5F5F5"/>
<path d="M260.493 111.196H256.68V112.999H260.493V111.196Z" fill="#F5F5F5"/>
<path d="M268.095 111.196H264.283V112.999H268.095V111.196Z" fill="#F5F5F5"/>
<path d="M252.882 115.659H249.07V117.463H252.882V115.659Z" fill="#F5F5F5"/>
<path d="M260.493 115.659H256.68V117.463H260.493V115.659Z" fill="#F5F5F5"/>
<path d="M268.095 115.659H264.283V117.463H268.095V115.659Z" fill="#F5F5F5"/>
<path d="M252.882 120.115H249.07V121.919H252.882V120.115Z" fill="#F5F5F5"/>
<path d="M260.493 120.115H256.68V121.919H260.493V120.115Z" fill="#F5F5F5"/>
<path d="M268.095 120.115H264.283V121.919H268.095V120.115Z" fill="#F5F5F5"/>
<path d="M252.882 124.571H249.07V126.375H252.882V124.571Z" fill="#F5F5F5"/>
<path d="M260.493 124.571H256.68V126.375H260.493V124.571Z" fill="#F5F5F5"/>
<path d="M268.095 124.571H264.283V126.375H268.095V124.571Z" fill="#F5F5F5"/>
<path d="M252.882 129.035H249.07V130.839H252.882V129.035Z" fill="#F5F5F5"/>
<path d="M260.493 129.035H256.68V130.839H260.493V129.035Z" fill="#F5F5F5"/>
<path d="M268.095 129.035H264.283V130.839H268.095V129.035Z" fill="#F5F5F5"/>
<path d="M252.882 133.491H249.07V135.294H252.882V133.491Z" fill="#F5F5F5"/>
<path d="M260.493 133.491H256.68V135.294H260.493V133.491Z" fill="#F5F5F5"/>
<path d="M268.095 133.491H264.283V135.294H268.095V133.491Z" fill="#F5F5F5"/>
<path d="M315.066 80.3371H305.553L310.305 72.0313L315.066 63.7332L319.818 72.0313L324.578 80.3371H315.066Z" fill="#F0F0F0"/>
<path d="M315.569 50.9106H314.562V69.8335H315.569V50.9106Z" fill="#F0F0F0"/>
<path d="M300.74 84.4368H274.405V147.45H300.74V84.4368Z" fill="#F0F0F0"/>
<path d="M286.279 82.2844H276.345V90.8327H286.279V82.2844Z" fill="#F0F0F0"/>
<path d="M279.895 81.6555H277.232V89.3323H279.895V81.6555Z" fill="#F0F0F0"/>
<path d="M285.444 81.6555H282.782V89.3323H285.444V81.6555Z" fill="#F0F0F0"/>
<path d="M299.063 82.3149H293.145V88.279H299.063V82.3149Z" fill="#F0F0F0"/>
<path d="M282.083 89.8022H278.27V91.6059H282.083V89.8022Z" fill="#F5F5F5"/>
<path d="M289.693 89.8022H285.88V91.6059H289.693V89.8022Z" fill="#F5F5F5"/>
<path d="M297.296 89.8022H293.483V91.6059H297.296V89.8022Z" fill="#F5F5F5"/>
<path d="M282.083 94.2583H278.27V96.0619H282.083V94.2583Z" fill="#F5F5F5"/>
<path d="M289.693 94.2583H285.88V96.0619H289.693V94.2583Z" fill="#F5F5F5"/>
<path d="M297.296 94.2583H293.483V96.0619H297.296V94.2583Z" fill="#F5F5F5"/>
<path d="M282.083 98.7217H278.27V100.525H282.083V98.7217Z" fill="#F5F5F5"/>
<path d="M289.693 98.7217H285.88V100.525H289.693V98.7217Z" fill="#F5F5F5"/>
<path d="M297.296 98.7217H293.483V100.525H297.296V98.7217Z" fill="#F5F5F5"/>
<path d="M282.083 103.178H278.27V104.981H282.083V103.178Z" fill="#F5F5F5"/>
<path d="M289.693 103.178H285.88V104.981H289.693V103.178Z" fill="#F5F5F5"/>
<path d="M297.296 103.178H293.483V104.981H297.296V103.178Z" fill="#F5F5F5"/>
<path d="M282.083 107.641H278.27V109.445H282.083V107.641Z" fill="#F5F5F5"/>
<path d="M289.693 107.641H285.88V109.445H289.693V107.641Z" fill="#F5F5F5"/>
<path d="M297.296 107.641H293.483V109.445H297.296V107.641Z" fill="#F5F5F5"/>
<path d="M282.083 112.097H278.27V113.901H282.083V112.097Z" fill="#F5F5F5"/>
<path d="M289.693 112.097H285.88V113.901H289.693V112.097Z" fill="#F5F5F5"/>
<path d="M297.296 112.097H293.483V113.901H297.296V112.097Z" fill="#F5F5F5"/>
<path d="M282.083 116.553H278.27V118.357H282.083V116.553Z" fill="#F5F5F5"/>
<path d="M289.693 116.553H285.88V118.357H289.693V116.553Z" fill="#F5F5F5"/>
<path d="M297.296 116.553H293.483V118.357H297.296V116.553Z" fill="#F5F5F5"/>
<path d="M282.083 121.017H278.27V122.82H282.083V121.017Z" fill="#F5F5F5"/>
<path d="M289.693 121.017H285.88V122.82H289.693V121.017Z" fill="#F5F5F5"/>
<path d="M297.296 121.017H293.483V122.82H297.296V121.017Z" fill="#F5F5F5"/>
<path d="M282.083 125.473H278.27V127.277H282.083V125.473Z" fill="#F5F5F5"/>
<path d="M289.693 125.473H285.88V127.277H289.693V125.473Z" fill="#F5F5F5"/>
<path d="M297.296 125.473H293.483V127.277H297.296V125.473Z" fill="#F5F5F5"/>
<path d="M282.083 129.937H278.27V131.74H282.083V129.937Z" fill="#F5F5F5"/>
<path d="M289.693 129.937H285.88V131.74H289.693V129.937Z" fill="#F5F5F5"/>
<path d="M297.296 129.937H293.483V131.74H297.296V129.937Z" fill="#F5F5F5"/>
<path d="M282.083 134.393H278.27V136.196H282.083V134.393Z" fill="#F5F5F5"/>
<path d="M289.693 134.393H285.88V136.196H289.693V134.393Z" fill="#F5F5F5"/>
<path d="M297.296 134.393H293.483V136.196H297.296V134.393Z" fill="#F5F5F5"/>
<path d="M282.083 138.856H278.27V140.66H282.083V138.856Z" fill="#F5F5F5"/>
<path d="M289.693 138.856H285.88V140.66H289.693V138.856Z" fill="#F5F5F5"/>
<path d="M297.296 138.856H293.483V140.66H297.296V138.856Z" fill="#F5F5F5"/>
<path opacity="0.2" d="M321.961 23.2122L246.295 99.4644V77.5709L300.236 23.2122H321.961Z" fill="white"/>
<path opacity="0.2" d="M327.353 50.8196V66.4459L246.957 147.465H246.295V132.505L327.353 50.8196Z" fill="white"/>
<path d="M209.334 172.678H79.0879C79.0879 173.745 79.5086 174.769 80.2575 175.523C81.0063 176.278 82.022 176.702 83.081 176.702H205.341C206.4 176.702 207.416 176.278 208.165 175.523C208.914 174.769 209.334 173.745 209.334 172.678Z" fill="#F0F0F0"/>
<path d="M183.751 210.728H105.844V214.449H183.751V210.728Z" fill="#F0F0F0"/>
<path d="M180.991 254.781L191.609 176.694H187.879L177.261 254.781H180.991Z" fill="#F0F0F0"/>
<path d="M189.722 254.781L178.931 176.694H182.661L193.452 254.781H189.722Z" fill="#F0F0F0"/>
<path d="M99.8881 254.781L110.958 176.694H107.228L96.1582 254.781H99.8881Z" fill="#F0F0F0"/>
<path d="M108.619 254.781L98.0005 176.694H101.73L112.349 254.781H108.619Z" fill="#F0F0F0"/>
<path d="M213.703 166.213H74.7188V172.693H213.703V166.213Z" fill="#F5F5F5"/>
<path d="M124.832 166.236H185.142L185.797 164.721C186.21 163.789 185.135 162.849 183.646 162.849H127.998C127.578 162.812 127.155 162.892 126.777 163.079C126.398 163.266 126.076 163.553 125.847 163.91L124.832 166.236Z" fill="#E0E0E0"/>
<path d="M201.656 123.927L193.933 156.832C193.838 157.261 193.601 157.645 193.26 157.92C192.92 158.195 192.497 158.346 192.061 158.347H144.497C144.206 158.346 143.919 158.279 143.658 158.15C143.397 158.022 143.167 157.835 142.987 157.605C142.807 157.375 142.681 157.107 142.618 156.821C142.556 156.535 142.558 156.238 142.624 155.953L150.34 123.048C150.438 122.619 150.677 122.236 151.018 121.961C151.36 121.686 151.783 121.535 152.22 121.532H199.776C200.068 121.531 200.357 121.597 200.62 121.724C200.883 121.852 201.114 122.038 201.295 122.269C201.476 122.499 201.602 122.768 201.665 123.056C201.728 123.343 201.725 123.641 201.656 123.927Z" fill="#F0F0F0"/>
<path d="M178.547 141.22C178.418 142.24 177.931 143.179 177.173 143.867C176.416 144.555 175.439 144.947 174.419 144.972C173.945 144.983 173.474 144.89 173.039 144.7C172.604 144.509 172.215 144.226 171.9 143.869C171.585 143.512 171.35 143.09 171.212 142.633C171.075 142.176 171.037 141.694 171.103 141.22C171.225 140.193 171.711 139.245 172.47 138.549C173.23 137.854 174.213 137.457 175.239 137.431C175.716 137.42 176.19 137.515 176.627 137.708C177.064 137.901 177.454 138.188 177.769 138.549C178.084 138.91 178.317 139.336 178.452 139.798C178.586 140.259 178.619 140.745 178.547 141.22Z" fill="#E0E0E0"/>
<path d="M154.107 121.54L145.888 158.332H144.497C144.206 158.331 143.919 158.264 143.658 158.135C143.397 158.006 143.167 157.82 142.987 157.59C142.807 157.36 142.681 157.092 142.618 156.806C142.556 156.519 142.558 156.223 142.624 155.937L150.34 123.033C150.438 122.604 150.677 122.221 151.018 121.945C151.36 121.67 151.783 121.519 152.22 121.517L154.107 121.54Z" fill="#E0E0E0"/>
<path d="M167.884 158.332L166.26 166.145H171.027L172.644 158.332H167.884Z" fill="#E0E0E0"/>
<path d="M159.304 164.827L160.281 163.44C160.455 163.203 160.682 163.011 160.943 162.879C161.204 162.747 161.493 162.68 161.785 162.682H174.855C175.193 162.681 175.525 162.774 175.814 162.951C176.103 163.127 176.339 163.38 176.495 163.683L177.156 164.948C177.227 165.081 177.262 165.231 177.26 165.382C177.257 165.533 177.216 165.68 177.141 165.811C177.065 165.941 176.958 166.05 176.829 166.128C176.7 166.205 176.554 166.247 176.404 166.252H160.026C159.86 166.256 159.696 166.213 159.553 166.127C159.411 166.042 159.295 165.917 159.219 165.768C159.144 165.619 159.112 165.452 159.127 165.285C159.142 165.119 159.203 164.96 159.304 164.827Z" fill="#E0E0E0"/>
<path d="M296.694 237.441C296.694 237.441 290.347 238.859 291.295 234.41C292.242 229.962 292.167 228.302 289.588 226.279C287.008 224.255 284.414 223.247 286.384 220.034C288.354 216.821 284.617 214.328 282.677 212.6C280.737 210.872 282.925 209.569 283.429 206.302C283.933 203.036 280.421 203.521 280.18 199.406C279.94 195.291 284.06 190.479 280.488 184.818C280.488 184.818 285.279 187.319 286.858 191.722C288.437 196.125 287.159 199.512 289.986 201.187C292.814 202.862 294.588 205.734 293.633 208.72C292.678 211.706 294.032 213.267 296.356 215.427C298.679 217.586 298.055 218.458 297.769 221.095C297.484 223.732 298.063 223.119 300.717 226.733C303.372 230.348 303.447 236.259 296.694 237.441Z" fill="#F0F0F0"/>
<path d="M297.596 237.245V237.176L284.895 198.338C284.882 198.298 284.877 198.256 284.88 198.214C284.884 198.173 284.895 198.132 284.914 198.095C284.933 198.057 284.959 198.024 284.99 197.997C285.022 197.97 285.059 197.949 285.098 197.936C285.177 197.914 285.261 197.923 285.334 197.961C285.406 197.999 285.462 198.063 285.489 198.141L298.19 236.987C298.194 237.017 298.194 237.048 298.19 237.078L297.596 237.245Z" fill="#E0E0E0"/>
<path d="M308.147 237.366C308.147 237.366 314.456 238.775 313.524 234.335C312.591 229.894 312.652 228.272 315.216 226.241C317.78 224.21 320.367 223.21 318.404 220.034C316.442 216.859 320.164 214.358 322.089 212.638C324.014 210.918 321.841 209.607 321.337 206.371C320.833 203.135 324.3 203.605 324.571 199.55C324.841 195.496 320.721 190.676 324.262 185.038C324.262 185.038 319.502 187.531 317.931 191.904C316.359 196.277 317.63 199.657 314.817 201.324C312.005 202.991 310.238 205.871 311.193 208.811C312.148 211.751 310.794 213.358 308.485 215.48C306.177 217.602 306.793 218.511 307.079 221.126C307.365 223.74 306.786 223.134 304.146 226.734C301.507 230.333 301.432 236.184 308.147 237.366Z" fill="#F0F0F0"/>
<path d="M306.666 236.995C306.662 236.962 306.662 236.929 306.666 236.896L319.299 198.247C319.327 198.169 319.382 198.105 319.455 198.067C319.528 198.029 319.612 198.02 319.69 198.042C319.73 198.054 319.766 198.074 319.797 198.101C319.829 198.127 319.854 198.16 319.872 198.197C319.891 198.234 319.901 198.274 319.904 198.315C319.906 198.356 319.9 198.398 319.886 198.436L307.26 237.085C307.25 237.11 307.238 237.133 307.222 237.154L306.666 236.995Z" fill="#E0E0E0"/>
<path d="M301.139 236.555C301.139 236.555 293.874 235.949 296.356 231.485C298.838 227.022 299.304 225.233 297.206 222.202C295.108 219.17 292.694 217.223 295.837 214.442C298.98 211.66 295.837 207.735 294.333 205.242C292.829 202.748 295.596 202.074 297.221 198.747C298.845 195.42 294.965 194.776 296.018 190.275C297.07 185.773 303.109 182.014 301.154 174.754C301.154 174.754 305.463 179.036 305.666 184.273C305.869 189.509 303.41 192.73 305.899 195.466C308.388 198.201 309.328 201.892 307.32 204.749C305.312 207.606 306.252 209.751 308.027 212.843C309.802 215.935 308.854 216.632 307.674 219.39C306.493 222.149 307.32 221.664 308.975 226.415C310.629 231.167 308.764 237.548 301.139 236.555Z" fill="#F5F5F5"/>
<path d="M302.169 236.646C302.165 236.618 302.165 236.59 302.169 236.562L301.364 190.707C301.364 190.613 301.4 190.522 301.465 190.455C301.529 190.387 301.617 190.347 301.71 190.343C301.757 190.343 301.803 190.352 301.845 190.37C301.888 190.388 301.927 190.414 301.96 190.447C301.993 190.48 302.019 190.519 302.037 190.563C302.054 190.606 302.064 190.652 302.064 190.699L302.868 236.547C302.872 236.583 302.872 236.618 302.868 236.653L302.169 236.646Z" fill="#E0E0E0"/>
<path d="M320.916 233.016H285.391C285.156 233.015 284.923 233.073 284.714 233.183C284.505 233.293 284.325 233.452 284.191 233.647C284.056 233.843 283.971 234.068 283.941 234.303C283.912 234.539 283.94 234.779 284.023 235.001L284.549 236.411L284.88 237.298L285.835 239.851L286.166 240.746L287.144 243.36L287.474 244.254L291.385 254.712H314.922L318.825 244.254L319.164 243.36L320.141 240.746L320.472 239.851L321.427 237.298L321.758 236.411L322.285 235.001C322.367 234.779 322.395 234.539 322.366 234.303C322.336 234.068 322.251 233.843 322.116 233.647C321.982 233.452 321.802 233.293 321.593 233.183C321.384 233.073 321.152 233.015 320.916 233.016Z" fill="#E6E6E6"/>
<path d="M184.977 277C265.681 277 331.105 274.94 331.105 272.4C331.105 269.859 265.681 267.8 184.977 267.8C104.272 267.8 38.8481 269.859 38.8481 272.4C38.8481 274.94 104.272 277 184.977 277Z" fill="#F0F0F0"/>
<path d="M86.8259 244.277L80.6445 272.279H64.0403L57.8589 244.277H86.8259Z" fill="#B34F18"/>
<path opacity="0.5" d="M86.8259 244.277L80.6445 272.279H64.0403L57.8589 244.277H86.8259Z" fill="white"/>
<path d="M88.0741 244.277H56.3999V247.702H88.0741V244.277Z" fill="#B34F18"/>
<path opacity="0.7" d="M88.0741 244.277H56.3999V247.702H88.0741V244.277Z" fill="white"/>
<path d="M72.523 244.277H73.275C73.651 221.285 67.3568 204.787 67.259 204.605C67.1613 204.423 66.507 204.681 66.5747 204.87C66.6424 205.06 72.9442 221.429 72.523 244.277Z" fill="#B34F18"/>
<path d="M71.0563 221.08C71.0563 221.08 68.5446 213.343 82.3965 210.652C82.3965 210.652 82.1408 224.21 71.0563 221.08Z" fill="#B34F18"/>
<path d="M72.5228 233.872C72.5228 233.872 70.0036 226.135 83.863 223.452C83.863 223.452 83.6073 237.002 72.5228 233.872Z" fill="#B34F18"/>
<path d="M72.0338 226.188C72.0338 226.188 71.2217 218.087 57.4751 221.285C57.4751 221.285 63.1677 233.577 72.0338 226.188Z" fill="#B34F18"/>
<path d="M72.8615 237.851C72.8615 237.851 72.0493 229.749 58.3027 232.948C58.3027 232.94 63.9879 245.232 72.8615 237.851Z" fill="#B34F18"/>
<path d="M69.5075 213.646C69.5075 213.646 61.446 214.207 62.2582 200.005C62.2582 200.012 75.2377 203.582 69.5075 213.646Z" fill="#B34F18"/>
<path d="M262.034 174.512C262.435 175.054 262.906 175.541 263.433 175.959L262.267 178.741L265.275 180.029L266.396 177.354C267.104 177.511 267.831 177.559 268.554 177.498L269.817 180.643L272.87 179.392L271.697 176.497C272.505 176.018 273.217 175.391 273.795 174.648L276.563 175.823L277.841 172.792L275.232 171.647C275.415 170.801 275.446 169.928 275.322 169.071L277.909 168.01L276.668 164.978L274.171 166.002C273.628 165.163 272.919 164.446 272.088 163.895L273.201 161.227L270.193 159.939L269.028 162.728C268.362 162.633 267.686 162.633 267.02 162.728L265.824 159.757L262.779 161.007L263.937 163.887C263.109 164.441 262.399 165.154 261.846 165.986L259.199 164.865L257.921 167.896L260.688 169.071C260.576 169.874 260.596 170.691 260.748 171.488L257.891 172.663L259.131 175.732L262.034 174.512ZM265.2 168.889C265.433 168.338 265.822 167.869 266.319 167.541C266.816 167.214 267.398 167.041 267.992 167.046C268.586 167.051 269.165 167.233 269.657 167.569C270.148 167.905 270.53 168.381 270.753 168.935C270.977 169.489 271.033 170.098 270.914 170.685C270.795 171.271 270.507 171.809 270.085 172.23C269.663 172.651 269.127 172.938 268.544 173.052C267.961 173.167 267.358 173.105 266.809 172.875C266.443 172.721 266.11 172.495 265.831 172.211C265.552 171.927 265.331 171.59 265.181 171.22C265.031 170.849 264.956 170.452 264.959 170.052C264.963 169.652 265.044 169.257 265.2 168.889Z" fill="#B34F18"/>
<g opacity="0.5">
<path d="M262.034 174.512C262.435 175.054 262.906 175.541 263.433 175.959L262.267 178.741L265.275 180.029L266.396 177.354C267.104 177.511 267.831 177.559 268.554 177.498L269.817 180.643L272.87 179.392L271.697 176.497C272.505 176.018 273.217 175.391 273.795 174.648L276.563 175.823L277.841 172.792L275.232 171.647C275.415 170.801 275.446 169.928 275.322 169.071L277.909 168.01L276.668 164.978L274.171 166.002C273.628 165.163 272.919 164.446 272.088 163.895L273.201 161.227L270.193 159.939L269.028 162.728C268.362 162.633 267.686 162.633 267.02 162.728L265.824 159.757L262.779 161.007L263.937 163.887C263.109 164.441 262.399 165.154 261.846 165.986L259.199 164.865L257.921 167.896L260.688 169.071C260.576 169.874 260.596 170.691 260.748 171.488L257.891 172.663L259.131 175.732L262.034 174.512ZM265.2 168.889C265.433 168.338 265.822 167.869 266.319 167.541C266.816 167.214 267.398 167.041 267.992 167.046C268.586 167.051 269.165 167.233 269.657 167.569C270.148 167.905 270.53 168.381 270.753 168.935C270.977 169.489 271.033 170.098 270.914 170.685C270.795 171.271 270.507 171.809 270.085 172.23C269.663 172.651 269.127 172.938 268.544 173.052C267.961 173.167 267.358 173.105 266.809 172.875C266.443 172.721 266.11 172.495 265.831 172.211C265.552 171.927 265.331 171.59 265.181 171.22C265.031 170.849 264.956 170.452 264.959 170.052C264.963 169.652 265.044 169.257 265.2 168.889Z" fill="white"/>
</g>
<path d="M89.0968 56.0561C89.4961 56.6 89.9666 57.0869 90.4956 57.5036L89.33 60.2924L92.338 61.5807L93.4584 58.9131C94.1666 59.07 94.8942 59.1185 95.6167 59.0571L96.88 62.1945L99.9332 60.9441L98.76 58.0492C99.5695 57.5727 100.282 56.9451 100.858 56.2001L103.625 57.3823L104.904 54.351L102.272 53.1991C102.452 52.3497 102.482 51.475 102.362 50.615L104.949 49.5616L103.708 46.4848L101.212 47.5079C100.662 46.6739 99.9541 45.9578 99.1285 45.4011L100.241 42.7336L97.2335 41.4453L96.0679 44.2341C95.4016 44.1436 94.7263 44.1436 94.06 44.2341L92.8644 41.271L89.8564 42.5138L90.9919 45.3632C90.1646 45.9204 89.4542 46.6363 88.9013 47.47L86.2543 46.3408L84.9759 49.3721L87.7432 50.5468C87.6314 51.3504 87.6517 52.1672 87.8034 52.9642L84.9458 54.1313L86.1866 57.208L89.0968 56.0561ZM92.2628 50.4407C92.4945 49.8891 92.8832 49.4191 93.3798 49.09C93.8764 48.7609 94.4586 48.5874 95.053 48.5914C95.6473 48.5955 96.2271 48.7769 96.7193 49.1127C97.2114 49.4486 97.5938 49.9238 97.8181 50.4785C98.0425 51.0331 98.0988 51.6423 97.9798 52.2292C97.8609 52.816 97.5721 53.3542 97.15 53.7758C96.7278 54.1974 96.1911 54.4835 95.6077 54.5981C95.0244 54.7126 94.4204 54.6503 93.872 54.4192C93.5066 54.2652 93.1749 54.0399 92.8961 53.7564C92.6172 53.4728 92.3967 53.1366 92.2472 52.7669C92.0976 52.3972 92.022 52.0014 92.0247 51.6022C92.0274 51.203 92.1083 50.8083 92.2628 50.4407Z" fill="#B34F18"/>
<g opacity="0.5">
<path d="M89.0968 56.0561C89.4961 56.6 89.9666 57.0869 90.4956 57.5036L89.33 60.2924L92.338 61.5807L93.4584 58.9131C94.1666 59.07 94.8942 59.1185 95.6167 59.0571L96.88 62.1945L99.9332 60.9441L98.76 58.0492C99.5695 57.5727 100.282 56.9451 100.858 56.2001L103.625 57.3823L104.904 54.351L102.272 53.1991C102.452 52.3497 102.482 51.475 102.362 50.615L104.949 49.5616L103.708 46.4848L101.212 47.5079C100.662 46.6739 99.9541 45.9578 99.1285 45.4011L100.241 42.7336L97.2335 41.4453L96.0679 44.2341C95.4016 44.1436 94.7263 44.1436 94.06 44.2341L92.8644 41.271L89.8564 42.5138L90.9919 45.3632C90.1646 45.9204 89.4542 46.6363 88.9013 47.47L86.2543 46.3408L84.9759 49.3721L87.7432 50.5468C87.6314 51.3504 87.6517 52.1672 87.8034 52.9642L84.9458 54.1313L86.1866 57.208L89.0968 56.0561ZM92.2628 50.4407C92.4945 49.8891 92.8832 49.4191 93.3798 49.09C93.8764 48.7609 94.4586 48.5874 95.053 48.5914C95.6473 48.5955 96.2271 48.7769 96.7193 49.1127C97.2114 49.4486 97.5938 49.9238 97.8181 50.4785C98.0425 51.0331 98.0988 51.6423 97.9798 52.2292C97.8609 52.816 97.5721 53.3542 97.15 53.7758C96.7278 54.1974 96.1911 54.4835 95.6077 54.5981C95.0244 54.7126 94.4204 54.6503 93.872 54.4192C93.5066 54.2652 93.1749 54.0399 92.8961 53.7564C92.6172 53.4728 92.3967 53.1366 92.2472 52.7669C92.0976 52.3972 92.022 52.0014 92.0247 51.6022C92.0274 51.203 92.1083 50.8083 92.2628 50.4407Z" fill="white"/>
</g>
<path d="M194.317 51.8655V77.7982H117.117V0.00756836H124.08C124.08 0.00756836 128.825 1.37165 130.397 5.16835C131.811 8.54825 129.698 12.6253 129.216 13.5044L129.134 13.6484C128.104 15.4444 127.562 17.4818 127.562 19.5559C127.562 21.6299 128.103 23.6675 129.132 25.4638C130.161 27.26 131.641 28.7517 133.423 29.7888C135.206 30.8259 137.228 31.3719 139.286 31.3719C141.344 31.3719 143.366 30.8259 145.148 29.7888C146.93 28.7517 148.41 27.26 149.439 25.4638C150.468 23.6675 151.01 21.6299 151.009 19.5559C151.009 17.4818 150.467 15.4444 149.438 13.6484C149.402 13.6086 149.374 13.5623 149.355 13.512C148.866 12.6481 146.753 8.57098 148.159 5.17593C149.746 1.38681 154.484 0.0151482 154.484 0.0151482H194.34V21.2645C194.34 21.2645 192.978 26.0464 189.218 27.6378C185.865 29.0626 181.819 26.9255 180.946 26.4481L180.804 26.3647C179.02 25.3134 176.989 24.7638 174.923 24.7733C173.123 24.7719 171.347 25.1882 169.732 25.99C168.118 26.7917 166.708 27.9574 165.612 29.3966C164.517 30.8358 163.765 32.5099 163.414 34.2892C163.064 36.0685 163.125 37.9051 163.593 39.6568C164.06 41.4085 164.922 43.0281 166.111 44.3902C167.299 45.7523 168.783 46.8202 170.448 47.5113C172.112 48.2023 173.912 48.4979 175.708 48.3751C177.504 48.2523 179.247 47.7145 180.804 46.8032L180.939 46.7199C181.796 46.2349 185.842 44.0978 189.211 45.5225C192.956 47.0836 194.317 51.8655 194.317 51.8655Z" fill="#B34F18"/>
<g opacity="0.7">
<path d="M194.317 51.8655V77.7982H117.117V0.00756836H124.08C124.08 0.00756836 128.825 1.37165 130.397 5.16835C131.811 8.54825 129.698 12.6253 129.216 13.5044L129.134 13.6484C128.104 15.4444 127.562 17.4818 127.562 19.5559C127.562 21.6299 128.103 23.6675 129.132 25.4638C130.161 27.26 131.641 28.7517 133.423 29.7888C135.206 30.8259 137.228 31.3719 139.286 31.3719C141.344 31.3719 143.366 30.8259 145.148 29.7888C146.93 28.7517 148.41 27.26 149.439 25.4638C150.468 23.6675 151.01 21.6299 151.009 19.5559C151.009 17.4818 150.467 15.4444 149.438 13.6484C149.402 13.6086 149.374 13.5623 149.355 13.512C148.866 12.6481 146.753 8.57098 148.159 5.17593C149.746 1.38681 154.484 0.0151482 154.484 0.0151482H194.34V21.2645C194.34 21.2645 192.978 26.0464 189.218 27.6378C185.865 29.0626 181.819 26.9255 180.946 26.4481L180.804 26.3647C179.02 25.3134 176.989 24.7638 174.923 24.7733C173.123 24.7719 171.347 25.1882 169.732 25.99C168.118 26.7917 166.708 27.9574 165.612 29.3966C164.517 30.8358 163.765 32.5099 163.414 34.2892C163.064 36.0685 163.125 37.9051 163.593 39.6568C164.06 41.4085 164.922 43.0281 166.111 44.3902C167.299 45.7523 168.783 46.8202 170.448 47.5113C172.112 48.2023 173.912 48.4979 175.708 48.3751C177.504 48.2523 179.247 47.7145 180.804 46.8032L180.939 46.7199C181.796 46.2349 185.842 44.0978 189.211 45.5225C192.956 47.0836 194.317 51.8655 194.317 51.8655Z" fill="white"/>
</g>
<path d="M271.472 0.00756836V77.7225H261.155C260.403 77.4648 256.387 76.0173 254.966 72.6071C253.544 69.1969 255.665 65.1577 256.146 64.2711L256.237 64.1271C257.276 62.3311 257.822 60.2878 257.816 58.2085C257.813 56.3993 257.396 54.615 256.6 52.9937C255.803 51.3724 254.647 49.9574 253.221 48.8581C251.795 47.7588 250.138 47.0048 248.376 46.6541C246.615 46.3035 244.797 46.3657 243.064 46.836C241.33 47.3063 239.727 48.1721 238.378 49.3663C237.03 50.5606 235.972 52.0514 235.286 53.7235C234.6 55.3955 234.305 57.2041 234.424 59.0094C234.543 60.8147 235.072 62.5683 235.97 64.1347L236.06 64.2787C236.542 65.135 238.647 69.2121 237.241 72.6147C235.835 76.0174 231.834 77.4724 231.052 77.73H194.317V51.82C194.317 51.82 192.963 47.0381 189.203 45.4467C185.857 44.0372 181.811 46.1591 180.931 46.6441L180.796 46.7274C179.241 47.6512 177.496 48.2007 175.696 48.3329C173.896 48.4651 172.091 48.1765 170.42 47.4896C168.749 46.8028 167.258 45.7362 166.063 44.3731C164.868 43.0099 164.002 41.3871 163.532 39.6312C163.063 37.8753 163.002 36.0337 163.354 34.2501C163.707 32.4666 164.464 30.7892 165.565 29.3488C166.667 27.9085 168.084 26.7441 169.706 25.9465C171.328 25.1488 173.111 24.7396 174.915 24.7505C176.979 24.7446 179.006 25.294 180.788 26.342C180.83 26.3777 180.875 26.4082 180.924 26.4329C181.781 26.9179 185.827 29.0474 189.196 27.6227C192.956 26.0388 194.309 21.257 194.309 21.257V0.037882L271.472 0.00756836Z" fill="#B34F18"/>
<path opacity="0.5" d="M271.472 0.00756836V77.7225H261.155C260.403 77.4648 256.387 76.0173 254.966 72.6071C253.544 69.1969 255.665 65.1577 256.146 64.2711L256.237 64.1271C257.276 62.3311 257.822 60.2878 257.816 58.2085C257.813 56.3993 257.396 54.615 256.6 52.9937C255.803 51.3724 254.647 49.9574 253.221 48.8581C251.795 47.7588 250.138 47.0048 248.376 46.6541C246.615 46.3035 244.797 46.3657 243.064 46.836C241.33 47.3063 239.727 48.1721 238.378 49.3663C237.03 50.5606 235.972 52.0514 235.286 53.7235C234.6 55.3955 234.305 57.2041 234.424 59.0094C234.543 60.8147 235.072 62.5683 235.97 64.1347L236.06 64.2787C236.542 65.135 238.647 69.2121 237.241 72.6147C235.835 76.0174 231.834 77.4724 231.052 77.73H194.317V51.82C194.317 51.82 192.963 47.0381 189.203 45.4467C185.857 44.0372 181.811 46.1591 180.931 46.6441L180.796 46.7274C179.241 47.6512 177.496 48.2007 175.696 48.3329C173.896 48.4651 172.091 48.1765 170.42 47.4896C168.749 46.8028 167.258 45.7362 166.063 44.3731C164.868 43.0099 164.002 41.3871 163.532 39.6312C163.063 37.8753 163.002 36.0337 163.354 34.2501C163.707 32.4666 164.464 30.7892 165.565 29.3488C166.667 27.9085 168.084 26.7441 169.706 25.9465C171.328 25.1488 173.111 24.7396 174.915 24.7505C176.979 24.7446 179.006 25.294 180.788 26.342C180.83 26.3777 180.875 26.4082 180.924 26.4329C181.781 26.9179 185.827 29.0474 189.196 27.6227C192.956 26.0388 194.309 21.257 194.309 21.257V0.037882L271.472 0.00756836Z" fill="white"/>
<path d="M217.929 86.127L212.184 99.98C211.222 102.253 210.237 104.527 209.244 106.8C208.748 107.914 208.229 109.013 207.74 110.067C207.251 111.12 206.695 112.166 206.191 113.015C206.059 113.257 205.911 113.49 205.747 113.712L204.995 114.068L204.175 114.439L202.506 115.197L195.603 118.115C190.978 120.093 186.346 122.131 181.758 124.276L183.383 129.368C188.383 128.406 193.317 127.284 198.242 126.019C200.701 125.367 203.16 124.723 205.627 123.973L207.499 123.404L208.454 123.101L209.462 122.745L209.845 122.609L210.018 122.533L210.71 122.23L211.071 122.063L211.492 121.798L211.853 121.548C212.176 121.298 212.483 121.027 212.771 120.737C213.072 120.426 213.32 120.146 213.523 119.88C213.929 119.388 214.23 118.963 214.53 118.539C215.034 117.781 215.478 117.084 215.892 116.387C216.2 115.879 216.486 115.387 216.764 114.871C217.418 113.681 218.035 112.507 218.629 111.34C219.832 108.998 220.922 106.656 221.99 104.307C224.111 99.6011 226.089 94.9026 227.886 90.0525L217.929 86.127Z" fill="#263238"/>
<path d="M183.022 124.836C182.208 123.987 181.125 123.451 179.961 123.321C178.284 123.321 176.953 122.806 175.705 122.859C174.456 122.912 175.78 123.973 176.599 124.374C177.419 124.776 178.344 125.268 177.938 125.837C177.532 126.405 172.057 128.868 171.584 129.74C171.11 130.611 172.118 130.497 172.118 130.497C172.118 130.497 170.892 131.066 170.914 131.725C170.937 132.384 171.809 132.271 171.809 132.271C171.809 132.271 170.997 132.68 171.351 133.218C171.704 133.756 176.411 132.46 176.66 132.521C176.66 132.521 173.87 132.68 173.742 133.506C173.614 134.332 175.426 134.059 176.87 133.87C178.363 133.699 179.751 133.011 180.796 131.922C181.796 130.816 184.059 129.49 183.804 127.777C183.655 126.77 183.392 125.783 183.022 124.836Z" fill="#CE7A63"/>
<g opacity="0.2">
<path d="M172.042 132.293C173.441 131.657 174.855 131.068 176.284 130.528C176.434 130.902 176.613 131.264 176.818 131.611C176.923 131.786 177.141 131.558 177.043 131.392C176.417 130.303 176.035 129.09 175.923 127.837C175.923 127.625 175.629 127.701 175.652 127.906C175.68 128.224 175.728 128.54 175.795 128.853C175.782 128.847 175.768 128.844 175.753 128.844C175.739 128.844 175.725 128.847 175.712 128.853C174.551 129.191 173.435 129.669 172.388 130.278C172.23 130.369 172.336 130.664 172.509 130.566C173.532 129.973 174.623 129.507 175.757 129.179C175.776 129.171 175.793 129.16 175.807 129.146C175.821 129.131 175.832 129.114 175.84 129.095C175.929 129.486 176.042 129.871 176.178 130.247C174.75 130.753 173.333 131.341 171.93 132.013C171.757 132.081 171.869 132.369 172.042 132.293Z" fill="black"/>
</g>
<g opacity="0.2">
<path d="M177.404 129.027C177.845 128.341 178.502 127.823 179.27 127.556C180.037 127.29 180.871 127.29 181.638 127.557C181.811 127.625 181.916 127.314 181.743 127.246C180.915 126.96 180.015 126.962 179.187 127.252C178.36 127.542 177.653 128.103 177.179 128.845C177.155 128.875 177.144 128.914 177.148 128.952C177.152 128.991 177.171 129.026 177.201 129.05C177.231 129.074 177.269 129.085 177.307 129.081C177.345 129.077 177.38 129.057 177.404 129.027Z" fill="black"/>
</g>
<path opacity="0.2" d="M230.864 87.8017C230.864 87.9036 230.834 88.0032 230.778 88.088C230.722 88.1727 230.642 88.2388 230.548 88.2778C230.455 88.3168 230.352 88.327 230.253 88.3071C230.154 88.2872 230.063 88.2381 229.991 88.1661C229.92 88.094 229.871 88.0022 229.851 87.9022C229.831 87.8023 229.842 87.6987 229.88 87.6045C229.919 87.5103 229.984 87.4298 230.069 87.3732C230.153 87.3166 230.252 87.2864 230.353 87.2864C230.488 87.2864 230.618 87.3407 230.714 87.4373C230.81 87.5339 230.864 87.665 230.864 87.8017Z" fill="black"/>
<path opacity="0.2" d="M230.864 91.2194C230.862 91.321 230.831 91.4199 230.774 91.5036C230.717 91.5874 230.637 91.6522 230.543 91.6901C230.45 91.7279 230.347 91.7371 230.248 91.7163C230.15 91.6956 230.059 91.6459 229.988 91.5736C229.918 91.5012 229.87 91.4094 229.851 91.3096C229.831 91.2099 229.842 91.1067 229.881 91.0129C229.92 90.9192 229.985 90.8392 230.069 90.7829C230.153 90.7266 230.252 90.6965 230.353 90.6965C230.42 90.6965 230.488 90.7101 230.55 90.7365C230.613 90.7628 230.669 90.8015 230.717 90.8501C230.764 90.8988 230.802 90.9565 230.827 91.0199C230.852 91.0833 230.865 91.1511 230.864 91.2194Z" fill="black"/>
<path opacity="0.2" d="M230.864 94.622C230.864 94.7239 230.834 94.8236 230.778 94.9083C230.722 94.993 230.642 95.0591 230.548 95.0981C230.455 95.1371 230.352 95.1473 230.253 95.1274C230.154 95.1075 230.063 95.0585 229.991 94.9864C229.92 94.9143 229.871 94.8225 229.851 94.7225C229.831 94.6226 229.842 94.519 229.88 94.4248C229.919 94.3306 229.984 94.2502 230.069 94.1935C230.153 94.1369 230.252 94.1067 230.353 94.1067C230.488 94.1067 230.618 94.161 230.714 94.2576C230.81 94.3543 230.864 94.4853 230.864 94.622Z" fill="black"/>
<path d="M218.305 259.722L216.388 267.686H212.229L212.041 259.722H218.305Z" fill="#FF8B7B"/>
<path d="M200.152 273.31C200.378 270.718 201.506 269.945 202.905 269.854C204.303 269.763 209.537 268.013 209.537 268.013C209.537 268.013 210.62 266.368 211.575 266.035C212.53 265.701 213.455 266.679 213.455 266.679L216.065 266.36C216.065 266.36 216.817 265.178 217.388 266.209C218.215 267.823 218.14 272.272 218.042 273.31H200.152Z" fill="#263238"/>
<path d="M200.491 272.635H203.732L217.922 272.559C218.102 272.559 218.065 272.286 217.884 272.286H216.922C216.926 272.274 216.926 272.261 216.922 272.249C216.723 271.94 216.589 271.593 216.53 271.23C216.471 270.867 216.488 270.495 216.579 270.139C216.67 269.782 216.834 269.449 217.06 269.16C217.286 268.871 217.569 268.632 217.892 268.459C218.042 268.376 217.892 268.134 217.719 268.217C217.378 268.405 217.08 268.661 216.84 268.97C216.601 269.278 216.426 269.632 216.326 270.01C216.226 270.388 216.204 270.783 216.259 271.17C216.315 271.558 216.449 271.93 216.651 272.264H214.651L200.468 272.339C200.272 272.362 200.31 272.643 200.491 272.635Z" fill="#B34F18"/>
<path d="M235.511 155.46C234.285 166.144 232.442 176.746 229.991 187.213C229.119 191.093 228.116 195.231 226.983 199.626C230.044 225.104 218.065 261.912 218.065 261.912L211.65 261.768C211.65 261.768 210.845 220.633 211.597 199.096C212.838 163.811 217.102 130.202 217.102 130.202L234.579 130.134C234.579 130.134 237.632 135.439 235.511 155.46Z" fill="#B34F18"/>
<path opacity="0.2" d="M235.511 155.46C234.285 166.143 232.442 176.746 229.991 187.213C226.314 173.102 232.999 142.986 232.999 142.986L235.511 155.46Z" fill="black"/>
<path d="M210.935 263.291L210.732 260.517H219.29L218.809 263.291H210.935Z" fill="#263238"/>
<path d="M244.911 259.722L242.994 267.686H238.835L238.647 259.722H244.911Z" fill="#FF8B7B"/>
<path d="M226.758 273.31C226.983 270.718 228.111 269.945 229.51 269.854C230.909 269.763 236.128 268.013 236.128 268.013C236.128 268.013 237.211 266.368 238.166 266.035C239.121 265.701 240.046 266.679 240.046 266.679L242.655 266.36C242.655 266.36 243.407 265.178 243.979 266.209C244.813 267.823 244.731 272.272 244.633 273.31H226.758Z" fill="#263238"/>
<path d="M227.104 272.635H230.345L244.535 272.559C244.716 272.559 244.678 272.286 244.498 272.286H243.543V272.249C243.342 271.941 243.207 271.594 243.147 271.231C243.087 270.868 243.102 270.496 243.193 270.14C243.284 269.783 243.447 269.449 243.673 269.16C243.899 268.871 244.182 268.632 244.505 268.459C244.656 268.376 244.505 268.134 244.34 268.217C243.999 268.405 243.699 268.66 243.459 268.968C243.219 269.276 243.043 269.63 242.942 270.008C242.842 270.387 242.819 270.782 242.874 271.169C242.929 271.557 243.062 271.929 243.264 272.264H241.241L227.059 272.339C226.878 272.362 226.916 272.643 227.104 272.635Z" fill="#B34F18"/>
<path d="M229.495 131.566C229.495 131.566 232.759 180.264 233.827 199.626C235.052 221.74 237.797 259.434 238.166 261.904H244.798C244.046 262.662 253.311 228.818 249.574 201.278C253.078 174.936 257.342 155.642 251.83 130.801L229.495 131.566Z" fill="#B34F18"/>
<path d="M237.384 263.291L237.181 260.517H245.746L245.257 263.291H237.384Z" fill="#263238"/>
<path d="M253.838 132.741C239.903 137.379 216.478 135.855 216.478 132.635C216.478 123.579 219.659 113.386 218.809 107.482C212.214 102.837 217.366 98.6386 216.794 91.7576C216.597 89.2176 217.349 86.6951 218.904 84.6857C220.458 82.6763 222.702 81.3252 225.194 80.8979C226.382 80.6933 227.615 80.4887 228.834 80.3296L229.586 80.2386C232.83 79.8634 236.096 79.7089 239.362 79.7764C240.557 79.7764 241.791 79.7764 243.076 79.8142C244.362 79.8521 245.618 79.89 246.836 79.981C247.883 80.0585 248.902 80.3561 249.828 80.8545C250.754 81.3529 251.566 82.0411 252.212 82.8749C252.858 83.7086 253.324 84.6695 253.579 85.6955C253.835 86.7215 253.874 87.7901 253.695 88.8323C252.623 94.8767 251.945 100.985 251.664 107.119C251.604 108.384 251.567 109.604 251.551 110.802C251.467 115 251.656 119.2 252.115 123.374C252.115 123.457 252.115 123.533 252.115 123.609C252.311 125.269 252.559 126.799 252.867 128.201C252.95 128.641 253.048 129.058 253.146 129.474C253.274 130.346 253.612 131.869 253.838 132.741Z" fill="#263238"/>
<path opacity="0.2" d="M245.009 90.833L251.965 101.389C252.07 100.124 252.198 98.8281 252.348 97.517L245.009 90.833Z" fill="black"/>
<path d="M228.826 91.8255C228.826 91.9441 228.779 92.0578 228.696 92.1417C228.613 92.2255 228.5 92.2726 228.382 92.2726C228.265 92.2726 228.152 92.2255 228.068 92.1417C227.985 92.0578 227.938 91.9441 227.938 91.8255C227.938 91.7069 227.985 91.5932 228.068 91.5094C228.152 91.4255 228.265 91.3784 228.382 91.3784C228.5 91.3784 228.613 91.4255 228.696 91.5094C228.779 91.5932 228.826 91.7069 228.826 91.8255Z" fill="#B34F18"/>
<path d="M228.555 95.8722C228.556 95.9316 228.545 95.9905 228.523 96.0457C228.502 96.1008 228.469 96.151 228.428 96.1933C228.386 96.2356 228.337 96.2692 228.283 96.2922C228.229 96.3151 228.17 96.3269 228.111 96.3269C227.992 96.3269 227.877 96.279 227.792 96.1938C227.708 96.1085 227.66 95.9928 227.66 95.8722C227.66 95.8129 227.672 95.7541 227.695 95.6994C227.717 95.6446 227.751 95.595 227.793 95.5534C227.835 95.5117 227.885 95.479 227.939 95.4569C227.994 95.4349 228.052 95.4241 228.111 95.4251C228.17 95.4241 228.228 95.435 228.282 95.4571C228.337 95.4792 228.386 95.5121 228.427 95.5538C228.469 95.5955 228.501 95.6452 228.523 95.6999C228.545 95.7546 228.556 95.8132 228.555 95.8722Z" fill="#B34F18"/>
<path d="M228.111 100.442C228.356 100.442 228.555 100.242 228.555 99.995C228.555 99.748 228.356 99.5479 228.111 99.5479C227.866 99.5479 227.667 99.748 227.667 99.995C227.667 100.242 227.866 100.442 228.111 100.442Z" fill="#B34F18"/>
<path d="M239.309 79.7762C236.015 85.619 228.247 89.1201 228.247 89.1201C227.202 86.4981 227.495 82.2997 228.834 80.3294L229.586 80.2384C232.813 79.8656 236.061 79.7111 239.309 79.7762Z" fill="#FF8B7B"/>
<path d="M234.624 56.8445C234.624 56.8445 240.572 62.5736 237.835 69.0682C236.639 72.0395 234.325 74.4128 231.397 75.6688L234.624 56.8445Z" fill="#263238"/>
<path d="M225.096 55.4121C225.096 55.4121 219.253 54.4269 218.005 60.9139C216.756 67.4009 217.065 69.7653 218.757 71.3795C221.013 73.5014 224.554 71.19 224.554 71.19L225.096 55.4121Z" fill="#263238"/>
<path d="M228.743 82.0724C228.711 82.1642 228.671 82.253 228.623 82.3376C227.495 84.1185 228.72 85.7554 230.645 85.6114C230.832 85.5978 231.018 85.5725 231.202 85.5356C231.899 85.3926 232.535 85.0352 233.022 84.5126C234.506 82.906 236.113 81.4186 237.827 80.0641C234.917 78.4954 233.857 72.9254 233.593 69.4546L229.081 75.2368L228.239 76.4948C228.652 77.1984 228.98 77.9488 229.217 78.7304C229.414 79.2841 229.474 79.8781 229.392 80.4607C229.309 81.0432 229.086 81.5965 228.743 82.0724Z" fill="#FF8B7B"/>
<path d="M237.384 79.7688C238.969 79.3736 240.626 79.3736 242.212 79.7688L237.835 87.347C235.526 85.6571 232.887 87.8548 228.247 89.1127C232.087 86.9031 235.248 83.6702 237.384 79.7688Z" fill="#B34F18"/>
<path d="M237.384 79.7688C238.969 79.3736 240.626 79.3736 242.212 79.7688L237.835 87.347C235.526 85.6571 232.887 87.8548 228.247 89.1127C232.087 86.9031 235.248 83.6702 237.384 79.7688Z" fill="#B34F18"/>
<path d="M229.42 80.1174C229.42 80.1174 226.743 79.6248 225.194 80.8752C224.633 82.8296 224.215 84.8231 223.945 86.8393C223.945 86.8393 226.517 85.5434 228.247 89.1128C228.247 89.1203 227.367 83.4594 229.42 80.1174Z" fill="#B34F18"/>
<path d="M229.42 80.1174C229.42 80.1174 226.743 79.6248 225.194 80.8752C224.633 82.8296 224.215 84.8231 223.945 86.8393C223.945 86.8393 226.517 85.5434 228.247 89.1128C228.247 89.1203 227.367 83.4594 229.42 80.1174Z" fill="#B34F18"/>
<g opacity="0.2">
<path d="M229.225 78.7079C228.988 77.9264 228.66 77.1759 228.247 76.4723L229.089 75.2144L231.932 75.275C231.433 76.6907 230.481 77.8985 229.225 78.7079Z" fill="black"/>
</g>
<path d="M234.421 63.2404C234.872 68.9544 235.173 71.3643 232.804 74.6684C229.224 79.6398 222.276 78.9198 220.185 73.4483C218.29 68.5225 217.869 59.9969 222.953 56.9808C228.036 53.9647 233.969 57.5189 234.421 63.2404Z" fill="#FF8B7B"/>
<path d="M233.173 66.9765C236.023 66.2187 234.902 63.2556 234.902 63.2556L230.714 63.9073C230.714 63.9073 230.33 67.7344 233.173 66.9765Z" fill="#263238"/>
<path d="M221.088 57.4886C221.088 57.4886 221.742 60.6412 225.6 60.8079C229.458 60.9746 229.112 66.7114 233.421 65.802C237.73 64.8926 236.429 58.2237 234.609 56.8142C232.789 55.4046 225.389 52.2975 221.088 57.4886Z" fill="#263238"/>
<path d="M230.112 54.6015C230.112 54.6015 232.909 46.2654 239.407 49.5619C245.904 52.8585 240.204 61.437 236.083 60.323C231.962 59.209 230.112 54.6015 230.112 54.6015Z" fill="#263238"/>
<path d="M222.547 72.0464C223.756 71.3486 224.885 70.5202 225.916 69.5759C225.916 69.5759 226.322 71.7433 224.878 72.5466C224.499 72.7749 224.047 72.8503 223.615 72.7575C223.183 72.6647 222.801 72.4108 222.547 72.0464Z" fill="white"/>
<path d="M225.089 65.8247C225.149 66.287 224.961 66.6962 224.66 66.7341C224.359 66.772 224.066 66.4386 224.006 65.9763C223.946 65.514 224.126 65.1048 224.427 65.0669C224.728 65.029 225.021 65.3624 225.089 65.8247Z" fill="#263238"/>
<path d="M220.434 66.5826C220.494 67.0449 220.306 67.4465 220.005 67.492C219.704 67.5375 219.411 67.1965 219.351 66.7342C219.291 66.2719 219.471 65.8627 219.772 65.8172C220.073 65.7718 220.366 66.1204 220.434 66.575" fill="#263238"/>
<path d="M219.907 65.8247L218.764 65.6655C218.764 65.6655 219.448 66.4234 219.907 65.8247Z" fill="#263238"/>
<path d="M222.141 66.4536C222.141 66.4536 221.524 67.7874 220.817 68.9696C220.762 69.0586 220.727 69.159 220.715 69.2635C220.704 69.368 220.716 69.4737 220.75 69.5729C220.785 69.672 220.842 69.7619 220.916 69.8359C220.99 69.9099 221.079 69.9661 221.178 70.0002C221.667 70.1537 222.172 70.2504 222.682 70.2882L222.141 66.4536Z" fill="#FF5652"/>
<path d="M236.97 66.8781C236.828 67.3802 236.583 67.8464 236.25 68.2461C235.917 68.6457 235.503 68.9698 235.037 69.197C233.834 69.7199 233.022 68.4392 233.172 66.9766C233.315 65.6732 234.105 63.8165 235.428 63.9453C236.752 64.0742 237.406 65.5898 237 66.9084" fill="#FF8B7B"/>
<path d="M226.352 63.938C226.276 63.9377 226.203 63.9078 226.149 63.8546C225.925 63.5917 225.643 63.386 225.325 63.2543C225.008 63.1226 224.664 63.0686 224.321 63.0968C224.286 63.1032 224.25 63.1027 224.215 63.0951C224.181 63.0876 224.147 63.0732 224.118 63.0528C224.089 63.0324 224.064 63.0064 224.044 62.9762C224.025 62.946 224.012 62.9123 224.005 62.877C223.999 62.8417 224 62.8054 224.007 62.7703C224.015 62.7352 224.029 62.7019 224.049 62.6723C224.069 62.6428 224.095 62.6175 224.125 62.598C224.155 62.5785 224.188 62.5652 224.224 62.5587C224.652 62.5079 225.087 62.5612 225.491 62.7141C225.895 62.867 226.257 63.1152 226.547 63.4378C226.573 63.4626 226.594 63.4925 226.608 63.5258C226.623 63.559 226.63 63.5948 226.63 63.631C226.63 63.6672 226.623 63.7031 226.608 63.7363C226.594 63.7695 226.573 63.7995 226.547 63.8243C226.524 63.8486 226.496 63.8678 226.465 63.8808C226.434 63.8939 226.4 63.9004 226.367 63.9001" fill="#263238"/>
<path d="M218.298 64.7715C218.243 64.7765 218.188 64.7643 218.139 64.7367C218.091 64.7091 218.053 64.6672 218.029 64.6169C218.005 64.5665 217.998 64.51 218.007 64.455C218.016 64.4 218.041 64.3491 218.08 64.3092C218.343 63.9624 218.686 63.6848 219.079 63.5001C219.472 63.3154 219.903 63.229 220.336 63.2482C220.408 63.2553 220.474 63.2908 220.52 63.3469C220.565 63.403 220.587 63.4752 220.58 63.5476C220.573 63.6199 220.538 63.6865 220.482 63.7327C220.427 63.7789 220.355 63.8009 220.283 63.7939C219.943 63.7859 219.605 63.8593 219.298 64.0081C218.99 64.157 218.723 64.377 218.516 64.6502C218.47 64.7089 218.402 64.747 218.328 64.7563" fill="#263238"/>
<path d="M224.562 65.0669L223.419 64.9001C223.419 64.9001 224.103 65.658 224.562 65.0669Z" fill="#263238"/>
<path d="M259.357 115.561C257.018 119.35 254.416 123.139 251.837 126.875L255.777 130.452C259.301 127.287 262.612 123.89 265.689 120.282C267.327 118.404 268.835 116.413 270.201 114.326C270.554 113.765 270.9 113.189 271.239 112.537C271.615 111.824 271.935 111.081 272.194 110.317C272.363 109.823 272.491 109.316 272.577 108.801C272.709 108.024 272.709 107.229 272.577 106.452C272.458 105.762 272.254 105.09 271.968 104.451C271.787 104.023 271.581 103.605 271.351 103.201C270.652 101.981 269.86 100.818 268.983 99.7223C268.193 98.6992 267.403 97.7519 266.606 96.8274C264.989 95.0086 263.373 93.258 261.688 91.5832C258.349 88.2261 254.92 85.0735 251.281 82.0498L244.332 90.257L254.341 99.3509C255.981 100.867 257.627 102.382 259.161 103.898C259.913 104.656 260.665 105.414 261.417 106.171C262.035 106.829 262.618 107.52 263.162 108.24C263.117 108.369 263.072 108.513 263.019 108.649C262.861 109.051 262.673 109.491 262.478 109.938C261.535 111.865 260.493 113.742 259.357 115.561Z" fill="#263238"/>
<path d="M252.131 125.2C252.131 125.2 247.686 126.867 247.002 127.739C246.318 128.61 250.679 133.567 252.371 134.256C254.063 134.946 253.198 132.892 253.198 132.892C253.198 132.892 255.387 133.407 256.402 131.733C257.417 130.058 256.221 125.481 252.131 125.2Z" fill="#FF8B7B"/>
<path d="M145.361 255.986V267.702L150.054 268.073L152.355 257.107L145.361 255.986Z" fill="#FFC3BD"/>
<path d="M148.693 266.974C148.693 266.974 150.197 264.117 151.039 264.42C151.881 264.723 152.265 268.209 152.265 268.209C152.265 268.209 157.002 269.801 158.318 269.884C159.634 269.967 160.717 270.725 160.883 273.325H144.722C144.722 273.325 144.835 267.452 144.865 266.444C144.895 265.436 146.316 266.694 146.316 266.694L148.693 266.974Z" fill="#263238"/>
<path d="M144.903 268.664C145.191 268.825 145.444 269.043 145.646 269.305C145.847 269.567 145.994 269.868 146.076 270.19C146.159 270.511 146.175 270.846 146.124 271.174C146.074 271.502 145.958 271.816 145.783 272.097C145.773 272.11 145.766 272.126 145.762 272.142C145.758 272.158 145.758 272.175 145.761 272.192C145.764 272.208 145.77 272.224 145.78 272.238C145.789 272.251 145.801 272.263 145.815 272.272C145.829 272.281 145.845 272.287 145.861 272.289C145.878 272.292 145.894 272.291 145.91 272.286C145.926 272.282 145.941 272.275 145.954 272.264C145.967 272.254 145.978 272.241 145.986 272.226C146.182 271.919 146.315 271.575 146.374 271.214C146.434 270.854 146.421 270.485 146.334 270.13C146.247 269.776 146.09 269.442 145.871 269.151C145.652 268.86 145.376 268.617 145.061 268.437C144.925 268.353 144.767 268.581 144.903 268.664Z" fill="white"/>
<path d="M144.88 272.377L157.559 272.514H160.499C160.664 272.514 160.702 272.256 160.499 272.256L147.82 272.12H144.872C144.707 272.12 144.677 272.377 144.872 272.377H144.88Z" fill="white"/>
<path d="M151.565 269.217C151.689 269.029 151.849 268.867 152.037 268.743C152.224 268.619 152.435 268.534 152.655 268.494C152.876 268.455 153.103 268.461 153.321 268.512C153.54 268.563 153.746 268.659 153.926 268.793C154.047 268.899 154.205 268.672 154.084 268.573C153.25 267.884 152.114 268.179 151.362 269.088C151.249 269.225 151.452 269.354 151.565 269.217Z" fill="white"/>
<path d="M152.904 269.679C153.028 269.491 153.188 269.329 153.375 269.205C153.563 269.081 153.773 268.996 153.994 268.957C154.215 268.917 154.442 268.923 154.66 268.974C154.879 269.026 155.085 269.121 155.265 269.255C155.386 269.354 155.544 269.134 155.423 269.035C154.589 268.346 153.453 268.641 152.701 269.551C152.588 269.679 152.791 269.816 152.904 269.679Z" fill="white"/>
<path d="M154.288 270.066C154.411 269.876 154.571 269.714 154.758 269.589C154.946 269.464 155.156 269.379 155.378 269.34C155.599 269.3 155.826 269.306 156.044 269.358C156.263 269.41 156.469 269.506 156.649 269.641C156.769 269.74 156.927 269.52 156.807 269.422C155.972 268.732 154.837 269.028 154.085 269.929C153.972 270.066 154.175 270.195 154.288 270.066Z" fill="white"/>
<path d="M142.542 139.857C142.677 141.948 142.391 148.367 142.669 151.815C143.203 158.385 143.91 166.903 144.474 175.437C145.128 185.288 145.595 195.208 145.362 202.074C144.76 219.709 144.895 259.669 144.895 259.669H152.483C152.483 259.669 161.394 219.959 163.064 202.074C164.455 187.259 163.718 149.087 163.485 139.857H142.542Z" fill="#263238"/>
<path opacity="0.2" d="M142.542 139.857C142.677 141.948 142.391 148.367 142.669 151.815C143.203 158.385 143.91 166.903 144.474 175.437C145.128 185.288 145.595 195.208 145.362 202.074C144.76 219.709 144.895 259.669 144.895 259.669H152.483C152.483 259.669 161.394 219.959 163.064 202.074C164.455 187.259 163.718 149.087 163.485 139.857H142.542Z" fill="white"/>
<path opacity="0.2" d="M142.669 151.815C143.203 158.386 143.91 166.904 144.474 175.437C148.234 164.297 144.737 147.458 144.737 147.458L142.669 151.815Z" fill="black"/>
<path d="M144.234 259.934H153.137L153.792 257.069L144 256.948L144.234 259.934Z" fill="#B34F18"/>
<path d="M106.566 253.795L104.791 265.375L109.371 266.474L113.304 255.986L106.566 253.795Z" fill="#FFC3BD"/>
<path d="M108.19 265.171C108.19 265.171 110.085 262.579 110.897 263.011C111.709 263.443 111.536 266.929 111.536 266.929C111.536 266.929 115.973 269.202 117.267 269.52C118.56 269.839 119.523 270.718 119.282 273.31L103.31 270.824C103.31 270.824 104.31 265.034 104.49 264.041C104.671 263.049 105.881 264.519 105.881 264.519L108.19 265.171Z" fill="#263238"/>
<path d="M104.19 266.262C104.45 266.464 104.667 266.719 104.826 267.009C104.986 267.299 105.085 267.619 105.117 267.949C105.15 268.279 105.115 268.612 105.015 268.928C104.915 269.244 104.752 269.536 104.535 269.786C104.43 269.922 104.611 270.081 104.716 269.945C104.957 269.673 105.14 269.353 105.254 269.007C105.368 268.661 105.41 268.295 105.378 267.931C105.347 267.568 105.241 267.215 105.069 266.894C104.897 266.573 104.662 266.291 104.378 266.065C104.257 265.959 104.069 266.156 104.19 266.262Z" fill="white"/>
<path d="M103.603 269.93L116.109 272.006L119.019 272.491C119.184 272.491 119.252 272.271 119.094 272.241L106.581 270.157L103.671 269.672C103.513 269.672 103.437 269.899 103.603 269.93Z" fill="white"/>
<path d="M110.694 267.83C110.844 267.663 111.027 267.529 111.231 267.435C111.434 267.341 111.655 267.29 111.878 267.285C112.102 267.28 112.325 267.321 112.532 267.406C112.74 267.491 112.928 267.617 113.085 267.777C113.191 267.891 113.379 267.694 113.273 267.58C112.559 266.777 111.393 266.891 110.506 267.671C110.378 267.785 110.559 267.944 110.694 267.83Z" fill="white"/>
<path d="M111.95 268.452C112.1 268.284 112.283 268.149 112.487 268.056C112.691 267.962 112.912 267.911 113.136 267.907C113.36 267.903 113.583 267.945 113.79 268.031C113.997 268.117 114.185 268.244 114.341 268.406C114.447 268.52 114.635 268.323 114.537 268.209C113.785 267.398 112.649 267.52 111.77 268.293C111.634 268.414 111.822 268.573 111.95 268.452Z" fill="white"/>
<path d="M113.259 269.088C113.408 268.92 113.591 268.785 113.794 268.69C113.998 268.596 114.219 268.545 114.443 268.54C114.667 268.535 114.89 268.576 115.097 268.662C115.305 268.747 115.493 268.874 115.65 269.035C115.755 269.149 115.943 268.952 115.838 268.838C115.086 268.028 113.95 268.149 113.071 268.929C112.943 269.043 113.123 269.202 113.259 269.088Z" fill="white"/>
<path d="M133.292 203.62C128.599 220.936 112.837 258.388 112.837 258.388L105.317 257.077C105.317 257.077 113.108 218.11 116.695 200.846C119.936 185.265 123.463 149.489 124.644 138.833L149.746 141.107C148.407 150.201 137.15 189.252 133.254 203.612L133.292 203.62Z" fill="#263238"/>
<path opacity="0.2" d="M133.292 203.62C128.599 220.936 112.837 258.388 112.837 258.388L105.317 257.077C105.317 257.077 113.108 218.11 116.695 200.846C119.936 185.265 123.463 149.489 124.644 138.833L149.746 141.107C148.407 150.201 137.15 189.252 133.254 203.612L133.292 203.62Z" fill="white"/>
<path d="M104.663 257.229L113.431 258.767L114.567 256.062L104.791 254.266L104.663 257.229Z" fill="#B34F18"/>
<path d="M167.282 87.673C166.861 91.3333 166.169 99.0403 165.492 107.763C165.244 111.052 164.989 114.5 164.74 117.91C164.47 121.858 164.244 125.648 164.071 129.096C164.003 130.49 163.943 131.831 163.891 133.097C163.65 139.379 163.65 143.964 163.996 145.343C144.572 153.27 123.471 143.024 123.471 143.024C124.719 132.779 125.975 121.131 125.975 121.131C126.569 116.766 127.14 112.355 127.652 108.195C127.689 107.861 127.735 107.52 127.772 107.195C128.02 105.148 128.246 103.178 128.456 101.314L128.532 100.624C128.938 96.9487 129.284 93.6977 129.434 91.0983C129.78 86.1952 132.728 81.6407 137.127 80.8222C138.458 80.5721 139.894 80.3524 141.383 80.1857C141.737 80.1326 142.135 80.1023 142.459 80.0644C146.66 79.5968 150.889 79.4221 155.115 79.5415H155.724H156.047C156.22 79.5415 156.401 79.5415 156.574 79.5415C158.253 79.6095 159.927 79.7663 161.59 80.0114C162.463 80.1358 163.304 80.4329 164.064 80.8858C164.823 81.3386 165.487 81.9382 166.016 82.6501C166.545 83.362 166.929 84.1722 167.146 85.0342C167.364 85.8962 167.41 86.7929 167.282 87.673Z" fill="#B34F18"/>
<path opacity="0.3" d="M154.16 90.2268C154.164 90.3514 154.132 90.4746 154.067 90.5806C154.002 90.6866 153.907 90.7707 153.794 90.8222C153.681 90.8737 153.556 90.8903 153.434 90.8698C153.312 90.8494 153.199 90.7929 153.108 90.7074C153.018 90.6219 152.956 90.5114 152.928 90.3898C152.9 90.2683 152.909 90.1412 152.953 90.0247C152.997 89.9083 153.075 89.8076 153.176 89.7357C153.277 89.6637 153.397 89.6236 153.521 89.6206C153.685 89.6165 153.844 89.6778 153.964 89.7913C154.084 89.9048 154.154 90.0613 154.16 90.2268Z" fill="white"/>
<path opacity="0.3" d="M154.258 94.1069C154.262 94.2316 154.23 94.3547 154.165 94.4607C154.099 94.5667 154.004 94.6508 153.892 94.7023C153.779 94.7538 153.654 94.7704 153.532 94.75C153.41 94.7295 153.296 94.673 153.206 94.5875C153.116 94.502 153.053 94.3915 153.026 94.27C152.998 94.1484 153.007 94.0213 153.051 93.9049C153.095 93.7884 153.173 93.6878 153.274 93.6158C153.375 93.5438 153.495 93.5038 153.618 93.5007C153.783 93.4966 153.942 93.5579 154.062 93.6715C154.181 93.785 154.252 93.9414 154.258 94.1069Z" fill="white"/>
<path opacity="0.3" d="M154.385 97.9868C154.39 98.1114 154.357 98.2346 154.292 98.3406C154.227 98.4466 154.132 98.5307 154.019 98.5822C153.906 98.6337 153.781 98.6503 153.659 98.6298C153.537 98.6094 153.424 98.5529 153.334 98.4674C153.243 98.3819 153.181 98.2714 153.153 98.1499C153.125 98.0283 153.134 97.9012 153.178 97.7847C153.223 97.6683 153.3 97.5677 153.401 97.4957C153.502 97.4237 153.622 97.3836 153.746 97.3806C153.91 97.3765 154.069 97.4378 154.189 97.5513C154.309 97.6648 154.379 97.8213 154.385 97.9868Z" fill="white"/>
<path opacity="0.2" d="M142.541 98.2673C142.541 98.2673 143.293 115.152 144.587 116.455C145.88 117.759 161.627 124.139 161.627 124.139C152.603 123.086 144.549 121.654 140.571 118.592C139.12 114.5 141.203 105.906 142.541 98.2673Z" fill="black"/>
<path opacity="0.2" d="M164.094 129.095C164.026 130.49 163.966 131.831 163.913 133.097C158.356 132.733 137.721 132.445 132.051 124.23C128.735 119.418 130.359 99.7979 130.359 99.7979C132.393 106.559 136.111 112.682 141.16 117.584C146.208 122.486 152.418 126.003 159.198 127.799L164.094 129.095Z" fill="black"/>
<path d="M194.82 106.679C192.399 106.535 189.978 106.399 187.639 106.179C186.488 106.065 185.323 105.944 184.338 105.792L183.879 105.709C183.819 105.636 183.754 105.567 183.683 105.504C183.179 105.019 182.405 104.209 181.706 103.382C181.006 102.556 180.254 101.639 179.525 100.723C178.058 98.8962 176.607 96.9789 175.156 95.054C172.268 91.1967 169.358 87.2333 166.425 83.4138L156.649 90.5222C159.522 94.7205 162.552 98.6688 165.808 102.572C167.433 104.519 169.11 106.429 170.884 108.339C171.787 109.286 172.704 110.218 173.697 111.173C174.773 112.231 175.924 113.208 177.141 114.098C177.502 114.356 177.893 114.636 178.457 114.939L178.901 115.182L179.457 115.432C179.638 115.508 179.938 115.614 180.209 115.69L180.472 115.758L180.698 115.811C181.578 116.004 182.474 116.115 183.375 116.144C184.834 116.22 186.135 116.144 187.443 116.144C190.03 116.031 192.534 115.841 195.031 115.583C198.089 115.27 201.13 114.896 204.153 114.462L204.972 114.091L205.724 113.734C205.883 113.51 206.028 113.278 206.161 113.037C206.664 112.188 207.198 111.15 207.71 110.089C208.116 109.256 208.529 108.392 208.92 107.513C204.22 107.156 199.483 106.944 194.82 106.679ZM183.36 105.557H183.405C183.502 105.581 183.598 105.612 183.691 105.648H183.774C183.632 105.637 183.493 105.606 183.36 105.557Z" fill="#B34F18"/>
<path opacity="0.2" d="M167.711 104.784L166.011 92.9243L165.666 102.39L167.711 104.784Z" fill="black"/>
<path d="M156.13 53.2524C154.727 52.8344 153.253 52.7108 151.801 52.8894C150.348 53.068 148.948 53.5449 147.685 54.2906C146.031 55.2985 144.632 56.7611 144.798 58.8376C145.298 63.1247 146.036 67.3802 147.008 71.5842L162.635 63.2481C162.635 63.2481 163.56 59.1559 161.514 56.7081C160.122 55.0174 158.239 53.8089 156.13 53.2524Z" fill="#263238"/>
<path d="M150.099 53.2372C149.121 53.2311 148.153 53.4301 147.256 53.8215C146.358 54.2129 145.552 54.7881 144.887 55.5107C143.18 57.5189 145.286 62.6721 145.286 62.6721L150.099 53.2372Z" fill="#263238"/>
<path d="M148.512 53.8435C148.512 53.8435 149.114 51.7291 155.491 51.7291C161.868 51.7291 165.756 51.6533 164.951 55.3591C163.891 60.2698 156.092 58.4738 156.092 58.4738L148.512 53.8435Z" fill="#263238"/>
<path d="M154.408 77.0859V77.1389L153.558 79.8595C153.477 80.4113 153.445 80.9692 153.46 81.5267C153.477 81.9766 153.525 82.4249 153.603 82.8681C154.167 83.7244 154.355 85.619 152.235 85.528C149.535 85.4219 144.715 81.4737 144.609 80.2687C146.023 76.616 147.302 72.0767 147.264 68.5225L150.182 72.016L154.408 77.0859Z" fill="#FFC3BD"/>
<g opacity="0.2">
<path d="M154.386 77.1469L153.536 79.8675C151.889 79.0188 150.197 77.2606 149.881 75.4342C149.655 74.1232 150.295 72.9258 150.821 72.8804L154.386 77.1469Z" fill="black"/>
</g>
<path d="M161.469 71.698C161.281 72.2891 161.078 72.865 160.86 73.441C158.928 78.4957 152.588 78.6776 148.881 74.7141C148.543 74.3509 148.231 73.9634 147.948 73.5547C145.617 70.152 146.354 67.6436 146.986 61.9145C147.118 60.5803 147.587 59.3024 148.347 58.2023C149.108 57.1021 150.135 56.2164 151.331 55.6292C152.527 55.0421 153.852 54.7731 155.181 54.8479C156.509 54.9227 157.796 55.3388 158.92 56.0565C163.552 59.0044 163.342 65.7794 161.469 71.698Z" fill="#FFC3BD"/>
<path d="M154.491 69.1438C155.687 69.8361 156.92 70.4635 158.183 71.0232C158.023 71.2622 157.816 71.4652 157.574 71.6194C157.333 71.7736 157.062 71.8757 156.78 71.9191C156.497 71.9625 156.208 71.9464 155.932 71.8718C155.656 71.7972 155.398 71.6656 155.175 71.4855C154.842 71.2089 154.598 70.838 154.476 70.4205C154.354 70.0031 154.359 69.5583 154.491 69.1438Z" fill="white"/>
<path d="M159.364 55.4806C156.724 53.5178 151.28 52.8964 148.956 55.4806C146.633 58.0648 146.888 62.4071 146.888 62.4071C146.885 62.8786 147.06 63.3338 147.377 63.6802C147.442 63.7437 147.503 63.8121 147.557 63.8848L150.37 64.1728C150.52 62.9982 150.851 60.8611 151.626 60.702C153.085 60.3989 151.979 58.8301 152.242 57.898C153.077 54.8667 161.266 56.3824 162.432 60.8763C162.095 58.7615 161.004 56.8433 159.364 55.4806Z" fill="#263238"/>
<path d="M143.903 65.2562C144.066 66.6956 144.788 68.0114 145.911 68.9165C147.415 70.1063 148.919 68.9165 149.084 67.1204C149.257 65.4911 148.685 62.9145 146.888 62.4295C146.491 62.3276 146.076 62.3279 145.679 62.4302C145.282 62.5324 144.917 62.7335 144.618 63.0149C144.319 63.2963 144.094 63.649 143.965 64.0406C143.836 64.4322 143.807 64.8502 143.88 65.2562" fill="#FFC3BD"/>
<path d="M155.416 64.8623C155.34 65.3018 155.513 65.7034 155.799 65.7489C156.085 65.7944 156.378 65.4837 156.453 65.0441C156.529 64.6046 156.356 64.203 156.07 64.1575C155.784 64.112 155.491 64.4227 155.416 64.8623Z" fill="#263238"/>
<path d="M160.041 65.6582C159.965 66.0977 160.131 66.4993 160.417 66.5448C160.702 66.5903 160.996 66.2796 161.071 65.84C161.146 65.4005 160.981 64.9989 160.695 64.9534C160.409 64.9079 160.116 65.2186 160.041 65.6582Z" fill="#263238"/>
<path d="M161.92 64.218C161.88 64.2111 161.841 64.1935 161.81 64.1668C161.778 64.1402 161.754 64.1056 161.74 64.0665C161.701 63.9054 161.629 63.7546 161.528 63.6239C161.426 63.4932 161.299 63.3857 161.153 63.3086C160.852 63.1986 160.522 63.1986 160.221 63.3086C160.165 63.3289 160.103 63.3269 160.049 63.3029C159.994 63.279 159.951 63.2349 159.927 63.1798C159.917 63.152 159.911 63.1222 159.912 63.0922C159.912 63.0623 159.919 63.0327 159.93 63.0052C159.942 62.9778 159.959 62.953 159.981 62.9322C160.002 62.9114 160.028 62.8951 160.055 62.8843C160.469 62.7215 160.928 62.7215 161.341 62.8843C161.54 62.9828 161.716 63.1219 161.859 63.2928C162.001 63.4638 162.107 63.6627 162.168 63.877C162.179 63.9053 162.184 63.9356 162.183 63.9659C162.182 63.9962 162.175 64.026 162.163 64.0535C162.15 64.0811 162.132 64.1058 162.11 64.1262C162.088 64.1467 162.061 64.1624 162.033 64.1726C161.999 64.1957 161.961 64.2112 161.92 64.218Z" fill="#263238"/>
<path d="M154.363 62.8996C154.325 62.8925 154.289 62.8769 154.258 62.8542C154.232 62.8354 154.21 62.8116 154.193 62.7843C154.177 62.7569 154.165 62.7265 154.161 62.6948C154.156 62.663 154.157 62.6306 154.165 62.5995C154.172 62.5683 154.186 62.539 154.205 62.5132C154.489 62.1185 154.911 61.8476 155.386 61.7553C155.625 61.7259 155.867 61.747 156.098 61.8175C156.328 61.888 156.542 62.0062 156.724 62.1646C156.754 62.1828 156.78 62.2072 156.799 62.2361C156.819 62.265 156.833 62.2978 156.839 62.3324C156.846 62.3669 156.845 62.4025 156.837 62.4366C156.828 62.4708 156.813 62.5029 156.792 62.5307C156.771 62.5586 156.744 62.5816 156.713 62.5983C156.682 62.615 156.649 62.625 156.614 62.6276C156.579 62.6303 156.544 62.6255 156.511 62.6136C156.478 62.6017 156.449 62.583 156.423 62.5586C156.293 62.4442 156.142 62.3577 155.978 62.3042C155.813 62.2508 155.64 62.2317 155.468 62.2479C155.127 62.3207 154.821 62.5109 154.604 62.786C154.579 62.8266 154.543 62.8591 154.5 62.8793C154.457 62.8995 154.41 62.9066 154.363 62.8996Z" fill="#263238"/>
<path d="M158.424 64.7866C158.631 65.9479 158.982 67.0783 159.469 68.1514C160.168 69.5154 157.732 69.1441 157.732 69.1441L158.424 64.7866Z" fill="#ED847E"/>
<path d="M170.576 126.375L170.027 131.809C164.432 131.851 158.841 131.499 153.295 130.755C150.436 130.388 147.601 129.852 144.805 129.149C143.308 128.783 141.836 128.32 140.398 127.762C139.598 127.453 138.815 127.101 138.052 126.708C137.147 126.251 136.291 125.703 135.495 125.072C135.262 124.874 135.044 124.7 134.803 124.465L134.443 124.124L134.082 123.723C133.83 123.43 133.594 123.124 133.375 122.806C133.125 122.429 132.904 122.034 132.713 121.623C132.494 121.159 132.32 120.674 132.194 120.176L132.021 119.486C131.908 119.039 131.848 118.66 131.758 118.244C131.457 116.645 131.262 115.212 131.096 113.697C130.773 110.802 130.607 107.975 130.487 105.163L130.367 100.958V96.7819C130.367 93.978 130.449 91.2271 130.645 88.4004L142.677 88.8399C142.677 94.1902 142.549 99.6389 142.496 104.974C142.496 107.642 142.496 110.279 142.496 112.871C142.496 114.144 142.579 115.417 142.692 116.523C142.692 116.758 142.692 117.023 142.76 117.236C143.309 117.649 143.893 118.014 144.504 118.327C145.556 118.873 146.635 119.364 147.738 119.797C150.054 120.722 152.536 121.525 155.055 122.283C160.116 123.806 165.387 125.109 170.576 126.375Z" fill="#B34F18"/>
<path d="M169.771 126.496C169.771 126.496 175.366 125.019 176.539 125.261C177.863 125.534 177.254 132.559 175.539 133.521C173.824 134.484 169.568 131.369 169.568 131.369C168.591 129.08 168.899 127.209 169.771 126.496Z" fill="#FFC3BD"/>
<path d="M169.771 126.496C170.496 125.719 171.364 125.093 172.328 124.654C173.584 124.207 174.817 123.548 175.389 123.775C175.96 124.003 174.005 125.518 174.005 125.518L169.771 126.496Z" fill="#FFC3BD"/>
<path d="M176.547 125.261C176.547 125.261 179.983 126.239 181.059 127.671C182.134 129.103 179.074 128.232 179.074 128.232C179.074 128.232 182.653 129.55 181.179 132.309C180.427 133.658 176.321 133.923 174.411 133.68C174.464 133.68 174.464 127.807 176.547 125.261Z" fill="#FFC3BD"/>
<path d="M145.414 78.0032C144.601 78.0539 143.813 78.3032 143.117 78.7297C142.422 79.1562 141.839 79.7469 141.421 80.4509L148.836 89.2417C148.836 89.2417 148.783 86.0664 152.851 85.4526C152.851 85.5284 147.392 81.4892 145.414 78.0032Z" fill="#B34F18"/>
<path opacity="0.3" d="M145.414 78.0032C144.601 78.0539 143.813 78.3032 143.117 78.7297C142.422 79.1562 141.839 79.7469 141.421 80.4509L148.836 89.2417C148.836 89.2417 148.783 86.0664 152.851 85.4526C152.851 85.5284 147.392 81.4892 145.414 78.0032Z" fill="white"/>
<path d="M152.851 85.5281C152.851 85.5281 153.325 80.5947 153.648 79.5413L154.069 78.1924C154.069 78.1924 156.987 78.2379 157.987 79.708L157.596 87.2256C156.214 86.2033 154.564 85.613 152.851 85.5281Z" fill="#B34F18"/>
<path opacity="0.3" d="M152.851 85.5281C152.851 85.5281 153.325 80.5947 153.648 79.5413L154.069 78.1924C154.069 78.1924 156.987 78.2379 157.987 79.708L157.596 87.2256C156.214 86.2033 154.564 85.613 152.851 85.5281Z" fill="white"/>
</svg>
