<svg width="334" height="325" viewBox="0 0 334 325" fill="none" xmlns="http://www.w3.org/2000/svg">
<path d="M144.081 325C214.338 325 271.293 321.442 271.293 317.054C271.293 312.665 214.338 309.107 144.081 309.107C73.8245 309.107 16.8701 312.665 16.8701 317.054C16.8701 321.442 73.8245 325 144.081 325Z" fill="#B34F18"/>
<path opacity="0.8" d="M144.081 325C214.338 325 271.293 321.442 271.293 317.054C271.293 312.665 214.338 309.107 144.081 309.107C73.8245 309.107 16.8701 312.665 16.8701 317.054C16.8701 321.442 73.8245 325 144.081 325Z" fill="white"/>
<path d="M239.675 14.8892H111.764C102.933 14.8892 95.7744 22.0673 95.7744 30.922V301.689C95.7744 310.544 102.933 317.722 111.764 317.722H239.675C248.506 317.722 255.665 310.544 255.665 301.689V30.922C255.665 22.0673 248.506 14.8892 239.675 14.8892Z" fill="#263238"/>
<path d="M248.555 48.1431H102.876V284.468H248.555V48.1431Z" fill="white" stroke="#263238" stroke-width="1.28651" stroke-miterlimit="10"/>
<path d="M198.047 143.838C210.379 131.474 210.379 111.427 198.047 99.0623C185.716 86.6977 165.723 86.6977 153.391 99.0623C141.06 111.427 141.06 131.474 153.391 143.838C165.723 156.203 185.716 156.203 198.047 143.838Z" fill="#B34F18"/>
<path d="M217.176 269.607H134.272C134.085 269.608 133.9 269.573 133.728 269.502C133.555 269.431 133.398 269.326 133.266 269.195C133.133 269.063 133.028 268.906 132.957 268.733C132.885 268.56 132.848 268.375 132.848 268.188C132.847 268 132.883 267.814 132.954 267.64C133.025 267.467 133.13 267.309 133.263 267.176C133.395 267.043 133.553 266.938 133.726 266.867C133.899 266.796 134.085 266.759 134.272 266.761H217.176C217.362 266.761 217.547 266.797 217.719 266.869C217.891 266.941 218.048 267.046 218.179 267.179C218.311 267.312 218.415 267.469 218.486 267.642C218.556 267.816 218.592 268.001 218.591 268.188C218.591 268.564 218.442 268.925 218.176 269.192C217.911 269.458 217.551 269.607 217.176 269.607Z" fill="#B34F18"/>
<path d="M219.875 170.91H131.564C129.742 170.91 128.264 172.392 128.264 174.219V184.657C128.264 186.485 129.742 187.966 131.564 187.966H219.875C221.697 187.966 223.175 186.485 223.175 184.657V174.219C223.175 172.392 221.697 170.91 219.875 170.91Z" fill="#B34F18"/>
<path d="M219.875 202.811H131.564C129.742 202.811 128.264 204.292 128.264 206.12V216.558C128.264 218.385 129.742 219.867 131.564 219.867H219.875C221.697 219.867 223.175 218.385 223.175 216.558V206.12C223.175 204.292 221.697 202.811 219.875 202.811Z" fill="#B34F18"/>
<path d="M191.442 137.244L182.151 131.88V127.449C183.496 125.817 184.471 123.911 185.007 121.863C185.326 121.976 185.663 122.035 186.003 122.036C187.155 122.036 187.887 118.455 188.011 115.897C189.352 113.05 187.525 111.383 187.525 111.383C187.525 111.383 188.282 110.624 188.784 107.579C189.286 104.534 187.015 105.805 185.245 103.016C183.476 100.227 182.209 97.1904 176.399 97.1904C174.798 97.1376 173.218 97.5689 171.865 98.4283C170.512 99.2877 169.448 100.535 168.811 102.009C167.365 102.015 165.924 102.183 164.515 102.513C162.738 103.016 162.236 108.85 163.75 111.136C164.428 112.385 164.79 113.782 164.803 115.204C164.4 114.708 163.98 114.576 163.75 115.699C163.248 118.232 165.272 121.78 165.272 121.78L166.318 121.483C166.844 123.672 167.86 125.712 169.288 127.449V131.88L159.997 137.244C158.912 137.872 158.011 138.775 157.384 139.863C156.757 140.95 156.427 142.184 156.426 143.44V146.51C161.952 150.79 168.737 153.112 175.72 153.112C182.702 153.112 189.488 150.79 195.014 146.51V143.44C195.014 142.184 194.685 140.949 194.058 139.861C193.43 138.773 192.528 137.87 191.442 137.244Z" fill="#263238"/>
<path d="M140.287 215.626C140.074 215.622 139.871 215.537 139.72 215.386C139.639 215.314 139.574 215.225 139.53 215.125C139.486 215.025 139.464 214.918 139.465 214.809C139.467 214.66 139.51 214.514 139.588 214.388L141.069 212.011L138.181 212.102C138.072 212.109 137.963 212.093 137.861 212.054C137.759 212.016 137.666 211.956 137.588 211.879C137.454 211.728 137.38 211.533 137.38 211.331C137.38 211.128 137.454 210.933 137.588 210.782C137.664 210.702 137.756 210.64 137.859 210.6C137.961 210.56 138.071 210.543 138.181 210.551L141.028 210.658L139.563 208.29C139.484 208.161 139.441 208.012 139.44 207.861C139.439 207.752 139.461 207.644 139.505 207.544C139.549 207.445 139.614 207.356 139.695 207.283C139.846 207.133 140.05 207.047 140.263 207.044C140.403 207.045 140.54 207.086 140.658 207.162C140.776 207.237 140.87 207.345 140.929 207.473L142.337 210.023L143.727 207.489C143.793 207.354 143.895 207.24 144.021 207.158C144.147 207.077 144.293 207.032 144.443 207.027C144.547 207.028 144.65 207.05 144.745 207.093C144.84 207.136 144.925 207.198 144.995 207.275C145.146 207.432 145.229 207.643 145.225 207.861C145.225 208.003 145.188 208.142 145.118 208.265L143.629 210.658L146.517 210.551C146.627 210.543 146.737 210.56 146.839 210.6C146.942 210.64 147.034 210.702 147.11 210.782C147.25 210.928 147.327 211.124 147.324 211.326C147.323 211.531 147.247 211.728 147.11 211.879C147.032 211.956 146.939 212.016 146.837 212.054C146.735 212.093 146.626 212.109 146.517 212.102L143.612 212.011L145.061 214.363C145.142 214.494 145.185 214.646 145.184 214.8C145.184 215.019 145.097 215.229 144.943 215.384C144.789 215.539 144.579 215.626 144.361 215.626C144.22 215.624 144.082 215.58 143.966 215.501C143.849 215.422 143.757 215.31 143.703 215.18L142.328 212.704L140.962 215.18C140.902 215.309 140.807 215.419 140.688 215.498C140.568 215.577 140.43 215.621 140.287 215.626Z" fill="#263238"/>
<path d="M153.636 215.626C153.423 215.622 153.219 215.537 153.068 215.386C152.987 215.314 152.923 215.225 152.879 215.125C152.835 215.025 152.812 214.918 152.813 214.809C152.816 214.66 152.858 214.514 152.937 214.388L154.418 212.011L151.538 212.102C151.428 212.107 151.318 212.09 151.215 212.052C151.111 212.013 151.017 211.955 150.937 211.879C150.828 211.766 150.755 211.623 150.728 211.468C150.701 211.313 150.721 211.153 150.786 211.01C150.851 210.867 150.957 210.746 151.091 210.664C151.225 210.582 151.381 210.543 151.538 210.551L154.377 210.658L152.912 208.29C152.832 208.161 152.789 208.012 152.788 207.861C152.788 207.752 152.81 207.644 152.854 207.544C152.898 207.445 152.963 207.356 153.043 207.283C153.195 207.133 153.398 207.047 153.611 207.044C153.752 207.045 153.889 207.086 154.007 207.162C154.125 207.238 154.219 207.345 154.278 207.473L155.685 210.023L157.076 207.489C157.142 207.354 157.243 207.24 157.37 207.158C157.496 207.077 157.642 207.032 157.792 207.027C157.896 207.027 157.999 207.049 158.094 207.091C158.189 207.134 158.274 207.197 158.343 207.275C158.42 207.352 158.48 207.443 158.521 207.544C158.562 207.645 158.583 207.752 158.582 207.861C158.579 208.003 158.539 208.143 158.467 208.265L156.977 210.658L159.874 210.567C159.982 210.56 160.091 210.577 160.192 210.617C160.293 210.657 160.384 210.719 160.458 210.798C160.599 210.944 160.675 211.14 160.672 211.343C160.672 211.547 160.595 211.744 160.458 211.896C160.382 211.972 160.291 212.032 160.19 212.07C160.089 212.109 159.982 212.125 159.874 212.119L156.961 212.028L158.409 214.38C158.49 214.511 158.533 214.662 158.533 214.817C158.533 215.036 158.446 215.246 158.292 215.4C158.137 215.555 157.928 215.642 157.71 215.642C157.569 215.64 157.431 215.597 157.314 215.518C157.197 215.439 157.106 215.327 157.051 215.196L155.677 212.721L154.311 215.196C154.248 215.323 154.152 215.429 154.033 215.505C153.914 215.581 153.777 215.622 153.636 215.626Z" fill="#263238"/>
<path d="M166.992 215.626C166.777 215.625 166.57 215.539 166.416 215.386C166.335 215.314 166.271 215.225 166.227 215.125C166.183 215.025 166.161 214.918 166.161 214.809C166.164 214.66 166.206 214.514 166.285 214.388L167.766 212.011L164.886 212.102C164.731 212.108 164.577 212.068 164.445 211.987C164.313 211.905 164.208 211.786 164.143 211.644C164.079 211.503 164.058 211.345 164.083 211.191C164.108 211.038 164.179 210.895 164.285 210.782C164.363 210.702 164.457 210.641 164.56 210.601C164.664 210.561 164.775 210.544 164.886 210.551L167.725 210.658L166.26 208.29C166.18 208.161 166.138 208.012 166.137 207.861C166.139 207.752 166.163 207.646 166.207 207.547C166.251 207.447 166.313 207.358 166.392 207.283C166.545 207.131 166.752 207.045 166.968 207.044C167.107 207.046 167.242 207.088 167.358 207.164C167.475 207.24 167.568 207.347 167.626 207.473L169.033 210.023L170.424 207.489C170.49 207.354 170.592 207.24 170.718 207.158C170.844 207.077 170.99 207.032 171.14 207.027C171.244 207.027 171.347 207.049 171.442 207.091C171.538 207.134 171.622 207.197 171.692 207.275C171.768 207.352 171.828 207.443 171.869 207.544C171.91 207.645 171.931 207.752 171.93 207.861C171.927 208.003 171.888 208.143 171.815 208.265L170.325 210.658L173.222 210.551C173.329 210.54 173.436 210.552 173.538 210.587C173.639 210.621 173.732 210.677 173.81 210.751C173.888 210.824 173.949 210.914 173.99 211.013C174.03 211.112 174.049 211.219 174.045 211.326C174.047 211.53 173.974 211.727 173.839 211.879C173.762 211.956 173.669 212.016 173.567 212.054C173.465 212.093 173.356 212.109 173.247 212.102L170.342 212.011L171.782 214.363C171.863 214.494 171.906 214.646 171.905 214.8C171.903 214.909 171.879 215.015 171.835 215.115C171.791 215.214 171.729 215.303 171.65 215.378C171.579 215.455 171.492 215.517 171.396 215.56C171.3 215.602 171.196 215.625 171.091 215.626C170.951 215.623 170.815 215.58 170.699 215.5C170.584 215.421 170.494 215.31 170.441 215.18L169.058 212.704L167.692 215.18C167.63 215.314 167.532 215.427 167.408 215.506C167.284 215.585 167.139 215.626 166.992 215.626Z" fill="#263238"/>
<path d="M180.341 215.626C180.125 215.625 179.918 215.539 179.765 215.386C179.61 215.234 179.521 215.026 179.518 214.809C179.515 214.66 179.555 214.514 179.633 214.388L181.114 212.011L178.234 212.102C178.124 212.107 178.014 212.09 177.911 212.052C177.808 212.013 177.713 211.955 177.633 211.879C177.499 211.728 177.425 211.533 177.425 211.331C177.425 211.128 177.499 210.933 177.633 210.782C177.713 210.705 177.807 210.645 177.91 210.605C178.013 210.565 178.123 210.547 178.234 210.551L181.081 210.658L179.625 208.29C179.545 208.161 179.502 208.012 179.501 207.861C179.504 207.752 179.528 207.646 179.571 207.547C179.615 207.447 179.678 207.358 179.756 207.283C179.91 207.131 180.117 207.045 180.332 207.044C180.473 207.045 180.61 207.086 180.728 207.162C180.846 207.238 180.94 207.345 180.999 207.473L182.398 210.023L183.789 207.489C183.855 207.354 183.956 207.24 184.083 207.158C184.209 207.077 184.355 207.032 184.505 207.027C184.609 207.027 184.712 207.049 184.807 207.091C184.902 207.134 184.987 207.197 185.056 207.275C185.132 207.352 185.193 207.443 185.234 207.544C185.275 207.645 185.295 207.752 185.295 207.861C185.292 208.003 185.252 208.143 185.18 208.265L183.69 210.658L186.587 210.551C186.693 210.54 186.801 210.552 186.902 210.587C187.004 210.621 187.096 210.677 187.174 210.751C187.252 210.824 187.314 210.914 187.354 211.013C187.395 211.112 187.414 211.219 187.41 211.326C187.411 211.53 187.338 211.727 187.204 211.879C187.126 211.956 187.034 212.016 186.932 212.054C186.829 212.093 186.72 212.109 186.611 212.102L183.706 212.011L185.147 214.363C185.228 214.494 185.271 214.646 185.27 214.8C185.271 214.909 185.249 215.017 185.205 215.117C185.161 215.216 185.096 215.305 185.015 215.378C184.943 215.455 184.857 215.517 184.761 215.56C184.664 215.602 184.561 215.625 184.455 215.626C184.315 215.623 184.179 215.58 184.064 215.5C183.948 215.421 183.858 215.31 183.805 215.18L182.423 212.704L181.057 215.18C180.994 215.316 180.893 215.431 180.765 215.51C180.638 215.59 180.49 215.63 180.341 215.626Z" fill="#263238"/>
<path d="M193.689 215.626C193.473 215.625 193.266 215.539 193.113 215.386C192.985 215.257 192.904 215.089 192.882 214.908C192.859 214.727 192.897 214.545 192.989 214.388L194.462 212.011L191.582 212.102C191.472 212.107 191.362 212.09 191.259 212.052C191.156 212.013 191.061 211.955 190.981 211.879C190.847 211.728 190.773 211.533 190.773 211.331C190.773 211.128 190.847 210.933 190.981 210.782C191.061 210.705 191.155 210.645 191.258 210.605C191.361 210.565 191.472 210.547 191.582 210.551L194.429 210.658L192.965 208.29C192.885 208.161 192.842 208.012 192.841 207.861C192.844 207.643 192.933 207.436 193.088 207.283C193.241 207.131 193.448 207.045 193.664 207.044C193.804 207.045 193.941 207.086 194.059 207.162C194.177 207.238 194.271 207.345 194.331 207.473L195.73 210.023L197.12 207.489C197.186 207.354 197.288 207.24 197.414 207.158C197.54 207.077 197.686 207.032 197.836 207.027C197.942 207.027 198.046 207.049 198.143 207.091C198.239 207.134 198.325 207.196 198.396 207.275C198.547 207.432 198.63 207.643 198.626 207.861C198.624 208.003 198.584 208.143 198.511 208.265L197.022 210.658L199.918 210.551C200.025 210.54 200.133 210.552 200.234 210.587C200.335 210.621 200.428 210.677 200.506 210.751C200.584 210.824 200.645 210.914 200.686 211.013C200.727 211.112 200.746 211.219 200.741 211.326C200.743 211.53 200.67 211.727 200.536 211.879C200.458 211.956 200.365 212.016 200.263 212.054C200.161 212.093 200.052 212.109 199.943 212.102L197.038 212.011L198.478 214.363C198.56 214.494 198.602 214.646 198.602 214.8C198.603 214.909 198.58 215.017 198.536 215.117C198.492 215.216 198.428 215.305 198.347 215.378C198.275 215.455 198.189 215.517 198.092 215.56C197.996 215.602 197.892 215.625 197.787 215.626C197.647 215.623 197.511 215.58 197.395 215.5C197.28 215.421 197.19 215.31 197.137 215.18L195.754 212.704L194.388 215.18C194.327 215.314 194.228 215.427 194.104 215.506C193.98 215.585 193.836 215.626 193.689 215.626Z" fill="#263238"/>
<path d="M207.037 215.626C206.824 215.622 206.62 215.537 206.469 215.386C206.388 215.314 206.323 215.225 206.279 215.125C206.235 215.025 206.213 214.918 206.214 214.809C206.216 214.66 206.259 214.514 206.337 214.388L207.81 212.011L204.93 212.102C204.824 212.11 204.718 212.096 204.617 212.06C204.517 212.025 204.425 211.969 204.348 211.896C204.271 211.823 204.209 211.735 204.168 211.637C204.126 211.539 204.106 211.433 204.107 211.326C204.106 211.225 204.126 211.125 204.164 211.032C204.202 210.938 204.258 210.853 204.329 210.782C204.405 210.702 204.497 210.64 204.6 210.6C204.702 210.56 204.812 210.543 204.922 210.551L207.769 210.658L206.304 208.29C206.225 208.161 206.182 208.012 206.181 207.861C206.184 207.643 206.273 207.436 206.428 207.283C206.581 207.131 206.788 207.045 207.004 207.044C207.144 207.045 207.281 207.086 207.399 207.162C207.517 207.238 207.611 207.345 207.67 207.473L209.069 210.023L210.468 207.489C210.534 207.355 210.634 207.242 210.759 207.16C210.883 207.079 211.028 207.033 211.176 207.027C211.282 207.027 211.386 207.049 211.482 207.091C211.579 207.134 211.665 207.196 211.736 207.275C211.887 207.432 211.97 207.643 211.966 207.861C211.966 208.003 211.929 208.142 211.859 208.265L210.37 210.658L213.258 210.551C213.368 210.543 213.478 210.56 213.58 210.6C213.683 210.64 213.775 210.702 213.851 210.782C213.991 210.928 214.068 211.124 214.065 211.326C214.064 211.531 213.988 211.728 213.851 211.879C213.773 211.956 213.68 212.016 213.578 212.054C213.476 212.093 213.367 212.109 213.258 212.102L210.353 212.011L211.793 214.363C211.874 214.494 211.917 214.646 211.917 214.8C211.914 215.018 211.825 215.226 211.67 215.378C211.52 215.531 211.316 215.62 211.102 215.626C210.962 215.623 210.826 215.58 210.71 215.5C210.595 215.421 210.505 215.31 210.452 215.18L209.069 212.704L207.703 215.18C207.644 215.309 207.55 215.419 207.433 215.497C207.315 215.576 207.178 215.62 207.037 215.626Z" fill="#263238"/>
<g style="mix-blend-mode:multiply">
<path d="M248.555 48.4565H102.876V57.6075H248.555V48.4565Z" fill="#B34F18"/>
</g>
<path d="M191.557 31.5987H159.874C159.302 31.5987 158.754 31.371 158.349 30.9655C157.945 30.5601 157.718 30.0102 157.718 29.4368C157.718 28.8634 157.945 28.3135 158.349 27.9081C158.754 27.5027 159.302 27.2749 159.874 27.2749H191.557C192.129 27.2749 192.678 27.5027 193.082 27.9081C193.486 28.3135 193.713 28.8634 193.713 29.4368C193.713 30.0102 193.486 30.5601 193.082 30.9655C192.678 31.371 192.129 31.5987 191.557 31.5987Z" fill="#B34F18" stroke="#263238" stroke-width="1.28651" stroke-linecap="round" stroke-linejoin="round"/>
<path d="M184.357 297.819C184.358 296.105 183.853 294.429 182.904 293.003C181.955 291.577 180.605 290.465 179.026 289.808C177.447 289.151 175.709 288.979 174.032 289.313C172.355 289.647 170.815 290.472 169.606 291.685C168.397 292.897 167.573 294.441 167.24 296.123C166.907 297.804 167.079 299.547 167.734 301.131C168.389 302.714 169.498 304.067 170.92 305.019C172.342 305.97 174.014 306.477 175.724 306.475C178.013 306.473 180.207 305.56 181.826 303.938C183.444 302.315 184.354 300.114 184.357 297.819Z" fill="#B34F18"/>
<path d="M180.102 293.43H171.346V302.209H180.102V293.43Z" fill="#B34F18" stroke="#263238" stroke-width="1.28651" stroke-linecap="round" stroke-linejoin="round"/>
<path d="M280.024 198.19C280.024 198.19 268.552 168.963 278.765 165.489C289.398 161.866 288.929 181.167 288.517 190.574C287.653 210.674 285.439 214.412 283.785 209.503L280.024 198.19ZM276.576 220.989C279.728 225.115 280.617 220.84 274.93 201.54C272.264 192.463 266.47 174.103 257.582 180.993C249.048 187.595 269.359 211.524 269.359 211.524L276.576 220.989ZM270.486 237.74C273.49 240.413 273.548 237.038 266.413 223.101C263.063 216.574 255.978 203.364 250.176 209.899C244.605 216.203 263.59 231.526 263.59 231.526L270.486 237.74ZM263.903 257.659C266.906 260.341 266.964 256.958 259.829 243.029C256.48 236.502 249.394 223.283 243.592 229.826C238.054 236.147 256.982 251.47 256.982 251.47L263.903 257.659ZM282.913 217.111C278.107 218.992 281.925 221.038 301.997 220.981C311.411 220.981 330.635 220.552 326.537 210.064C322.612 199.989 294.023 212.82 294.023 212.82L282.913 217.111ZM277.44 230.511C272.354 231.394 275.696 234.167 295.38 238.111C304.606 239.968 323.525 243.392 321.591 232.335C319.74 221.674 289.175 228.556 289.175 228.556L277.44 230.511ZM271.317 246.874C266.989 247.501 269.754 249.919 286.303 253.715C294.064 255.497 309.988 258.839 308.605 249.407C307.288 240.331 281.283 245.463 281.283 245.463L271.317 246.874ZM266.668 262.032C262.43 263.113 265.433 265.226 282.304 267.239C290.204 268.18 306.391 269.813 304.03 260.58C301.75 251.718 276.436 259.565 276.436 259.565L266.668 262.032ZM291.471 200.665C289.003 206.21 294.13 205.369 311.56 190.12C319.723 182.966 336.1 167.997 323.13 160.546C310.679 153.384 297.29 187.941 297.29 187.941L291.471 200.665ZM267.31 281.778C264.701 283.305 267.26 283.899 279.226 281.506C284.838 280.392 296.253 277.917 292.393 273.032C288.657 268.328 273.35 278.23 273.35 278.23L267.31 281.778Z" fill="#B34F18"/>
<path opacity="0.3" d="M280.024 198.19C280.024 198.19 268.552 168.963 278.765 165.489C289.398 161.866 288.929 181.167 288.517 190.574C287.653 210.674 285.439 214.412 283.785 209.503L280.024 198.19ZM276.576 220.989C279.728 225.115 280.617 220.84 274.93 201.54C272.264 192.463 266.47 174.103 257.582 180.993C249.048 187.595 269.359 211.524 269.359 211.524L276.576 220.989ZM270.486 237.74C273.49 240.413 273.548 237.038 266.413 223.101C263.063 216.574 255.978 203.364 250.176 209.899C244.605 216.203 263.59 231.526 263.59 231.526L270.486 237.74ZM263.903 257.659C266.906 260.341 266.964 256.958 259.829 243.029C256.48 236.502 249.394 223.283 243.592 229.826C238.054 236.147 256.982 251.47 256.982 251.47L263.903 257.659ZM282.913 217.111C278.107 218.992 281.925 221.038 301.997 220.981C311.411 220.981 330.635 220.552 326.537 210.064C322.612 199.989 294.023 212.82 294.023 212.82L282.913 217.111ZM277.44 230.511C272.354 231.394 275.696 234.167 295.38 238.111C304.606 239.968 323.525 243.392 321.591 232.335C319.74 221.674 289.175 228.556 289.175 228.556L277.44 230.511ZM271.317 246.874C266.989 247.501 269.754 249.919 286.303 253.715C294.064 255.497 309.988 258.839 308.605 249.407C307.288 240.331 281.283 245.463 281.283 245.463L271.317 246.874ZM266.668 262.032C262.43 263.113 265.433 265.226 282.304 267.239C290.204 268.18 306.391 269.813 304.03 260.58C301.75 251.718 276.436 259.565 276.436 259.565L266.668 262.032ZM291.471 200.665C289.003 206.21 294.13 205.369 311.56 190.12C319.723 182.966 336.1 167.997 323.13 160.546C310.679 153.384 297.29 187.941 297.29 187.941L291.471 200.665ZM267.31 281.778C264.701 283.305 267.26 283.899 279.226 281.506C284.838 280.392 296.253 277.917 292.393 273.032C288.657 268.328 273.35 278.23 273.35 278.23L267.31 281.778Z" fill="white"/>
<path d="M285.086 211.797L283.086 178.435L285.086 211.797ZM278.757 222.804L266.117 194.113L278.757 222.804ZM311.379 214.462L281.086 218.819L311.379 214.462ZM272.206 238.268L255.805 217.168L272.206 238.268ZM275.087 231.798L297.685 232.937L275.087 231.798ZM269.738 247.98L287.02 249.696L269.738 247.98ZM265.565 258.261L256.982 245.314L265.565 258.261ZM264.578 262.833L284.896 263.022L264.578 262.833ZM260.463 301.054C260.599 301.043 260.726 300.979 260.815 300.876C260.904 300.772 260.949 300.638 260.94 300.501C259.648 281.044 267.154 249.176 279.193 223.019C286.888 206.301 317.049 173.443 317.37 173.113C317.467 173.016 317.521 172.884 317.521 172.746C317.521 172.608 317.467 172.476 317.37 172.379C317.322 172.331 317.266 172.293 317.204 172.267C317.142 172.241 317.075 172.228 317.008 172.228C316.94 172.228 316.874 172.241 316.812 172.267C316.749 172.293 316.693 172.331 316.646 172.379C316.341 172.709 286.057 205.69 278.296 222.557C266.034 249.349 258.628 280.639 259.945 300.567C259.955 300.698 260.014 300.821 260.11 300.911C260.206 301.001 260.332 301.052 260.463 301.054ZM285.077 212.308C285.213 212.3 285.341 212.238 285.432 212.136C285.522 212.034 285.57 211.9 285.563 211.764L283.596 178.386C283.593 178.318 283.576 178.251 283.547 178.19C283.518 178.128 283.477 178.073 283.426 178.028C283.376 177.983 283.317 177.948 283.253 177.926C283.188 177.904 283.121 177.895 283.053 177.899C282.917 177.908 282.79 177.969 282.699 178.071C282.608 178.173 282.561 178.307 282.567 178.444L284.567 211.805C284.573 211.936 284.63 212.06 284.725 212.151C284.82 212.241 284.946 212.292 285.077 212.292V212.308ZM278.938 223.274C279.061 223.218 279.158 223.116 279.207 222.99C279.256 222.863 279.254 222.723 279.202 222.598L266.553 193.907C266.498 193.782 266.396 193.684 266.27 193.635C266.143 193.585 266.002 193.588 265.878 193.643C265.754 193.698 265.656 193.8 265.607 193.927C265.557 194.054 265.56 194.195 265.615 194.32L278.255 223.01C278.295 223.102 278.36 223.181 278.443 223.237C278.527 223.292 278.624 223.323 278.724 223.324C278.809 223.328 278.894 223.311 278.971 223.274H278.938ZM281.127 219.314L311.403 214.973C311.477 214.972 311.549 214.955 311.615 214.923C311.681 214.892 311.739 214.847 311.787 214.791C311.834 214.736 311.87 214.67 311.89 214.6C311.911 214.53 311.916 214.456 311.906 214.383C311.896 214.31 311.871 214.241 311.833 214.178C311.794 214.116 311.742 214.063 311.682 214.022C311.621 213.981 311.552 213.954 311.48 213.941C311.408 213.929 311.334 213.932 311.264 213.95L280.987 218.29C280.852 218.299 280.726 218.362 280.636 218.464C280.547 218.566 280.501 218.699 280.51 218.835C280.519 218.971 280.581 219.097 280.683 219.187C280.785 219.277 280.918 219.322 281.053 219.314H281.127ZM272.494 238.68C272.602 238.596 272.672 238.472 272.689 238.336C272.706 238.2 272.668 238.063 272.585 237.954L256.175 216.813C256.091 216.704 255.967 216.633 255.831 216.615C255.694 216.597 255.556 216.634 255.447 216.719C255.338 216.803 255.267 216.927 255.249 217.064C255.231 217.201 255.268 217.339 255.352 217.449L271.795 238.622C271.843 238.684 271.904 238.734 271.974 238.768C272.044 238.803 272.12 238.82 272.198 238.82C272.321 238.814 272.438 238.765 272.527 238.68H272.494ZM298.138 232.962C298.142 232.825 298.093 232.693 298 232.592C297.908 232.492 297.78 232.432 297.644 232.425L275.087 231.279C274.96 231.287 274.841 231.342 274.752 231.433C274.663 231.524 274.611 231.645 274.604 231.772C274.598 231.899 274.639 232.025 274.719 232.124C274.799 232.223 274.912 232.289 275.037 232.31L297.636 233.457C297.772 233.461 297.904 233.412 298.004 233.319C298.104 233.227 298.164 233.098 298.17 232.962H298.138ZM287.497 249.746C287.505 249.678 287.499 249.609 287.48 249.543C287.461 249.478 287.429 249.416 287.386 249.363C287.343 249.31 287.29 249.266 287.23 249.234C287.17 249.202 287.104 249.182 287.036 249.176L269.754 247.468C269.687 247.461 269.619 247.468 269.555 247.487C269.49 247.507 269.43 247.539 269.378 247.582C269.326 247.625 269.283 247.678 269.252 247.738C269.22 247.797 269.201 247.863 269.194 247.93C269.183 248.066 269.225 248.2 269.311 248.305C269.397 248.41 269.521 248.477 269.655 248.491L286.937 250.208H286.987C287.119 250.217 287.25 250.174 287.352 250.087C287.453 250.001 287.517 249.878 287.53 249.746H287.497ZM265.812 258.69C265.926 258.615 266.006 258.496 266.034 258.362C266.062 258.227 266.035 258.087 265.96 257.972L257.418 245.026C257.34 244.914 257.222 244.837 257.088 244.811C256.955 244.785 256.816 244.812 256.702 244.885C256.588 244.961 256.508 245.079 256.48 245.214C256.453 245.348 256.479 245.488 256.554 245.603L265.096 258.55C265.145 258.621 265.21 258.679 265.286 258.719C265.362 258.759 265.447 258.78 265.532 258.781C265.644 258.787 265.754 258.755 265.845 258.69H265.812ZM285.415 263.022C285.413 262.887 285.359 262.757 285.264 262.66C285.169 262.563 285.04 262.507 284.905 262.502L264.586 262.313C264.451 262.313 264.321 262.367 264.225 262.463C264.129 262.558 264.076 262.689 264.076 262.824C264.073 262.892 264.085 262.96 264.11 263.024C264.135 263.087 264.172 263.145 264.22 263.194C264.267 263.243 264.324 263.281 264.387 263.307C264.45 263.333 264.518 263.345 264.586 263.344L284.905 263.534C284.974 263.537 285.043 263.527 285.109 263.502C285.174 263.478 285.234 263.441 285.284 263.394C285.335 263.346 285.375 263.288 285.404 263.225C285.432 263.161 285.447 263.092 285.448 263.022H285.415ZM258.151 293.487C258.192 293.396 261.656 283.825 272.075 281.539C272.209 281.509 272.326 281.427 272.4 281.311C272.474 281.195 272.499 281.055 272.47 280.92C272.437 280.788 272.354 280.674 272.239 280.602C272.124 280.53 271.985 280.505 271.853 280.532C260.866 282.942 257.221 293.05 257.179 293.149C257.137 293.279 257.147 293.421 257.207 293.544C257.267 293.667 257.372 293.762 257.5 293.809H257.665C257.774 293.818 257.884 293.792 257.977 293.734C258.071 293.676 258.143 293.59 258.183 293.487H258.151ZM260.463 301.054C260.599 301.043 260.726 300.979 260.815 300.876C260.904 300.772 260.949 300.638 260.94 300.501C259.648 281.044 267.154 249.176 279.193 223.019C286.888 206.301 317.049 173.443 317.37 173.113C317.467 173.016 317.521 172.884 317.521 172.746C317.521 172.608 317.467 172.476 317.37 172.379C317.322 172.331 317.266 172.293 317.204 172.267C317.142 172.241 317.075 172.228 317.008 172.228C316.94 172.228 316.874 172.241 316.812 172.267C316.749 172.293 316.693 172.331 316.646 172.379C316.341 172.709 286.057 205.69 278.296 222.557C266.034 249.349 258.628 280.639 259.945 300.567C259.955 300.698 260.014 300.821 260.11 300.911C260.206 301.001 260.332 301.052 260.463 301.054ZM285.077 212.308C285.213 212.3 285.341 212.238 285.432 212.136C285.522 212.034 285.57 211.9 285.563 211.764L283.596 178.386C283.593 178.318 283.576 178.251 283.547 178.19C283.518 178.128 283.477 178.073 283.426 178.028C283.376 177.983 283.317 177.948 283.253 177.926C283.188 177.904 283.121 177.895 283.053 177.899C282.917 177.908 282.79 177.969 282.699 178.071C282.608 178.173 282.561 178.307 282.567 178.444L284.567 211.805C284.573 211.936 284.63 212.06 284.725 212.151C284.82 212.241 284.946 212.292 285.077 212.292V212.308ZM278.938 223.274C279.061 223.218 279.158 223.116 279.207 222.99C279.256 222.863 279.254 222.723 279.202 222.598L266.553 193.907C266.498 193.782 266.396 193.684 266.27 193.635C266.143 193.585 266.002 193.588 265.878 193.643C265.754 193.698 265.656 193.8 265.607 193.927C265.557 194.054 265.56 194.195 265.615 194.32L278.255 223.01C278.295 223.102 278.36 223.181 278.443 223.237C278.527 223.292 278.624 223.323 278.724 223.324C278.809 223.328 278.894 223.311 278.971 223.274H278.938ZM281.127 219.314L311.403 214.973C311.477 214.972 311.549 214.955 311.615 214.923C311.681 214.892 311.739 214.847 311.787 214.791C311.834 214.736 311.87 214.67 311.89 214.6C311.911 214.53 311.916 214.456 311.906 214.383C311.896 214.31 311.871 214.241 311.833 214.178C311.794 214.116 311.742 214.063 311.682 214.022C311.621 213.981 311.552 213.954 311.48 213.941C311.408 213.929 311.334 213.932 311.264 213.95L280.987 218.29C280.852 218.299 280.726 218.362 280.636 218.464C280.547 218.566 280.501 218.699 280.51 218.835C280.519 218.971 280.581 219.097 280.683 219.187C280.785 219.277 280.918 219.322 281.053 219.314H281.127ZM272.494 238.68C272.602 238.596 272.672 238.472 272.689 238.336C272.706 238.2 272.668 238.063 272.585 237.954L256.175 216.813C256.134 216.759 256.082 216.714 256.023 216.68C255.964 216.646 255.899 216.624 255.831 216.615C255.763 216.606 255.695 216.611 255.629 216.628C255.563 216.646 255.501 216.677 255.447 216.719C255.393 216.76 255.348 216.812 255.314 216.872C255.28 216.931 255.258 216.996 255.249 217.064C255.24 217.132 255.245 217.201 255.263 217.267C255.28 217.333 255.311 217.395 255.352 217.449L271.795 238.622C271.843 238.684 271.904 238.734 271.974 238.768C272.044 238.803 272.12 238.82 272.198 238.82C272.321 238.814 272.438 238.765 272.527 238.68H272.494ZM298.138 232.962C298.142 232.825 298.093 232.693 298 232.592C297.908 232.492 297.78 232.432 297.644 232.425L275.087 231.279C274.96 231.287 274.841 231.342 274.752 231.433C274.663 231.524 274.611 231.645 274.604 231.772C274.598 231.899 274.639 232.025 274.719 232.124C274.799 232.223 274.912 232.289 275.037 232.31L297.636 233.457C297.772 233.461 297.904 233.412 298.004 233.319C298.104 233.227 298.164 233.098 298.17 232.962H298.138ZM287.497 249.746C287.505 249.678 287.499 249.609 287.48 249.543C287.461 249.478 287.429 249.416 287.386 249.363C287.343 249.31 287.29 249.266 287.23 249.234C287.17 249.202 287.104 249.182 287.036 249.176L269.754 247.468C269.687 247.461 269.619 247.468 269.555 247.487C269.49 247.507 269.43 247.539 269.378 247.582C269.326 247.625 269.283 247.678 269.252 247.738C269.22 247.797 269.201 247.863 269.194 247.93C269.183 248.066 269.225 248.2 269.311 248.305C269.397 248.41 269.521 248.477 269.655 248.491L286.937 250.208H286.987C287.119 250.217 287.25 250.174 287.352 250.087C287.453 250.001 287.517 249.878 287.53 249.746H287.497ZM265.812 258.69C265.926 258.615 266.006 258.496 266.034 258.362C266.062 258.227 266.035 258.087 265.96 257.972L257.418 245.026C257.34 244.914 257.222 244.837 257.088 244.811C256.955 244.785 256.816 244.812 256.702 244.885C256.588 244.961 256.508 245.079 256.48 245.214C256.453 245.348 256.479 245.488 256.554 245.603L265.096 258.55C265.145 258.621 265.21 258.679 265.286 258.719C265.362 258.759 265.447 258.78 265.532 258.781C265.644 258.787 265.754 258.755 265.845 258.69H265.812ZM285.415 263.022C285.413 262.887 285.359 262.757 285.264 262.66C285.169 262.563 285.04 262.507 284.905 262.502L264.586 262.313C264.451 262.313 264.321 262.367 264.225 262.463C264.129 262.558 264.076 262.689 264.076 262.824C264.073 262.892 264.085 262.96 264.11 263.024C264.135 263.087 264.172 263.145 264.22 263.194C264.267 263.243 264.324 263.281 264.387 263.307C264.45 263.333 264.518 263.345 264.586 263.344L284.905 263.534C284.974 263.537 285.043 263.527 285.109 263.502C285.174 263.478 285.234 263.441 285.284 263.394C285.335 263.346 285.375 263.288 285.404 263.225C285.432 263.161 285.447 263.092 285.448 263.022H285.415ZM258.151 293.487C258.192 293.396 261.656 283.825 272.075 281.539C272.209 281.509 272.326 281.427 272.4 281.311C272.474 281.195 272.499 281.055 272.47 280.92C272.437 280.788 272.354 280.674 272.239 280.602C272.124 280.53 271.985 280.505 271.853 280.532C260.866 282.942 257.221 293.05 257.179 293.149C257.137 293.279 257.147 293.421 257.207 293.544C257.267 293.667 257.372 293.762 257.5 293.809H257.665C257.774 293.818 257.884 293.792 257.977 293.734C258.071 293.676 258.143 293.59 258.183 293.487H258.151Z" fill="#B34F18"/>
<path opacity="0.2" d="M285.086 211.797L283.086 178.435L285.086 211.797ZM278.757 222.804L266.117 194.113L278.757 222.804ZM311.379 214.462L281.086 218.819L311.379 214.462ZM272.206 238.268L255.805 217.168L272.206 238.268ZM275.087 231.798L297.685 232.937L275.087 231.798ZM269.738 247.98L287.02 249.696L269.738 247.98ZM265.565 258.261L256.982 245.314L265.565 258.261ZM264.578 262.833L284.896 263.022L264.578 262.833ZM260.463 301.054C260.599 301.043 260.726 300.979 260.815 300.876C260.904 300.772 260.949 300.638 260.94 300.501C259.648 281.044 267.154 249.176 279.193 223.019C286.888 206.301 317.049 173.443 317.37 173.113C317.467 173.016 317.521 172.884 317.521 172.746C317.521 172.608 317.467 172.476 317.37 172.379C317.322 172.331 317.266 172.293 317.204 172.267C317.142 172.241 317.075 172.228 317.008 172.228C316.94 172.228 316.874 172.241 316.812 172.267C316.749 172.293 316.693 172.331 316.646 172.379C316.341 172.709 286.057 205.69 278.296 222.557C266.034 249.349 258.628 280.639 259.945 300.567C259.955 300.698 260.014 300.821 260.11 300.911C260.206 301.001 260.332 301.052 260.463 301.054ZM285.077 212.308C285.213 212.3 285.341 212.238 285.432 212.136C285.522 212.034 285.57 211.9 285.563 211.764L283.596 178.386C283.593 178.318 283.576 178.251 283.547 178.19C283.518 178.128 283.477 178.073 283.426 178.028C283.376 177.983 283.317 177.948 283.253 177.926C283.188 177.904 283.121 177.895 283.053 177.899C282.917 177.908 282.79 177.969 282.699 178.071C282.608 178.173 282.561 178.307 282.567 178.444L284.567 211.805C284.573 211.936 284.63 212.06 284.725 212.151C284.82 212.241 284.946 212.292 285.077 212.292V212.308ZM278.938 223.274C279.061 223.218 279.158 223.116 279.207 222.99C279.256 222.863 279.254 222.723 279.202 222.598L266.553 193.907C266.498 193.782 266.396 193.684 266.27 193.635C266.143 193.585 266.002 193.588 265.878 193.643C265.754 193.698 265.656 193.8 265.607 193.927C265.557 194.054 265.56 194.195 265.615 194.32L278.255 223.01C278.295 223.102 278.36 223.181 278.443 223.237C278.527 223.292 278.624 223.323 278.724 223.324C278.809 223.328 278.894 223.311 278.971 223.274H278.938ZM281.127 219.314L311.403 214.973C311.477 214.972 311.549 214.955 311.615 214.923C311.681 214.892 311.739 214.847 311.787 214.791C311.834 214.736 311.87 214.67 311.89 214.6C311.911 214.53 311.916 214.456 311.906 214.383C311.896 214.31 311.871 214.241 311.833 214.178C311.794 214.116 311.742 214.063 311.682 214.022C311.621 213.981 311.552 213.954 311.48 213.941C311.408 213.929 311.334 213.932 311.264 213.95L280.987 218.29C280.852 218.299 280.726 218.362 280.636 218.464C280.547 218.566 280.501 218.699 280.51 218.835C280.519 218.971 280.581 219.097 280.683 219.187C280.785 219.277 280.918 219.322 281.053 219.314H281.127ZM272.494 238.68C272.602 238.596 272.672 238.472 272.689 238.336C272.706 238.2 272.668 238.063 272.585 237.954L256.175 216.813C256.091 216.704 255.967 216.633 255.831 216.615C255.694 216.597 255.556 216.634 255.447 216.719C255.338 216.803 255.267 216.927 255.249 217.064C255.231 217.201 255.268 217.339 255.352 217.449L271.795 238.622C271.843 238.684 271.904 238.734 271.974 238.768C272.044 238.803 272.12 238.82 272.198 238.82C272.321 238.814 272.438 238.765 272.527 238.68H272.494ZM298.138 232.962C298.142 232.825 298.093 232.693 298 232.592C297.908 232.492 297.78 232.432 297.644 232.425L275.087 231.279C274.96 231.287 274.841 231.342 274.752 231.433C274.663 231.524 274.611 231.645 274.604 231.772C274.598 231.899 274.639 232.025 274.719 232.124C274.799 232.223 274.912 232.289 275.037 232.31L297.636 233.457C297.772 233.461 297.904 233.412 298.004 233.319C298.104 233.227 298.164 233.098 298.17 232.962H298.138ZM287.497 249.746C287.505 249.678 287.499 249.609 287.48 249.543C287.461 249.478 287.429 249.416 287.386 249.363C287.343 249.31 287.29 249.266 287.23 249.234C287.17 249.202 287.104 249.182 287.036 249.176L269.754 247.468C269.687 247.461 269.619 247.468 269.555 247.487C269.49 247.507 269.43 247.539 269.378 247.582C269.326 247.625 269.283 247.678 269.252 247.738C269.22 247.797 269.201 247.863 269.194 247.93C269.183 248.066 269.225 248.2 269.311 248.305C269.397 248.41 269.521 248.477 269.655 248.491L286.937 250.208H286.987C287.119 250.217 287.25 250.174 287.352 250.087C287.453 250.001 287.517 249.878 287.53 249.746H287.497ZM265.812 258.69C265.926 258.615 266.006 258.496 266.034 258.362C266.062 258.227 266.035 258.087 265.96 257.972L257.418 245.026C257.34 244.914 257.222 244.837 257.088 244.811C256.955 244.785 256.816 244.812 256.702 244.885C256.588 244.961 256.508 245.079 256.48 245.214C256.453 245.348 256.479 245.488 256.554 245.603L265.096 258.55C265.145 258.621 265.21 258.679 265.286 258.719C265.362 258.759 265.447 258.78 265.532 258.781C265.644 258.787 265.754 258.755 265.845 258.69H265.812ZM285.415 263.022C285.413 262.887 285.359 262.757 285.264 262.66C285.169 262.563 285.04 262.507 284.905 262.502L264.586 262.313C264.451 262.313 264.321 262.367 264.225 262.463C264.129 262.558 264.076 262.689 264.076 262.824C264.073 262.892 264.085 262.96 264.11 263.024C264.135 263.087 264.172 263.145 264.22 263.194C264.267 263.243 264.324 263.281 264.387 263.307C264.45 263.333 264.518 263.345 264.586 263.344L284.905 263.534C284.974 263.537 285.043 263.527 285.109 263.502C285.174 263.478 285.234 263.441 285.284 263.394C285.335 263.346 285.375 263.288 285.404 263.225C285.432 263.161 285.447 263.092 285.448 263.022H285.415ZM258.151 293.487C258.192 293.396 261.656 283.825 272.075 281.539C272.209 281.509 272.326 281.427 272.4 281.311C272.474 281.195 272.499 281.055 272.47 280.92C272.437 280.788 272.354 280.674 272.239 280.602C272.124 280.53 271.985 280.505 271.853 280.532C260.866 282.942 257.221 293.05 257.179 293.149C257.137 293.279 257.147 293.421 257.207 293.544C257.267 293.667 257.372 293.762 257.5 293.809H257.665C257.774 293.818 257.884 293.792 257.977 293.734C258.071 293.676 258.143 293.59 258.183 293.487H258.151ZM260.463 301.054C260.599 301.043 260.726 300.979 260.815 300.876C260.904 300.772 260.949 300.638 260.94 300.501C259.648 281.044 267.154 249.176 279.193 223.019C286.888 206.301 317.049 173.443 317.37 173.113C317.467 173.016 317.521 172.884 317.521 172.746C317.521 172.608 317.467 172.476 317.37 172.379C317.322 172.331 317.266 172.293 317.204 172.267C317.142 172.241 317.075 172.228 317.008 172.228C316.94 172.228 316.874 172.241 316.812 172.267C316.749 172.293 316.693 172.331 316.646 172.379C316.341 172.709 286.057 205.69 278.296 222.557C266.034 249.349 258.628 280.639 259.945 300.567C259.955 300.698 260.014 300.821 260.11 300.911C260.206 301.001 260.332 301.052 260.463 301.054ZM285.077 212.308C285.213 212.3 285.341 212.238 285.432 212.136C285.522 212.034 285.57 211.9 285.563 211.764L283.596 178.386C283.593 178.318 283.576 178.251 283.547 178.19C283.518 178.128 283.477 178.073 283.426 178.028C283.376 177.983 283.317 177.948 283.253 177.926C283.188 177.904 283.121 177.895 283.053 177.899C282.917 177.908 282.79 177.969 282.699 178.071C282.608 178.173 282.561 178.307 282.567 178.444L284.567 211.805C284.573 211.936 284.63 212.06 284.725 212.151C284.82 212.241 284.946 212.292 285.077 212.292V212.308ZM278.938 223.274C279.061 223.218 279.158 223.116 279.207 222.99C279.256 222.863 279.254 222.723 279.202 222.598L266.553 193.907C266.498 193.782 266.396 193.684 266.27 193.635C266.143 193.585 266.002 193.588 265.878 193.643C265.754 193.698 265.656 193.8 265.607 193.927C265.557 194.054 265.56 194.195 265.615 194.32L278.255 223.01C278.295 223.102 278.36 223.181 278.443 223.237C278.527 223.292 278.624 223.323 278.724 223.324C278.809 223.328 278.894 223.311 278.971 223.274H278.938ZM281.127 219.314L311.403 214.973C311.477 214.972 311.549 214.955 311.615 214.923C311.681 214.892 311.739 214.847 311.787 214.791C311.834 214.736 311.87 214.67 311.89 214.6C311.911 214.53 311.916 214.456 311.906 214.383C311.896 214.31 311.871 214.241 311.833 214.178C311.794 214.116 311.742 214.063 311.682 214.022C311.621 213.981 311.552 213.954 311.48 213.941C311.408 213.929 311.334 213.932 311.264 213.95L280.987 218.29C280.852 218.299 280.726 218.362 280.636 218.464C280.547 218.566 280.501 218.699 280.51 218.835C280.519 218.971 280.581 219.097 280.683 219.187C280.785 219.277 280.918 219.322 281.053 219.314H281.127ZM272.494 238.68C272.602 238.596 272.672 238.472 272.689 238.336C272.706 238.2 272.668 238.063 272.585 237.954L256.175 216.813C256.134 216.759 256.082 216.714 256.023 216.68C255.964 216.646 255.899 216.624 255.831 216.615C255.763 216.606 255.695 216.611 255.629 216.628C255.563 216.646 255.501 216.677 255.447 216.719C255.393 216.76 255.348 216.812 255.314 216.872C255.28 216.931 255.258 216.996 255.249 217.064C255.24 217.132 255.245 217.201 255.263 217.267C255.28 217.333 255.311 217.395 255.352 217.449L271.795 238.622C271.843 238.684 271.904 238.734 271.974 238.768C272.044 238.803 272.12 238.82 272.198 238.82C272.321 238.814 272.438 238.765 272.527 238.68H272.494ZM298.138 232.962C298.142 232.825 298.093 232.693 298 232.592C297.908 232.492 297.78 232.432 297.644 232.425L275.087 231.279C274.96 231.287 274.841 231.342 274.752 231.433C274.663 231.524 274.611 231.645 274.604 231.772C274.598 231.899 274.639 232.025 274.719 232.124C274.799 232.223 274.912 232.289 275.037 232.31L297.636 233.457C297.772 233.461 297.904 233.412 298.004 233.319C298.104 233.227 298.164 233.098 298.17 232.962H298.138ZM287.497 249.746C287.505 249.678 287.499 249.609 287.48 249.543C287.461 249.478 287.429 249.416 287.386 249.363C287.343 249.31 287.29 249.266 287.23 249.234C287.17 249.202 287.104 249.182 287.036 249.176L269.754 247.468C269.687 247.461 269.619 247.468 269.555 247.487C269.49 247.507 269.43 247.539 269.378 247.582C269.326 247.625 269.283 247.678 269.252 247.738C269.22 247.797 269.201 247.863 269.194 247.93C269.183 248.066 269.225 248.2 269.311 248.305C269.397 248.41 269.521 248.477 269.655 248.491L286.937 250.208H286.987C287.119 250.217 287.25 250.174 287.352 250.087C287.453 250.001 287.517 249.878 287.53 249.746H287.497ZM265.812 258.69C265.926 258.615 266.006 258.496 266.034 258.362C266.062 258.227 266.035 258.087 265.96 257.972L257.418 245.026C257.34 244.914 257.222 244.837 257.088 244.811C256.955 244.785 256.816 244.812 256.702 244.885C256.588 244.961 256.508 245.079 256.48 245.214C256.453 245.348 256.479 245.488 256.554 245.603L265.096 258.55C265.145 258.621 265.21 258.679 265.286 258.719C265.362 258.759 265.447 258.78 265.532 258.781C265.644 258.787 265.754 258.755 265.845 258.69H265.812ZM285.415 263.022C285.413 262.887 285.359 262.757 285.264 262.66C285.169 262.563 285.04 262.507 284.905 262.502L264.586 262.313C264.451 262.313 264.321 262.367 264.225 262.463C264.129 262.558 264.076 262.689 264.076 262.824C264.073 262.892 264.085 262.96 264.11 263.024C264.135 263.087 264.172 263.145 264.22 263.194C264.267 263.243 264.324 263.281 264.387 263.307C264.45 263.333 264.518 263.345 264.586 263.344L284.905 263.534C284.974 263.537 285.043 263.527 285.109 263.502C285.174 263.478 285.234 263.441 285.284 263.394C285.335 263.346 285.375 263.288 285.404 263.225C285.432 263.161 285.447 263.092 285.448 263.022H285.415ZM258.151 293.487C258.192 293.396 261.656 283.825 272.075 281.539C272.209 281.509 272.326 281.427 272.4 281.311C272.474 281.195 272.499 281.055 272.47 280.92C272.437 280.788 272.354 280.674 272.239 280.602C272.124 280.53 271.985 280.505 271.853 280.532C260.866 282.942 257.221 293.05 257.179 293.149C257.137 293.279 257.147 293.421 257.207 293.544C257.267 293.667 257.372 293.762 257.5 293.809H257.665C257.774 293.818 257.884 293.792 257.977 293.734C258.071 293.676 258.143 293.59 258.183 293.487H258.151Z" fill="black"/>
<path d="M273.902 286.506H250.604V291.342H252.637L256.842 317.722H267.664L271.869 291.342H273.902V286.506Z" fill="#B34F18"/>
<path opacity="0.3" d="M273.902 286.506H250.604V291.342H252.637L256.842 317.722H267.664L271.869 291.342H273.902V286.506Z" fill="white"/>
<path d="M64.1486 140.289L37.0489 131.418L34.6377 125.031L29.1322 124.858L19.1416 122.96L20.3431 125.031L32.9177 134.182L36.0203 135.734L64.3626 150.578L64.1486 140.289Z" fill="white" stroke="#263238" stroke-width="0.965766" stroke-miterlimit="10"/>
<path d="M34.6375 125.031L32.0534 123.48L26.8936 125.378L27.7494 126.409L34.6375 125.031Z" fill="white" stroke="#263238" stroke-width="0.965766" stroke-linejoin="round"/>
<path d="M64.1486 140.289L37.0489 131.418L34.6377 125.031L29.1322 124.858L19.1416 122.96L20.3431 125.031L32.9177 134.182L36.0203 135.734L64.3626 150.578L64.1486 140.289Z" fill="white"/>
<mask id="mask0_868_10794" style="mask-type:luminance" maskUnits="userSpaceOnUse" x="19" y="122" width="46" height="29">
<path d="M64.1486 140.289L37.0489 131.418L34.6377 125.031L29.1322 124.858L19.1416 122.96L20.3431 125.031L32.9177 134.182L36.0203 135.734L64.3626 150.578L64.1486 140.289Z" fill="white"/>
</mask>
<g mask="url(#mask0_868_10794)">
<path opacity="0.5" d="M64.1486 140.289L37.0489 131.418L34.6377 125.031L29.1322 124.858L19.1416 122.96L20.3431 125.031L32.9177 134.182L36.0203 135.734L64.3626 150.578L64.1486 140.289Z" fill="#B34F18" stroke="#263238" stroke-width="0.965766" stroke-miterlimit="10"/>
</g>
<path d="M64.1486 140.289L37.0489 131.418L34.6377 125.031L29.1322 124.858L19.1416 122.96L20.3431 125.031L32.9177 134.182L36.0203 135.734L64.3626 150.578L64.1486 140.289Z" stroke="#263238" stroke-width="0.965766" stroke-miterlimit="10"/>
<path d="M34.6375 125.031L32.0534 123.48L26.8936 125.378L27.7494 126.409L34.6375 125.031Z" fill="white"/>
<mask id="mask1_868_10794" style="mask-type:luminance" maskUnits="userSpaceOnUse" x="26" y="123" width="9" height="4">
<path d="M34.6375 125.031L32.0534 123.48L26.8936 125.378L27.7494 126.409L34.6375 125.031Z" fill="white"/>
</mask>
<g mask="url(#mask1_868_10794)">
<path opacity="0.5" d="M34.6375 125.031L32.0534 123.48L26.8936 125.378L27.7494 126.409L34.6375 125.031Z" fill="#B34F18" stroke="#263238" stroke-width="0.965766" stroke-linejoin="round"/>
</g>
<path d="M34.6375 125.031L32.0534 123.48L26.8936 125.378L27.7494 126.409L34.6375 125.031Z" stroke="#263238" stroke-width="0.965766" stroke-linejoin="round"/>
<path d="M69.901 82.7171C69.901 82.7171 69.4813 86.4303 70.5264 88.815C71.5715 91.1997 77.3733 99.278 77.3733 99.278L66.5433 107.983C66.5433 107.983 62.05 98.9067 61.1942 97.4379C60.3383 95.9691 59.3096 89.6484 62.0994 85.1183C64.8892 80.5882 68.9052 79.3669 69.901 82.7171Z" fill="white"/>
<mask id="mask2_868_10794" style="mask-type:luminance" maskUnits="userSpaceOnUse" x="60" y="80" width="18" height="28">
<path d="M69.901 82.7171C69.901 82.7171 69.4813 86.4303 70.5264 88.815C71.5715 91.1997 77.3733 99.278 77.3733 99.278L66.5433 107.983C66.5433 107.983 62.05 98.9067 61.1942 97.4379C60.3383 95.9691 59.3096 89.6484 62.0994 85.1183C64.8892 80.5882 68.9052 79.3669 69.901 82.7171Z" fill="white"/>
</mask>
<g mask="url(#mask2_868_10794)">
<g style="mix-blend-mode:multiply" opacity="0.5">
<path d="M64.338 94.6489L69.037 104.419L66.5352 107.992L61.8115 99.5339L64.338 94.6489Z" fill="#B34F18"/>
</g>
</g>
<path d="M69.901 82.7171C69.901 82.7171 69.4813 86.4303 70.5264 88.815C71.5715 91.1997 77.3733 99.278 77.3733 99.278L66.5433 107.983C66.5433 107.983 62.05 98.9067 61.1942 97.4379C60.3383 95.9691 59.3096 89.6484 62.0994 85.1183C64.8892 80.5882 68.9052 79.3669 69.901 82.7171Z" stroke="#263238" stroke-width="0.965766" stroke-miterlimit="10"/>
<path d="M73.2584 75.9177C72.5918 71.7919 67.8763 63.4001 60.3957 63.7219C55.5403 63.9364 53.269 64.9184 51.1623 66.1148C49.445 67.1293 47.8443 68.3303 46.3892 69.696C42.7353 74.0941 41.4515 75.2989 42.1592 78.6655C42.1012 80.0083 42.311 81.3493 42.7764 82.6098C43.8956 85.6051 44.661 87.5607 45.6321 88.9882C45.3358 90.3828 44.5622 94.063 44.5211 94.9046C44.4799 95.7463 46.9899 95.1604 48.2573 94.8386C50.6109 100.12 54.9231 103.783 56.2645 104.204C58.6017 104.939 62.2967 101.085 64.2554 98.098C66.214 95.1109 64.7327 91.7525 64.7409 90.4158C64.7491 89.079 69.1437 86.1414 70.7731 85.209C72.4025 84.2766 73.9168 80.0353 73.2584 75.9177Z" fill="white"/>
<mask id="mask3_868_10794" style="mask-type:luminance" maskUnits="userSpaceOnUse" x="41" y="63" width="33" height="42">
<path d="M73.2584 75.9177C72.5918 71.7919 67.8763 63.4001 60.3957 63.7219C55.5403 63.9364 53.269 64.9184 51.1623 66.1148C49.445 67.1293 47.8443 68.3303 46.3892 69.696C42.7353 74.0941 41.4515 75.2989 42.1592 78.6655C42.1012 80.0083 42.311 81.3493 42.7764 82.6098C43.8956 85.6051 44.661 87.5607 45.6321 88.9882C45.3358 90.3828 44.5622 94.063 44.5211 94.9046C44.4799 95.7463 46.9899 95.1604 48.2573 94.8386C50.6109 100.12 54.9231 103.783 56.2645 104.204C58.6017 104.939 62.2967 101.085 64.2554 98.098C66.214 95.1109 64.7327 91.7525 64.7409 90.4158C64.7491 89.079 69.1437 86.1414 70.7731 85.209C72.4025 84.2766 73.9168 80.0353 73.2584 75.9177Z" fill="white"/>
</mask>
<g mask="url(#mask3_868_10794)">
<g style="mix-blend-mode:multiply" opacity="0.5">
<path d="M42.192 78.6655C42.134 80.0083 42.3438 81.3492 42.8092 82.6097C43.9285 85.605 44.6938 87.5607 45.6649 88.9882C45.3686 90.3827 44.595 94.0629 44.5539 94.9046C44.5128 95.7462 47.0227 95.1604 48.2901 94.8386C50.6437 100.12 54.956 103.783 56.2974 104.204C58.6345 104.939 62.3296 101.085 64.2882 98.0979C64.7775 97.3522 65.0952 96.5066 65.2181 95.6225C65.1111 95.2346 65.0371 94.9954 65.0371 94.9954C65.0371 94.9954 63.9343 99.2449 61.7453 98.6921C59.5562 98.1392 56.2068 93.7411 54.3387 92.2228C52.4707 90.7045 53.236 88.7076 52.8657 86.4467C52.4953 84.1858 46.9651 82.1971 46.5948 80.9017C46.2245 79.6062 47.5165 74.2426 47.5165 74.2426C47.5165 74.2426 49.615 71.4371 49.1624 72.5923C48.8425 73.594 48.7265 74.6499 48.8212 75.6973C48.9159 76.7448 49.2194 77.7626 49.7138 78.6902C50.0607 79.4222 50.611 80.0382 51.2986 80.4641C51.9862 80.8901 52.7818 81.1079 53.5899 81.0914L55.5979 71.1153L51.3597 67.6001L46.422 69.663C42.7352 74.0941 41.4761 75.2988 42.192 78.6655Z" fill="#B34F18"/>
</g>
</g>
<path d="M73.2584 75.9177C72.5918 71.7919 67.8763 63.4001 60.3957 63.7219C55.5403 63.9364 53.269 64.9184 51.1623 66.1148C49.445 67.1293 47.8443 68.3303 46.3892 69.696C42.7353 74.0941 41.4515 75.2989 42.1592 78.6655C42.1012 80.0083 42.311 81.3493 42.7764 82.6098C43.8956 85.6051 44.661 87.5607 45.6321 88.9882C45.3358 90.3828 44.5622 94.063 44.5211 94.9046C44.4799 95.7463 46.9899 95.1604 48.2573 94.8386C50.6109 100.12 54.9231 103.783 56.2645 104.204C58.6017 104.939 62.2967 101.085 64.2554 98.098C66.214 95.1109 64.7327 91.7525 64.7409 90.4158C64.7491 89.079 69.1437 86.1414 70.7731 85.209C72.4025 84.2766 73.9168 80.0353 73.2584 75.9177Z" stroke="#263238" stroke-width="0.961957" stroke-miterlimit="10"/>
<path d="M46.6528 86.4963L47.4758 88.8563C47.4758 88.8563 49.2451 89.4422 51.4012 87.0822" stroke="#263238" stroke-width="0.961957" stroke-miterlimit="10" stroke-linecap="round"/>
<path d="M52.7344 97.5205C52.7344 97.5205 54.693 97.3224 55.483 94.5664" stroke="#263238" stroke-width="0.961957" stroke-miterlimit="10" stroke-linecap="round"/>
<path d="M45.2783 84.5243C45.2783 84.5243 45.8626 82.7502 49.3931 82.7502" stroke="#263238" stroke-width="0.961957" stroke-miterlimit="10" stroke-linecap="round"/>
<path d="M63.3747 60.4378C60.8094 60.0679 58.2223 59.8695 55.6308 59.8437C55.6308 59.8437 47.8786 55.3631 40.4309 60.1408C32.9832 64.9184 36.5631 73.2855 36.5631 75.3732C36.5631 77.4608 34.1765 77.4691 35.666 80.1591C37.1556 82.8491 42.192 81.3638 42.192 81.3638C42.2452 80.3492 42.5126 79.3575 42.9765 78.4543C43.4404 77.551 44.0903 76.7568 44.8831 76.1241C47.5659 74.0364 49.7055 73.5826 50.5943 74.185C50.5943 74.185 50.0018 78.6656 50.8906 80.4562C50.8906 80.4562 53.8696 81.9497 54.7667 81.9497C55.6637 81.9497 54.1824 83.2122 57.1532 84.3344C57.6944 84.5293 58.2734 84.5957 58.8446 84.5284C59.4157 84.4611 59.9635 84.262 60.445 83.9466C60.8812 82.1312 61.8358 79.4 63.6133 80.0353C66.2221 80.9678 68.6004 87.404 65.07 89.5989C69.3164 90.3745 74.4598 82.8409 74.7643 75.9755C75.0688 69.1102 67.7857 61.2135 63.3747 60.4378Z" fill="#263238"/>
<path d="M50.7261 71.2393C50.7261 71.2393 52.9151 70.0593 55.5979 72.5843C58.2807 75.1093 63.4982 78.4842 70.411 76.6275" stroke="white" stroke-width="0.480978" stroke-linecap="round" stroke-linejoin="round"/>
<path d="M50.4219 69.2176C50.4219 69.2176 51.9279 66.8577 54.4461 66.8577C56.9643 66.8577 62.8484 70.3976 67.5474 70.3976" stroke="white" stroke-width="0.480978" stroke-linecap="round" stroke-linejoin="round"/>
<path d="M48.7101 73.7642C48.7101 73.7642 45.8545 70.2325 43.1717 73.0958C40.4889 75.9591 42.1924 78.6656 42.1924 78.6656" stroke="white" stroke-width="0.480978" stroke-linecap="round" stroke-linejoin="round"/>
<path d="M37.2959 76.1241C38.9323 74.6444 39.9496 72.5985 40.1433 70.3975C40.4807 66.6926 45.5254 63.4909 48.7102 66.5275" stroke="white" stroke-width="0.480978" stroke-linecap="round" stroke-linejoin="round"/>
<path d="M42.4966 62.6493C42.4966 62.6493 47.5412 57.7644 51.7383 63.9943" stroke="white" stroke-width="0.480978" stroke-linecap="round" stroke-linejoin="round"/>
<path d="M83.5535 302.828C83.5535 302.828 86.656 307.664 86.3104 310.774L85.973 313.885C85.973 313.885 74.5916 317.013 72.1804 317.013C69.7692 317.013 57.0053 315.8 57.0053 315.8L56.4539 313.605C56.4153 313.443 56.4335 313.272 56.5054 313.122C56.5773 312.972 56.6986 312.851 56.8489 312.78L68.2303 307.457L71.8183 303.521L83.5535 302.828Z" fill="white" stroke="#263238" stroke-width="0.965766" stroke-miterlimit="10"/>
<path d="M73.9087 314.578C76.9948 314.817 82.8541 312.928 86.2529 311.723L86.0143 313.885C86.0143 313.885 74.5918 317.012 72.1805 317.012C69.7693 317.012 57.0054 315.799 57.0054 315.799L56.6104 314.232C58.6513 314.24 69.8269 314.265 73.9087 314.578Z" fill="#B34F18" stroke="#263238" stroke-width="0.965766" stroke-miterlimit="10"/>
<path d="M68.2468 307.457L51.6809 314.686C51.6809 314.686 50.2654 318.242 51.6809 318.952C53.0963 319.661 83.9569 318.952 83.9569 318.952C83.9569 318.952 86.0883 313.332 82.7224 309.561C79.3566 305.79 68.2468 307.457 68.2468 307.457Z" fill="white" stroke="#263238" stroke-width="0.965766" stroke-miterlimit="10"/>
<path d="M83.9567 318.952C83.9567 318.952 53.0961 319.661 51.6807 318.952C50.9976 318.605 50.9729 317.607 51.1293 316.658H84.4998C84.3908 317.438 84.2089 318.206 83.9567 318.952Z" fill="#B34F18" stroke="#263238" stroke-width="0.965766" stroke-miterlimit="10"/>
<path d="M60.4123 181.86C60.4123 181.86 56.0836 201.094 54.446 213.125C52.8083 225.156 51.8455 249.259 52.1911 252.023C52.5367 254.787 69.7693 301.104 69.7693 301.104L71.4892 305.229L83.5536 302.812C83.5536 302.812 78.0399 285.186 75.9743 275.507C73.9087 265.828 69.3907 249.927 69.3907 247.163C69.3907 244.399 80.089 191.605 80.8544 188.139C81.6197 184.674 85.0925 179.351 85.0925 179.351L61.9924 178.881L60.4123 181.86Z" fill="#B34F18" stroke="#263238" stroke-width="0.965766" stroke-miterlimit="10"/>
<path d="M60.4122 181.86C60.4122 181.86 57.8775 199.427 58.9226 211.64C59.9678 223.852 62.2144 249.853 62.2144 253.723C62.2144 257.593 68.4441 280.706 68.798 287.967C69.3494 298.455 68.5758 303.645 68.5758 303.645L68.2055 307.449C68.2055 307.449 75.4721 308.489 77.0604 308.942C78.8948 309.416 80.788 309.622 82.6811 309.553C82.6811 309.553 85.3228 297.894 85.3228 287.959C85.3228 278.024 83.1255 257.576 82.031 249.292C80.9365 241.007 84.3846 209.049 86.3432 203.083C88.3018 197.117 92.5812 184.484 89.7009 178.031C86.8205 171.578 60.4122 181.86 60.4122 181.86Z" fill="#B34F18" stroke="#263238" stroke-width="0.965766" stroke-miterlimit="10"/>
<path d="M92.9022 174.797L92.6389 182.652C92.6389 182.652 87.9481 183.585 81.6278 184.682C76.4104 185.59 63.309 184.443 58.898 184.014C58.4961 183.978 58.1244 183.785 57.864 183.475C57.6035 183.166 57.4753 182.767 57.5072 182.363L57.9352 175.267L92.9022 174.797Z" fill="#263238"/>
<path d="M74.5672 96.489C74.5672 96.489 67.1607 104.518 64.3709 109.51C61.5811 114.502 60.4784 122.151 59.4332 128.175C58.3881 134.199 61.219 148.342 60.4208 154.836L57.8943 175.292C57.8943 175.292 57.3512 176.678 59.1699 178.196C60.9886 179.714 69.8682 180.267 77.8919 180.672C80.8216 180.82 89.5695 178.931 91.0015 178.84C92.7297 178.733 92.7873 176.529 92.8613 174.797C93.207 166.652 94.6718 144.942 95.6347 135.486C97.618 116.202 86.7633 97.5865 74.5672 96.489Z" fill="white" stroke="#263238" stroke-width="0.965766" stroke-miterlimit="10"/>
<g style="mix-blend-mode:multiply">
<path d="M94.7294 146.452C95.0585 142.17 95.3877 138.283 95.6758 135.486C95.7581 134.661 95.8074 133.836 95.8486 133.011L76.1719 136.311L59.2686 130.535C59.2704 134.042 59.4682 137.546 59.8611 141.031L76.4435 145.685L94.7294 146.452Z" fill="#B34F18"/>
</g>
<g style="mix-blend-mode:multiply">
<path d="M73.8346 97.2976C72.7153 98.5436 70.4934 101.077 68.3784 103.767L80.8708 116.499L84.9855 114.849L73.8346 97.2976Z" fill="#B34F18"/>
</g>
<path d="M74.5672 96.489C74.5672 96.489 67.1606 104.518 64.3709 109.51C63.5436 111.027 62.8735 112.625 62.3711 114.279L77.2664 97.0254C76.3864 96.7581 75.4823 96.5784 74.5672 96.489Z" fill="#263238"/>
<g style="mix-blend-mode:multiply">
<path d="M60.0093 124.924L76.172 130.254L95.7993 127.994C95.4916 123.091 94.4054 118.269 92.5815 113.71L76.7563 120.072L62.6098 113.644C61.453 117.331 60.5836 121.102 60.0093 124.924Z" fill="#B34F18"/>
</g>
<g style="mix-blend-mode:multiply">
<path d="M87.833 166.652C79.6354 168.032 71.224 167.343 63.3585 164.647L59.4166 163.294L58.1904 173.196L62.6837 174.458C71.2257 176.853 80.1535 177.543 88.9604 176.488L92.5896 176.051C92.7785 175.65 92.8848 175.215 92.9023 174.772C93.0011 172.569 93.1739 169.367 93.3961 165.695L87.833 166.652Z" fill="#B34F18"/>
</g>
<g style="mix-blend-mode:multiply">
<path d="M90.0302 153.169C81.8323 154.555 73.4189 153.863 65.5558 151.156L60.5358 149.431C60.6603 151.229 60.6355 153.034 60.4617 154.828L59.8774 159.589L64.881 160.992C73.4196 163.389 82.3447 164.081 91.1494 163.03L93.6183 162.733C93.824 159.432 94.0627 155.917 94.3178 152.443L90.0302 153.169Z" fill="#B34F18"/>
</g>
<path d="M12.8224 118.275L28.7344 131.103L29.4202 130.247L13.5082 117.42L12.8224 118.275Z" fill="#263238"/>
<path d="M82.2286 105.393C82.2286 105.393 88.0633 109.378 88.1949 118.793C88.2525 122.919 87.8246 126.772 86.8782 133.53C85.9318 140.289 80.056 162.296 75.4804 164.969C70.9048 167.643 63.8028 162.593 63.8028 162.593L29.4529 139.727L21.1494 133.002L17.0347 125.213L18.3267 122.737L28.4572 130.527L23.001 125.469L24.0709 124.107L26.0459 125.485L31.8066 127.647L33.0657 135.899L34.8433 137.12L67.7035 149.159C67.7035 149.159 67.2921 131.426 67.5966 128.035C67.9011 124.644 68.3207 116.12 71.9417 109.939" fill="white"/>
<mask id="mask4_868_10794" style="mask-type:luminance" maskUnits="userSpaceOnUse" x="17" y="105" width="72" height="61">
<path d="M82.2286 105.393C82.2286 105.393 88.0633 109.378 88.1949 118.793C88.2525 122.919 87.8246 126.772 86.8782 133.53C85.9318 140.289 80.056 162.296 75.4804 164.969C70.9048 167.643 63.8028 162.593 63.8028 162.593L29.4529 139.727L21.1494 133.002L17.0347 125.213L18.3267 122.737L28.4572 130.527L23.001 125.469L24.0709 124.107L26.0459 125.485L31.8066 127.647L33.0657 135.899L34.8433 137.12L67.7035 149.159C67.7035 149.159 67.2921 131.426 67.5966 128.035C67.9011 124.644 68.3207 116.12 71.9417 109.939" fill="white"/>
</mask>
<g mask="url(#mask4_868_10794)">
<g style="mix-blend-mode:multiply" opacity="0.5">
<path d="M67.4732 135.759C67.4732 141.881 67.6789 149.159 67.6789 149.159L34.8516 137.17L33.074 135.948L31.8149 127.697L26.0543 125.535L24.0874 124.132L23.0176 125.494L28.4573 130.527L18.3268 122.738L17.1006 125.172L21.2153 132.961L29.5189 139.728L31.6091 141.122L76.9947 155.785L67.4732 135.759Z" fill="#B34F18"/>
</g>
</g>
<path d="M82.2286 105.393C82.2286 105.393 88.0633 109.378 88.1949 118.793C88.2525 122.919 87.8246 126.772 86.8782 133.53C85.9318 140.289 80.056 162.296 75.4804 164.969C70.9048 167.643 63.8028 162.593 63.8028 162.593L29.4529 139.727L21.1494 133.002L17.0347 125.213L18.3267 122.737L28.4572 130.527L23.001 125.469L24.0709 124.107L26.0459 125.485L31.8066 127.647L33.0657 135.899L34.8433 137.12L67.7035 149.159C67.7035 149.159 67.2921 131.426 67.5966 128.035C67.9011 124.644 68.3207 116.12 71.9417 109.939" stroke="#263238" stroke-width="0.965766" stroke-miterlimit="10"/>
<path d="M67.7034 149.159L80.2452 158.236L83.4958 152.46C83.4958 152.46 85.7425 150.685 86.0716 149.349C86.4008 148.012 85.9811 145.842 86.3185 144.505C86.6559 143.168 88.3347 141.914 88.4911 138.679C88.6475 135.445 88.4911 132.747 88.4911 132.747C88.4911 132.747 91.2068 121.549 90.9106 116.681C90.6143 111.812 85.9317 103.206 82.1791 103.016C78.4264 102.826 73.5464 103.396 69.7608 109.139C65.9753 114.882 66.7488 131.649 66.1563 132.697C65.5638 133.745 66.3867 138.919 66.3867 138.919C66.0578 139.165 65.785 139.478 65.5863 139.838C65.3876 140.198 65.2678 140.596 65.2346 141.006C65.1688 142.351 66.6172 145.66 66.6172 145.66L67.7034 149.159Z" fill="white" stroke="#263238" stroke-width="0.965766" stroke-miterlimit="10"/>
<g style="mix-blend-mode:multiply">
<path d="M66.4859 128.39C66.5117 129.83 66.4042 131.269 66.1649 132.689C65.6382 133.629 66.239 137.879 66.3706 138.745C73.4248 140.942 80.884 141.507 88.187 140.396C88.3439 139.822 88.4377 139.232 88.4668 138.638C88.6314 135.412 88.4668 132.705 88.4668 132.705C88.4668 132.705 88.7054 131.707 89.0346 130.188C81.4713 130.671 73.878 130.065 66.4859 128.39Z" fill="#B34F18"/>
</g>
<g style="mix-blend-mode:multiply">
<path d="M69.2508 110.055C68.074 112.423 67.4157 115.979 67.0371 119.585C74.5079 122.444 82.5627 123.427 90.4993 122.449C90.816 120.54 90.9565 118.607 90.919 116.672C90.7765 115.144 90.4163 113.643 89.8492 112.217C82.9193 112.379 75.9971 111.652 69.2508 110.055Z" fill="#B34F18"/>
</g>
<path d="M66.6172 145.751L67.6788 149.159L80.2205 158.236L83.4712 152.46C83.4712 152.46 85.7178 150.685 86.047 149.349C86.1057 149.116 86.1415 148.879 86.154 148.639C79.5448 148.525 72.9781 147.554 66.6172 145.751Z" fill="#263238"/>
<path d="M75.6946 308.835C75.6946 308.835 75.9744 301.689 77.3405 291.243C78.7066 280.796 75.4231 265.96 74.8717 263.485C74.3203 261.009 75.1515 255.514 74.6001 253.583C74.0487 251.652 71.3824 243.417 72.9542 233.861C74.526 224.306 75.8016 199.048 75.8016 199.048C75.8016 199.048 71.8432 195.822 70.6829 191.622C69.5225 187.422 70.4113 186.101 70.4113 186.101" stroke="#263238" stroke-width="0.965766" stroke-miterlimit="10"/>
<path d="M77.5298 186.489L76.0073 194.939" stroke="#263238" stroke-width="0.965766" stroke-miterlimit="10"/>
</svg>
