<svg width="27" height="27" viewBox="0 0 27 27" fill="none" xmlns="http://www.w3.org/2000/svg">
<rect width="26.6682" height="26.9985" rx="13.3341" fill="#B34F18" fill-opacity="0.08"/>
<path fill-rule="evenodd" clip-rule="evenodd" d="M12.8707 8.72608V10.3991H13.8038V8.72608L16.2736 11.196L16.9332 10.5353L13.6675 7.26953H13.0079L9.74219 10.5353L10.4019 11.196L12.8707 8.72608Z" fill="#B34F18"/>
<path d="M7.73606 14.1313L7.26953 14.5978V19.2633L7.73606 19.7298H18.9327L19.3992 19.2633V14.5978L18.9327 14.1313H15.6204C15.5133 14.6586 15.2272 15.1327 14.8106 15.4733C14.394 15.8138 13.8725 15.9998 13.3344 15.9998C12.7963 15.9998 12.2748 15.8138 11.8582 15.4733C11.4416 15.1327 11.1555 14.6586 11.0484 14.1313H7.73606ZM16.2856 15.0644H18.4662V18.7967H8.20258V15.0644H10.3831C10.6478 15.6231 11.0657 16.0953 11.5881 16.4259C12.1106 16.7565 12.7161 16.932 13.3344 16.932C13.9526 16.932 14.5582 16.7565 15.0806 16.4259C15.6031 16.0953 16.0209 15.6231 16.2856 15.0644ZM12.8679 11.332H13.8009V12.2651H12.8679V11.332ZM12.8679 13.1982H13.8009V14.1313H12.8679V13.1982Z" fill="#B34F18"/>
</svg>
