<svg width="27" height="27" viewBox="0 0 27 27" fill="none" xmlns="http://www.w3.org/2000/svg">
<rect width="27" height="27" rx="13.5" fill="#B34F18" fill-opacity="0.08"/>
<g clip-path="url(#clip0_709_14083)">
<path d="M19.0775 13.4997C19.0775 16.5824 16.5785 19.0814 13.4958 19.0814C10.4131 19.0814 7.91406 16.5824 7.91406 13.4997C7.91406 10.417 10.4131 7.91797 13.4958 7.91797C16.5785 7.91797 19.0775 10.417 19.0775 13.4997Z" stroke="#B34F18" stroke-width="0.259615" stroke-linecap="round" stroke-linejoin="round"/>
<path d="M11.3412 13.504C11.3412 13.5631 11.3178 13.6197 11.276 13.6615C11.2343 13.7032 11.1777 13.7267 11.1186 13.7267C11.0596 13.7267 11.0029 13.7032 10.9612 13.6615C10.9194 13.6197 10.896 13.5631 10.896 13.504C10.896 13.445 10.9194 13.3884 10.9612 13.3466C11.0029 13.3049 11.0596 13.2814 11.1186 13.2814C11.1777 13.2814 11.2343 13.3049 11.276 13.3466C11.3178 13.3884 11.3412 13.445 11.3412 13.504ZM12.2603 13.504C12.2603 13.6512 12.1411 13.7704 11.9942 13.7704C11.847 13.7704 11.7278 13.651 11.7278 13.504C11.7278 13.3571 11.8472 13.2379 11.9942 13.2379C12.1411 13.2379 12.2603 13.3571 12.2603 13.504ZM13.2343 13.504C13.2343 13.5663 13.2159 13.6271 13.1813 13.6788C13.1467 13.7306 13.0976 13.7709 13.0401 13.7947C12.9826 13.8186 12.9193 13.8248 12.8583 13.8126C12.7973 13.8005 12.7412 13.7705 12.6972 13.7265C12.6532 13.6825 12.6232 13.6265 12.6111 13.5654C12.5989 13.5044 12.6052 13.4411 12.629 13.3836C12.6528 13.3261 12.6931 13.277 12.7449 13.2424C12.7966 13.2078 12.8575 13.1894 12.9197 13.1894C13.0936 13.1894 13.2343 13.3304 13.2343 13.504ZM14.3868 13.504C14.3881 13.5535 14.3795 13.6026 14.3615 13.6487C14.3435 13.6947 14.3164 13.7367 14.2819 13.7721C14.2474 13.8075 14.2062 13.8357 14.1606 13.8549C14.1151 13.8741 14.0661 13.884 14.0167 13.884C13.9673 13.884 13.9183 13.8741 13.8728 13.8549C13.8272 13.8357 13.786 13.8075 13.7515 13.7721C13.717 13.7367 13.6899 13.6947 13.6719 13.6487C13.6539 13.6026 13.6453 13.5535 13.6466 13.504C13.6492 13.4076 13.6893 13.3159 13.7584 13.2486C13.8275 13.1813 13.9202 13.1436 14.0167 13.1436C14.1132 13.1436 14.2059 13.1813 14.275 13.2486C14.3441 13.3159 14.3842 13.4076 14.3868 13.504ZM15.5436 13.504C15.5436 13.5848 15.5197 13.6638 15.4748 13.7309C15.4299 13.7981 15.3661 13.8504 15.2915 13.8813C15.2168 13.9122 15.1347 13.9203 15.0555 13.9045C14.9763 13.8888 14.9035 13.8498 14.8464 13.7927C14.7893 13.7356 14.7504 13.6628 14.7347 13.5835C14.719 13.5043 14.7271 13.4222 14.758 13.3476C14.789 13.273 14.8414 13.2092 14.9086 13.1644C14.9757 13.1195 15.0547 13.0956 15.1355 13.0957C15.3609 13.0957 15.5436 13.2784 15.5436 13.504ZM16.7934 13.504C16.7948 13.5626 16.7845 13.6209 16.7631 13.6754C16.7417 13.7299 16.7096 13.7796 16.6686 13.8215C16.6277 13.8634 16.5788 13.8968 16.5248 13.9195C16.4708 13.9423 16.4129 13.954 16.3543 13.954C16.2957 13.954 16.2377 13.9423 16.1837 13.9195C16.1297 13.8968 16.0808 13.8634 16.0399 13.8215C15.999 13.7796 15.9669 13.7299 15.9454 13.6754C15.924 13.6209 15.9137 13.5626 15.9151 13.504C15.9179 13.3894 15.9654 13.2804 16.0475 13.2003C16.1295 13.1203 16.2396 13.0754 16.3543 13.0754C16.4689 13.0754 16.579 13.1203 16.6611 13.2003C16.7431 13.2804 16.7906 13.3894 16.7934 13.504ZM18.0385 13.504C18.0386 13.5651 18.0266 13.6255 18.0032 13.682C17.9799 13.7384 17.9457 13.7896 17.9025 13.8328C17.8594 13.876 17.8081 13.9102 17.7517 13.9336C17.6953 13.957 17.6349 13.969 17.5738 13.969C17.5128 13.969 17.4523 13.957 17.3959 13.9337C17.3395 13.9104 17.2882 13.8761 17.245 13.833C17.2019 13.7898 17.1676 13.7386 17.1442 13.6822C17.1209 13.6258 17.1088 13.5653 17.1088 13.5043C17.1088 13.2473 17.3168 13.0391 17.5736 13.0391C17.8306 13.0391 18.0385 13.2473 18.0385 13.504ZM10.5665 13.504C10.5665 13.5511 10.5478 13.5963 10.5145 13.6296C10.4812 13.6629 10.4361 13.6816 10.389 13.6816C10.3419 13.6815 10.2968 13.6628 10.2636 13.6295C10.2303 13.5962 10.2116 13.5511 10.2116 13.504C10.2116 13.4062 10.2911 13.3265 10.389 13.3265C10.4871 13.3265 10.5665 13.4062 10.5665 13.504ZM9.83208 13.504C9.83208 13.5251 9.82794 13.5459 9.81989 13.5653C9.81184 13.5848 9.80004 13.6024 9.78517 13.6173C9.77029 13.6322 9.75263 13.644 9.7332 13.652C9.71377 13.6601 9.69294 13.6642 9.6719 13.6642C9.62942 13.6642 9.58868 13.6473 9.55864 13.6173C9.52859 13.5873 9.51172 13.5465 9.51172 13.504C9.51172 13.483 9.51586 13.4622 9.52391 13.4427C9.53196 13.4233 9.54376 13.4056 9.55864 13.3908C9.57351 13.3759 9.59117 13.3641 9.6106 13.356C9.63004 13.348 9.65087 13.3439 9.6719 13.3439C9.69294 13.3439 9.71377 13.348 9.7332 13.356C9.75263 13.3641 9.77029 13.3759 9.78517 13.3908C9.80004 13.4056 9.81184 13.4233 9.81989 13.4427C9.82794 13.4622 9.83208 13.483 9.83208 13.504Z" stroke="#B34F18" stroke-width="0.259615" stroke-linecap="round" stroke-linejoin="round"/>
<path d="M9.26833 13.5033C9.26833 13.5549 9.24782 13.6045 9.2113 13.641C9.17478 13.6775 9.12526 13.698 9.07362 13.698C9.02198 13.698 8.97245 13.6775 8.93594 13.641C8.89942 13.6045 8.87891 13.5549 8.87891 13.5033C8.87891 13.4517 8.89942 13.4021 8.93594 13.3656C8.97245 13.3291 9.02198 13.3086 9.07362 13.3086C9.12526 13.3086 9.17478 13.3291 9.2113 13.3656C9.24782 13.4021 9.26833 13.4517 9.26833 13.5033Z" fill="#B34F18"/>
<path d="M11.3412 12.3269C11.3412 12.3859 11.3178 12.4426 11.276 12.4843C11.2343 12.5261 11.1777 12.5495 11.1186 12.5495C11.0596 12.5495 11.0029 12.5261 10.9612 12.4843C10.9194 12.4426 10.896 12.3859 10.896 12.3269C10.896 12.2679 10.9194 12.2112 10.9612 12.1695C11.0029 12.1277 11.0596 12.1043 11.1186 12.1043C11.1777 12.1043 11.2343 12.1277 11.276 12.1695C11.3178 12.2112 11.3412 12.2679 11.3412 12.3269ZM12.2603 12.3269C12.2603 12.4738 12.1411 12.593 11.9942 12.593C11.9592 12.593 11.9246 12.5862 11.8922 12.5728C11.8599 12.5595 11.8306 12.5399 11.8058 12.5152C11.7811 12.4904 11.7615 12.4611 11.7481 12.4288C11.7347 12.3965 11.7278 12.3619 11.7278 12.3269C11.7278 12.1797 11.8472 12.0605 11.9942 12.0605C12.1411 12.0605 12.2603 12.18 12.2603 12.3269ZM13.2343 12.3269C13.2343 12.5008 13.0934 12.6416 12.9197 12.6416C12.7457 12.6416 12.605 12.5006 12.605 12.3269C12.605 12.2856 12.6132 12.2447 12.629 12.2065C12.6448 12.1683 12.668 12.1336 12.6972 12.1044C12.7264 12.0752 12.7611 12.052 12.7993 12.0362C12.8375 12.0204 12.8784 12.0122 12.9197 12.0122C12.961 12.0122 13.0019 12.0204 13.0401 12.0362C13.0783 12.052 13.113 12.0752 13.1422 12.1044C13.1714 12.1336 13.1946 12.1683 13.2104 12.2065C13.2262 12.2447 13.2343 12.2856 13.2343 12.3269ZM14.3868 12.3269C14.3881 12.3763 14.3795 12.4255 14.3615 12.4716C14.3435 12.5176 14.3164 12.5596 14.2819 12.595C14.2474 12.6304 14.2062 12.6586 14.1606 12.6778C14.1151 12.697 14.0661 12.7069 14.0167 12.7069C13.9673 12.7069 13.9183 12.697 13.8728 12.6778C13.8272 12.6586 13.786 12.6304 13.7515 12.595C13.717 12.5596 13.6899 12.5176 13.6719 12.4716C13.6539 12.4255 13.6453 12.3763 13.6466 12.3269C13.6492 12.2304 13.6893 12.1388 13.7584 12.0715C13.8275 12.0042 13.9202 11.9665 14.0167 11.9665C14.1132 11.9665 14.2059 12.0042 14.275 12.0715C14.3441 12.1388 14.3842 12.2304 14.3868 12.3269ZM15.5436 12.3269C15.5436 12.5522 15.3609 12.7353 15.1355 12.7353C15.0272 12.7353 14.9233 12.6923 14.8467 12.6157C14.7702 12.5391 14.7271 12.4352 14.7271 12.3269C14.7258 12.2724 14.7353 12.2182 14.7552 12.1675C14.7751 12.1168 14.8049 12.0705 14.843 12.0315C14.881 11.9925 14.9265 11.9615 14.9767 11.9403C15.0269 11.9191 15.0809 11.9082 15.1354 11.9082C15.1899 11.9082 15.2438 11.9191 15.294 11.9403C15.3442 11.9615 15.3897 11.9925 15.4278 12.0315C15.4658 12.0705 15.4957 12.1168 15.5156 12.1675C15.5355 12.2182 15.545 12.2724 15.5436 12.3269ZM16.7934 12.3269C16.7934 12.5694 16.5969 12.7662 16.3544 12.7662C16.2967 12.7662 16.2395 12.7549 16.1862 12.7329C16.1329 12.7108 16.0844 12.6785 16.0436 12.6377C16.0028 12.5969 15.9705 12.5484 15.9484 12.4951C15.9264 12.4418 15.9151 12.3846 15.9151 12.3269C15.9137 12.2683 15.924 12.2101 15.9454 12.1555C15.9669 12.101 15.999 12.0513 16.0399 12.0094C16.0808 11.9675 16.1297 11.9342 16.1837 11.9114C16.2377 11.8887 16.2957 11.877 16.3543 11.877C16.4129 11.877 16.4708 11.8887 16.5248 11.9114C16.5788 11.9342 16.6277 11.9675 16.6686 12.0094C16.7096 12.0513 16.7417 12.101 16.7631 12.1555C16.7845 12.2101 16.7948 12.2683 16.7934 12.3269ZM10.5665 12.3269C10.5665 12.374 10.5477 12.4191 10.5144 12.4523C10.4811 12.4855 10.436 12.5042 10.389 12.5042C10.342 12.5041 10.2969 12.4854 10.2637 12.4522C10.2304 12.419 10.2117 12.3739 10.2116 12.3269C10.2107 12.303 10.2146 12.2792 10.2231 12.2569C10.2317 12.2346 10.2446 12.2142 10.2611 12.197C10.2777 12.1798 10.2976 12.1661 10.3196 12.1567C10.3416 12.1474 10.3652 12.1425 10.3891 12.1425C10.413 12.1425 10.4366 12.1474 10.4586 12.1567C10.4806 12.1661 10.5005 12.1798 10.517 12.197C10.5336 12.2142 10.5465 12.2346 10.555 12.2569C10.5635 12.2792 10.5674 12.303 10.5665 12.3269ZM9.83208 12.3269C9.83208 12.4152 9.76043 12.4871 9.6719 12.4871C9.65087 12.4871 9.63004 12.4829 9.6106 12.4749C9.59117 12.4668 9.57351 12.455 9.55864 12.4402C9.54376 12.4253 9.53196 12.4076 9.52391 12.3882C9.51586 12.3688 9.51172 12.3479 9.51172 12.3269C9.51172 12.2384 9.58337 12.1667 9.6719 12.1667C9.76017 12.1667 9.83208 12.2384 9.83208 12.3269Z" stroke="#B34F18" stroke-width="0.259615" stroke-linecap="round" stroke-linejoin="round"/>
<path d="M9.26833 12.3256C9.26833 12.3772 9.24782 12.4267 9.2113 12.4633C9.17478 12.4998 9.12526 12.5203 9.07362 12.5203C9.02198 12.5203 8.97245 12.4998 8.93594 12.4633C8.89942 12.4267 8.87891 12.3772 8.87891 12.3256C8.87891 12.2739 8.89942 12.2244 8.93594 12.1879C8.97245 12.1514 9.02198 12.1309 9.07362 12.1309C9.12526 12.1309 9.17478 12.1514 9.2113 12.1879C9.24782 12.2244 9.26833 12.2739 9.26833 12.3256Z" fill="#B34F18"/>
<path d="M11.3412 14.6825C11.3412 14.7415 11.3178 14.7982 11.276 14.8399C11.2343 14.8817 11.1777 14.9051 11.1186 14.9051C11.0596 14.9051 11.0029 14.8817 10.9612 14.8399C10.9194 14.7982 10.896 14.7415 10.896 14.6825C10.896 14.6235 10.9194 14.5668 10.9612 14.5251C11.0029 14.4833 11.0596 14.4599 11.1186 14.4599C11.1777 14.4599 11.2343 14.4833 11.276 14.5251C11.3178 14.5668 11.3412 14.6235 11.3412 14.6825ZM12.2603 14.6825C12.2603 14.8294 12.1411 14.9486 11.9942 14.9486C11.9592 14.9486 11.9246 14.9418 11.8922 14.9284C11.8599 14.9151 11.8306 14.8955 11.8058 14.8708C11.7811 14.846 11.7615 14.8167 11.7481 14.7844C11.7347 14.7521 11.7278 14.7175 11.7278 14.6825C11.7278 14.5353 11.8472 14.4161 11.9942 14.4161C12.1411 14.4161 12.2603 14.5356 12.2603 14.6825ZM13.2343 14.6825C13.2343 14.8562 13.0934 14.9972 12.9197 14.9972C12.7457 14.9972 12.605 14.8562 12.605 14.6825C12.605 14.6412 12.6132 14.6003 12.629 14.5621C12.6448 14.5239 12.668 14.4892 12.6972 14.46C12.7264 14.4308 12.7611 14.4076 12.7993 14.3918C12.8375 14.376 12.8784 14.3678 12.9197 14.3678C12.961 14.3678 13.0019 14.376 13.0401 14.3918C13.0783 14.4076 13.113 14.4308 13.1422 14.46C13.1714 14.4892 13.1946 14.5239 13.2104 14.5621C13.2262 14.6003 13.2343 14.6412 13.2343 14.6825ZM14.3868 14.6825C14.3881 14.7319 14.3795 14.7811 14.3615 14.8272C14.3435 14.8732 14.3164 14.9152 14.2819 14.9506C14.2474 14.986 14.2062 15.0142 14.1606 15.0334C14.1151 15.0526 14.0661 15.0625 14.0167 15.0625C13.9673 15.0625 13.9183 15.0526 13.8728 15.0334C13.8272 15.0142 13.786 14.986 13.7515 14.9506C13.717 14.9152 13.6899 14.8732 13.6719 14.8272C13.6539 14.7811 13.6453 14.7319 13.6466 14.6825C13.6492 14.586 13.6893 14.4944 13.7584 14.4271C13.8275 14.3598 13.9202 14.3221 14.0167 14.3221C14.1132 14.3221 14.2059 14.3598 14.275 14.4271C14.3441 14.4944 14.3842 14.586 14.3868 14.6825ZM15.5436 14.6825C15.5436 14.9078 15.3609 15.0909 15.1355 15.0909C15.0272 15.0909 14.9233 15.0478 14.8467 14.9713C14.7702 14.8947 14.7271 14.7908 14.7271 14.6825C14.7258 14.628 14.7353 14.5738 14.7552 14.5231C14.7751 14.4724 14.8049 14.4261 14.843 14.3871C14.881 14.3481 14.9265 14.3171 14.9767 14.2959C15.0269 14.2747 15.0809 14.2638 15.1354 14.2638C15.1899 14.2638 15.2438 14.2747 15.294 14.2959C15.3442 14.3171 15.3897 14.3481 15.4278 14.3871C15.4658 14.4261 15.4957 14.4724 15.5156 14.5231C15.5355 14.5738 15.545 14.628 15.5436 14.6825ZM16.7934 14.6825C16.7948 14.7411 16.7845 14.7993 16.7631 14.8538C16.7417 14.9084 16.7096 14.9581 16.6686 15C16.6277 15.0419 16.5788 15.0752 16.5248 15.098C16.4708 15.1207 16.4129 15.1324 16.3543 15.1324C16.2957 15.1324 16.2377 15.1207 16.1837 15.098C16.1297 15.0752 16.0808 15.0419 16.0399 15C15.999 14.9581 15.9669 14.9084 15.9454 14.8538C15.924 14.7993 15.9137 14.7411 15.9151 14.6825C15.9179 14.5679 15.9654 14.4589 16.0475 14.3788C16.1295 14.2987 16.2396 14.2539 16.3543 14.2539C16.4689 14.2539 16.579 14.2987 16.6611 14.3788C16.7431 14.4589 16.7906 14.5679 16.7934 14.6825ZM10.5665 14.6825C10.5665 14.7295 10.5477 14.7746 10.5144 14.8079C10.4811 14.8411 10.436 14.8598 10.389 14.8598C10.342 14.8597 10.2969 14.841 10.2637 14.8078C10.2304 14.7746 10.2117 14.7295 10.2116 14.6825C10.2116 14.5844 10.2911 14.5049 10.389 14.5049C10.4871 14.5049 10.5665 14.5844 10.5665 14.6825ZM9.83208 14.6825C9.83203 14.7142 9.82259 14.7451 9.80496 14.7714C9.78733 14.7977 9.76229 14.8182 9.73302 14.8303C9.70375 14.8424 9.67155 14.8455 9.64049 14.8393C9.60944 14.8331 9.58092 14.8178 9.55854 14.7954C9.53617 14.773 9.52094 14.7445 9.51478 14.7134C9.50862 14.6823 9.51181 14.6501 9.52394 14.6209C9.53607 14.5916 9.5566 14.5666 9.58294 14.549C9.60927 14.5314 9.64023 14.5221 9.6719 14.5221C9.76017 14.5221 9.83208 14.594 9.83208 14.6825Z" stroke="#B34F18" stroke-width="0.259615" stroke-linecap="round" stroke-linejoin="round"/>
<path d="M9.26833 14.683C9.26833 14.7346 9.24782 14.7842 9.2113 14.8207C9.17478 14.8572 9.12526 14.8777 9.07362 14.8777C9.02198 14.8777 8.97245 14.8572 8.93594 14.8207C8.89942 14.7842 8.87891 14.7346 8.87891 14.683C8.87891 14.6314 8.89942 14.5818 8.93594 14.5453C8.97245 14.5088 9.02198 14.4883 9.07362 14.4883C9.12526 14.4883 9.17478 14.5088 9.2113 14.5453C9.24782 14.5818 9.26833 14.6314 9.26833 14.683Z" fill="#B34F18"/>
<path d="M14.3887 11.1481C14.39 11.1976 14.3814 11.2468 14.3634 11.2928C14.3454 11.3388 14.3184 11.3808 14.2839 11.4162C14.2494 11.4517 14.2081 11.4798 14.1626 11.499C14.117 11.5183 14.0681 11.5282 14.0186 11.5282C13.9692 11.5282 13.9203 11.5183 13.8747 11.499C13.8292 11.4798 13.7879 11.4517 13.7534 11.4162C13.7189 11.3808 13.6919 11.3388 13.6739 11.2928C13.6559 11.2468 13.6473 11.1976 13.6486 11.1481C13.6511 11.0517 13.6912 10.96 13.7604 10.8927C13.8295 10.8254 13.9222 10.7877 14.0186 10.7877C14.1151 10.7877 14.2078 10.8254 14.2769 10.8927C14.3461 10.96 14.3862 11.0517 14.3887 11.1481ZM15.5456 11.1481C15.5456 11.3737 15.3628 11.5565 15.1375 11.5565C15.0292 11.5565 14.9253 11.5135 14.8487 11.4369C14.7721 11.3603 14.7291 11.2564 14.7291 11.1481C14.7277 11.0937 14.7373 11.0395 14.7572 10.9887C14.7771 10.938 14.8069 10.8918 14.8449 10.8527C14.883 10.8137 14.9285 10.7827 14.9787 10.7615C15.0289 10.7404 15.0828 10.7295 15.1373 10.7295C15.1918 10.7295 15.2458 10.7404 15.296 10.7615C15.3462 10.7827 15.3917 10.8137 15.4297 10.8527C15.4678 10.8918 15.4976 10.938 15.5175 10.9887C15.5374 11.0395 15.547 11.0937 15.5456 11.1481ZM14.3887 9.95806C14.39 10.0075 14.3814 10.0567 14.3634 10.1027C14.3454 10.1488 14.3184 10.1907 14.2839 10.2262C14.2494 10.2616 14.2081 10.2897 14.1626 10.309C14.117 10.3282 14.0681 10.3381 14.0186 10.3381C13.9692 10.3381 13.9203 10.3282 13.8747 10.309C13.8292 10.2897 13.7879 10.2616 13.7534 10.2262C13.7189 10.1907 13.6919 10.1488 13.6739 10.1027C13.6559 10.0567 13.6473 10.0075 13.6486 9.95806C13.6511 9.86161 13.6912 9.76996 13.7604 9.70265C13.8295 9.63533 13.9222 9.59766 14.0186 9.59766C14.1151 9.59766 14.2078 9.63533 14.2769 9.70265C14.3461 9.76996 14.3862 9.86161 14.3887 9.95806ZM14.3887 15.8602C14.39 15.9096 14.3814 15.9588 14.3634 16.0048C14.3454 16.0509 14.3184 16.0928 14.2839 16.1283C14.2494 16.1637 14.2081 16.1918 14.1626 16.211C14.117 16.2303 14.0681 16.2402 14.0186 16.2402C13.9692 16.2402 13.9203 16.2303 13.8747 16.211C13.8292 16.1918 13.7879 16.1637 13.7534 16.1283C13.7189 16.0928 13.6919 16.0509 13.6739 16.0048C13.6559 15.9588 13.6473 15.9096 13.6486 15.8602C13.6511 15.7637 13.6912 15.6721 13.7604 15.6047C13.8295 15.5374 13.9222 15.4998 14.0186 15.4998C14.1151 15.4998 14.2078 15.5374 14.2769 15.6047C14.3461 15.6721 14.3862 15.7637 14.3887 15.8602ZM15.5456 15.8602C15.5456 16.0858 15.3628 16.2685 15.1375 16.2685C15.0292 16.2685 14.9253 16.2255 14.8487 16.1489C14.7721 16.0723 14.7291 15.9685 14.7291 15.8602C14.7291 15.6346 14.9119 15.4518 15.1375 15.4518C15.3628 15.4518 15.5456 15.6346 15.5456 15.8602ZM14.3887 17.0399C14.39 17.0893 14.3814 17.1385 14.3634 17.1845C14.3454 17.2306 14.3184 17.2725 14.2839 17.3079C14.2494 17.3434 14.2081 17.3715 14.1626 17.3907C14.117 17.41 14.0681 17.4199 14.0186 17.4199C13.9692 17.4199 13.9203 17.41 13.8747 17.3907C13.8292 17.3715 13.7879 17.3434 13.7534 17.3079C13.7189 17.2725 13.6919 17.2306 13.6739 17.1845C13.6559 17.1385 13.6473 17.0893 13.6486 17.0399C13.6511 16.9434 13.6912 16.8518 13.7604 16.7844C13.8295 16.7171 13.9222 16.6794 14.0186 16.6794C14.1151 16.6794 14.2078 16.7171 14.2769 16.7844C14.3461 16.8518 14.3862 16.9434 14.3887 17.0399Z" stroke="#B34F18" stroke-width="0.259615" stroke-linecap="round" stroke-linejoin="round"/>
</g>
<defs>
<clipPath id="clip0_709_14083">
<rect width="12.4615" height="12.4615" fill="white" transform="translate(7.26953 7.26953)"/>
</clipPath>
</defs>
</svg>
