<svg width="27" height="27" viewBox="0 0 27 27" fill="none" xmlns="http://www.w3.org/2000/svg">
<rect width="26.9985" height="26.9985" rx="13.4992" fill="#B34F18" fill-opacity="0.08"/>
<g clip-path="url(#clip0_709_14105)">
<path d="M8.82703 16.6145C9.24011 16.6145 9.63626 16.7786 9.92835 17.0707C10.2204 17.3628 10.3845 17.759 10.3845 18.172C10.3845 18.5851 10.2204 18.9813 9.92835 19.2733C9.63626 19.5654 9.24011 19.7295 8.82703 19.7295C8.41396 19.7295 8.0178 19.5654 7.72571 19.2733C7.43362 18.9813 7.26953 18.5851 7.26953 18.172C7.26953 17.759 7.43362 17.3628 7.72571 17.0707C8.0178 16.7786 8.41396 16.6145 8.82703 16.6145ZM18.172 16.6145C18.5851 16.6145 18.9813 16.7786 19.2733 17.0707C19.5654 17.3628 19.7295 17.759 19.7295 18.172C19.7295 18.5851 19.5654 18.9813 19.2733 19.2733C18.9813 19.5654 18.5851 19.7295 18.172 19.7295C17.759 19.7295 17.3628 19.5654 17.0707 19.2733C16.7786 18.9813 16.6145 18.5851 16.6145 18.172C16.6145 17.759 16.7786 17.3628 17.0707 17.0707C17.3628 16.7786 17.759 16.6145 18.172 16.6145ZM8.82703 17.3933C8.62049 17.3933 8.42242 17.4753 8.27637 17.6214C8.13033 17.7674 8.04828 17.9655 8.04828 18.172C8.04828 18.3786 8.13033 18.5766 8.27637 18.7227C8.42242 18.8687 8.62049 18.9508 8.82703 18.9508C9.03357 18.9508 9.23165 18.8687 9.37769 18.7227C9.52373 18.5766 9.60578 18.3786 9.60578 18.172C9.60578 17.9655 9.52373 17.7674 9.37769 17.6214C9.23165 17.4753 9.03357 17.3933 8.82703 17.3933ZM18.172 17.3933C17.9655 17.3933 17.7674 17.4753 17.6214 17.6214C17.4753 17.7674 17.3933 17.9655 17.3933 18.172C17.3933 18.3786 17.4753 18.5766 17.6214 18.7227C17.7674 18.8687 17.9655 18.9508 18.172 18.9508C18.3786 18.9508 18.5766 18.8687 18.7227 18.7227C18.8687 18.5766 18.9508 18.3786 18.9508 18.172C18.9508 17.9655 18.8687 17.7674 18.7227 17.6214C18.5766 17.4753 18.3786 17.3933 18.172 17.3933ZM13.8889 10.7739V13.1102H16.2252V13.8889H13.8889V16.2252H13.1102V13.8889H10.7739V13.1102H13.1102V10.7739H13.8889ZM8.82703 7.26953C9.24011 7.26953 9.63626 7.43362 9.92835 7.72571C10.2204 8.0178 10.3845 8.41396 10.3845 8.82703C10.3845 9.24011 10.2204 9.63626 9.92835 9.92835C9.63626 10.2204 9.24011 10.3845 8.82703 10.3845C8.41396 10.3845 8.0178 10.2204 7.72571 9.92835C7.43362 9.63626 7.26953 9.24011 7.26953 8.82703C7.26953 8.41396 7.43362 8.0178 7.72571 7.72571C8.0178 7.43362 8.41396 7.26953 8.82703 7.26953ZM18.172 7.26953C18.5851 7.26953 18.9813 7.43362 19.2733 7.72571C19.5654 8.0178 19.7295 8.41396 19.7295 8.82703C19.7295 9.24011 19.5654 9.63626 19.2733 9.92835C18.9813 10.2204 18.5851 10.3845 18.172 10.3845C17.759 10.3845 17.3628 10.2204 17.0707 9.92835C16.7786 9.63626 16.6145 9.24011 16.6145 8.82703C16.6145 8.41396 16.7786 8.0178 17.0707 7.72571C17.3628 7.43362 17.759 7.26953 18.172 7.26953ZM18.172 8.04828C17.9655 8.04828 17.7674 8.13033 17.6214 8.27637C17.4753 8.42242 17.3933 8.62049 17.3933 8.82703C17.3933 9.03357 17.4753 9.23165 17.6214 9.37769C17.7674 9.52373 17.9655 9.60578 18.172 9.60578C18.3786 9.60578 18.5766 9.52373 18.7227 9.37769C18.8687 9.23165 18.9508 9.03357 18.9508 8.82703C18.9508 8.62049 18.8687 8.42242 18.7227 8.27637C18.5766 8.13033 18.3786 8.04828 18.172 8.04828ZM8.82703 8.04828C8.62049 8.04828 8.42242 8.13033 8.27637 8.27637C8.13033 8.42242 8.04828 8.62049 8.04828 8.82703C8.04828 9.03357 8.13033 9.23165 8.27637 9.37769C8.42242 9.52373 8.62049 9.60578 8.82703 9.60578C9.03357 9.60578 9.23165 9.52373 9.37769 9.37769C9.52373 9.23165 9.60578 9.03357 9.60578 8.82703C9.60578 8.62049 9.52373 8.42242 9.37769 8.27637C9.23165 8.13033 9.03357 8.04828 8.82703 8.04828Z" fill="#B34F18"/>
<path d="M15.4768 18.5809C15.5165 18.8445 15.5936 19.0956 15.7034 19.3285C14.999 19.5942 14.2524 19.7301 13.4995 19.7295C12.7235 19.7295 11.981 19.5878 11.2957 19.3285C11.4051 19.0956 11.4826 18.8445 11.5223 18.5809C12.1352 18.82 12.8022 18.9508 13.4995 18.9508C14.1969 18.9508 14.8639 18.82 15.4768 18.5809ZM19.3285 11.2957C19.5942 12 19.7301 12.7467 19.7295 13.4995C19.7295 14.2756 19.5878 15.0181 19.3285 15.7034C19.0915 15.5924 18.8397 15.516 18.5809 15.4768C18.82 14.8639 18.9508 14.1969 18.9508 13.4995C18.9508 12.8022 18.82 12.1352 18.5809 11.5223C18.8397 11.483 19.0915 11.4067 19.3285 11.2957ZM7.67059 11.2957C7.90344 11.4051 8.15458 11.4826 8.41819 11.5223C8.1733 12.1527 8.04786 12.8232 8.04828 13.4995C8.04828 14.1969 8.17911 14.8639 8.41819 15.4768C8.1594 15.516 7.90762 15.5924 7.67059 15.7034C7.40485 14.999 7.26897 14.2524 7.26953 13.4995C7.26953 12.7235 7.41127 11.981 7.67059 11.2957ZM13.4995 7.26953C14.2756 7.26953 15.0181 7.41127 15.7034 7.67059C15.5924 7.90762 15.516 8.1594 15.4768 8.41819C14.8463 8.1733 14.1759 8.04786 13.4995 8.04828C12.8022 8.04828 12.1352 8.17911 11.5223 8.41819C11.483 8.1594 11.4067 7.90762 11.2957 7.67059C12 7.40485 12.7467 7.26897 13.4995 7.26953Z" fill="#B34F18"/>
</g>
<defs>
<clipPath id="clip0_709_14105">
<rect width="12.46" height="12.46" fill="white" transform="translate(7.26953 7.26953)"/>
</clipPath>
</defs>
</svg>
