<svg width="27" height="27" viewBox="0 0 27 27" fill="none" xmlns="http://www.w3.org/2000/svg">
<rect width="26.9986" height="27" rx="13.4993" fill="#B34F18" fill-opacity="0.08"/>
<path d="M7.26953 8.82813H11.4791C11.7247 8.8281 11.9678 8.87644 12.1946 8.97041C12.4215 9.06437 12.6276 9.2021 12.8011 9.37574L14.7455 11.3201M9.13853 14.4351H7.26953M11.319 10.6971L12.565 11.9431C12.6468 12.0249 12.7117 12.1221 12.756 12.229C12.8003 12.3359 12.8231 12.4504 12.8231 12.5661C12.8231 12.6818 12.8003 12.7964 12.756 12.9033C12.7117 13.0102 12.6468 13.1073 12.565 13.1891C12.4832 13.2709 12.3861 13.3358 12.2792 13.3801C12.1723 13.4244 12.0577 13.4472 11.942 13.4472C11.8263 13.4472 11.7118 13.4244 11.6049 13.3801C11.498 13.3358 11.4008 13.2709 11.319 13.1891L10.3845 12.2546C9.84875 12.7904 8.9996 12.8508 8.3928 12.396L8.20403 12.2546" stroke="#B44F18" stroke-width="1.125" stroke-linecap="round" stroke-linejoin="round"/>
<path d="M9.14062 12.8778V15.6813C9.14062 16.8563 9.14062 17.4432 9.5057 17.8082C9.87078 18.1733 10.4576 18.1733 11.6326 18.1733H17.2396C18.4146 18.1733 19.0015 18.1733 19.3665 17.8082C19.7316 17.4432 19.7316 16.8563 19.7316 15.6813V13.8123C19.7316 12.6373 19.7316 12.0505 19.3665 11.6854C19.0015 11.3203 18.4146 11.3203 17.2396 11.3203H11.9441" stroke="#B44F18" stroke-width="1.125" stroke-linecap="round" stroke-linejoin="round"/>
<path d="M15.5243 14.7465C15.5243 15.0357 15.4094 15.313 15.2049 15.5174C15.0005 15.7219 14.7232 15.8368 14.434 15.8368C14.1448 15.8368 13.8675 15.7219 13.6631 15.5174C13.4586 15.313 13.3438 15.0357 13.3438 14.7465C13.3437 14.4573 13.4586 14.18 13.6631 13.9756C13.8675 13.7711 14.1448 13.6562 14.434 13.6562C14.7232 13.6562 15.0005 13.7711 15.2049 13.9756C15.4094 14.18 15.5243 14.4573 15.5243 14.7465Z" stroke="#B44F18" stroke-width="1.125" stroke-linecap="round" stroke-linejoin="round"/>
</svg>
