<svg width="106" height="50" viewBox="0 0 106 50" fill="none" xmlns="http://www.w3.org/2000/svg">
<path d="M95.7307 9.63296L94.9694 12.163C93.9768 15.462 94.0204 15.3171 95.3516 15.7176L100.49 17.2637C101.515 17.5721 102.096 18.6531 101.787 19.678L95.5025 40.5643C94.6367 43.4416 92.4996 42.8589 91.3553 42.5146L68.0046 35.4883C65.1648 34.6338 66.1452 32.2421 66.5694 30.8324L74.8399 3.34685C75.3631 1.60824 76.7628 1.63587 77.3973 1.86701L96.1835 7.51984C96.6952 7.67381 97.1206 8.03225 97.3592 8.51041L100.599 15.0035" stroke="#F1F0F0" stroke-width="1.3" stroke-linecap="round"/>
<path d="M80.9971 29.918L85.2987 31.2394C88.8834 32.3406 90.7577 31.3472 91.8589 27.7625L93.1803 23.4609C94.2815 19.8762 93.2881 18.0019 89.7035 16.9007L85.4018 15.5793C81.8172 14.4781 79.9428 15.4715 78.8416 19.0561L77.5202 23.3578C76.419 26.9424 77.4124 28.8168 80.9971 29.918Z" stroke="#DC6321" stroke-width="1.125" stroke-linecap="round" stroke-linejoin="round"/>
<path d="M83.64 21.3148C84.4319 21.5581 85.271 21.1133 85.5143 20.3214C85.7576 19.5295 85.3128 18.6903 84.5209 18.4471C83.729 18.2038 82.8898 18.6486 82.6466 19.4405C82.4033 20.2324 82.8481 21.0715 83.64 21.3148Z" stroke="#DC6321" stroke-width="1.125" stroke-linecap="round" stroke-linejoin="round"/>
<path d="M77.1305 26.3373L81.394 25.05C82.0771 24.844 82.8812 25.1381 83.2559 25.7318L83.4286 26.0124C83.8403 26.6645 84.7436 26.942 85.4504 26.6334L89.2191 24.9902C89.9258 24.6816 90.8292 24.9591 91.2408 25.6112L92.1011 26.9739" stroke="#DC6321" stroke-width="1.125" stroke-linecap="round" stroke-linejoin="round"/>
<path d="M22.6865 4.21611L23.3324 6.77811C24.1744 10.1187 24.1374 9.97192 25.4855 9.63211L30.6884 8.32058C31.7263 8.05895 32.7798 8.68824 33.0414 9.72615L38.3727 30.8758C39.1072 33.7895 36.9741 34.3868 35.8154 34.6788L12.1701 40.6392C9.29449 41.3641 8.90777 38.8084 8.54798 37.3808L1.53217 9.54859C1.08838 7.78805 2.3037 7.09305 2.96683 6.96562L21.99 2.17035C22.5082 2.03973 23.0573 2.12886 23.5076 2.41668L29.6217 6.32495" stroke="#F1F0F0" stroke-width="1.3" stroke-linecap="round"/>
<path d="M27.5165 22.0985L28.1208 25.8116C28.2857 26.9528 28.4078 27.8264 26.4342 28.3118L17.2722 30.5653C15.2986 31.0508 15.0016 30.2201 14.6183 29.1327L13.4313 25.5629C13.2243 24.9728 13.2758 24.3654 13.5124 23.8515C13.5179 23.8424 13.5179 23.8424 13.5234 23.8334C13.8039 23.2469 14.3332 22.7923 15.0105 22.6257L24.755 20.2289C25.4324 20.0624 26.1048 20.2214 26.6145 20.598C26.6236 20.6035 26.6327 20.609 26.6344 20.6163C27.097 20.9582 27.4316 21.4706 27.5165 22.0985Z" stroke="#DC6321" stroke-width="1.125" stroke-miterlimit="10"/>
<path d="M13.7693 23.2632L12.8468 19.5125C12.2377 17.0363 12.7045 16.265 15.1807 15.6559L16.1056 15.4284C17.0306 15.2009 17.3098 15.4257 17.7741 15.8059L19.0035 16.8165C19.3118 17.065 19.4968 17.2203 20.1158 17.0681L21.973 16.6113C24.4492 16.0023 25.2205 16.469 25.8295 18.9452L26.1502 20.2489" stroke="#DC6321" stroke-width="1.125" stroke-miterlimit="10" stroke-linecap="round" stroke-linejoin="round"/>
<path d="M19.0857 26.2576L22.8291 25.3368" stroke="#DC6321" stroke-width="1.125" stroke-miterlimit="10" stroke-linecap="round" stroke-linejoin="round"/>
<rect width="39.2776" height="44.9269" transform="translate(33.1213 4.073)" fill="white"/>
<path d="M61.2085 6.84878V10.2496C61.2085 14.6839 61.2085 14.4891 62.9979 14.4891H69.9043C71.2821 14.4891 72.3989 15.6059 72.3989 16.9837V45.0579C72.3989 48.9255 69.5487 48.9999 68.0107 48.9999H36.6237C32.8066 48.9999 33.128 45.6885 33.128 43.7935V6.84878C33.128 4.51181 34.8635 4.02674 35.7313 4.07633H60.9828C61.6707 4.07633 62.328 4.36033 62.7994 4.86121L69.2008 11.6627" stroke="#F1F0F0" stroke-width="1.2" stroke-linecap="round"/>
<path d="M62.7603 31.6614V25.6614C62.7603 20.6614 60.7603 18.6614 55.7603 18.6614H49.7603C44.7603 18.6614 42.7603 20.6614 42.7603 25.6614V31.6614C42.7603 36.6614 44.7603 38.6614 49.7603 38.6614H55.7603C60.7603 38.6614 62.7603 36.6614 62.7603 31.6614Z" stroke="#DC6321" stroke-width="1.3" stroke-linecap="round" stroke-linejoin="round"/>
<path d="M43.2803 23.7715H62.2403" stroke="#DC6321" stroke-width="1.2" stroke-linecap="round" stroke-linejoin="round"/>
<path d="M49.2803 18.7715V23.6315" stroke="#DC6321" stroke-width="1.3" stroke-linecap="round" stroke-linejoin="round"/>
<path d="M56.2402 18.7715V23.1815" stroke="#DC6321" stroke-width="1.3" stroke-linecap="round" stroke-linejoin="round"/>
<path d="M50.5103 31.1115V29.9115C50.5103 28.3715 51.6003 27.7415 52.9303 28.5115L53.9703 29.1115L55.0103 29.7115C56.3403 30.4815 56.3403 31.7415 55.0103 32.5115L53.9703 33.1115L52.9303 33.7115C51.6003 34.4815 50.5103 33.8515 50.5103 32.3115V31.1115Z" stroke="#DC6321" stroke-width="1.3" stroke-miterlimit="10" stroke-linecap="round" stroke-linejoin="round"/>
</svg>
