<svg width="92" height="89" viewBox="0 0 92 89" fill="none" xmlns="http://www.w3.org/2000/svg">
<path d="M35.8124 2.15849L14.186 30.2553L72.3472 15.7968L39.9519 1.12022C39.2461 0.799903 38.4527 0.728172 37.7009 0.91673C36.9492 1.10529 36.2835 1.54301 35.8124 2.15849Z" fill="#EBEBEB"/>
<path d="M13.8792 30.4554L35.7168 2.08824C36.2038 1.45037 36.8935 0.997306 37.6723 0.803636C38.4511 0.609967 39.2726 0.68723 40.0017 1.02271L72.7173 15.8424L13.8792 30.4554ZM38.5295 0.920471C38.0215 0.920814 37.5204 1.03872 37.0656 1.26496C36.6108 1.4912 36.2144 1.81963 35.9077 2.22455L14.4903 30.0579L71.9835 15.7652L39.904 1.22491C39.472 1.03016 39.0033 0.930225 38.5295 0.931831V0.920471Z" fill="#E0E0E0"/>
<path d="M14.1842 30.2563L72.5501 15.7474L80.4135 47.3799C80.5692 48.0062 80.4698 48.6686 80.137 49.2215C79.8042 49.7745 79.2655 50.1726 78.6392 50.3282L24.996 63.6632C24.3697 63.8189 23.7072 63.7194 23.1543 63.3867C22.6014 63.0539 22.2033 62.5151 22.0476 61.8889L14.1842 30.2563Z" fill="#F0F0F0"/>
<path d="M68.9575 17.4804L48.7374 38.139L18.1756 31.2596L14.6791 15.0494C14.4856 14.2133 14.6284 13.3346 15.0768 12.6027C15.5251 11.8709 16.2431 11.3446 17.076 11.1372L61.2875 0.147925C61.7043 0.0439465 62.1376 0.023192 62.5624 0.0868501C62.9873 0.150508 63.3954 0.297328 63.7634 0.518907C64.1314 0.740486 64.4522 1.03247 64.7072 1.37815C64.9623 1.72383 65.1466 2.11642 65.2498 2.53344L68.9575 17.4804Z" fill="white"/>
<path d="M45.9608 36.5146L21.9489 61.6057C22.0336 61.9469 22.1848 62.2681 22.3938 62.5508C22.6027 62.8336 22.8654 63.0724 23.1666 63.2537C23.4679 63.4349 23.802 63.555 24.1497 63.6071C24.4974 63.6592 24.852 63.6423 25.1932 63.5573L78.4242 50.3233C79.1129 50.1521 79.7053 49.7143 80.0713 49.1064C80.4372 48.4984 80.5468 47.77 80.3758 47.0813L80.3258 46.8814L48.9279 35.8058C48.4176 35.6254 47.8661 35.5964 47.3397 35.7221C46.8133 35.8479 46.3344 36.1231 45.9608 36.5146Z" fill="#E0E0E0"/>
<path d="M38.2894 13.5302L20.9934 17.833L21.4327 19.599L38.7288 15.2962L38.2894 13.5302Z" fill="#E0E0E0"/>
<path d="M60.4823 12.7638L22.1069 22.3105L22.6033 24.3058L60.9787 14.7591L60.4823 12.7638Z" fill="#E0E0E0"/>
<path d="M61.6959 17.6383L23.3206 27.1851L23.8169 29.1803L62.1923 19.6336L61.6959 17.6383Z" fill="#E0E0E0"/>
<path d="M62.5028 24.0984L61.3009 25.3003L29.0851 33.7223L24.8752 32.7385L24.7162 32.2819L62.9685 22.7671L63.1344 23.4282L62.5028 24.0984Z" fill="#E0E0E0"/>
<path d="M54.2627 32.4934L39.7497 36.1012L35.3126 35.0879L57.0026 29.6921L54.2627 32.4934Z" fill="#E0E0E0"/>
<path d="M45.0841 37.428C45.0841 37.428 45.0682 37.453 45.0295 37.4961L44.8569 37.6847L44.1889 38.4004L41.7148 41.0199C39.6201 43.2259 36.7166 46.2748 33.5018 49.6168C30.287 52.9588 27.3336 55.9578 25.1798 58.107C24.1029 59.1816 23.2259 60.0495 22.617 60.6425L21.915 61.324L21.7287 61.499C21.7093 61.5207 21.6872 61.5398 21.6628 61.5558C21.6796 61.532 21.6986 61.51 21.7196 61.4899L21.8968 61.3059L22.5784 60.6084L25.1162 58.0479C27.254 55.8828 30.1916 52.877 33.4132 49.5328C36.6348 46.1885 39.5474 43.1714 41.6489 40.9608L44.148 38.3686L44.8296 37.6688L45.0114 37.4893C45.0613 37.4462 45.0841 37.428 45.0841 37.428Z" fill="#FAFAFA"/>
<path d="M80.326 46.8768C80.3147 46.9086 73.6193 44.5844 65.3722 41.6855C57.1252 38.7865 50.448 36.4101 50.4594 36.3783C50.4707 36.3464 57.1661 38.6684 65.4131 41.5673C73.6602 44.4663 80.3374 46.8427 80.326 46.8768Z" fill="#FAFAFA"/>
<path d="M69.9183 16.4854C69.9057 16.5056 69.8913 16.5246 69.8752 16.5421L69.7479 16.6989L69.2095 17.2964L67.2034 19.4752C65.504 21.3086 63.1366 23.8214 60.483 26.5636C57.8294 29.3058 55.3803 31.7527 53.6037 33.5111L51.4885 35.5831L50.9069 36.1397L50.7547 36.2829C50.7183 36.3147 50.7001 36.3306 50.6979 36.3283C50.7123 36.3089 50.7283 36.2907 50.7456 36.2738L50.8887 36.1216L51.4544 35.549L53.5401 33.4498C55.3031 31.6754 57.7272 29.2172 60.3808 26.4773C63.0344 23.7373 65.4108 21.2428 67.1284 19.4252L69.1618 17.2737L69.7184 16.6921L69.8661 16.5421C69.8811 16.5211 69.8986 16.5021 69.9183 16.4854Z" fill="#FAFAFA"/>
<path d="M45.0841 37.4279C45.0572 37.4264 45.0305 37.4218 45.0046 37.4142L44.7774 37.3597L43.8687 37.1325C43.0917 36.9371 41.9625 36.6622 40.5653 36.3351C37.7731 35.674 33.8995 34.822 29.6192 33.895C25.3389 32.9681 21.4675 32.1025 18.6799 31.4186C17.2849 31.0779 16.1581 30.7916 15.3833 30.5826L14.4905 30.3395L14.2633 30.2736C14.2364 30.2679 14.2105 30.2588 14.186 30.2463L14.2656 30.2622L14.4927 30.3145L15.4015 30.5417C16.1808 30.7371 17.3099 31.0097 18.7072 31.3391C21.4993 32.0003 25.3707 32.8522 29.6533 33.7792C33.9358 34.7061 37.8049 35.5717 40.5926 36.2556C41.9875 36.5964 43.1144 36.8803 43.8891 37.0916L44.7797 37.3347L45.0069 37.4006L45.0841 37.4279Z" fill="#FAFAFA"/>
<path d="M68.9573 17.4803C68.9573 17.4803 68.9346 17.4054 68.896 17.2532L68.7301 16.6102C68.5847 16.04 68.3734 15.2062 68.1008 14.1315L65.813 5.01659C65.6918 4.53495 65.5683 4.04194 65.4426 3.53757C65.3813 3.28766 65.3177 3.03093 65.2518 2.77421C65.22 2.64471 65.1882 2.51521 65.1473 2.39025C65.1117 2.26268 65.0661 2.1381 65.011 2.01766C64.7858 1.50797 64.4316 1.06578 63.9834 0.734704C63.5352 0.40363 63.0084 0.195104 62.4551 0.129692C62.1679 0.0899605 61.8766 0.0899605 61.5895 0.129692C61.3032 0.179674 61.0124 0.259191 60.7193 0.329621L58.9359 0.784005L55.2076 1.70413L38.6431 5.83903L22.058 9.95575L18.3344 10.8781L17.4256 11.1053C17.1306 11.1666 16.8417 11.2541 16.5623 11.3666C16.0233 11.6002 15.5583 11.9765 15.2173 12.4549C15.0523 12.6873 14.9179 12.9401 14.8174 13.2069C14.7238 13.4704 14.662 13.7442 14.6334 14.0225C14.5675 14.5791 14.722 15.1153 14.8311 15.6446C15.0583 16.7049 15.2756 17.7204 15.4831 18.6913C16.3124 22.574 16.9826 25.7138 17.446 27.888C17.6732 28.974 17.8527 29.8146 17.9754 30.3871C18.0322 30.6711 18.0776 30.8892 18.1094 31.0392C18.1413 31.1891 18.1503 31.2664 18.1503 31.2664C18.1503 31.2664 18.1299 31.1914 18.0958 31.0392C18.0617 30.8869 18.014 30.6734 17.9504 30.3917C17.8232 29.8169 17.6392 28.9763 17.4006 27.8926C16.9258 25.7206 16.2419 22.5808 15.3968 18.7049C15.1878 17.7348 14.9651 16.7193 14.7356 15.6583C14.6266 15.1357 14.4676 14.5814 14.5357 14.0066C14.5618 13.7189 14.6244 13.4356 14.722 13.1637C14.8258 12.8884 14.964 12.6273 15.1332 12.3867C15.3054 12.1418 15.5111 11.9223 15.7444 11.7347C15.978 11.5399 16.239 11.3807 16.5191 11.2621C16.8034 11.1461 17.0977 11.0563 17.3983 10.994L18.3071 10.7668L22.0376 9.84442L38.6226 5.71862L55.2076 1.6019L58.9313 0.679497L60.7148 0.238744C61.0078 0.166042 61.2941 0.0887971 61.594 0.0365429C62.0319 -0.0288691 62.4785 -0.00630121 62.9076 0.102926C63.3367 0.212154 63.7397 0.405848 64.0931 0.67268C64.5427 1.01303 64.8978 1.46273 65.1246 1.97903C65.1816 2.10311 65.2287 2.2315 65.2654 2.36299C65.3063 2.49249 65.3381 2.62199 65.3699 2.75149C65.4335 3.00821 65.4949 3.26494 65.5585 3.51713C65.6835 4.02149 65.8039 4.5145 65.9243 4.99614L68.1735 14.127C68.4348 15.2039 68.6392 16.04 68.7778 16.6102C68.846 16.8942 68.8982 17.11 68.9323 17.2577C68.9664 17.4054 68.9573 17.4803 68.9573 17.4803Z" fill="#E0E0E0"/>
<path d="M91.7856 88.7189C91.7856 88.753 71.2383 88.7802 45.8928 88.7802C20.5472 88.7802 0 88.7552 0 88.7189C0 88.6825 20.545 88.6553 45.8928 88.6553C71.2406 88.6553 91.7856 88.6871 91.7856 88.7189Z" fill="#263238"/>
<path d="M43.5548 5.48935L41.3078 7.20011L41.4169 10.4671L39.3608 8.83362L38.2249 9.806L33.9082 4.47607L43.5548 5.48935Z" fill="#FF725E"/>
<path d="M40.4627 7.89526C40.4627 7.99523 41.4169 10.4671 41.4169 10.4671L39.3608 8.83357L40.4627 7.89526Z" fill="#FF725E"/>
<g opacity="0.3">
<path d="M40.4627 7.89526C40.4627 7.99523 41.4169 10.4671 41.4169 10.4671L39.3608 8.83357L40.4627 7.89526Z" fill="black"/>
</g>
<path d="M33.9082 4.47607L40.4627 7.89531L41.4169 10.4671L41.3078 7.20011L33.9082 4.47607Z" fill="#FF725E"/>
<path opacity="0.1" d="M33.9082 4.47607L40.4627 7.89531L41.4169 10.4671L41.3078 7.20011L33.9082 4.47607Z" fill="black"/>
<path d="M52.0837 48.556C51.6798 48.5426 51.283 48.4459 50.9182 48.272C51.3221 48.2853 51.7189 48.382 52.0837 48.556Z" fill="#263238"/>
<path d="M53.942 49.0104C53.942 49.0445 53.7716 49.0331 53.5808 48.9877C53.3899 48.9422 53.24 48.8741 53.2468 48.84C53.2536 48.8059 53.4172 48.8173 53.6103 48.865C53.8034 48.9127 53.9511 48.9763 53.942 49.0104Z" fill="#263238"/>
<path d="M46.2722 10.0401C46.0707 10.0431 45.8701 10.0115 45.6792 9.94696C45.4791 9.92239 45.2851 9.86157 45.1067 9.76748C45.3093 9.74087 45.5152 9.76108 45.7088 9.82655C45.911 9.85133 46.1043 9.9246 46.2722 10.0401Z" fill="#263238"/>
<path d="M48.4712 10.9827C48.09 10.8576 47.7295 10.677 47.4011 10.4465C47.6039 10.4658 47.7993 10.5328 47.9714 10.6419C48.269 10.7919 48.4894 10.9532 48.4712 10.9827Z" fill="#263238"/>
<path d="M50.3774 12.4279C50.3524 12.4528 50.1502 12.2825 49.8958 12.0689C49.6413 11.8553 49.4414 11.6736 49.4709 11.644C49.6647 11.7125 49.8397 11.8253 49.9821 11.9735C50.2297 12.1916 50.4024 12.4051 50.3774 12.4279Z" fill="#263238"/>
<path d="M51.8315 14.3248C51.7997 14.3407 51.6497 14.1204 51.468 13.8477C51.3407 13.6915 51.2408 13.5148 51.1726 13.3252C51.1976 13.3048 51.3884 13.5001 51.5725 13.7796C51.7007 13.9383 51.7895 14.1252 51.8315 14.3248Z" fill="#263238"/>
<path d="M52.6561 16.5672C52.5585 16.391 52.491 16.1999 52.4561 16.0015C52.3802 15.8142 52.3379 15.6151 52.3312 15.4131C52.4539 15.5766 52.5371 15.7664 52.5743 15.9674C52.6506 16.1575 52.6787 16.3636 52.6561 16.5672Z" fill="#263238"/>
<path d="M52.7788 18.9527C52.7383 18.7554 52.7298 18.5529 52.7538 18.3529C52.7367 18.1521 52.7551 17.9498 52.8083 17.7554C52.8777 17.9472 52.9018 18.1525 52.8788 18.3552C52.8931 18.5594 52.8588 18.7642 52.7788 18.9527Z" fill="#263238"/>
<path d="M52.1587 21.2565C52.1831 21.057 52.2399 20.8629 52.3268 20.6817C52.3731 20.4869 52.4498 20.3006 52.554 20.1296C52.5651 20.3343 52.5236 20.5385 52.4336 20.7226C52.3873 20.9205 52.2929 21.1039 52.1587 21.2565Z" fill="#263238"/>
<path d="M50.7705 23.1967C50.7478 23.1694 50.925 22.9695 51.1408 22.7242C51.3567 22.4788 51.5293 22.2698 51.5589 22.2948C51.4944 22.4893 51.3828 22.6649 51.234 22.8059C51.0136 23.0604 50.7932 23.2217 50.7705 23.1967Z" fill="#263238"/>
<path d="M48.7666 24.4872C48.9201 24.3574 49.0935 24.2531 49.2801 24.1782C49.4479 24.067 49.6329 23.9841 49.8276 23.9329C49.6956 24.0901 49.5271 24.2125 49.3369 24.2896C49.166 24.4015 48.9701 24.4694 48.7666 24.4872Z" fill="#263238"/>
<path d="M46.4358 24.9893C46.6259 24.9194 46.8263 24.8818 47.0288 24.878C47.2253 24.8329 47.4278 24.8198 47.6286 24.8394C47.4502 24.9405 47.2496 24.9959 47.0447 25.0007C46.844 25.0487 46.6345 25.0448 46.4358 24.9893Z" fill="#263238"/>
<path d="M44.0957 24.5461C44.4842 24.627 44.8644 24.7434 45.2317 24.8937C45.028 24.9191 44.8213 24.891 44.6319 24.812C44.4329 24.7719 44.248 24.6803 44.0957 24.5461Z" fill="#263238"/>
<path d="M42.437 22.9013C42.4711 22.8899 42.5756 23.1285 42.7619 23.3965C42.9482 23.6646 43.1277 23.8509 43.1027 23.885C43.0777 23.9191 42.855 23.7487 42.6597 23.4692C42.5222 23.3112 42.4436 23.1106 42.437 22.9013Z" fill="#263238"/>
<path d="M43.4458 21.0406C43.4458 21.077 43.1982 21.1565 42.9392 21.3405C42.6802 21.5246 42.5416 21.754 42.5098 21.7358C42.478 21.7177 42.578 21.445 42.8665 21.2406C43.0271 21.1026 43.2343 21.0311 43.4458 21.0406Z" fill="#263238"/>
<path d="M45.4996 21.8927C45.4678 21.9109 45.3224 21.6882 45.0861 21.4701C44.8498 21.252 44.609 21.143 44.6317 21.1089C44.8428 21.1255 45.0395 21.2222 45.1815 21.3792C45.3447 21.5076 45.4574 21.6894 45.4996 21.8927Z" fill="#263238"/>
<path d="M45.5769 24.2123C45.5938 24.0143 45.6311 23.8187 45.6882 23.6284C45.7052 23.4297 45.7425 23.2333 45.7996 23.0422C45.8605 23.2406 45.8605 23.4527 45.7996 23.6511C45.7839 23.8564 45.7063 24.0521 45.5769 24.2123Z" fill="#263238"/>
<path d="M44.0206 25.9956C44.0001 25.9661 44.2069 25.7957 44.4545 25.5844C44.7021 25.3731 44.9089 25.1914 44.9248 25.2141C44.9407 25.2368 44.793 25.4595 44.5363 25.6685C44.2796 25.8775 44.0387 26.0252 44.0206 25.9956Z" fill="#263238"/>
<path d="M41.8964 27.0999C42.0467 26.9639 42.2228 26.8596 42.4144 26.7932C42.5891 26.6902 42.7832 26.6244 42.9846 26.6001C42.6606 26.8406 42.2899 27.0109 41.8964 27.0999Z" fill="#263238"/>
<path d="M39.7585 28.1859C39.7403 28.1564 39.9562 27.9951 40.2424 27.8224C40.4094 27.7059 40.6004 27.6283 40.8013 27.5952C40.8195 27.6293 40.5878 27.7679 40.3038 27.9315C40.1415 28.053 39.9559 28.1397 39.7585 28.1859Z" fill="#263238"/>
<path d="M37.9408 29.7488C37.9159 29.7261 38.0726 29.5034 38.3112 29.2694C38.4427 29.1136 38.6083 28.99 38.7951 28.9082C38.8178 28.9355 38.6338 29.1354 38.3998 29.3626C38.1658 29.5898 37.9772 29.7715 37.9408 29.7488Z" fill="#263238"/>
<path d="M36.5778 31.7073C36.6158 31.5068 36.6998 31.3178 36.8231 31.1552C36.9981 30.8712 37.1775 30.6668 37.2048 30.6872C37.1459 30.8802 37.0528 31.061 36.9299 31.2211C36.7572 31.5005 36.6096 31.7232 36.5778 31.7073Z" fill="#263238"/>
<path d="M35.7053 33.9339C35.6937 33.7304 35.7311 33.527 35.8144 33.3409C35.8571 33.1411 35.9467 32.9542 36.0756 32.7957C36.0091 33.1906 35.8843 33.5734 35.7053 33.9316V33.9339Z" fill="#263238"/>
<path d="M35.3919 36.3056C35.3095 35.9073 35.3378 35.494 35.4737 35.1106C35.5082 35.309 35.5082 35.5119 35.4737 35.7104C35.4815 35.9121 35.4539 36.1135 35.3919 36.3056Z" fill="#263238"/>
<path d="M35.7054 38.6753C35.6034 38.4997 35.5392 38.3047 35.5168 38.1028C35.45 37.9095 35.4328 37.7024 35.4668 37.5007C35.5548 37.6826 35.6131 37.8775 35.6395 38.0778C35.7024 38.2703 35.7249 38.4737 35.7054 38.6753Z" fill="#263238"/>
<path d="M36.6299 40.879C36.6004 40.8972 36.4391 40.6791 36.2914 40.3792C36.1818 40.2067 36.1156 40.0103 36.0983 39.8066C36.2292 39.9602 36.3322 40.1355 36.4027 40.3246C36.5104 40.4946 36.5873 40.6823 36.6299 40.879Z" fill="#263238"/>
<path d="M38.0658 42.7942C38.0431 42.8169 37.8387 42.6443 37.6115 42.3898C37.4652 42.2472 37.3533 42.0732 37.2843 41.8809C37.3138 41.8582 37.4933 42.0581 37.7069 42.308C37.9204 42.5579 38.0908 42.7692 38.0658 42.7942Z" fill="#263238"/>
<path d="M39.9107 44.3164C39.7133 44.2634 39.5311 44.1646 39.3791 44.0279C39.111 43.8325 38.9247 43.6371 38.9429 43.6099C39.1305 43.6854 39.3034 43.793 39.4541 43.9279C39.7176 44.121 39.9289 44.2869 39.9107 44.3164Z" fill="#263238"/>
<path d="M42.0691 45.348C41.8647 45.3466 41.6636 45.296 41.4829 45.2003C41.2859 45.1452 41.1056 45.0422 40.9581 44.9004C41.1571 44.9298 41.3498 44.9919 41.5284 45.0844C41.7215 45.143 41.904 45.2319 42.0691 45.348Z" fill="#263238"/>
<path d="M43.271 45.6547C43.271 45.6865 43.2505 45.7137 43.2392 45.7115C43.2278 45.7092 43.2233 45.6796 43.2392 45.6456C43.2551 45.6115 43.2596 45.5865 43.271 45.5888C43.2823 45.591 43.2778 45.6206 43.271 45.6547Z" fill="#263238"/>
<path d="M41.5338 39.705L39.0493 38.8892L38.5418 40.4347L41.0262 41.2505L41.5338 39.705Z" fill="#FF725E"/>
<g opacity="0.3">
<path d="M41.5338 39.705L39.0493 38.8892L38.5418 40.4347L41.0262 41.2505L41.5338 39.705Z" fill="black"/>
</g>
<path d="M41.5284 39.709C41.0638 39.9419 40.5823 40.1394 40.088 40.2997L40.0448 40.3156L40.0175 40.2793L39.9744 40.2247C39.6297 39.8056 39.3189 39.3597 39.0452 38.8911C39.4197 39.2839 39.7637 39.7047 40.0743 40.1498L40.1152 40.2043L40.0448 40.1838C40.5258 39.9859 41.0219 39.8271 41.5284 39.709Z" fill="#FF725E"/>
<g opacity="0.1">
<path d="M41.5284 39.709C41.0638 39.9419 40.5823 40.1394 40.088 40.2997L40.0448 40.3156L40.0175 40.2793L39.9744 40.2247C39.6297 39.8056 39.3189 39.3597 39.0452 38.8911C39.4197 39.2839 39.7637 39.7047 40.0743 40.1498L40.1152 40.2043L40.0448 40.1838C40.5258 39.9859 41.0219 39.8271 41.5284 39.709Z" fill="black"/>
</g>
<path d="M39.7585 39.8384C39.5875 39.9922 39.3895 40.1131 39.1746 40.1951C38.9767 40.3124 38.7599 40.3947 38.5339 40.4382C38.7065 40.2852 38.905 40.1644 39.1201 40.0815C39.3175 39.9647 39.5334 39.8825 39.7585 39.8384Z" fill="#FF725E"/>
<g opacity="0.1">
<path d="M39.7585 39.8384C39.5875 39.9922 39.3895 40.1131 39.1746 40.1951C38.9767 40.3124 38.7599 40.3947 38.5339 40.4382C38.7065 40.2852 38.905 40.1644 39.1201 40.0815C39.3175 39.9647 39.5334 39.8825 39.7585 39.8384Z" fill="black"/>
</g>
<path d="M41.0647 41.2675C40.9256 41.0961 40.818 40.9016 40.7466 40.6927C40.5967 40.3542 40.4967 40.0634 40.5422 40.0679C40.6816 40.2394 40.79 40.4339 40.8625 40.6427C40.9683 40.8365 41.0369 41.0484 41.0647 41.2675Z" fill="#FF725E"/>
<g opacity="0.1">
<path d="M41.0647 41.2675C40.9256 41.0961 40.818 40.9016 40.7466 40.6927C40.5967 40.3542 40.4967 40.0634 40.5422 40.0679C40.6816 40.2394 40.79 40.4339 40.8625 40.6427C40.9683 40.8365 41.0369 41.0484 41.0647 41.2675Z" fill="black"/>
</g>
<path d="M51.6648 45.7591L45.2756 43.6609L43.9699 47.6369L50.3591 49.735L51.6648 45.7591Z" fill="#FF725E"/>
<path d="M51.6588 45.7636C51.5678 45.8158 51.4719 45.8592 51.3725 45.8931L50.5774 46.2043C49.8958 46.461 48.9666 46.8109 47.9192 47.1949L47.876 47.2108L47.8488 47.1744L47.742 47.0336C47.0468 46.1248 46.4197 45.2774 45.9722 44.6662L45.4383 43.9415C45.3702 43.8547 45.3101 43.762 45.2588 43.6643C45.3421 43.7396 45.4182 43.8225 45.486 43.9119L46.0426 44.614C46.5083 45.2092 47.1445 46.0385 47.842 46.9586L47.9487 47.0972L47.8783 47.0767C48.9234 46.695 49.8662 46.3588 50.5478 46.1225L51.3566 45.8476C51.4545 45.8102 51.5557 45.7821 51.6588 45.7636Z" fill="#FF725E"/>
<g opacity="0.2">
<path d="M51.6588 45.7636C51.5678 45.8158 51.4719 45.8592 51.3725 45.8931L50.5774 46.2043C49.8958 46.461 48.9666 46.8109 47.9192 47.1949L47.876 47.2108L47.8488 47.1744L47.742 47.0336C47.0468 46.1248 46.4197 45.2774 45.9722 44.6662L45.4383 43.9415C45.3702 43.8547 45.3101 43.762 45.2588 43.6643C45.3421 43.7396 45.4182 43.8225 45.486 43.9119L46.0426 44.614C46.5083 45.2092 47.1445 46.0385 47.842 46.9586L47.9487 47.0972L47.8783 47.0767C48.9234 46.695 49.8662 46.3588 50.5478 46.1225L51.3566 45.8476C51.4545 45.8102 51.5557 45.7821 51.6588 45.7636Z" fill="black"/>
</g>
<path d="M47.115 46.1023C46.6182 46.4127 46.1005 46.6883 45.5656 46.927C45.0486 47.2012 44.5135 47.4396 43.9639 47.6404C44.4587 47.3273 44.9758 47.0509 45.511 46.8134C46.0276 46.5374 46.5637 46.2998 47.115 46.1023Z" fill="#FF725E"/>
<g opacity="0.2">
<path d="M47.115 46.1023C46.6182 46.4127 46.1005 46.6883 45.5656 46.927C45.0486 47.2012 44.5135 47.4396 43.9639 47.6404C44.4587 47.3273 44.9758 47.0509 45.511 46.8134C46.0276 46.5374 46.5637 46.2998 47.115 46.1023Z" fill="black"/>
</g>
<path d="M50.4683 49.7758C50.1887 49.2882 49.945 48.781 49.739 48.2581C49.4963 47.7506 49.2913 47.2259 49.1256 46.6882C49.4055 47.1764 49.6492 47.6844 49.8549 48.2081C50.0978 48.7148 50.3028 49.2388 50.4683 49.7758Z" fill="#FF725E"/>
<g opacity="0.2">
<path d="M50.4683 49.7758C50.1887 49.2882 49.945 48.781 49.739 48.2581C49.4963 47.7506 49.2913 47.2259 49.1256 46.6882C49.4055 47.1764 49.6492 47.6844 49.8549 48.2081C50.0978 48.7148 50.3028 49.2388 50.4683 49.7758Z" fill="black"/>
</g>
<path d="M45.62 44.6436C45.4609 44.7602 45.2709 44.8271 45.0739 44.8358C44.8769 44.8445 44.6817 44.7946 44.513 44.6924C44.3444 44.5901 44.2098 44.4402 44.1263 44.2615C44.0429 44.0828 44.0142 43.8834 44.0441 43.6885C44.0739 43.4935 44.1609 43.3118 44.294 43.1663C44.4271 43.0208 44.6004 42.918 44.7919 42.8709C44.9834 42.8238 45.1846 42.8346 45.37 42.9018C45.5554 42.969 45.7167 43.0897 45.8335 43.2486C45.9112 43.3542 45.9672 43.4741 45.9985 43.6013C46.0298 43.7286 46.0357 43.8608 46.0159 43.9903C45.996 44.1199 45.9508 44.2443 45.8829 44.3564C45.815 44.4684 45.7256 44.566 45.62 44.6436Z" fill="#263238"/>
<path d="M45.6656 43.6554C45.4546 43.8123 45.2303 43.9506 44.9954 44.0689L44.8364 44.1575L44.8068 44.1734L44.7909 44.1461C44.6834 43.9755 44.5922 43.7953 44.5183 43.6077C44.6449 43.765 44.7553 43.9348 44.8477 44.1143L44.8046 44.1007L44.9636 44.0098C45.1869 43.8715 45.4218 43.7529 45.6656 43.6554Z" fill="white"/>
<path d="M47.5606 40.4022L44.2128 39.3027L43.5287 41.3857L46.8766 42.4851L47.5606 40.4022Z" fill="#FF725E"/>
<g opacity="0.2">
<path d="M47.5606 40.4022L44.2128 39.3027L43.5287 41.3857L46.8766 42.4851L47.5606 40.4022Z" fill="black"/>
</g>
<path d="M47.5534 40.4043C47.5067 40.4322 47.4572 40.4551 47.4057 40.4725L46.9877 40.636C46.6355 40.7701 46.1448 40.9541 45.595 41.154H45.5723L45.5586 41.1336L45.5041 41.0609C45.1383 40.5792 44.8225 40.1408 44.5749 39.8204L44.3023 39.4501C44.2671 39.4044 44.2359 39.3558 44.2091 39.3047C44.2512 39.3439 44.2893 39.3873 44.3227 39.4342L44.6158 39.8022C44.8589 40.1135 45.1928 40.5474 45.5564 41.0291L45.6132 41.104H45.5768C46.1243 40.9041 46.6173 40.7269 46.9763 40.6042L47.3989 40.4611C47.4481 40.4364 47.4999 40.4174 47.5534 40.4043Z" fill="#FF725E"/>
<g opacity="0.2">
<path d="M47.5534 40.4043C47.5067 40.4322 47.4572 40.4551 47.4057 40.4725L46.9877 40.636C46.6355 40.7701 46.1448 40.9541 45.595 41.154H45.5723L45.5586 41.1336L45.5041 41.0609C45.1383 40.5792 44.8225 40.1408 44.5749 39.8204L44.3023 39.4501C44.2671 39.4044 44.2359 39.3558 44.2091 39.3047C44.2512 39.3439 44.2893 39.3873 44.3227 39.4342L44.6158 39.8022C44.8589 40.1135 45.1928 40.5474 45.5564 41.0291L45.6132 41.104H45.5768C46.1243 40.9041 46.6173 40.7269 46.9763 40.6042L47.3989 40.4611C47.4481 40.4364 47.4999 40.4174 47.5534 40.4043Z" fill="#FF725E"/>
</g>
<path d="M45.1748 40.5815C44.9144 40.7434 44.6434 40.8876 44.3637 41.0132C44.0923 41.1571 43.8115 41.2824 43.5231 41.3881C43.7824 41.2237 44.0535 41.0787 44.3341 40.9541C44.605 40.8099 44.886 40.6854 45.1748 40.5815Z" fill="#FF725E"/>
<g opacity="0.2">
<path d="M45.1748 40.5815C44.9144 40.7434 44.6434 40.8876 44.3637 41.0132C44.0923 41.1571 43.8115 41.2824 43.5231 41.3881C43.7824 41.2237 44.0535 41.0787 44.3341 40.9541C44.605 40.8099 44.886 40.6854 45.1748 40.5815Z" fill="#FF725E"/>
</g>
<path d="M46.9309 42.5058C46.7843 42.2505 46.6567 41.9847 46.5492 41.7106C46.4229 41.4442 46.3151 41.1694 46.2266 40.8882C46.5022 41.4087 46.7376 41.9494 46.9309 42.5058Z" fill="#FF725E"/>
<g opacity="0.2">
<path d="M46.9309 42.5058C46.7843 42.2505 46.6567 41.9847 46.5492 41.7106C46.4229 41.4442 46.3151 41.1694 46.2266 40.8882C46.5022 41.4087 46.7376 41.9494 46.9309 42.5058Z" fill="#FF725E"/>
</g>
<path d="M20.6745 14.3294C20.4434 15.2387 19.948 16.0591 19.2507 16.6868C18.5535 17.3145 17.6857 17.7214 16.7573 17.856C15.8288 17.9905 14.8812 17.8468 14.0345 17.4429C13.1877 17.039 12.4797 16.393 12 15.5868C11.5203 14.7805 11.2904 13.8501 11.3395 12.9132C11.3886 11.9763 11.7143 11.075 12.2756 10.3232C12.8369 9.57145 13.6085 9.003 14.4928 8.68974C15.3772 8.37648 16.3345 8.33247 17.2439 8.56329C18.4632 8.87341 19.5095 9.65498 20.1528 10.7362C20.7961 11.8175 20.9837 13.1099 20.6745 14.3294Z" fill="#263238"/>
<path d="M17.8276 10.5899C17.9116 10.624 17.3732 12.2121 16.6235 14.1386C16.5121 14.4181 16.3963 14.6862 16.3031 14.9497L16.2463 15.0928L16.1032 15.0383C14.5651 14.4454 13.4405 13.9569 13.4678 13.8865C13.495 13.816 14.6628 14.1841 16.2122 14.7452L16.0123 14.8361C16.1123 14.5726 16.2168 14.3022 16.3236 14.0228C17.071 12.0939 17.7458 10.5649 17.8276 10.5899Z" fill="white"/>
<path d="M78.9833 81.4691C79.8332 81.0699 80.7887 80.9536 81.7096 81.1374C82.2049 81.2192 82.7206 81.3646 83.0591 81.7372C83.3976 82.1098 83.459 82.7641 83.0728 83.0844C82.8227 83.2518 82.5227 83.328 82.2231 83.3003C81.5006 83.3003 80.7009 83.1639 80.1238 83.5979C79.7944 83.8455 79.5763 84.2567 79.1832 84.3794C78.9866 84.4242 78.7807 84.4042 78.5965 84.3223C78.4122 84.2404 78.2594 84.101 78.1609 83.925C77.9736 83.5635 77.9321 83.1439 78.045 82.7527C78.0916 82.4808 78.2006 82.2234 78.3634 82.0007C78.5262 81.778 78.7384 81.596 78.9833 81.4691Z" fill="#FF725E"/>
<g opacity="0.2">
<path d="M78.9833 81.4691C79.8332 81.0699 80.7887 80.9536 81.7096 81.1374C82.2049 81.2192 82.7206 81.3646 83.0591 81.7372C83.3976 82.1098 83.459 82.7641 83.0728 83.0844C82.8227 83.2518 82.5227 83.328 82.2231 83.3003C81.5006 83.3003 80.7009 83.1639 80.1238 83.5979C79.7944 83.8455 79.5763 84.2567 79.1832 84.3794C78.9866 84.4242 78.7807 84.4042 78.5965 84.3223C78.4122 84.2404 78.2594 84.101 78.1609 83.925C77.9736 83.5635 77.9321 83.1439 78.045 82.7527C78.0916 82.4808 78.2006 82.2234 78.3634 82.0007C78.5262 81.778 78.7384 81.596 78.9833 81.4691Z" fill="white"/>
</g>
<path d="M77.0815 77.7975C77.5905 78.5223 78.5765 78.2814 79.0331 77.8384C79.4898 77.3954 79.6852 76.7547 79.8601 76.1436C80.2622 74.7463 80.6666 73.2809 80.369 71.8587C80.2956 71.4278 80.1063 71.0249 79.8215 70.6932C79.6766 70.5302 79.4914 70.408 79.2845 70.339C79.0775 70.2701 78.8561 70.2567 78.6424 70.3002C78.1448 70.432 77.8358 70.9204 77.6132 71.3839C76.9551 72.7524 76.6098 74.2502 76.6022 75.7687C76.6022 76.4753 76.684 77.2159 77.0815 77.7998" fill="#FF725E"/>
<path d="M75.6889 78.8382C76.2387 78.1839 76.3432 77.2297 76.0979 76.4095C75.8194 75.5958 75.3227 74.8744 74.662 74.3239C73.9095 73.6594 73.0354 73.1471 72.0879 72.8153C71.7204 72.6668 71.3252 72.5994 70.9292 72.6177C70.7316 72.6295 70.5398 72.6892 70.3703 72.7917C70.2009 72.8943 70.059 73.0365 69.9569 73.2061C69.6865 73.7218 69.9455 74.3421 70.2272 74.8601C70.7226 75.7616 71.2878 76.623 71.9175 77.4364C72.4242 78.0885 73.0058 78.7337 73.7782 79.0268C74.5507 79.3198 75.3527 79.288 75.7616 78.7519" fill="#FF725E"/>
<g opacity="0.1">
<path d="M75.6889 78.8382C76.2387 78.1839 76.3432 77.2297 76.0979 76.4095C75.8194 75.5958 75.3227 74.8744 74.662 74.3239C73.9095 73.6594 73.0354 73.1471 72.0879 72.8153C71.7204 72.6668 71.3252 72.5994 70.9292 72.6177C70.7316 72.6295 70.5398 72.6892 70.3703 72.7917C70.2009 72.8943 70.059 73.0365 69.9569 73.2061C69.6865 73.7218 69.9455 74.3421 70.2272 74.8601C70.7226 75.7616 71.2878 76.623 71.9175 77.4364C72.4242 78.0885 73.0058 78.7337 73.7782 79.0268C74.5507 79.3198 75.3527 79.288 75.7616 78.7519" fill="black"/>
</g>
<path d="M77.0476 88.7323C77.074 88.6244 77.0892 88.514 77.093 88.4029C77.118 88.1621 77.1453 87.8622 77.1816 87.4941C77.2262 87.0517 77.2937 86.6119 77.3838 86.1764C77.5013 85.6456 77.6616 85.1251 77.8632 84.6202C78.0604 84.1154 78.3281 83.6412 78.6584 83.2116C78.9265 82.8614 79.2696 82.5757 79.6626 82.3755C79.9289 82.2444 80.214 82.1555 80.5077 82.112C80.6181 82.1082 80.7277 82.093 80.8349 82.0665C80.7247 82.053 80.6133 82.053 80.5032 82.0665C80.1975 82.0894 79.8983 82.1663 79.6194 82.2937C79.2066 82.4899 78.8444 82.7782 78.5607 83.1366C78.2165 83.5719 77.9386 84.0558 77.736 84.5725C77.532 85.0878 77.3732 85.6199 77.2612 86.1628C77.1756 86.6033 77.1172 87.0487 77.0862 87.4964C77.0567 87.8781 77.0453 88.178 77.0408 88.4052C77.032 88.5142 77.0342 88.6238 77.0476 88.7323Z" fill="#263238"/>
<path d="M77.1088 88.0372C77.1157 87.9867 77.1157 87.9355 77.1088 87.885V87.4488C77.1088 87.0694 77.1088 86.5196 77.127 85.8426C77.1611 84.4794 77.2769 82.6142 77.5041 80.5581C77.7313 78.502 78.0312 76.6504 78.3061 75.3327C78.3697 75.001 78.4356 74.7011 78.497 74.4398C78.5583 74.1785 78.606 73.9491 78.6537 73.7582C78.7014 73.5674 78.7287 73.4447 78.7559 73.3334C78.7714 73.284 78.7806 73.2328 78.7832 73.1812C78.7602 73.2266 78.7426 73.2747 78.731 73.3243L78.6037 73.7446C78.5469 73.9263 78.4901 74.1513 78.4242 74.4125C78.3584 74.6738 78.2834 74.9714 78.2107 75.3054C77.8401 77.0342 77.5617 78.7815 77.3769 80.5399C77.1497 82.6005 77.0497 84.4771 77.0406 85.8358C77.0406 86.5173 77.0407 87.0649 77.0634 87.4443C77.074 87.6215 77.0831 87.7669 77.0906 87.8805C77.0916 87.9332 77.0977 87.9857 77.1088 88.0372Z" fill="#263238"/>
<path d="M77.1178 84.4201C77.1301 84.2689 77.1301 84.1169 77.1178 83.9657C77.0923 83.5516 77.0453 83.1391 76.977 82.7298C76.7511 81.3767 76.3636 80.0556 75.8228 78.7948C75.3007 77.5204 74.5509 76.3518 73.61 75.3461C73.4473 75.1736 73.2735 75.0119 73.0897 74.8621C73.0102 74.794 72.9398 74.7281 72.8625 74.6736L72.6626 74.535C72.5403 74.4428 72.4112 74.3601 72.2764 74.2874C72.7192 74.6362 73.1403 75.0118 73.5373 75.4119C74.4468 76.426 75.1767 77.5877 75.6956 78.8471C75.9939 79.534 76.2466 80.2399 76.4522 80.96C76.6498 81.6211 76.7816 82.23 76.8815 82.7434C76.9815 83.2569 77.0292 83.6772 77.0633 83.968C77.0707 84.1198 77.0889 84.2709 77.1178 84.4201Z" fill="#263238"/>
<path d="M42.5643 54.4696H52.0769L55.8437 43.946H55.3166L51.5816 53.9561L42.5643 54.0084V54.4696Z" fill="#455A64"/>
<path d="M38.3615 55.7985L38.7136 88.7618H39.6814L39.2884 55.5554L38.3615 55.7985Z" fill="#263238"/>
<path d="M58.7222 55.478C58.5927 56.1073 59.5947 88.8366 59.5947 88.8366H60.5034L59.7651 55.478H58.7222Z" fill="#263238"/>
<path d="M69.8435 54.4695H29.3965V56.1371H32.7339L30.562 88.6551L31.5116 88.7073L33.6859 56.1371H66.4401L68.0282 88.721H68.9801L67.3921 56.1371H69.8435V54.4695Z" fill="#263238"/>
<path d="M47.0286 87.5214V85.0223L42.3462 84.9746L42.2939 88.6324L42.5848 88.6528C43.8752 88.7392 49.1551 88.9936 50.0207 88.7415C50.984 88.4597 47.0286 87.5214 47.0286 87.5214Z" fill="#FF725E"/>
<path d="M43.9888 88.612C43.9244 88.2163 43.7155 87.8585 43.4026 87.6078C43.0955 87.359 42.7067 87.2335 42.3121 87.2557L42.2985 88.5643L43.9888 88.612Z" fill="#F5F5F5"/>
<path d="M48.955 88.0486C48.955 88.0486 50.3455 88.4666 50.1683 88.6938C49.991 88.921 44.6475 88.8642 42.2915 88.6325V88.528L48.5257 88.6484C48.5257 88.6484 48.6824 88.0577 48.955 88.0486Z" fill="#F5F5F5"/>
<path d="M42.3077 88.5234L42.5349 88.5416L43.3846 88.5871C44.1025 88.6211 45.0953 88.6529 46.1927 88.6666C47.29 88.6802 48.2851 88.6666 49.003 88.6507L49.855 88.6257L50.0822 88.6143H50.1617C50.1353 88.6109 50.1086 88.6109 50.0822 88.6143H49.855H49.003C48.2851 88.6143 47.29 88.6143 46.1949 88.6143C45.0999 88.6143 44.1048 88.5734 43.3868 88.5507L42.5349 88.5234H42.3077Z" fill="#263238"/>
<path d="M48.5327 88.7187C48.5713 88.578 48.6262 88.4423 48.6963 88.3143C48.7808 88.1955 48.8792 88.0872 48.9894 87.9917C48.8488 88.0524 48.73 88.1545 48.6488 88.2844C48.5677 88.4142 48.528 88.5657 48.535 88.7187H48.5327Z" fill="#263238"/>
<path d="M47.1581 88.0054C47.1717 88.0054 47.2399 87.9327 47.308 87.8259C47.3762 87.7191 47.4239 87.626 47.4103 87.6169C47.3966 87.6078 47.3307 87.6896 47.2603 87.7964C47.2115 87.8578 47.1766 87.9291 47.1581 88.0054Z" fill="#263238"/>
<path d="M46.7811 87.81C46.7925 87.8214 46.8674 87.7736 46.9492 87.7009C47.031 87.6282 47.0878 87.5623 47.0765 87.551C47.0651 87.5396 46.9924 87.5873 46.9106 87.6578C46.8288 87.7282 46.772 87.7895 46.7811 87.81Z" fill="#263238"/>
<path d="M46.547 87.3557C46.6243 87.3857 46.7075 87.3974 46.7901 87.3897C46.8726 87.4005 46.9564 87.3928 47.0355 87.367C46.9582 87.3369 46.8749 87.3253 46.7924 87.3329C46.7099 87.3224 46.6261 87.3302 46.547 87.3557Z" fill="#263238"/>
<path d="M46.4674 87.0442C46.5515 87.0899 46.6442 87.1177 46.7396 87.1259C46.835 87.1341 46.9311 87.1225 47.0218 87.0919C46.8368 87.0775 46.6521 87.0616 46.4674 87.0442Z" fill="#263238"/>
<path d="M47.3215 87.5986C47.4215 87.6159 47.5237 87.6159 47.6237 87.5986C47.7324 87.5871 47.8397 87.565 47.944 87.5327C48.008 87.5148 48.0698 87.4896 48.1281 87.4577C48.146 87.4483 48.1618 87.4354 48.1747 87.4198C48.1876 87.4042 48.1972 87.3862 48.203 87.3668C48.2081 87.3444 48.2067 87.321 48.199 87.2993C48.1914 87.2776 48.1778 87.2585 48.1599 87.2442C48.0458 87.1878 47.9158 87.1724 47.7917 87.2005C47.6676 87.2286 47.5569 87.2986 47.4783 87.3987C47.4304 87.4573 47.3956 87.5255 47.3761 87.5986C47.3761 87.6508 47.3761 87.6804 47.3761 87.6804C47.4061 87.5877 47.4531 87.5014 47.5146 87.4259C47.5828 87.3464 47.6729 87.2888 47.7736 87.2601C47.8325 87.2412 47.8945 87.234 47.9561 87.2391C48.0177 87.2442 48.0776 87.2613 48.1326 87.2896C48.1803 87.326 48.1599 87.3805 48.1076 87.4123C48.0533 87.4414 47.9962 87.4649 47.9372 87.4827C47.8356 87.5165 47.7316 87.5423 47.626 87.56C47.4374 87.5827 47.3215 87.5827 47.3215 87.5986Z" fill="#263238"/>
<path d="M47.3991 87.6145C47.4371 87.5518 47.4508 87.4775 47.4377 87.4054C47.4293 87.3245 47.4021 87.2467 47.3582 87.1782C47.3332 87.1331 47.2972 87.095 47.2535 87.0676C47.2098 87.0401 47.1598 87.0243 47.1083 87.0215C47.0776 87.0275 47.0505 87.0455 47.033 87.0715C47.0156 87.0975 47.0091 87.1293 47.0151 87.1601C47.0213 87.2076 47.0376 87.2534 47.0628 87.2941C47.1031 87.3603 47.1503 87.422 47.2037 87.4781C47.2491 87.5329 47.3077 87.5752 47.3741 87.6008C47.3741 87.6008 47.315 87.5463 47.2332 87.4509C47.1859 87.3949 47.1447 87.334 47.1106 87.2691C47.0697 87.2055 47.0424 87.0896 47.1106 87.0783C47.1787 87.0669 47.2628 87.1464 47.3082 87.2078C47.3485 87.2666 47.3764 87.3331 47.39 87.4032C47.4012 87.473 47.4043 87.5439 47.3991 87.6145Z" fill="#263238"/>
<path d="M42.3372 87.2444C42.3372 87.2444 42.4712 87.233 42.6825 87.2603C42.9576 87.2952 43.2178 87.4053 43.4345 87.5783C43.6453 87.7598 43.8024 87.9955 43.8889 88.2599C43.957 88.4598 43.9639 88.5961 43.9729 88.5939C43.982 88.5916 43.9729 88.5598 43.9729 88.5007C43.9651 88.4146 43.9492 88.3294 43.9252 88.2463C43.8435 87.9706 43.6805 87.726 43.4576 87.5444C43.2347 87.3628 42.9622 87.2527 42.6757 87.2285C42.5896 87.2188 42.5027 87.2188 42.4167 87.2285C42.3894 87.2286 42.3624 87.234 42.3372 87.2444Z" fill="#263238"/>
<path d="M42.8437 85.311C42.7892 85.9502 42.7741 86.5921 42.7983 87.2331C42.8343 86.914 42.851 86.5931 42.8483 86.2721C42.8647 85.9519 42.8632 85.631 42.8437 85.311Z" fill="#263238"/>
<path d="M44.5839 88.1622C44.8067 88.2175 45.0359 88.2427 45.2654 88.2372C45.4937 88.252 45.723 88.236 45.947 88.1895C45.947 88.1736 45.6403 88.1895 45.2654 88.1895C44.8906 88.1895 44.5861 88.1463 44.5839 88.1622Z" fill="#263238"/>
<path d="M43.6661 88.1507C43.6661 88.162 43.6911 88.2165 43.7207 88.287C43.7502 88.3574 43.7684 88.4187 43.7843 88.4187C43.8002 88.4187 43.8093 88.3438 43.7729 88.2642C43.7366 88.1847 43.6775 88.1393 43.6661 88.1507Z" fill="#263238"/>
<path d="M43.3254 87.7169C43.3254 87.7283 43.3436 87.776 43.3913 87.826C43.439 87.8759 43.4867 87.9077 43.4981 87.8964C43.5095 87.885 43.4799 87.8373 43.4322 87.7873C43.3845 87.7373 43.3368 87.7055 43.3254 87.7169Z" fill="#263238"/>
<path d="M42.8324 87.5146C42.8324 87.5305 42.8982 87.5305 42.9664 87.5555C43.0346 87.5805 43.0845 87.6191 43.0959 87.6077C43.1073 87.5964 43.0709 87.5327 42.9846 87.5032C42.8982 87.4737 42.8278 87.5009 42.8324 87.5146Z" fill="#263238"/>
<path d="M42.4847 87.4192C42.4847 87.4328 42.5052 87.4578 42.5438 87.4737C42.5824 87.4896 42.6188 87.4896 42.6233 87.4737C42.6279 87.4578 42.6029 87.4351 42.5643 87.4192C42.5256 87.4033 42.4847 87.4033 42.4847 87.4192Z" fill="#263238"/>
<path d="M56.2344 84.9996L55.2075 82.7163L50.9204 84.5997L52.3767 87.9531L52.6493 87.8531C53.8625 87.3987 58.7835 85.4608 59.4651 84.8746C60.2353 84.2203 56.2344 84.9996 56.2344 84.9996Z" fill="#FF725E"/>
<path d="M53.9238 87.2376C53.7027 86.9004 53.3643 86.6575 52.9741 86.556C52.5925 86.4568 52.1876 86.503 51.8381 86.6855L52.3629 87.8828L53.9238 87.2376Z" fill="#F5F5F5"/>
<path d="M58.2178 84.6815C58.2178 84.6815 59.656 84.4884 59.581 84.7701C59.506 85.0518 54.6191 87.1965 52.3767 87.9508L52.3427 87.8531L58.0724 85.3972C58.0724 85.3972 57.9725 84.8019 58.2178 84.6815Z" fill="#F5F5F5"/>
<path d="M52.2792 87.8827L52.3564 87.8578L52.5836 87.7782L53.3788 87.4693C54.0467 87.2034 54.9691 86.8263 55.971 86.3856C56.973 85.9448 57.8772 85.529 58.5247 85.2155L59.2903 84.8429L59.4971 84.7361C59.522 84.7262 59.5457 84.7132 59.5675 84.6975L59.4925 84.727L59.2812 84.8225L58.5088 85.1814C57.8567 85.4813 56.9525 85.8948 55.9483 86.3333C54.9441 86.7718 54.0263 87.158 53.3629 87.4329L52.5768 87.7578L52.3632 87.8464L52.2792 87.8827Z" fill="#263238"/>
<path d="M58.1088 85.4677C58.0849 85.3236 58.0788 85.1771 58.0906 85.0315C58.1205 84.8886 58.1655 84.7492 58.2246 84.6157C58.1132 84.7232 58.0452 84.868 58.0338 85.0224C58.0035 85.175 58.0302 85.3334 58.1088 85.4677Z" fill="#263238"/>
<path d="M56.5706 85.3789C56.5865 85.3789 56.6138 85.2813 56.6342 85.1518C56.6547 85.0223 56.657 84.9246 56.6342 84.9246C56.6115 84.9246 56.5911 85.0223 56.5706 85.1518C56.552 85.2263 56.552 85.3044 56.5706 85.3789Z" fill="#263238"/>
<path d="M56.1345 85.3494C56.1481 85.3494 56.1958 85.279 56.2413 85.1813C56.2867 85.0836 56.3094 84.9972 56.2958 84.9904C56.2822 84.9836 56.2344 85.0586 56.189 85.1585C56.1436 85.2585 56.1163 85.3426 56.1345 85.3494Z" fill="#263238"/>
<path d="M55.7369 85.0406C55.8166 85.0329 55.894 85.0089 55.9641 84.9702C56.089 84.9179 56.1913 84.8634 56.1776 84.8497C56.164 84.8361 56.0663 84.8657 55.9504 84.9179C55.8346 84.9702 55.7301 85.0247 55.7369 85.0406Z" fill="#263238"/>
<path d="M55.5369 84.7883C55.6325 84.8039 55.7307 84.7904 55.8186 84.7496C55.9118 84.7268 55.9958 84.676 56.0594 84.6042C55.9697 84.6273 55.8822 84.6584 55.7981 84.6974C55.7084 84.7193 55.6209 84.7497 55.5369 84.7883Z" fill="#263238"/>
<path d="M56.5435 84.9428C56.6413 84.9174 56.7342 84.876 56.8184 84.8201C56.9118 84.7637 57 84.6991 57.0819 84.627C57.1331 84.5844 57.1796 84.5364 57.2205 84.4838C57.2444 84.4502 57.2549 84.4089 57.25 84.368C57.246 84.3457 57.2354 84.3252 57.2196 84.309C57.2038 84.2928 57.1836 84.2817 57.1614 84.2771C57.0792 84.2737 56.9973 84.2886 56.9216 84.3208C56.8458 84.3529 56.7782 84.4016 56.7236 84.4631C56.669 84.5247 56.6288 84.5976 56.6059 84.6767C56.583 84.7557 56.578 84.8388 56.5912 84.92C56.5938 84.948 56.6024 84.9751 56.6162 84.9996C56.608 84.902 56.6157 84.8038 56.6389 84.7088C56.6687 84.6086 56.7272 84.5194 56.807 84.452C56.8997 84.3691 57.0213 84.3259 57.1455 84.3316C57.2046 84.343 57.2091 84.402 57.1728 84.4543C57.1354 84.5028 57.0936 84.5476 57.0478 84.5883C56.9684 84.6599 56.8841 84.7259 56.7957 84.786C56.6434 84.8882 56.5389 84.9337 56.5435 84.9428Z" fill="#263238"/>
<path d="M56.6208 84.9246C56.6279 84.8525 56.6094 84.7801 56.5685 84.7202C56.5276 84.6517 56.4717 84.5934 56.4049 84.5498C56.3636 84.5194 56.3153 84.4999 56.2645 84.4931C56.2136 84.4864 56.1619 84.4926 56.1141 84.5112C56.0886 84.529 56.0713 84.5562 56.0657 84.5869C56.0602 84.6175 56.067 84.6491 56.0846 84.6747C56.1094 84.7162 56.1436 84.7512 56.1846 84.777C56.248 84.8221 56.3167 84.8595 56.389 84.8883C56.4534 84.919 56.5245 84.933 56.5958 84.9292C56.5958 84.9292 56.5185 84.9042 56.4049 84.8497C56.3379 84.8191 56.2747 84.781 56.2164 84.7361C56.1528 84.6952 56.0823 84.602 56.1459 84.5589C56.1841 84.5477 56.2243 84.5451 56.2636 84.5514C56.3029 84.5577 56.3403 84.5727 56.3731 84.5952C56.4355 84.6315 56.489 84.6812 56.5299 84.7406C56.5653 84.7993 56.5957 84.8609 56.6208 84.9246Z" fill="#263238"/>
<path d="M51.8544 86.674C51.8544 86.674 51.9703 86.6081 52.1747 86.5468C52.4395 86.4637 52.7224 86.4574 52.9906 86.5286C53.2588 86.5997 53.5014 86.7455 53.6901 86.9489C53.8355 87.1057 53.8968 87.2261 53.9059 87.2193C53.8972 87.1888 53.8842 87.1598 53.8673 87.133C53.8258 87.0581 53.7763 86.988 53.7196 86.9239C53.5327 86.7045 53.2842 86.5462 53.0063 86.4696C52.728 86.3979 52.4349 86.4098 52.1634 86.5036C52.0839 86.5326 52.0078 86.5699 51.9362 86.615C51.8771 86.6468 51.8521 86.674 51.8544 86.674Z" fill="#263238"/>
<path d="M51.5157 84.6904C51.6121 85.0004 51.7282 85.304 51.8634 85.5992C51.9812 85.8979 52.1154 86.1899 52.2655 86.4739C52.1668 86.1681 52.0499 85.8684 51.9156 85.5765C51.7989 85.2739 51.6654 84.9781 51.5157 84.6904Z" fill="#263238"/>
<path d="M54.2784 86.5831C54.5046 86.5398 54.7245 86.4681 54.9327 86.3695C55.148 86.2893 55.3513 86.18 55.537 86.0446C55.537 86.031 55.2576 86.1696 54.91 86.3173C54.5624 86.4649 54.2738 86.5672 54.2784 86.5831Z" fill="#263238"/>
<path d="M53.4377 86.9489C53.4377 86.9649 53.4877 86.9989 53.5445 87.0512C53.6013 87.1034 53.6422 87.1534 53.6559 87.1443C53.6695 87.1353 53.6559 87.0671 53.5832 87.008C53.5104 86.949 53.4423 86.9353 53.4377 86.9489Z" fill="#263238"/>
<path d="M52.9493 86.6944C52.9493 86.7103 52.9902 86.7421 53.0538 86.7671C53.1175 86.7921 53.1743 86.8012 53.1811 86.7876C53.1879 86.7739 53.1402 86.7399 53.0766 86.7149C53.013 86.6899 52.9539 86.674 52.9493 86.6944Z" fill="#263238"/>
<path d="M52.4176 86.7126C52.4176 86.7262 52.4835 86.7012 52.5562 86.6967C52.6289 86.6921 52.6879 86.6967 52.6948 86.6967C52.7016 86.6967 52.6402 86.6376 52.5516 86.6467C52.463 86.6558 52.4062 86.7012 52.4176 86.7126Z" fill="#263238"/>
<path d="M52.0563 86.7694C52.0563 86.7853 52.0926 86.7967 52.1335 86.7944C52.1744 86.7921 52.2085 86.7785 52.2085 86.7626C52.2085 86.7467 52.1721 86.7353 52.1312 86.7376C52.0904 86.7399 52.0563 86.7535 52.0563 86.7694Z" fill="#263238"/>
<path d="M13.7472 68.2987L10.3666 43.0372C10.3455 42.88 10.3598 42.72 10.4085 42.569C10.4571 42.418 10.5388 42.2798 10.6476 42.1644C10.7565 42.049 10.8897 41.9594 11.0377 41.9021C11.1856 41.8448 11.3444 41.8212 11.5026 41.8331L19.652 42.5147C20.0155 42.5452 20.3563 42.7038 20.6139 42.9622C20.8714 43.2205 21.0289 43.5619 21.0583 43.9255L23.0439 67.842L13.7472 68.2987Z" fill="#FF725E"/>
<g opacity="0.2">
<path d="M13.7472 68.2987L10.3666 43.0372C10.3455 42.88 10.3598 42.72 10.4085 42.569C10.4571 42.418 10.5388 42.2798 10.6476 42.1644C10.7565 42.049 10.8897 41.9594 11.0377 41.9021C11.1856 41.8448 11.3444 41.8212 11.5026 41.8331L19.652 42.5147C20.0155 42.5452 20.3563 42.7038 20.6139 42.9622C20.8714 43.2205 21.0289 43.5619 21.0583 43.9255L23.0439 67.842L13.7472 68.2987Z" fill="#DC6321" fill-opacity="0.7"/>
</g>
<path d="M21.6082 31.1733C21.54 30.21 21.2878 29.2717 21.1538 28.3175C21.0197 27.3633 20.9925 26.3591 21.3696 25.4708C21.6005 24.9756 21.9268 24.5308 22.3299 24.162C22.7331 23.7931 23.205 23.5075 23.7188 23.3216C24.7507 22.9554 25.8525 22.8295 26.9404 22.9535C27.137 22.9595 27.3307 23.0034 27.5106 23.083C27.5995 23.1241 27.6761 23.1877 27.7331 23.2673C27.79 23.3469 27.8253 23.44 27.8355 23.5374C27.8377 23.5857 27.8299 23.634 27.8126 23.6792C27.7954 23.7244 27.7689 23.7655 27.735 23.8001C27.7011 23.8346 27.6605 23.8618 27.6156 23.8799C27.5708 23.8981 27.5226 23.9067 27.4743 23.9054C27.8892 23.9478 28.2983 24.0354 28.6943 24.1667C28.8552 24.2123 28.9951 24.3128 29.0896 24.4507C29.128 24.5371 29.1431 24.632 29.1336 24.726C29.124 24.8201 29.09 24.91 29.0351 24.9869C28.9221 25.1391 28.7829 25.2699 28.6239 25.3731C28.6725 25.3635 28.7225 25.3636 28.7711 25.3734C28.8197 25.3832 28.8659 25.4024 28.9071 25.4301C28.9482 25.4577 28.9835 25.4932 29.0109 25.5345C29.0384 25.5758 29.0574 25.6221 29.0669 25.6707C29.0814 25.77 29.075 25.8713 29.048 25.9679C29.021 26.0646 28.974 26.1545 28.9101 26.2319C28.7943 26.3955 28.6443 26.5295 28.5239 26.6863C28.0332 27.3383 28.1286 28.2448 28.2467 29.0536" fill="#263238"/>
<path d="M21.6966 36.8166L26.2882 36.7348C26.3495 36.2032 26.4381 34.1358 26.4381 34.1358C26.4381 34.1358 28.3579 33.9585 28.4988 32.0592C28.6396 30.1599 28.5806 25.7751 28.5806 25.7751C27.5288 25.2441 26.3544 25.0036 25.1785 25.0783C24.0027 25.1529 22.8682 25.5402 21.892 26.1999L21.5967 26.3999L21.6966 36.8166Z" fill="#FFB36E"/>
<path d="M27.9445 29.0693C27.9059 29.0305 27.8797 28.9811 27.8691 28.9274C27.8585 28.8737 27.8641 28.818 27.8851 28.7674C27.9062 28.7169 27.9417 28.6737 27.9872 28.6433C28.0328 28.6129 28.0863 28.5967 28.1411 28.5967C28.1958 28.5967 28.2494 28.6129 28.2949 28.6433C28.3404 28.6737 28.376 28.7169 28.397 28.7674C28.418 28.818 28.4236 28.8737 28.413 28.9274C28.4024 28.9811 28.3762 29.0305 28.3376 29.0693C28.312 29.0955 28.2814 29.1163 28.2477 29.1305C28.2139 29.1447 28.1777 29.152 28.1411 29.152C28.1045 29.152 28.0682 29.1447 28.0345 29.1305C28.0007 29.1163 27.9701 29.0955 27.9445 29.0693Z" fill="#263238"/>
<path d="M28.4285 28.6083C28.3967 28.6401 28.2195 28.4856 27.9582 28.4674C27.6969 28.4493 27.5038 28.5742 27.4697 28.5379C27.4357 28.5015 27.4902 28.4652 27.5765 28.4061C27.6939 28.3337 27.8311 28.3002 27.9686 28.3104C28.106 28.3206 28.2368 28.374 28.3422 28.4629C28.4194 28.5333 28.4444 28.5947 28.4285 28.6083Z" fill="#263238"/>
<path d="M25.3977 28.6516C25.4428 28.6831 25.4775 28.7272 25.4974 28.7784C25.5173 28.8297 25.5216 28.8856 25.5096 28.9393C25.4976 28.9929 25.47 29.0418 25.4301 29.0797C25.3903 29.1176 25.3401 29.1428 25.286 29.1521C25.2318 29.1614 25.1761 29.1543 25.1259 29.1319C25.0757 29.1095 25.0334 29.0726 25.0042 29.026C24.975 28.9794 24.9603 28.9252 24.962 28.8703C24.9638 28.8154 24.9818 28.7622 25.0138 28.7175C25.0346 28.6879 25.0611 28.6627 25.0917 28.6434C25.1223 28.624 25.1564 28.6109 25.1921 28.6048C25.2277 28.5987 25.2643 28.5997 25.2996 28.6077C25.3348 28.6157 25.3682 28.6306 25.3977 28.6516Z" fill="#263238"/>
<path d="M25.5703 28.6651C25.5385 28.6946 25.3613 28.5401 25.1001 28.5219C24.8388 28.5038 24.6457 28.6287 24.6139 28.5947C24.5821 28.5606 24.632 28.5197 24.7207 28.4629C24.8372 28.3893 24.9743 28.3551 25.1117 28.3653C25.2491 28.3755 25.3797 28.4296 25.484 28.5197C25.5613 28.5878 25.5863 28.6514 25.5703 28.6651Z" fill="#263238"/>
<path d="M26.4883 30.8892C26.626 30.8437 26.7704 30.8222 26.9154 30.8256C26.9858 30.8256 27.0404 30.8097 27.0472 30.7734C27.053 30.7047 27.0405 30.6357 27.0108 30.5734C26.954 30.3962 26.895 30.2167 26.8359 30.0282C26.5973 29.2534 26.4338 28.615 26.4747 28.6037C26.5155 28.5923 26.7382 29.2103 26.979 29.985C27.0358 30.1736 27.0881 30.3553 27.1426 30.5325C27.1799 30.6242 27.1863 30.7255 27.1608 30.8211C27.1494 30.8467 27.1321 30.8693 27.1104 30.887C27.0887 30.9048 27.0632 30.9172 27.0358 30.9233C26.9973 30.9275 26.9585 30.9275 26.92 30.9233C26.7752 30.9365 26.6292 30.9249 26.4883 30.8892Z" fill="#263238"/>
<path d="M25.6181 31.1255C25.3568 30.946 26.3451 31.5799 26.879 31.5799C26.7813 31.7109 26.6419 31.8047 26.4838 31.846C26.3257 31.8873 26.1582 31.8736 26.0089 31.8071C25.4454 31.5685 25.6181 31.1255 25.6181 31.1255Z" fill="white"/>
<path d="M26.445 34.1085C25.566 34.0718 24.718 33.7735 24.0095 33.252C24.0095 33.252 24.5116 34.656 26.4178 34.6015L26.445 34.1085Z" fill="#A36957"/>
<path d="M21.5354 27.8313L21.6331 30.2963C21.6331 30.2963 22.4987 30.0328 22.5555 30.0078C22.6123 29.9828 22.5396 26.9884 22.5396 26.9884C22.5396 26.9884 22.4192 25.8525 23.1553 25.5912C23.93 25.3117 24.2663 25.8729 25.3636 26.0456C28.9828 26.6567 28.7351 25.5457 28.7351 25.5457C28.7351 25.5457 29.1895 25.0573 28.2603 24.5211C27.3311 23.9849 25.0069 23.8032 23.7346 24.2417C21.2355 25.1027 21.0856 25.9592 21.0856 26.7158C21.0856 27.7949 21.5354 27.8313 21.5354 27.8313Z" fill="#263238"/>
<path d="M21.9603 28.0858C21.9194 28.0699 20.5518 27.8927 20.6813 29.508C20.8108 31.1234 22.3988 30.46 22.3988 30.4168C22.3988 30.3736 21.9603 28.0858 21.9603 28.0858Z" fill="#B78876"/>
<path d="M21.858 29.876C21.858 29.876 21.8307 29.8987 21.7853 29.9237C21.7201 29.9575 21.6444 29.9649 21.574 29.9441C21.4638 29.8876 21.3711 29.8021 21.3058 29.6968C21.2406 29.5915 21.2053 29.4704 21.2036 29.3466C21.1879 29.2078 21.2035 29.0673 21.2491 28.9354C21.2612 28.8847 21.2853 28.8376 21.3192 28.7981C21.3532 28.7586 21.3962 28.7277 21.4445 28.7082C21.4762 28.6972 21.5107 28.6976 21.5421 28.7092C21.5736 28.7208 21.6001 28.7429 21.6171 28.7718C21.6421 28.815 21.633 28.849 21.6421 28.8513C21.6512 28.8536 21.6739 28.8195 21.6558 28.7559C21.6446 28.716 21.6196 28.6814 21.5853 28.6582C21.5374 28.63 21.4809 28.6203 21.4263 28.6309C21.3609 28.649 21.3013 28.6836 21.2532 28.7313C21.205 28.779 21.17 28.8384 21.1514 28.9036C21.0941 29.0477 21.0731 29.2038 21.0901 29.358C21.1264 29.6828 21.3172 29.9736 21.5444 30.0236C21.5889 30.0327 21.6348 30.0316 21.6789 30.0206C21.7229 30.0096 21.7639 29.9889 21.7989 29.96C21.858 29.9259 21.8625 29.8873 21.858 29.876Z" fill="#A36957"/>
<path d="M40.0038 49.8688C40.0038 49.8688 42.2757 49.7598 42.7301 49.9665C43.5162 50.3096 45.8563 53.9787 45.7381 53.9787C45.3837 53.9787 44.6544 53.9787 44.6544 53.9787L41.0193 52.5997L40.1628 52.8155L40.0038 49.8688Z" fill="#FFB36E"/>
<path d="M49.773 60.4038C49.773 60.4038 56.5706 83.9477 56.5865 83.8319C56.6024 83.716 50.4932 86.7694 50.4932 86.7694L46.3719 69.7437L49.773 60.4038Z" fill="#263238"/>
<path d="M50.3593 86.9125L56.798 83.7705L56.5185 82.9094L50.0299 86.056L50.3593 86.9125Z" fill="#455A64"/>
<path d="M49.5142 78.2521C49.4801 78.2521 49.4097 78.1135 49.3529 77.9249C49.2961 77.7364 49.2779 77.5705 49.312 77.5614C49.3461 77.5524 49.4165 77.6977 49.4733 77.8886C49.5301 78.0794 49.546 78.2407 49.5142 78.2521Z" fill="#455A64"/>
<path d="M49.9343 79.6311C49.9003 79.6311 49.8253 79.4948 49.7685 79.3063C49.7117 79.1177 49.689 78.9541 49.7208 78.9428C49.7526 78.9314 49.8275 79.0791 49.8866 79.2676C49.9457 79.4562 49.9661 79.6152 49.9343 79.6311Z" fill="#455A64"/>
<path d="M50.373 80.9943C50.3389 81.0056 50.2639 80.8602 50.2026 80.6717C50.1412 80.4831 50.1185 80.3218 50.1503 80.3104C50.1821 80.2991 50.2594 80.4445 50.3207 80.6331C50.3821 80.8216 50.4048 80.9943 50.373 80.9943Z" fill="#455A64"/>
<path d="M50.8318 82.3573C50.7978 82.3686 50.7205 82.2255 50.6569 82.0369C50.5933 81.8483 50.566 81.687 50.6001 81.6757C50.6342 81.6643 50.7114 81.8075 50.775 81.996C50.8387 82.1846 50.8637 82.3573 50.8318 82.3573Z" fill="#455A64"/>
<path d="M51.3089 83.7206C51.2771 83.7206 51.1953 83.5889 51.1294 83.4026C51.0636 83.2163 51.034 83.055 51.0681 83.0436C51.1022 83.0323 51.1794 83.1731 51.2476 83.3617C51.3157 83.5503 51.3453 83.7025 51.3089 83.7206Z" fill="#455A64"/>
<path d="M51.7997 85.0631C51.7656 85.0631 51.6839 84.9336 51.6157 84.7473C51.5475 84.561 51.5157 84.3997 51.5475 84.3883C51.5794 84.377 51.6634 84.5178 51.7316 84.7041C51.7997 84.8904 51.8384 85.0517 51.7997 85.0631Z" fill="#455A64"/>
<path d="M51.443 85.629C51.387 85.5535 51.3412 85.4711 51.3067 85.3836C51.2271 85.2201 51.1181 84.9815 50.9931 84.6839C50.741 84.0886 50.4297 83.2503 50.1162 82.3166C49.8027 81.3828 49.5391 80.5286 49.3528 79.9106C49.2665 79.6198 49.1938 79.3744 49.1256 79.1768C49.0927 79.0882 49.0713 78.9958 49.062 78.9019C49.1065 78.9845 49.143 79.0713 49.1711 79.1609C49.2347 79.3312 49.321 79.5766 49.4255 79.8833L50.223 82.2757C50.5342 83.2094 50.8318 84.05 51.0636 84.6521L51.3407 85.3632C51.3842 85.4479 51.4185 85.537 51.443 85.629Z" fill="#455A64"/>
<path d="M18.0594 58.768C18.1162 57.5208 17.4073 65.6133 23.6278 65.8269C29.8483 66.0405 42.5575 65.9473 42.5575 65.9473L41.0694 86.4696H48.5326L50.0912 64.6364C50.0912 64.6364 50.8863 58.3114 46.5583 57.5049C43.8502 56.9982 27.0084 56.8369 27.0084 56.8369L18.0594 58.768Z" fill="#263238"/>
<path d="M40.899 86.5126H48.7576V85.2903L40.899 85.3016V86.5126Z" fill="#455A64"/>
<path d="M28.6056 64.8636C28.632 64.8603 28.6587 64.8603 28.6851 64.8636L28.9123 64.85L29.8211 64.8091L33.1949 64.6796L44.5749 64.2888H44.6476V64.3615C44.5454 65.1976 44.459 66.0814 44.3863 66.9788C44.2864 68.2624 44.191 69.5142 44.0978 70.7229C44.0047 71.9316 43.8706 73.0948 43.7548 74.2035C43.5276 76.4163 43.314 78.4111 43.1368 80.09C42.9596 81.769 42.8119 83.114 42.7097 84.0568C42.6574 84.5112 42.6165 84.8838 42.587 85.136C42.5734 85.2541 42.562 85.3472 42.5529 85.4154C42.5501 85.4476 42.5447 85.4795 42.537 85.5108C42.5335 85.4791 42.5335 85.4471 42.537 85.4154C42.537 85.345 42.5506 85.2518 42.5597 85.1337C42.5824 84.8792 42.6165 84.5157 42.6597 84.0523C42.7506 83.1094 42.8869 81.7531 43.0482 80.0809C43.2095 78.4088 43.4162 76.4072 43.6389 74.1898C43.7479 73.0811 43.8661 71.9179 43.9729 70.7115C44.0796 69.5051 44.1614 68.251 44.2591 66.9697C44.3318 66.0609 44.4182 65.1862 44.5227 64.3456L44.5863 64.416L33.204 64.7636L29.8302 64.8568L28.9214 64.875H28.6942C28.6643 64.8757 28.6344 64.8719 28.6056 64.8636Z" fill="#455A64"/>
<path d="M29.3235 63.9752C29.3235 64.0093 29.1645 64.0411 28.9646 64.0457C28.7646 64.0502 28.6056 64.0275 28.6056 63.9934C28.6056 63.9593 28.7646 63.9252 28.9623 63.9207C29.1599 63.9162 29.3235 63.9411 29.3235 63.9752Z" fill="#455A64"/>
<path d="M30.7616 63.9413C30.7616 63.9754 30.6026 64.0072 30.4026 64.0117C30.2027 64.0163 30.0437 63.9936 30.0414 63.9595C30.0391 63.9254 30.2027 63.8936 30.4004 63.8868C30.598 63.88 30.7616 63.9072 30.7616 63.9413Z" fill="#455A64"/>
<path d="M32.1998 63.9071C32.1998 63.9434 32.0408 63.973 31.8409 63.9798C31.6409 63.9866 31.4819 63.9593 31.4796 63.9253C31.4774 63.8912 31.6409 63.8594 31.8386 63.8548C32.0363 63.8503 32.1998 63.873 32.1998 63.9071Z" fill="#455A64"/>
<path d="M33.6378 63.8731C33.6378 63.9095 33.4788 63.9413 33.2789 63.9458C33.0789 63.9504 32.9199 63.9254 32.9176 63.8913C32.9154 63.8572 33.0789 63.8254 33.2766 63.8209C33.4742 63.8163 33.6378 63.8391 33.6378 63.8731Z" fill="#455A64"/>
<path d="M35.0761 63.8412C35.0761 63.8753 34.917 63.9071 34.7171 63.9117C34.5172 63.9162 34.3581 63.8912 34.3559 63.8571C34.3536 63.8231 34.5172 63.7913 34.7148 63.7867C34.9125 63.7822 35.0761 63.8049 35.0761 63.8412Z" fill="#455A64"/>
<path d="M36.5142 63.807C36.5142 63.8411 36.3551 63.8729 36.1552 63.8774C35.9553 63.882 35.7962 63.857 35.794 63.8229C35.7917 63.7888 35.9553 63.757 36.1529 63.7525C36.3506 63.7479 36.5119 63.7729 36.5142 63.807Z" fill="#455A64"/>
<path d="M37.9524 63.7731C37.9524 63.8072 37.7934 63.839 37.5934 63.8435C37.3935 63.8481 37.2345 63.8231 37.2322 63.789C37.2299 63.7549 37.3912 63.7231 37.5912 63.7186C37.7911 63.714 37.941 63.739 37.9524 63.7731Z" fill="#455A64"/>
<path d="M39.3905 63.7389C39.3905 63.773 39.2315 63.8048 39.0315 63.8093C38.8316 63.8139 38.6726 63.7912 38.6703 63.7548C38.668 63.7185 38.8293 63.6889 39.0293 63.6844C39.2292 63.6798 39.3882 63.7048 39.3905 63.7389Z" fill="#455A64"/>
<path d="M40.8287 63.705C40.8287 63.739 40.6697 63.7708 40.4698 63.7754C40.2699 63.7799 40.1108 63.7572 40.1085 63.7231C40.1063 63.6891 40.2676 63.655 40.4675 63.6504C40.6674 63.6459 40.8265 63.6709 40.8287 63.705Z" fill="#455A64"/>
<path d="M42.2576 63.6708C42.2576 63.7049 42.0963 63.7367 41.8986 63.7412C41.701 63.7458 41.5396 63.723 41.5374 63.689C41.5351 63.6549 41.6964 63.6208 41.8963 63.6163C42.0963 63.6117 42.2576 63.6367 42.2576 63.6708Z" fill="#455A64"/>
<path d="M43.7048 63.6368C43.7048 63.6709 43.5435 63.7027 43.3459 63.7072C43.1482 63.7118 42.9869 63.6891 42.9846 63.655C42.9824 63.6209 43.1437 63.5891 43.3436 63.5846C43.5435 63.58 43.7026 63.6027 43.7048 63.6368Z" fill="#455A64"/>
<path d="M45.1428 63.6026C45.1428 63.639 44.9815 63.6708 44.7838 63.6753C44.5862 63.6799 44.4226 63.6549 44.4226 63.6208C44.4226 63.5867 44.5816 63.5549 44.7816 63.5504C44.9815 63.5458 45.1405 63.5686 45.1428 63.6026Z" fill="#455A64"/>
<path d="M45.1406 64.9066C45.1043 64.9066 45.0929 64.7407 45.1134 64.5431C45.1338 64.3454 45.1747 64.1887 45.2088 64.1909C45.2429 64.1932 45.2565 64.3568 45.2361 64.5545C45.2156 64.7521 45.1747 64.9111 45.1406 64.9066Z" fill="#455A64"/>
<path d="M44.9999 66.338C44.9658 66.338 44.9522 66.1721 44.9726 65.9745C44.9931 65.7768 45.0362 65.6201 45.0703 65.6223C45.1044 65.6246 45.1158 65.7882 45.0976 65.9858C45.0794 66.1835 45.034 66.3425 44.9999 66.338Z" fill="#455A64"/>
<path d="M44.859 67.7694C44.8249 67.7694 44.8113 67.6035 44.8318 67.4059C44.8522 67.2082 44.8954 67.0515 44.9294 67.0537C44.9635 67.056 44.9749 67.2219 44.9567 67.4195C44.9385 67.6172 44.8931 67.7739 44.859 67.7694Z" fill="#455A64"/>
<path d="M44.7181 69.2005C44.684 69.2005 44.6727 69.0347 44.6908 68.837C44.709 68.6394 44.7545 68.4826 44.7885 68.4849C44.8226 68.4872 44.834 68.653 44.8158 68.8507C44.7976 69.0483 44.7567 69.2051 44.7181 69.2005Z" fill="#455A64"/>
<path d="M44.5772 70.6342C44.5432 70.6342 44.5318 70.4661 44.55 70.2684C44.5682 70.0708 44.6136 69.914 44.6477 69.9186C44.6818 69.9231 44.6954 70.0844 44.6749 70.2821C44.6545 70.4797 44.6113 70.6365 44.5772 70.6342Z" fill="#455A64"/>
<path d="M44.4363 72.0656C44.4022 72.0656 44.3909 71.8975 44.4113 71.6998C44.4318 71.5022 44.4726 71.3454 44.5067 71.3499C44.5408 71.3545 44.5544 71.5158 44.534 71.7135C44.5135 71.9111 44.4726 72.0679 44.4363 72.0656Z" fill="#455A64"/>
<path d="M44.3024 73.497C44.266 73.497 44.2547 73.3311 44.2751 73.1335C44.2956 72.9358 44.3365 72.7768 44.3728 72.7813C44.4092 72.7859 44.4182 72.9472 44.3978 73.1449C44.3773 73.3425 44.3319 73.497 44.3024 73.497Z" fill="#455A64"/>
<path d="M44.1569 74.9282C44.1228 74.9282 44.1092 74.7623 44.1296 74.5646C44.15 74.367 44.1932 74.208 44.2273 74.2125C44.2614 74.217 44.2727 74.3783 44.2546 74.576C44.2364 74.7737 44.1909 74.9304 44.1569 74.9282Z" fill="#455A64"/>
<path d="M44.0161 76.3595C43.982 76.3595 43.9706 76.1936 43.9888 75.996C44.007 75.7983 44.0524 75.6416 44.0865 75.6438C44.1206 75.6461 44.132 75.8097 44.1138 76.0073C44.0956 76.205 44.0502 76.364 44.0161 76.3595Z" fill="#455A64"/>
<path d="M43.8752 77.7909C43.8411 77.7909 43.8298 77.625 43.848 77.4274C43.8661 77.2297 43.9116 77.0729 43.9456 77.0752C43.9797 77.0775 43.9911 77.2411 43.9729 77.4387C43.9547 77.6364 43.9093 77.7954 43.8752 77.7909Z" fill="#455A64"/>
<path d="M43.7343 79.222C43.7003 79.222 43.6889 79.0562 43.7071 78.8585C43.7253 78.6609 43.7707 78.5041 43.8048 78.5064C43.8389 78.5086 43.8525 78.6722 43.832 78.8699C43.8116 79.0675 43.7684 79.2266 43.7343 79.222Z" fill="#455A64"/>
<path d="M43.5958 80.6534C43.5595 80.6534 43.5481 80.4876 43.5686 80.2899C43.589 80.0923 43.6299 79.9355 43.664 79.9378C43.6981 79.94 43.7117 80.1059 43.6913 80.3035C43.6708 80.5012 43.6208 80.658 43.5958 80.6534Z" fill="#455A64"/>
<path d="M43.455 82.0848C43.4209 82.0848 43.4073 81.919 43.4277 81.7213C43.4481 81.5237 43.489 81.3669 43.5254 81.3692C43.5617 81.3714 43.5708 81.5373 43.5504 81.7349C43.5299 81.9326 43.489 82.0894 43.455 82.0848Z" fill="#455A64"/>
<path d="M43.3141 83.5182C43.28 83.5182 43.2664 83.3501 43.2868 83.1525C43.3073 82.9548 43.3504 82.798 43.3845 82.8026C43.4186 82.8071 43.43 82.9684 43.4118 83.1661C43.3936 83.3638 43.3482 83.5205 43.3141 83.5182Z" fill="#455A64"/>
<path d="M43.1664 84.9496C43.1323 84.9496 43.1209 84.7838 43.1391 84.5861C43.1573 84.3885 43.2027 84.2294 43.2368 84.234C43.2709 84.2385 43.2822 84.3998 43.264 84.5975C43.2459 84.7951 43.2072 84.9519 43.1664 84.9496Z" fill="#455A64"/>
<path d="M43.0981 85.7084C43.0641 85.7084 43.0368 85.6925 43.0391 85.6812C43.0413 85.6698 43.0686 85.6607 43.1027 85.6653C43.1368 85.6698 43.164 85.6812 43.164 85.6925C43.164 85.7039 43.1322 85.7107 43.0981 85.7084Z" fill="#455A64"/>
<path d="M43.5753 64.9907C43.4448 65.1957 43.2795 65.3764 43.0869 65.5246C42.9212 65.7026 42.7269 65.8515 42.5121 65.9654C42.8081 65.582 43.1677 65.2523 43.5753 64.9907Z" fill="#263238"/>
<path d="M44.091 65.2678C43.8441 65.4462 43.5744 65.5906 43.2891 65.6972C43.02 65.8402 42.7325 65.9457 42.4348 66.0107C42.6818 65.8324 42.9515 65.688 43.2368 65.5813C43.5061 65.4387 43.7934 65.3332 44.091 65.2678Z" fill="#263238"/>
<path d="M28.9147 48.9829C28.9147 48.9829 28.1536 40.829 26.8018 37.2598L27.0699 37.0576L26.6677 35.6513L21.6104 35.0378L21.6877 36.1352C20.9414 36.4713 20.3316 37.0514 19.9587 37.78C18.1412 41.6287 19.05 46.1225 18.0753 54.4491C18.0753 54.4491 16.9394 58.3546 18.1117 59.5769L29.1464 57.005L28.6261 54.4877C33.4426 54.3969 41.3625 53.5108 41.3625 53.5108L41.1353 48.9534C41.1353 48.9534 29.3009 49.0238 28.9147 48.9829Z" fill="#455A64"/>
<path d="M26.6586 35.6445C26.819 35.9305 26.942 36.2359 27.0244 36.5533C27.0738 36.6773 27.1074 36.8071 27.1243 36.9395C27.1276 37.0082 27.1049 37.0755 27.0607 37.1281C27.0243 37.1711 26.9773 37.204 26.9244 37.2235C26.7336 37.2826 26.6245 37.2417 26.6245 37.2235C26.6245 37.2053 26.7427 37.2031 26.8858 37.1349C26.9241 37.1178 26.9565 37.0896 26.9787 37.054C27.001 37.0184 27.0121 36.977 27.0107 36.935C26.9849 36.8151 26.95 36.6974 26.9062 36.5828C26.7849 36.2816 26.7017 35.9664 26.6586 35.6445Z" fill="#E0E0E0"/>
<path d="M27.8651 41.7152C27.8651 41.7515 25.8204 41.7788 23.3213 41.7788C20.8222 41.7788 18.7775 41.7515 18.7775 41.7152C18.7775 41.6788 20.8222 41.6538 23.3213 41.6538C25.8204 41.6538 27.8651 41.6902 27.8651 41.7152Z" fill="#263238"/>
<path d="M27.3901 39.418C27.3901 39.4521 25.5862 39.4816 23.3642 39.4816C21.1423 39.4816 19.3384 39.4521 19.3384 39.418C19.3384 39.384 21.14 39.3567 23.3642 39.3567C25.5884 39.3567 27.3901 39.384 27.3901 39.418Z" fill="#263238"/>
<path d="M26.7269 37.3983C26.7269 37.4324 25.2365 37.4597 23.3962 37.4597C21.556 37.4597 20.0679 37.4324 20.0679 37.3983C20.0679 37.3643 21.5582 37.3347 23.3962 37.3347C25.2342 37.3347 26.7269 37.3733 26.7269 37.3983Z" fill="#263238"/>
<path d="M26.6608 35.9715C25.812 36.0358 24.9605 36.057 24.1095 36.0351C23.2585 36.057 22.4069 36.0358 21.5581 35.9715C21.5581 35.9374 22.6941 35.9102 24.1095 35.9102C25.5249 35.9102 26.6608 35.9374 26.6608 35.9715Z" fill="#263238"/>
<path d="M28.1853 43.9257C28.1853 43.9598 26.0338 43.987 23.3802 43.987C20.7266 43.987 18.5751 43.9598 18.5751 43.9257C18.5751 43.8916 20.7266 43.8621 23.3802 43.8621C26.0338 43.8621 28.1853 43.8893 28.1853 43.9257Z" fill="#263238"/>
<path d="M28.5762 46.1452C28.5762 46.1792 26.3383 46.2065 23.5779 46.2065C20.8176 46.2065 18.5797 46.1792 18.5797 46.1452C18.5797 46.1111 20.8176 46.0815 23.5779 46.0815C26.3383 46.0815 28.5762 46.1111 28.5762 46.1452Z" fill="#263238"/>
<path d="M28.8214 48.19C28.8214 48.2264 26.5268 48.2536 23.6983 48.2536C20.8697 48.2536 18.5751 48.2264 18.5751 48.19C18.5751 48.1537 20.8697 48.1287 23.6983 48.1287C26.5268 48.1287 28.8214 48.1559 28.8214 48.19Z" fill="#263238"/>
<path d="M40.0038 50.4279C40.0038 50.462 35.1646 50.4892 29.1963 50.4892C23.2279 50.4892 18.3865 50.462 18.3865 50.4279C18.3865 50.3938 23.2257 50.3643 29.1963 50.3643C35.1669 50.3643 40.0038 50.3938 40.0038 50.4279Z" fill="#263238"/>
<path d="M40.0879 52.2181C40.0879 52.2544 35.2124 52.2817 29.1986 52.2817C23.1848 52.2817 18.307 52.2544 18.307 52.2181C18.307 52.1817 23.1825 52.1567 29.1986 52.1567C35.2146 52.1567 40.0879 52.184 40.0879 52.2181Z" fill="#263238"/>
<path d="M28.4534 54.4263C28.4534 54.4627 26.1247 54.4899 23.2507 54.4899C20.3768 54.4899 18.0458 54.4627 18.0458 54.4263C18.0458 54.39 20.3745 54.365 23.2507 54.365C26.127 54.365 28.4534 54.3923 28.4534 54.4263Z" fill="#263238"/>
<path d="M28.9827 56.4756C28.9827 56.5097 26.4495 56.5393 23.3257 56.5393C20.2018 56.5393 17.6686 56.5097 17.6686 56.4756C17.6686 56.4416 20.2018 56.4143 23.3257 56.4143C26.4495 56.4143 28.9827 56.4416 28.9827 56.4756Z" fill="#263238"/>
<path d="M19.3499 57.0187C19.3135 57.0187 19.2863 53.0452 19.2863 48.1446C19.2863 43.2441 19.3135 39.2705 19.3499 39.2705C19.3862 39.2705 19.4112 43.2441 19.4112 48.1446C19.4112 53.0452 19.3839 57.0187 19.3499 57.0187Z" fill="#263238"/>
<path d="M22.0784 56.8007C22.0444 56.8007 22.0171 51.9433 22.0171 45.9523C22.0171 39.9612 22.0375 35.1016 22.0784 35.1016C22.1193 35.1016 22.142 39.9567 22.142 45.95C22.142 51.9433 22.1148 56.8007 22.0784 56.8007Z" fill="#263238"/>
<path d="M25.0932 56.4756C25.0591 56.4756 25.0319 51.7932 25.0319 46.0248C25.0319 40.2564 25.0591 35.574 25.0932 35.574C25.1273 35.574 25.1568 40.2564 25.1568 46.0248C25.1568 51.7932 25.1296 56.4756 25.0932 56.4756Z" fill="#263238"/>
<path d="M27.6263 57.0119C27.5922 57.0119 27.5649 53.336 27.5649 48.8035C27.5649 44.271 27.5922 40.5928 27.6263 40.5928C27.6604 40.5928 27.6899 44.2687 27.6899 48.8035C27.6899 53.3382 27.6604 57.0119 27.6263 57.0119Z" fill="#263238"/>
<path d="M30.3094 48.9714C30.3389 49.2369 30.3473 49.5043 30.3344 49.7712C30.3344 50.2642 30.3344 50.9435 30.3071 51.6932C30.2798 52.4429 30.2662 53.1245 30.2435 53.6152C30.2414 53.8822 30.2201 54.1487 30.1799 54.4127C30.1502 54.148 30.1418 53.8813 30.1549 53.6152C30.1549 53.1222 30.1549 52.4429 30.1822 51.6909C30.2094 50.9389 30.2231 50.2596 30.2458 49.7666C30.2451 49.5003 30.2663 49.2343 30.3094 48.9714Z" fill="#263238"/>
<path d="M33.17 49.0669C33.1981 49.3158 33.2064 49.5664 33.1949 49.8166C33.1949 50.271 33.1949 50.914 33.1722 51.616C33.1495 52.318 33.1313 52.9564 33.1109 53.4176C33.1117 53.6674 33.0904 53.9168 33.0473 54.1628C33.019 53.9155 33.0107 53.6663 33.0223 53.4176C33.0223 52.9632 33.0223 52.318 33.0473 51.6137C33.0723 50.9094 33.0859 50.2733 33.1086 49.8121C33.1065 49.5623 33.127 49.3129 33.17 49.0669Z" fill="#263238"/>
<path d="M36.0144 49.0168C36.0454 49.2571 36.0546 49.4997 36.0417 49.7416C36.0417 50.196 36.0416 50.8071 36.0189 51.4887C35.9962 52.1703 35.9803 52.7882 35.9576 53.2335C35.9599 53.4765 35.9393 53.7191 35.8962 53.9583C35.8678 53.7186 35.8587 53.477 35.869 53.2358C35.869 52.7814 35.869 52.1703 35.894 51.4887C35.919 50.8071 35.9326 50.1869 35.953 49.7416C35.9537 49.4987 35.9742 49.2563 36.0144 49.0168Z" fill="#263238"/>
<path d="M38.87 48.9375C38.9013 49.1701 38.9104 49.4052 38.8973 49.6395C38.8973 50.0735 38.8973 50.6733 38.8746 51.3344C38.8518 51.9955 38.8382 52.5953 38.8155 53.027C38.816 53.2622 38.7963 53.4971 38.7564 53.729C38.7249 53.4964 38.715 53.2614 38.7269 53.027C38.7269 52.593 38.7269 51.9932 38.7496 51.3321C38.7723 50.671 38.7882 50.0689 38.8087 49.6373C38.8078 49.4026 38.8284 49.1684 38.87 48.9375Z" fill="#263238"/>
<path d="M27.924 49.9984C28.1296 49.4934 28.5036 49.0751 28.9827 48.8147C28.8159 49.0207 28.6361 49.2157 28.4442 49.3986C28.2835 49.6091 28.1097 49.8095 27.924 49.9984Z" fill="#263238"/>
<path d="M28.5761 50.0529C28.5286 49.8247 28.546 49.5877 28.6263 49.3688C28.7066 49.15 28.8466 48.958 29.0305 48.8147C29.0578 48.8397 28.8669 49.0714 28.7443 49.4122C28.6216 49.753 28.6261 50.0529 28.5761 50.0529Z" fill="#263238"/>
<path d="M40.2128 53.4857C40.0855 52.7649 39.999 52.0375 39.9538 51.3069C39.8675 50.5792 39.822 49.8473 39.8175 49.1145C39.9477 49.8357 40.035 50.564 40.0788 51.2955C40.1652 52.0224 40.2099 52.7537 40.2128 53.4857Z" fill="#263238"/>
<path d="M40.3559 49.9735C40.3559 49.9894 40.2923 50.0348 40.2832 50.1484C40.2812 50.1785 40.2852 50.2086 40.295 50.237C40.3047 50.2655 40.32 50.2918 40.34 50.3143C40.3656 50.3372 40.3975 50.3518 40.4315 50.3563C40.4656 50.3608 40.5002 50.3548 40.5308 50.3393C40.5629 50.327 40.5908 50.3056 40.6109 50.2778C40.6311 50.2499 40.6427 50.2168 40.6444 50.1825C40.6414 50.1525 40.6324 50.1233 40.618 50.0968C40.6035 50.0703 40.5839 50.0469 40.5604 50.028C40.4718 49.9576 40.3877 49.9803 40.3832 49.9621C40.3786 49.9439 40.4672 49.8803 40.6103 49.9621C40.6522 49.9846 40.6879 50.0171 40.7141 50.0568C40.7402 50.0964 40.7561 50.142 40.7603 50.1893C40.7635 50.2483 40.7482 50.3067 40.7164 50.3565C40.6846 50.4062 40.6379 50.4447 40.5831 50.4665C40.5292 50.4919 40.4687 50.4999 40.4101 50.4893C40.3514 50.4787 40.2975 50.4501 40.2559 50.4074C40.2263 50.3716 40.2056 50.3292 40.1957 50.2837C40.1858 50.2382 40.187 50.1911 40.1991 50.1461C40.24 49.9803 40.3582 49.9576 40.3559 49.9735Z" fill="#263238"/>
<path d="M28.901 48.9601H28.9578L29.1237 48.9738C29.2714 48.9897 29.4895 49.0033 29.7757 49.0124C30.3482 49.0351 31.1889 49.0465 32.2589 49.0374C34.3968 49.0238 37.4525 48.9442 41.1194 48.8102H41.1717V48.8624C41.2444 50.2779 41.3216 51.8159 41.3989 53.4472V53.4994H41.3512C40.7695 53.6085 40.1811 53.6539 39.5791 53.7153L37.7433 53.8743C36.4961 53.9765 35.2124 54.072 33.9061 54.1651L29.1032 54.4877C27.7106 54.3991 26.3588 53.8993 25.4136 52.9814C24.949 52.5387 24.5842 52.0019 24.3436 51.407C24.1177 50.8454 23.9376 50.2664 23.8051 49.6758C23.244 47.4039 22.8964 45.3342 22.6124 43.6166C22.476 42.7578 22.3602 41.9831 22.2625 41.306C22.159 40.7299 22.0915 40.148 22.0603 39.5635C22.0417 39.1924 22.12 38.8228 22.2875 38.4911C22.3449 38.3779 22.4218 38.2756 22.5147 38.189C22.4351 38.287 22.3644 38.3919 22.3034 38.5025C22.1484 38.8337 22.0796 39.1986 22.1034 39.5635C22.1445 40.1453 22.2204 40.7242 22.3306 41.297C22.4374 41.9785 22.5578 42.7464 22.6987 43.6052C22.985 45.3182 23.3485 47.3743 23.9142 49.6485C24.0483 50.2336 24.2283 50.8071 24.4526 51.3638C24.6892 51.944 25.047 52.4669 25.5022 52.8974C26.411 53.7902 27.7492 54.2787 29.1169 54.3673L33.9174 54.0402L37.7524 53.7516L39.5881 53.5949C40.1857 53.5335 40.7854 53.4881 41.3421 53.3836L41.2966 53.4449C41.2194 51.8205 41.1467 50.2756 41.0694 48.8579L41.1262 48.9102C37.4616 49.0442 34.4059 49.1078 32.2657 49.1033C31.1957 49.1033 30.3551 49.0828 29.7825 49.0487C29.4963 49.0328 29.2759 49.0147 29.1282 48.992L28.9624 48.9715C28.9415 48.9705 28.9209 48.9667 28.901 48.9601Z" fill="#263238"/>
<path d="M28.901 48.9603C28.8509 48.8452 28.8114 48.7258 28.7828 48.6036C28.717 48.3764 28.6261 48.0356 28.517 47.6176C28.2898 46.7838 28.0286 45.6228 27.7378 44.3415C27.447 43.0601 27.1811 41.8992 26.9812 41.0608L26.754 40.068C26.7185 39.9479 26.695 39.8246 26.6836 39.7C26.7324 39.8155 26.7719 39.9348 26.8017 40.0566C26.8722 40.2838 26.963 40.6223 27.0744 41.0404C27.3016 41.8719 27.5787 43.0306 27.8695 44.3142C28.1603 45.5979 28.3989 46.7361 28.6034 47.5971C28.6942 48.0015 28.7715 48.3355 28.8306 48.5922C28.8632 48.713 28.8868 48.836 28.901 48.9603Z" fill="#263238"/>
<path d="M26.6746 35.7397C26.6767 35.8238 26.6683 35.9077 26.6496 35.9897C26.6269 36.151 26.5906 36.3804 26.5406 36.6712C26.5188 36.8299 26.487 36.987 26.4452 37.1415C26.4313 37.1928 26.4056 37.24 26.37 37.2795C26.3345 37.319 26.2902 37.3495 26.2407 37.3687C26.1409 37.395 26.036 37.395 25.9363 37.3687C25.5614 37.2915 25.1524 37.1915 24.7253 37.0756C23.8734 36.8484 23.1145 36.5963 22.5625 36.4259L21.9104 36.2214C21.8313 36.2014 21.755 36.1717 21.6832 36.1328C21.7672 36.1352 21.8505 36.149 21.9309 36.1737C22.0899 36.21 22.3171 36.2646 22.5965 36.3418C23.1554 36.4895 23.9188 36.7212 24.7685 36.9552C25.1933 37.0711 25.5977 37.1824 25.9703 37.2574C26.0502 37.2834 26.1354 37.2889 26.218 37.2733C26.2519 37.2609 26.2823 37.2407 26.3068 37.2142C26.3313 37.1877 26.3491 37.1558 26.3588 37.1211C26.4088 36.9757 26.4293 36.8075 26.4633 36.6667C26.5224 36.385 26.5747 36.1578 26.611 35.9987C26.6196 35.9098 26.641 35.8226 26.6746 35.7397Z" fill="#263238"/>
<path d="M22.6986 67.1924L24.2867 88.7461L24.9501 88.5916L24.7024 67.6468L22.6986 67.1924Z" fill="#263238"/>
<path d="M15.9692 67.9421L11.1459 88.7211H12.0183L18.9227 67.9421H15.9692Z" fill="#263238"/>
<path d="M28.7262 67.9421L35.3057 88.7211H36.01L30.7823 67.9421H28.7262Z" fill="#263238"/>
<path d="M29.6076 69.3369L14.8628 78.9721V79.4992L30.0188 69.3369H29.6076Z" fill="#263238"/>
<path d="M17.0962 69.337L33.0723 80.0877V79.2653L17.5642 68.8667L17.0962 69.337Z" fill="#263238"/>
<path d="M13.7655 68.2988L32.7633 67.9557C32.9334 67.9525 33.101 67.9136 33.2552 67.8416C33.4094 67.7695 33.5467 67.6659 33.6583 67.5374C33.7698 67.4089 33.8532 67.2584 33.9029 67.0956C33.9527 66.9329 33.9676 66.7615 33.9469 66.5926C33.9126 66.2936 33.7681 66.0182 33.5417 65.8199C33.3153 65.6217 33.0232 65.5149 32.7224 65.5202L13.4542 65.8292L13.7655 68.2988Z" fill="#FF725E"/>
<g opacity="0.2">
<path d="M13.7655 68.2988L32.7633 67.9557C32.9334 67.9525 33.101 67.9136 33.2552 67.8416C33.4094 67.7695 33.5467 67.6659 33.6583 67.5374C33.7698 67.4089 33.8532 67.2584 33.9029 67.0956C33.9527 66.9329 33.9676 66.7615 33.9469 66.5926C33.9126 66.2936 33.7681 66.0182 33.5417 65.8199C33.3153 65.6217 33.0232 65.5149 32.7224 65.5202L13.4542 65.8292L13.7655 68.2988Z" fill="black"/>
</g>
<path d="M11.8297 53.6131L13.7472 68.2988L28.726 67.9421L28.6874 59.0225C28.6927 58.672 28.6241 58.3243 28.4863 58.002C28.3484 57.6797 28.1443 57.3901 27.8872 57.1518C27.6301 56.9135 27.3257 56.732 26.9939 56.6191C26.662 56.5061 26.3102 56.4642 25.9611 56.4961L14.5401 57.5276L13.0361 41.9627L11.5185 41.8332C11.36 41.8216 11.2009 41.8455 11.0528 41.9032C10.9047 41.961 10.7714 42.051 10.6625 42.1668C10.5537 42.2827 10.472 42.4213 10.4236 42.5727C10.3752 42.7241 10.3611 42.8843 10.3825 43.0418L11.8297 53.6131Z" fill="#DC6321"/>
</svg>
