<svg width="120" height="89" viewBox="0 0 120 89" fill="none" xmlns="http://www.w3.org/2000/svg">
<path d="M119.557 78.0757H0.321045V78.1353H119.557V78.0757Z" fill="#EBEBEB"/>
<path d="M107.61 81.9126H99.7114V81.9722H107.61V81.9126Z" fill="#EBEBEB"/>
<path d="M79.3078 82.5615H77.2355V82.6211H79.3078V82.5615Z" fill="#EBEBEB"/>
<path d="M99.4729 79.6997H94.8966V79.7593H99.4729V79.6997Z" fill="#EBEBEB"/>
<path d="M23.1308 80.1006H12.8312V80.1602H23.1308V80.1006Z" fill="#EBEBEB"/>
<path d="M26.765 80.1006H25.2555V80.1602H26.765V80.1006Z" fill="#EBEBEB"/>
<path d="M54.013 81.1067H31.673V81.1663H54.013V81.1067Z" fill="#EBEBEB"/>
<path d="M56.8389 67.4399H10.7923C10.4315 67.4393 10.0858 67.2955 9.83097 67.0403C9.57612 66.785 9.43298 66.439 9.43298 66.0782V1.34975C9.43612 0.991096 9.58064 0.648162 9.83515 0.395439C10.0897 0.142716 10.4336 0.000614397 10.7923 0H56.8389C57.2 0 57.5464 0.143462 57.8017 0.398826C58.0571 0.654189 58.2005 1.00054 58.2005 1.36168V66.0782C58.2005 66.4394 58.0571 66.7857 57.8017 67.0411C57.5464 67.2965 57.2 67.4399 56.8389 67.4399ZM10.7923 0.0476946C10.4474 0.0483263 10.1168 0.185785 9.87312 0.4299C9.62945 0.674015 9.4926 1.00484 9.4926 1.34975V66.0782C9.4926 66.4232 9.62945 66.754 9.87312 66.9981C10.1168 67.2422 10.4474 67.3797 10.7923 67.3803H56.8389C57.184 67.3797 57.5148 67.2423 57.7589 66.9982C58.0029 66.7542 58.1403 66.4234 58.1409 66.0782V1.34975C58.1403 1.00462 58.0029 0.673801 57.7589 0.429755C57.5148 0.185708 57.184 0.048325 56.8389 0.0476946H10.7923Z" fill="#EBEBEB"/>
<path d="M108.423 67.4399H62.3739C62.0129 67.4393 61.667 67.2956 61.4117 67.0404C61.1565 66.7852 61.0128 66.4392 61.0122 66.0782V1.34975C61.016 0.990879 61.161 0.647947 61.4159 0.39529C61.6708 0.142632 62.015 0.000607696 62.3739 0H108.423C108.781 0.00124113 109.124 0.14362 109.378 0.396276C109.632 0.648932 109.777 0.991508 109.78 1.34975V66.0782C109.78 66.4386 109.637 66.7842 109.383 67.0394C109.128 67.2946 108.783 67.4387 108.423 67.4399ZM62.3739 0.0476946C62.0287 0.048325 61.6979 0.185708 61.4539 0.429755C61.2098 0.673801 61.0725 1.00462 61.0718 1.34975V66.0782C61.0725 66.4234 61.2098 66.7542 61.4539 66.9982C61.6979 67.2423 62.0287 67.3797 62.3739 67.3803H108.423C108.768 67.3797 109.099 67.2423 109.343 66.9982C109.587 66.7542 109.724 66.4234 109.725 66.0782V1.34975C109.724 1.00462 109.587 0.673801 109.343 0.429755C109.099 0.185708 108.768 0.048325 108.423 0.0476946H62.3739Z" fill="#EBEBEB"/>
<path d="M13.4321 78.0732H19.9161L19.9161 60.7983H13.4321L13.4321 78.0732Z" fill="#E6E6E6"/>
<path d="M14.663 78.0758H13.4301V73.509H15.9531L14.663 78.0758Z" fill="#F0F0F0"/>
<path d="M50.4239 78.0732H56.908V60.7983H50.4239V78.0732Z" fill="#E6E6E6"/>
<path d="M13.4323 76.8286H51.4996V60.7985H13.4323V76.8286Z" fill="#F0F0F0"/>
<path d="M50.2668 78.0758H51.4997V73.509H48.9767L50.2668 78.0758Z" fill="#F0F0F0"/>
<path d="M50.3524 74.8995H38.8295V62.5657H50.3524V74.8995ZM39.0679 74.661H50.114V62.8041H39.0679V74.661Z" fill="#E6E6E6"/>
<path d="M38.238 74.8995H26.7031V62.5657H38.238V74.8995ZM26.9535 74.661H37.9996V62.8041H26.9416L26.9535 74.661Z" fill="#E6E6E6"/>
<path d="M26.0999 74.8995H14.5769V62.5657H26.0999V74.8995ZM14.8154 74.661H25.8614V62.8041H14.8154V74.661Z" fill="#E6E6E6"/>
<path d="M65.0567 42.1287L103.262 42.1287V9.59867L65.0567 9.59867V42.1287Z" fill="#E6E6E6"/>
<path d="M64.1981 42.1287L102.888 42.1287V9.59867L64.1981 9.59867V42.1287Z" fill="#F5F5F5"/>
<path d="M101.347 40.5663V11.158L65.7435 11.158V40.5663H101.347Z" fill="#FAFAFA"/>
<path d="M96.9764 40.5664L82.9638 11.1604H78.2039L92.2165 40.5664H96.9764Z" fill="white"/>
<path d="M90.8666 40.5664L76.854 11.1604H73.5774L87.59 40.5664H90.8666Z" fill="white"/>
<path d="M78.9619 40.5688V11.1604H77.1209V40.5688H78.9619Z" fill="#E6E6E6"/>
<path d="M91.2002 40.5688V11.1604H89.3592V40.5688H91.2002Z" fill="#E6E6E6"/>
<path d="M78.6282 41.5584V9.99902H76.3007V41.5584H78.6282Z" fill="#F5F5F5"/>
<path d="M90.8668 41.5584V9.99902H88.5393V41.5584H90.8668Z" fill="#F5F5F5"/>
<path d="M65.9058 40.5688V11.1604H65.7412V40.5688H65.9058Z" fill="#E6E6E6"/>
<path d="M63.5496 7.59058H104.941C104.994 7.5912 105.044 7.61258 105.081 7.65008C105.118 7.68758 105.139 7.73818 105.139 7.79089C105.139 7.84339 105.118 7.89373 105.081 7.93085C105.044 7.96797 104.994 7.98882 104.941 7.98882H63.5496C63.4971 7.98882 63.4468 7.96797 63.4097 7.93085C63.3725 7.89373 63.3517 7.84339 63.3517 7.79089C63.3517 7.73818 63.3725 7.68758 63.4095 7.65008C63.4466 7.61258 63.4969 7.5912 63.5496 7.59058Z" fill="#E6E6E6"/>
<path d="M103.262 8.90444C103.334 8.90381 103.402 8.87522 103.452 8.82482C103.503 8.77442 103.531 8.70624 103.532 8.63496V8.05786C103.531 7.98681 103.502 7.91888 103.452 7.86885C103.402 7.81883 103.333 7.79077 103.262 7.79077C103.191 7.79077 103.123 7.81883 103.073 7.86885C103.022 7.91888 102.993 7.98681 102.993 8.05786V8.63496C102.993 8.70624 103.022 8.77442 103.072 8.82482C103.123 8.87522 103.191 8.90381 103.262 8.90444Z" fill="#E6E6E6"/>
<path d="M66.5521 8.90444C66.6233 8.90381 66.6915 8.87522 66.7419 8.82482C66.7923 8.77442 66.8209 8.70624 66.8215 8.63496V8.05786C66.8209 7.98681 66.7922 7.91888 66.7418 7.86885C66.6913 7.81883 66.6231 7.79077 66.5521 7.79077C66.481 7.79077 66.4128 7.81883 66.3624 7.86885C66.3119 7.91888 66.2832 7.98681 66.2826 8.05786V8.63496C66.2832 8.70624 66.3118 8.77442 66.3622 8.82482C66.4126 8.87522 66.4808 8.90381 66.5521 8.90444Z" fill="#E6E6E6"/>
<path opacity="0.6" d="M63.6114 23.9353L102.275 23.9353V7.79074L63.6114 7.79074V23.9353Z" fill="#E0E0E0"/>
<path d="M27.328 49.3757H21.9219C21.3463 49.3757 20.8798 49.8423 20.8798 50.4179V59.7564C20.8798 60.332 21.3463 60.7986 21.9219 60.7986H27.328C27.9036 60.7986 28.3702 60.332 28.3702 59.7564V50.4179C28.3702 49.8423 27.9036 49.3757 27.328 49.3757Z" fill="#FAFAFA"/>
<path d="M28.0196 48.5291H21.2303C21.0367 48.5291 20.8798 48.686 20.8798 48.8796V49.161C20.8798 49.3546 21.0367 49.5116 21.2303 49.5116H28.0196C28.2132 49.5116 28.3702 49.3546 28.3702 49.161V48.8796C28.3702 48.686 28.2132 48.5291 28.0196 48.5291Z" fill="#E6E6E6"/>
<path d="M47.8556 52.5093H43.9327C43.5152 52.5093 43.1768 52.8477 43.1768 53.2652V60.045C43.1768 60.4625 43.5152 60.801 43.9327 60.801H47.8556C48.2731 60.801 48.6115 60.4625 48.6115 60.045V53.2652C48.6115 52.8477 48.2731 52.5093 47.8556 52.5093Z" fill="#F0F0F0"/>
<path d="M48.3588 51.8938H43.4295C43.2899 51.8938 43.1768 52.007 43.1768 52.1466V52.3541C43.1768 52.4937 43.2899 52.6068 43.4295 52.6068H48.3588C48.4984 52.6068 48.6115 52.4937 48.6115 52.3541V52.1466C48.6115 52.007 48.4984 51.8938 48.3588 51.8938Z" fill="#E6E6E6"/>
<path d="M35.4051 54.1379H27.9743C27.1841 54.1379 26.5435 54.7785 26.5435 55.5688V59.3676C26.5435 60.1579 27.1841 60.7985 27.9743 60.7985H35.4051C36.1953 60.7985 36.8359 60.1579 36.8359 59.3676V55.5688C36.8359 54.7785 36.1953 54.1379 35.4051 54.1379Z" fill="#F0F0F0"/>
<path d="M36.3566 52.9744H27.0228C26.7581 52.9744 26.5435 53.189 26.5435 53.4537V53.8448C26.5435 54.1095 26.7581 54.3241 27.0228 54.3241H36.3566C36.6213 54.3241 36.8359 54.1095 36.8359 53.8448V53.4537C36.8359 53.189 36.6213 52.9744 36.3566 52.9744Z" fill="#F5F5F5"/>
<path d="M67.673 78.0757H68.8749V58.3683H67.673V78.0757Z" fill="#E6E6E6"/>
<path d="M102.378 54.5315H95.8698V58.3661H102.378V54.5315Z" fill="#E6E6E6"/>
<path d="M63.5114 58.3684L95.8673 58.3684V54.5338L63.5114 54.5338V58.3684Z" fill="#F5F5F5"/>
<path d="M102.378 64.7739H95.8698V68.6086H102.378V64.7739Z" fill="#E6E6E6"/>
<path d="M63.5114 68.6084H95.8673V64.7738H63.5114V68.6084Z" fill="#F5F5F5"/>
<path d="M100.029 78.0757H101.231V58.3683H100.029V78.0757Z" fill="#E6E6E6"/>
<path d="M94.6654 78.0757H95.8673V58.3683H94.6654V78.0757Z" fill="#F5F5F5"/>
<path d="M63.5115 78.0757H64.7134V58.3683H63.5115V78.0757Z" fill="#F5F5F5"/>
<path d="M16.938 28.3875L32.2336 28.3875V11.2341L16.938 11.2341V28.3875Z" fill="#F0F0F0"/>
<path d="M15.8573 28.3875L31.9948 28.3875L31.9948 11.2341L15.8573 11.2341L15.8573 28.3875Z" fill="#F5F5F5"/>
<path d="M17.2096 12.5842V27.0356H30.6427V12.5842H17.2096Z" fill="white"/>
<path opacity="0.2" d="M21.7 15.6436C21.0756 15.6396 20.4691 15.8526 19.9843 16.2461C19.4995 16.6396 19.1665 17.1893 19.042 17.8012C18.9175 18.4131 19.0094 19.0492 19.302 19.6008C19.5945 20.1525 20.0696 20.5854 20.6459 20.8256L30.6451 25.0394V19.1778L22.7373 15.8511C22.4086 15.7142 22.056 15.6437 21.7 15.6436Z" fill="#FCC9BD"/>
<path d="M37.2509 36.9634H52.5465V19.8101L37.2509 19.8101V36.9634Z" fill="#F0F0F0"/>
<path d="M36.1706 36.9634H52.308V19.8101L36.1706 19.8101V36.9634Z" fill="#F5F5F5"/>
<path d="M37.5226 21.1597V35.6111H50.9557V21.1597H37.5226Z" fill="white"/>
<path d="M45.7523 26.7495L37.5226 23.2869V29.2797L43.6084 31.8385C44.2832 32.1231 45.0435 32.128 45.7219 31.852C46.4004 31.5761 46.9414 31.0419 47.226 30.3671C47.5106 29.6923 47.5155 28.932 47.2396 28.2536C46.9636 27.5751 46.4295 27.0341 45.7546 26.7495H45.7523Z" fill="#F0F0F0"/>
<path d="M59.9391 88.8451C85.4753 88.8451 106.177 87.6364 106.177 86.1455C106.177 84.6546 85.4753 83.446 59.9391 83.446C34.403 83.446 13.7018 84.6546 13.7018 86.1455C13.7018 87.6364 34.403 88.8451 59.9391 88.8451Z" fill="#F5F5F5"/>
<path opacity="0.2" d="M30.5523 37.373C28.4163 37.2444 26.3664 36.4853 24.6619 35.1915C22.9575 33.8977 21.675 32.1275 20.9768 30.1047C20.2787 28.082 20.1961 25.8976 20.7396 23.8279C21.2832 21.7582 22.4283 19.8962 24.0303 18.4775C25.6322 17.0588 27.619 16.1471 29.7392 15.8577C31.8594 15.5683 34.0178 15.9143 35.9413 16.8518C37.8649 17.7894 39.4671 19.2764 40.5454 21.1247C41.6237 22.973 42.1295 25.0996 41.9989 27.2355C41.8233 30.097 40.5193 32.7718 38.373 34.6726C36.2268 36.5733 33.414 37.5445 30.5523 37.373Z" fill="#B9551E"/>
<path d="M46.6011 14.5966C46.8396 13.5926 49.334 12.6387 51.4802 14.1196C52.4316 14.7639 53.1452 15.7026 53.5114 16.7917C53.8776 17.8808 53.8762 19.06 53.5072 20.1482C52.3554 23.5584 58.3673 23.432 59.76 29.1815C60.8593 33.7125 59.8411 40.1298 53.7052 39.7816C44.3404 39.2498 45.1488 30.0973 44.7386 25.2873C44.3285 20.4773 39.218 15.0831 46.6011 14.5966Z" fill="#263238"/>
<path d="M43.5083 27.4386C43.4678 28.135 43.3867 28.7717 43.2961 29.4323C43.2055 30.0928 43.0791 30.7391 42.9384 31.3877C42.7977 32.0364 42.6379 32.685 42.4352 33.3241C42.2394 33.9727 42.0069 34.6097 41.7389 35.2319L41.529 35.7088C41.498 35.778 41.4408 35.8829 41.3979 35.9712C41.3549 36.0594 41.2977 36.1405 41.2476 36.2263C41.0515 36.5321 40.8331 36.8231 40.5942 37.0967C40.1499 37.6053 39.6719 38.0833 39.1634 38.5276C38.1776 39.3989 37.1286 40.196 36.0251 40.9123L35.3907 40.0633C35.8391 39.6293 36.2969 39.181 36.7381 38.7327C37.1793 38.2843 37.6157 37.8289 38.0306 37.3662C38.4395 36.9177 38.8255 36.4489 39.1872 35.9616C39.3526 35.7335 39.5023 35.4945 39.6356 35.2462C39.6618 35.1914 39.6952 35.1341 39.7166 35.0817C39.7381 35.0292 39.7619 34.9863 39.7882 34.9076L39.9503 34.4879C40.3595 33.3355 40.6784 32.1531 40.9042 30.9513C41.0258 30.3456 41.1141 29.7303 41.2047 29.1175C41.2953 28.5046 41.3645 27.8726 41.4169 27.2908L43.5083 27.4386Z" fill="#FFB573"/>
<path d="M42.0774 24.9345C41.2309 25.1491 40.6466 28.6356 40.6466 28.6356L43.8874 30.8391C43.8874 30.8391 45.2205 26.7063 44.5671 25.7739C43.8803 24.8009 43.3127 24.6197 42.0774 24.9345Z" fill="#F2712A"/>
<path opacity="0.2" d="M42.1537 25.7122L41.5027 29.2272L42.8143 30.1167L42.1537 25.7122Z" fill="#8E3C10"/>
<path d="M35.7771 39.7722L33.5951 40.1204L34.8399 41.4988C34.8399 41.4988 36.1253 41.2054 36.3518 40.3827L35.7771 39.7722Z" fill="#FFB573"/>
<path d="M32.5625 40.3946L33.8073 41.742L34.8399 41.4987L33.5951 40.1204L32.5625 40.3946Z" fill="#FFB573"/>
<path d="M46.6606 83.6083H44.605L44.4667 78.8484H46.5223L46.6606 83.6083Z" fill="#FFB573"/>
<path d="M60.8738 77.5511L58.9708 78.3285L56.5598 74.172L58.4628 73.3945L60.8738 77.5511Z" fill="#FFB573"/>
<path d="M58.613 78.0423L60.5971 76.8642C60.6311 76.8431 60.6717 76.835 60.7112 76.8416C60.7507 76.8482 60.7864 76.869 60.8117 76.9L61.9707 78.3309C61.9974 78.368 62.0161 78.4103 62.0256 78.455C62.0351 78.4997 62.0353 78.5459 62.0261 78.5907C62.017 78.6355 61.9986 78.6779 61.9722 78.7153C61.9459 78.7526 61.9121 78.7841 61.8729 78.8078C61.1742 79.206 60.8165 79.3634 59.9437 79.8833C59.4071 80.2029 58.1432 81.2951 57.4016 81.7362C56.6599 82.1774 56.1854 81.4668 56.4477 81.2164C57.3223 80.426 57.9847 79.429 58.3746 78.3165C58.4207 78.2008 58.5048 78.1041 58.613 78.0423Z" fill="#263238"/>
<path d="M44.5337 83.3721H46.8445C46.8838 83.3712 46.9221 83.3848 46.952 83.4103C46.982 83.4358 47.0014 83.4715 47.0067 83.5104L47.2714 85.3395C47.2761 85.3856 47.271 85.4321 47.2566 85.4761C47.2422 85.5201 47.2187 85.5605 47.1877 85.5949C47.1567 85.6293 47.1189 85.6568 47.0766 85.6756C47.0343 85.6945 46.9886 85.7043 46.9423 85.7044C46.1363 85.6901 45.7499 85.6424 44.7317 85.6424C44.1069 85.6424 42.8239 85.7068 41.9535 85.7068C41.083 85.7068 41.0449 84.8554 41.4026 84.7767C43.0147 84.4309 43.649 83.954 44.1903 83.4985C44.2862 83.4171 44.4079 83.3723 44.5337 83.3721Z" fill="#263238"/>
<g opacity="0.2">
<path d="M44.4691 78.8506L44.5383 81.3045H46.5939L46.5247 78.8506H44.4691Z" fill="black"/>
<path d="M58.4651 73.3945L56.5597 74.172L57.8045 76.3158L59.7075 75.5384L58.4651 73.3945Z" fill="black"/>
</g>
<path d="M42.0774 24.9346C42.0774 24.9346 41.0973 25.278 43.0599 37.3351H51.4064C51.2657 33.9369 51.2633 31.8503 52.8873 24.8702C51.7185 24.6251 50.5333 24.4657 49.3412 24.3932C48.0798 24.3025 46.8134 24.3025 45.5519 24.3932C43.9231 24.5626 42.0774 24.9346 42.0774 24.9346Z" fill="#FB7537"/>
<path opacity="0.2" d="M52.1981 27.634C51.4421 27.8224 50.7434 28.6475 50.8269 30.1666C50.8739 30.8556 51.1153 31.5171 51.5232 32.0744C51.6567 30.9059 51.8809 29.549 52.2386 27.8129L52.1981 27.634Z" fill="#8E3C10"/>
<path d="M45.9907 27.7414C45.9907 27.7414 47.0758 28.4115 47.3596 29.4107C48.5376 28.5475 50.1378 26.146 50.2021 24.7081C50.2025 24.6662 50.1945 24.6247 50.1787 24.586C50.1629 24.5472 50.1396 24.5119 50.1101 24.4822C50.0806 24.4525 50.0455 24.429 50.0069 24.4129C49.9683 24.3968 49.9268 24.3885 49.885 24.3885C49.7034 24.3838 49.5217 24.3918 49.3413 24.4124L45.9907 27.7414Z" fill="#FAFAFA"/>
<path d="M45.9908 27.7414C45.9908 27.7414 44.9057 28.4115 44.622 29.4107C43.3557 28.483 44.0592 25.421 44.7841 24.4027C45.0394 24.3758 45.2968 24.3758 45.552 24.4027L45.9908 27.7414Z" fill="#FAFAFA"/>
<path d="M48.9693 20.1389C48.7308 21.3575 48.4924 23.592 49.3437 24.4076C48.5528 25.8056 47.394 26.9602 45.9932 27.7462C44.3024 26.3964 45.5544 24.4076 45.5544 24.4076C46.9137 24.0832 46.8779 23.0721 46.6418 22.1254L48.9693 20.1389Z" fill="#FFB573"/>
<path opacity="0.2" d="M48.0153 20.9497L46.637 22.1254C46.6965 22.3455 46.7356 22.5706 46.7538 22.7979C47.2737 22.7216 48.0916 22.2804 48.2037 21.7152C48.2538 21.4481 48.063 21.0761 48.0153 20.9497Z" fill="black"/>
<path d="M51.0107 18.1787C50.4479 20.1389 50.25 20.9808 49.0195 21.7796C47.1689 22.972 44.8844 21.856 44.851 19.7669C44.82 17.8854 45.7476 14.9975 47.87 14.6374C48.3374 14.5558 48.8178 14.5951 49.2657 14.7516C49.7135 14.9081 50.1139 15.1766 50.4287 15.5316C50.7434 15.8865 50.9622 16.3161 51.0641 16.7794C51.1659 17.2428 51.1476 17.7245 51.0107 18.1787Z" fill="#FFB573"/>
<path d="M46.7778 14.8114C46.8708 15.4744 50.5004 17.6063 51.1896 16.495C51.8788 15.3837 50.8867 14.5467 49.3414 14.3345C48.4575 14.1957 47.5527 14.364 46.7778 14.8114Z" fill="#263238"/>
<path d="M49.1433 15.1716C48.6974 15.7583 49.6417 19.984 50.9939 19.5858C52.346 19.1875 52.284 17.8354 51.3444 16.5882C50.8128 15.8583 50.0279 15.3532 49.1433 15.1716Z" fill="#263238"/>
<path d="M43.0599 37.3398C43.0599 37.3398 41.4383 53.1792 41.5766 59.4391C41.7173 65.9589 44.1068 80.83 44.1068 80.83H46.885C46.885 80.83 46.4462 66.3404 46.6918 59.9375C46.9589 52.9574 49.1767 37.3398 49.1767 37.3398H43.0599Z" fill="#407BFF"/>
<path d="M43.0599 37.3398C43.0599 37.3398 41.4383 53.1792 41.5766 59.4391C41.7173 65.9589 44.1068 80.83 44.1068 80.83H46.885C46.885 80.83 46.4462 66.3404 46.6918 59.9375C46.9589 52.9574 49.1767 37.3398 49.1767 37.3398H43.0599Z" fill="#512107"/>
<path d="M47.1211 80.9278H43.8612L43.6227 79.8881L47.2737 79.7617L47.1211 80.9278Z" fill="#263238"/>
<path opacity="0.2" d="M46.6608 41.2794C44.6099 45.4026 46.2482 52.9264 46.9731 55.726C47.3452 51.5218 47.9723 46.3827 48.4612 42.6101C48.1488 40.4734 47.6051 39.3764 46.6608 41.2794Z" fill="black"/>
<path d="M45.2633 37.3397C45.2633 37.3397 47.1544 53.7943 48.5828 59.0836C50.2784 65.3578 57.1678 76.0629 57.1678 76.0629L59.7624 75.004C59.7624 75.004 55.3149 62.8157 54.0176 59.5033C51.2513 52.447 53.6194 41.9351 51.4087 37.3254L45.2633 37.3397Z" fill="#407BFF"/>
<path d="M45.2633 37.3397C45.2633 37.3397 47.1544 53.7943 48.5828 59.0836C50.2784 65.3578 57.1678 76.0629 57.1678 76.0629L59.7624 75.004C59.7624 75.004 55.3149 62.8157 54.0176 59.5033C51.2513 52.447 53.6194 41.9351 51.4087 37.3254L45.2633 37.3397Z" fill="#5A2306"/>
<path d="M60.1153 75.0159L56.896 76.3298L56.14 75.4594L59.8578 73.7424L60.1153 75.0159Z" fill="#263238"/>
<path d="M22.1673 16.3973C20.0905 18.2354 18.6054 20.648 17.8998 23.3301C17.1942 26.0122 17.2998 28.8433 18.2032 31.4653C19.1066 34.0874 20.7672 36.3827 22.9751 38.061C25.1831 39.7392 27.8391 40.7251 30.6073 40.8938C33.3755 41.0626 36.1315 40.4067 38.527 39.0091C40.9224 37.6115 42.8496 35.5349 44.0648 33.042C45.2801 30.549 45.7288 27.7517 45.3542 25.0038C44.9796 22.2559 43.7986 19.6807 41.9605 17.604C39.4954 14.8199 36.0254 13.1288 32.3137 12.9025C28.602 12.6762 24.9523 13.9333 22.1673 16.3973ZM39.2824 35.7374C37.5343 37.2842 35.3667 38.2778 33.0538 38.5926C30.741 38.9075 28.3867 38.5294 26.2887 37.5062C24.1907 36.483 22.4432 34.8607 21.2672 32.8444C20.0912 30.8281 19.5396 28.5083 19.682 26.1785C19.8244 23.8486 20.6544 21.6133 22.0672 19.7552C23.48 17.8971 25.4121 16.4997 27.6191 15.7397C29.8261 14.9796 32.2089 14.8911 34.4662 15.4853C36.7235 16.0794 38.7539 17.3296 40.3007 19.0778C41.3278 20.2385 42.1161 21.5902 42.6208 23.0556C43.1254 24.521 43.3365 26.0715 43.242 27.6185C43.1474 29.1655 42.7491 30.6787 42.0697 32.0718C41.3903 33.4648 40.4432 34.7104 39.2824 35.7374Z" fill="#B2ACAB"/>
<g opacity="0.5">
<path d="M32.1186 16.1016H31.9159L20.6791 26.0459L20.6648 26.2486C20.519 28.5933 21.1438 30.9214 22.4438 32.8781L38.4763 18.6723C36.6936 17.1458 34.4613 16.2432 32.1186 16.1016Z" fill="#FAA992"/>
<path d="M39.5235 19.688L23.3241 34.0226C23.8651 34.6473 24.4765 35.2074 25.146 35.6919L40.9472 21.7007C40.5509 20.9777 40.0733 20.3024 39.5235 19.688Z" fill="#FAA992"/>
</g>
<path d="M42.4948 37.5045L40.6491 39.1381C40.5148 39.2566 40.3391 39.3171 40.1603 39.3064C39.9815 39.2957 39.8143 39.2146 39.6952 39.0808C39.5778 38.9461 39.5181 38.7706 39.5288 38.5922C39.5395 38.4138 39.6198 38.2468 39.7524 38.127L41.5982 36.4934C41.7328 36.3752 41.9087 36.3151 42.0874 36.3263C42.2662 36.3374 42.4333 36.419 42.5521 36.553C42.6705 36.6869 42.7309 36.8623 42.7202 37.0406C42.7094 37.219 42.6284 37.3858 42.4948 37.5045Z" fill="#B2ACAB"/>
<path d="M41.8151 37.2015C43.2054 38.4248 44.536 39.703 45.85 40.9979C47.164 42.2928 48.447 43.6211 49.7157 44.9423C50.9843 46.2634 52.2292 47.6275 53.4644 48.9963C54.6234 50.4271 56.2021 51.4859 56.4382 53.7323C56.4567 53.912 56.4321 54.0935 56.3665 54.2618C56.301 54.43 56.1963 54.5803 56.0611 54.7001C55.9259 54.8199 55.7642 54.9057 55.5892 54.9506C55.4143 54.9955 55.2312 54.998 55.055 54.9581C52.8516 54.4501 51.9955 52.7546 50.7172 51.4287C49.5122 50.0376 48.3246 48.6338 47.1545 47.2173C45.9844 45.8008 44.8357 44.3612 43.7085 42.8986C42.583 41.4391 41.4764 39.963 40.4296 38.4344C40.2952 38.2472 40.2349 38.0168 40.2603 37.7878C40.2858 37.5588 40.3951 37.3473 40.5672 37.1941C40.7394 37.0409 40.9621 36.9569 41.1926 36.9583C41.423 36.9596 41.6447 37.0463 41.8151 37.2015Z" fill="#B2ACAB"/>
<path d="M47.7244 18.0023C47.6887 18.1645 47.5742 18.2765 47.4669 18.2408C47.3596 18.205 47.3047 18.0667 47.3405 17.9069C47.3763 17.7471 47.4907 17.6327 47.598 17.6684C47.7054 17.7042 47.7602 17.8401 47.7244 18.0023Z" fill="#263238"/>
<path d="M45.8952 17.5965C45.8594 17.7587 45.7426 17.8708 45.6377 17.8469C45.5327 17.8231 45.4755 17.6728 45.5113 17.5107C45.547 17.3485 45.6615 17.2364 45.7688 17.2603C45.8761 17.2841 45.931 17.4344 45.8952 17.5965Z" fill="#263238"/>
<path d="M45.8142 17.2795L45.4493 17.0815C45.4493 17.0815 45.5805 17.4297 45.8142 17.2795Z" fill="#263238"/>
<path d="M46.3937 18.0142C46.1675 18.3508 45.8963 18.6549 45.5876 18.918C45.657 18.9956 45.7424 19.0571 45.8379 19.0983C45.9335 19.1395 46.0369 19.1593 46.1409 19.1564L46.3937 18.0142Z" fill="#ED893E"/>
<path d="M46.8828 19.9839C46.8025 19.9782 46.7227 19.9663 46.6443 19.9481C46.6382 19.9467 46.6324 19.9441 46.6273 19.9405C46.6222 19.9368 46.6179 19.9322 46.6146 19.9269C46.6112 19.9216 46.609 19.9157 46.608 19.9095C46.6069 19.9033 46.6071 19.897 46.6085 19.8909C46.6099 19.8848 46.6125 19.879 46.6162 19.8739C46.6198 19.8688 46.6244 19.8645 46.6297 19.8611C46.635 19.8578 46.641 19.8556 46.6471 19.8545C46.6533 19.8535 46.6596 19.8537 46.6658 19.8551C46.8662 19.9038 47.0752 19.9047 47.2761 19.8579C47.477 19.8111 47.6641 19.7179 47.8223 19.5856C47.8264 19.5793 47.8318 19.574 47.8381 19.57C47.8445 19.5661 47.8517 19.5636 47.8591 19.5628C47.8666 19.562 47.8741 19.5629 47.8812 19.5653C47.8882 19.5678 47.8947 19.5719 47.9 19.5772C47.9053 19.5825 47.9093 19.5889 47.9118 19.596C47.9143 19.603 47.9152 19.6106 47.9143 19.618C47.9135 19.6255 47.9111 19.6326 47.9071 19.639C47.9032 19.6454 47.8978 19.6508 47.8915 19.6548C47.7535 19.7737 47.5933 19.864 47.4201 19.9205C47.247 19.977 47.0643 19.9985 46.8828 19.9839Z" fill="#263238"/>
<path d="M51.1417 20.1341C51.0318 20.2963 50.8909 20.4352 50.7273 20.5428C50.5636 20.6504 50.3802 20.7247 50.1878 20.7613C49.6727 20.8567 49.4724 20.3845 49.6464 19.9242C49.8086 19.5093 50.276 18.9704 50.772 19.0753C50.88 19.1021 50.9797 19.1554 51.0619 19.2304C51.1442 19.3054 51.2064 19.3997 51.2431 19.5048C51.2798 19.6098 51.2897 19.7224 51.272 19.8323C51.2543 19.9421 51.2095 20.0459 51.1417 20.1341Z" fill="#FFB573"/>
<path d="M48.4923 17.2892C48.4729 17.2951 48.4521 17.2948 48.4329 17.2884C48.4137 17.282 48.3969 17.2697 48.3849 17.2534C48.1202 16.8885 47.5384 16.8933 47.5336 16.8933C47.5077 16.8933 47.4828 16.883 47.4645 16.8647C47.4461 16.8463 47.4358 16.8215 47.4358 16.7955C47.4355 16.7828 47.4377 16.7701 47.4424 16.7583C47.447 16.7464 47.454 16.7356 47.4629 16.7265C47.4718 16.7174 47.4824 16.7102 47.4941 16.7052C47.5059 16.7003 47.5185 16.6977 47.5312 16.6978C47.5598 16.6978 48.218 16.6978 48.5423 17.1389C48.5574 17.1598 48.5636 17.1859 48.5596 17.2113C48.5555 17.2368 48.5416 17.2596 48.5209 17.2749L48.4923 17.2892Z" fill="#263238"/>
<path d="M45.5137 16.2563C45.4968 16.2551 45.4806 16.2496 45.4664 16.2404C45.4522 16.2313 45.4406 16.2187 45.4326 16.2038C45.4209 16.1807 45.4189 16.1539 45.427 16.1293C45.435 16.1048 45.4525 16.0844 45.4755 16.0726C45.6118 15.9995 45.7636 15.9599 45.9183 15.957C46.0729 15.9541 46.2261 15.988 46.365 16.0559C46.387 16.0693 46.403 16.0907 46.4096 16.1155C46.4163 16.1404 46.4131 16.1669 46.4008 16.1895C46.3878 16.2119 46.3665 16.2283 46.3414 16.235C46.3164 16.2417 46.2897 16.2382 46.2672 16.2253C46.1566 16.1731 46.0352 16.1478 45.9129 16.1515C45.7907 16.1553 45.671 16.1879 45.5638 16.2467C45.5479 16.2533 45.5308 16.2566 45.5137 16.2563Z" fill="#263238"/>
<path d="M57.8237 78.8222H57.7927C57.7466 78.8116 57.704 78.7894 57.6689 78.7577C57.6338 78.7259 57.6075 78.6857 57.5924 78.6409C57.579 78.6147 57.573 78.5852 57.5751 78.5558C57.5772 78.5264 57.5873 78.4981 57.6043 78.474C57.7545 78.2594 58.4985 78.2856 58.582 78.2904C58.5916 78.29 58.601 78.2929 58.6088 78.2985C58.6166 78.3041 58.6223 78.3122 58.6249 78.3214C58.6282 78.3304 58.6287 78.3401 58.6266 78.3494C58.6245 78.3586 58.6198 78.3671 58.613 78.3738C58.4294 78.5551 58.0788 78.8532 57.8237 78.8222ZM58.4675 78.381C58.1695 78.381 57.7712 78.4144 57.6925 78.5265C57.686 78.5377 57.6826 78.5505 57.6826 78.5634C57.6826 78.5764 57.686 78.5892 57.6925 78.6004C57.7023 78.6304 57.7194 78.6575 57.7423 78.6791C57.7652 78.7008 57.7932 78.7164 57.8237 78.7244C57.9596 78.7554 58.1957 78.6242 58.4675 78.381Z" fill="#407BFF"/>
<path d="M58.5081 78.381C58.2529 78.35 57.7927 78.1759 57.7307 77.9756C57.7179 77.939 57.718 77.8992 57.7311 77.8628C57.7441 77.8263 57.7692 77.7954 57.8022 77.7753C57.8314 77.7521 57.8653 77.7356 57.9016 77.7269C57.9378 77.7183 57.9755 77.7177 58.0121 77.7252C58.3054 77.7824 58.6106 78.2904 58.6249 78.3118C58.6285 78.3193 58.6304 78.3274 58.6304 78.3357C58.6304 78.3439 58.6285 78.3521 58.6249 78.3595C58.6204 78.3668 58.6141 78.3729 58.6066 78.3771C58.5991 78.3812 58.5906 78.3834 58.582 78.3834C58.5573 78.3849 58.5326 78.3841 58.5081 78.381ZM57.9811 77.8182C57.9385 77.8134 57.8957 77.8253 57.8618 77.8516C57.8117 77.8897 57.8141 77.9207 57.8237 77.9422C57.8714 78.0781 58.241 78.2474 58.489 78.2808C58.3793 78.1163 58.1695 77.8539 57.9954 77.8206L57.9811 77.8182Z" fill="#407BFF"/>
<path d="M43.7634 83.7299C43.5877 83.7465 43.4116 83.7018 43.265 83.6035C43.2316 83.5742 43.2061 83.537 43.1907 83.4954C43.1753 83.4538 43.1705 83.4089 43.1768 83.365C43.1778 83.3383 43.1859 83.3124 43.2001 83.2898C43.2143 83.2672 43.2342 83.2487 43.2578 83.2362C43.5106 83.0955 44.331 83.5152 44.4216 83.5629C44.4305 83.5677 44.4378 83.575 44.4424 83.5839C44.4471 83.5928 44.449 83.603 44.4478 83.613C44.4469 83.623 44.4426 83.6325 44.4357 83.6398C44.4288 83.6472 44.4196 83.652 44.4097 83.6536C44.1972 83.6996 43.9808 83.7252 43.7634 83.7299ZM43.3961 83.3054C43.365 83.3036 43.3339 83.3093 43.3055 83.3221C43.2961 83.3275 43.2882 83.335 43.2824 83.3442C43.2765 83.3533 43.273 83.3637 43.2721 83.3745C43.2685 83.4034 43.2718 83.4328 43.2818 83.4601C43.2917 83.4875 43.308 83.5121 43.3294 83.5319C43.4534 83.644 43.792 83.6631 44.2475 83.5868C43.9816 83.4457 43.6937 83.3506 43.3961 83.3054Z" fill="#407BFF"/>
<path d="M44.4002 83.6585H44.3812C44.1427 83.5488 43.6514 83.1052 43.6896 82.8715C43.6896 82.8167 43.7373 82.7475 43.8708 82.7332C43.9193 82.728 43.9682 82.733 44.0146 82.7477C44.061 82.7625 44.1038 82.7868 44.1403 82.8191C44.4002 83.0337 44.4479 83.5869 44.4479 83.6108C44.4493 83.619 44.4482 83.6275 44.4448 83.6351C44.4414 83.6427 44.4359 83.6492 44.4289 83.6537C44.4201 83.6584 44.4101 83.6601 44.4002 83.6585ZM43.9114 82.8238H43.8804C43.7921 82.8238 43.7874 82.8691 43.785 82.881C43.7611 83.0194 44.0902 83.3699 44.3406 83.5202C44.3214 83.2866 44.2297 83.0648 44.0783 82.8858C44.0328 82.8444 43.9729 82.8222 43.9114 82.8238Z" fill="#407BFF"/>
<path d="M47.6434 17.6874L47.2786 17.4871C47.2786 17.4871 47.4097 17.8352 47.6434 17.6874Z" fill="#263238"/>
<path d="M51.5567 36.8103L51.769 37.5567C51.7976 37.6163 51.7308 37.676 51.633 37.676H43.0313C42.9574 37.676 42.8954 37.6378 42.8906 37.5901L42.8143 36.8437C42.8143 36.7912 42.874 36.7483 42.9574 36.7483H51.4113C51.4389 36.7441 51.4671 36.7477 51.4928 36.7586C51.5185 36.7696 51.5406 36.7875 51.5567 36.8103Z" fill="#5A2306"/>
<path opacity="0.2" d="M51.5567 36.7834L51.769 37.5299C51.7976 37.5895 51.7308 37.6491 51.633 37.6491H43.0313C42.9574 37.6491 42.8954 37.6109 42.8906 37.5632L42.8143 36.8168C42.8143 36.7644 42.874 36.7214 42.9574 36.7214H51.4113C51.4389 36.7172 51.4671 36.7208 51.4928 36.7318C51.5185 36.7427 51.5406 36.7606 51.5567 36.7834Z" fill="black"/>
<path d="M50.3691 37.7929H50.5956C50.6409 37.7929 50.6743 37.7714 50.6719 37.7428L50.5646 36.7722C50.5646 36.7436 50.5217 36.7197 50.4788 36.7197H50.2403C50.195 36.7197 50.1592 36.7436 50.164 36.7722L50.2689 37.7428C50.2832 37.7714 50.3238 37.7929 50.3691 37.7929Z" fill="#407BFF"/>
<path d="M50.3691 37.7929H50.5956C50.6409 37.7929 50.6743 37.7714 50.6719 37.7428L50.5646 36.7722C50.5646 36.7436 50.5217 36.7197 50.4788 36.7197H50.2403C50.195 36.7197 50.1592 36.7436 50.164 36.7722L50.2689 37.7428C50.2832 37.7714 50.3238 37.7929 50.3691 37.7929Z" fill="#B9551E"/>
<path d="M43.6536 37.7929H43.8802C43.9255 37.7929 43.9589 37.7714 43.9565 37.7428L43.8515 36.7722C43.8515 36.7436 43.8086 36.7197 43.7633 36.7197H43.5368C43.4915 36.7197 43.4581 36.7436 43.4604 36.7722L43.5654 37.7428C43.5701 37.7714 43.6083 37.7929 43.6536 37.7929Z" fill="#407BFF"/>
<path d="M43.6536 37.7929H43.8802C43.9255 37.7929 43.9589 37.7714 43.9565 37.7428L43.8515 36.7722C43.8515 36.7436 43.8086 36.7197 43.7633 36.7197H43.5368C43.4915 36.7197 43.4581 36.7436 43.4604 36.7722L43.5654 37.7428C43.5701 37.7714 43.6083 37.7929 43.6536 37.7929Z" fill="#B9551E"/>
<path d="M46.9972 37.7929H47.2356C47.2809 37.7929 47.3143 37.7714 47.3119 37.7428L47.207 36.7722C47.207 36.7436 47.1641 36.7197 47.1188 36.7197H46.8922C46.8469 36.7197 46.8135 36.7436 46.8159 36.7722L46.9208 37.7428C46.9137 37.7714 46.9518 37.7929 46.9972 37.7929Z" fill="#407BFF"/>
<path d="M46.9972 37.7929H47.2356C47.2809 37.7929 47.3143 37.7714 47.3119 37.7428L47.207 36.7722C47.207 36.7436 47.1641 36.7197 47.1188 36.7197H46.8922C46.8469 36.7197 46.8135 36.7436 46.8159 36.7722L46.9208 37.7428C46.9137 37.7714 46.9518 37.7929 46.9972 37.7929Z" fill="#B9551E"/>
<path d="M46.3915 39.0043L44.3645 38.0981L44.9416 40.1085C44.9416 40.1085 46.2294 40.3994 46.7898 39.7531L46.3915 39.0043Z" fill="#FFB573"/>
<path d="M53.8603 27.3501C53.9533 28.0536 54.0272 28.7619 54.1107 29.4653L54.3253 31.5877C54.4016 32.3032 54.4589 33.0019 54.5256 33.7102L54.6139 34.7714L54.6377 35.0384C54.6377 35.0647 54.6377 35.1744 54.6377 35.2507C54.6377 35.327 54.6377 35.4152 54.6377 35.4892C54.6021 35.7923 54.5056 36.0851 54.3539 36.35C54.1084 36.758 53.7842 37.1131 53.4 37.3945C53.078 37.6374 52.7366 37.8535 52.3794 38.0408C51.7114 38.386 51.0168 38.6771 50.3023 38.9112C49.6036 39.1497 48.9025 39.3476 48.199 39.5241C47.4955 39.7006 46.792 39.846 46.0646 39.9581L45.8262 38.9446C46.482 38.7276 47.1521 38.5058 47.8031 38.2554C48.4541 38.005 49.1052 37.7594 49.73 37.4756C50.345 37.2065 50.9409 36.8957 51.5137 36.5456C51.7778 36.3861 52.0283 36.205 52.2625 36.0043C52.4462 35.8555 52.5993 35.6724 52.7132 35.4653C52.7381 35.42 52.7512 35.3691 52.7514 35.3175C52.7514 35.3175 52.7514 35.3175 52.7514 35.2984C52.7514 35.2793 52.7514 35.2984 52.7514 35.2459L52.7132 34.9836L52.5606 33.9272C52.4676 33.2117 52.3627 32.5178 52.2768 31.8119L52.0074 29.6967C51.9311 28.9812 51.8428 28.2849 51.7689 27.5766L53.8603 27.3501Z" fill="#FFB573"/>
<path d="M52.8875 24.8751C53.7222 25.1279 54.7286 28.0086 54.7286 28.0086L51.8025 31.0205C51.8025 31.0205 50.3001 27.9204 50.6507 26.8425C51.0179 25.7169 51.9337 24.5842 52.8875 24.8751Z" fill="#F2712A"/>
<path d="M42.6877 38.5155L43.2601 40.1705L44.9413 40.1085L44.3642 38.0981L42.6877 38.5155Z" fill="#FFB573"/>
<path d="M70.9949 32.58C71.5434 28.6595 68.8057 25.4807 64.8853 25.4807H93.5305C97.4534 25.4807 100.189 28.6595 99.6426 32.58H70.9949Z" fill="#263238"/>
<path opacity="0.7" d="M70.9949 32.58C71.5434 28.6595 68.8057 25.4807 64.8853 25.4807H93.5305C97.4534 25.4807 100.189 28.6595 99.6426 32.58H70.9949Z" fill="#F2712A"/>
<path d="M64.8852 25.4807H93.5305C89.61 25.4807 85.9876 28.6595 85.4415 32.58L78.9646 79.0439C78.4185 82.9668 74.7961 86.1456 70.8756 86.1456H56.429C52.5085 86.1456 49.7732 82.9668 50.3193 79.0439L56.7938 32.58C57.3423 28.6595 60.9623 25.4807 64.8852 25.4807Z" fill="#F2712A"/>
<path d="M64.7635 79.0439C64.2174 82.9668 66.9527 86.1456 70.8756 86.1456H42.2279C38.3074 86.1456 35.5721 82.9668 36.1183 79.0439H64.7635Z" fill="#263238"/>
<path opacity="0.7" d="M64.7635 79.0439C64.2174 82.9668 66.9527 86.1456 70.8756 86.1456H42.2279C38.3074 86.1456 35.5721 82.9668 36.1183 79.0439H64.7635Z" fill="#F2712A"/>
<path opacity="0.4" d="M69.3566 39.9346H80.448C80.6095 39.9269 80.7637 39.8648 80.8854 39.7582C81.0071 39.6517 81.0891 39.507 81.1181 39.3479C81.1307 39.2748 81.1271 39.1998 81.1074 39.1283C81.0877 39.0568 81.0524 38.9905 81.0041 38.9342C80.9558 38.878 80.8956 38.833 80.8279 38.8027C80.7602 38.7724 80.6867 38.7574 80.6125 38.7589H69.5212C69.3585 38.764 69.2026 38.8256 69.0803 38.9331C68.9581 39.0405 68.877 39.1872 68.8511 39.3479C68.8383 39.4209 68.842 39.4958 68.8617 39.5672C68.8814 39.6386 68.9167 39.7047 68.9651 39.7608C69.0134 39.8169 69.0736 39.8616 69.1413 39.8917C69.209 39.9217 69.2826 39.9364 69.3566 39.9346Z" fill="white"/>
<path opacity="0.4" d="M69.0511 42.1214H77.2044C77.3668 42.1164 77.5224 42.0552 77.6446 41.9482C77.7668 41.8412 77.8481 41.6951 77.8746 41.5348C77.8873 41.4618 77.8836 41.3869 77.8639 41.3155C77.8442 41.2441 77.8089 41.178 77.7606 41.1219C77.7122 41.0658 77.652 41.0211 77.5843 40.991C77.5166 40.961 77.443 40.9463 77.369 40.9481H69.2156C69.0531 40.9527 68.8973 41.0138 68.775 41.1209C68.6527 41.2279 68.5715 41.3743 68.5455 41.5348C68.5328 41.6078 68.5364 41.6826 68.5561 41.7541C68.5759 41.8255 68.6112 41.8916 68.6595 41.9477C68.7079 42.0038 68.7681 42.0485 68.8358 42.0785C68.9035 42.1086 68.977 42.1232 69.0511 42.1214Z" fill="white"/>
<path opacity="0.4" d="M64.4523 42.4671C65.9865 41.036 66.2208 38.7937 64.9756 37.4589C63.7304 36.1241 61.4773 36.2022 59.9431 37.6333C58.409 39.0644 58.1747 41.3067 59.4199 42.6415C60.665 43.9763 62.9181 43.8982 64.4523 42.4671Z" fill="white"/>
<path d="M59.0354 40.0635C58.9587 40.5722 59.0179 41.0922 59.2071 41.5707C59.4129 42.074 59.7675 42.5024 60.2236 42.7986C60.6796 43.0948 61.2152 43.2447 61.7588 43.228C62.357 43.2138 62.9429 43.0558 63.4672 42.7673C63.9914 42.4788 64.4385 42.0684 64.7707 41.5707C65.0814 41.1206 65.2838 40.6048 65.3621 40.0635C65.6005 38.3179 64.3867 36.9014 62.6387 36.9014C61.7639 36.9264 60.9252 37.256 60.2674 37.8333C59.6096 38.4106 59.1739 39.1993 59.0354 40.0635Z" fill="white"/>
<path opacity="0.4" d="M59.8962 41.2557C60.0539 41.6415 60.3257 41.9699 60.6751 42.1971C61.0246 42.4242 61.4351 42.5392 61.8517 42.5267C62.311 42.5161 62.761 42.395 63.1636 42.1738C63.5662 41.9526 63.9097 41.6377 64.1649 41.2557C63.5706 40.8266 62.8541 40.6001 62.1212 40.6094C61.3342 40.6161 60.5643 40.8397 59.8962 41.2557Z" fill="#D7D4D3"/>
<path opacity="0.4" d="M61.2245 39.2762C61.2004 39.4109 61.2066 39.5494 61.2426 39.6814C61.2787 39.8134 61.3438 39.9357 61.4331 40.0395C61.5224 40.1432 61.6337 40.2257 61.759 40.2809C61.8842 40.3362 62.0202 40.3628 62.157 40.3589C62.4562 40.3503 62.7429 40.2374 62.9677 40.0397C63.1924 39.8419 63.3409 39.5719 63.3875 39.2762C63.4117 39.1418 63.4056 39.0037 63.3696 38.872C63.3336 38.7402 63.2688 38.6181 63.1797 38.5147C63.0906 38.4112 62.9795 38.3288 62.8546 38.2737C62.7296 38.2186 62.594 38.192 62.4574 38.1959C62.1583 38.2043 61.8715 38.3168 61.6464 38.514C61.4214 38.7112 61.2722 38.9808 61.2245 39.2762Z" fill="#D7D4D3"/>
<path opacity="0.4" d="M68.0257 49.4901H71.7673C71.9297 49.4851 72.0853 49.4238 72.2075 49.3168C72.3297 49.2098 72.411 49.0637 72.4374 48.9034C72.4502 48.8305 72.4465 48.7556 72.4268 48.6842C72.4071 48.6128 72.3718 48.5466 72.3234 48.4905C72.2751 48.4344 72.2149 48.3897 72.1472 48.3597C72.0795 48.3296 72.0059 48.315 71.9319 48.3168H68.1879C68.0256 48.3215 67.8701 48.3826 67.7482 48.4897C67.6263 48.5968 67.5456 48.7432 67.5201 48.9034C67.5074 48.9764 67.511 49.0513 67.5308 49.1227C67.5505 49.1941 67.5858 49.2603 67.6341 49.3164C67.6825 49.3725 67.7427 49.4172 67.8104 49.4472C67.8781 49.4772 67.9516 49.4919 68.0257 49.4901Z" fill="white"/>
<path opacity="0.4" d="M74.0259 49.4902H79.3725C79.5348 49.4851 79.6904 49.4239 79.8127 49.3169C79.9349 49.2099 80.0161 49.0638 80.0426 48.9035C80.0558 48.8305 80.0525 48.7554 80.0329 48.6838C80.0134 48.6122 79.9781 48.5459 79.9296 48.4897C79.8812 48.4335 79.8208 48.3888 79.7529 48.3589C79.685 48.329 79.6112 48.3146 79.537 48.3169H74.1905C74.028 48.3214 73.8722 48.3825 73.7498 48.4896C73.6275 48.5967 73.5464 48.7431 73.5204 48.9035C73.5077 48.9765 73.5113 49.0514 73.531 49.1228C73.5507 49.1942 73.586 49.2603 73.6344 49.3164C73.6827 49.3726 73.7429 49.4172 73.8106 49.4473C73.8784 49.4773 73.9519 49.492 74.0259 49.4902Z" fill="white"/>
<path opacity="0.4" d="M67.7206 51.6792H76.8851C77.0478 51.6741 77.2036 51.6125 77.3259 51.5051C77.4482 51.3976 77.5292 51.2509 77.5552 51.0902C77.5679 51.0172 77.5643 50.9423 77.5446 50.8709C77.5248 50.7995 77.4895 50.7334 77.4412 50.6773C77.3928 50.6212 77.3326 50.5765 77.2649 50.5464C77.1972 50.5164 77.1237 50.5018 77.0496 50.5036H67.8827C67.7208 50.5091 67.5658 50.5706 67.444 50.6776C67.3223 50.7845 67.2414 50.9303 67.215 51.0902C67.2019 51.1634 67.2052 51.2385 67.2248 51.3102C67.2443 51.3819 67.2795 51.4484 67.3279 51.5048C67.3763 51.5612 67.4367 51.6061 67.5046 51.6363C67.5725 51.6664 67.6463 51.6811 67.7206 51.6792Z" fill="white"/>
<path opacity="0.4" d="M63.1214 52.0237C64.6555 50.5926 64.8898 48.3504 63.6447 47.0155C62.3995 45.6807 60.1464 45.7588 58.6122 47.1899C57.078 48.6211 56.8438 50.8633 58.0889 52.1981C59.3341 53.533 61.5872 53.4549 63.1214 52.0237Z" fill="white"/>
<path d="M57.7022 49.6023C57.6261 50.1112 57.6862 50.6312 57.8763 51.1094C58.0802 51.6121 58.4325 52.0408 58.8863 52.3381C59.34 52.6355 59.8736 52.7875 60.416 52.7739C61.0143 52.7601 61.6004 52.6023 62.1247 52.3138C62.649 52.0252 63.0961 51.6146 63.4279 51.1166C63.7407 50.6674 63.944 50.1512 64.0217 49.6094C64.2602 47.8638 63.0463 46.4473 61.2983 46.4473C60.4258 46.4737 59.5897 46.803 58.9334 47.3787C58.2772 47.9544 57.8419 48.7406 57.7022 49.6023Z" fill="white"/>
<path opacity="0.4" d="M58.5634 50.8184C58.7215 51.2044 58.9937 51.533 59.3435 51.7601C59.6934 51.9872 60.1043 52.1022 60.5212 52.0895C60.9801 52.0785 61.4296 51.9572 61.8318 51.736C62.2339 51.5148 62.577 51.2001 62.832 50.8184C62.2379 50.3891 61.5213 50.1625 60.7883 50.1722C60.0014 50.1796 59.2317 50.4031 58.5634 50.8184Z" fill="#D7D4D3"/>
<path opacity="0.4" d="M59.8938 48.8321C59.8697 48.9666 59.8759 49.1048 59.9118 49.2367C59.9477 49.3685 60.0126 49.4907 60.1017 49.5944C60.1907 49.6981 60.3017 49.7806 60.4266 49.836C60.5516 49.8914 60.6873 49.9183 60.8239 49.9148C61.1234 49.9063 61.4105 49.7934 61.6356 49.5958C61.8607 49.3981 62.0097 49.128 62.0568 48.8321C62.081 48.6977 62.0749 48.5596 62.0389 48.4279C62.0029 48.2961 61.9381 48.1741 61.849 48.0706C61.7599 47.9671 61.6488 47.8848 61.5239 47.8296C61.3989 47.7745 61.2633 47.7479 61.1267 47.7518C60.8276 47.7602 60.5408 47.8727 60.3157 48.0699C60.0907 48.2671 59.9415 48.5367 59.8938 48.8321Z" fill="#D7D4D3"/>
<path opacity="0.4" d="M66.6925 59.0481H73.2099C73.3726 59.043 73.5285 58.9814 73.6507 58.874C73.773 58.7665 73.8541 58.6198 73.88 58.4591C73.8927 58.3861 73.8891 58.3112 73.8694 58.2398C73.8497 58.1684 73.8144 58.1023 73.766 58.0462C73.7176 57.9901 73.6574 57.9454 73.5897 57.9153C73.522 57.8853 73.4485 57.8707 73.3744 57.8725H66.8546C66.6923 57.8775 66.5367 57.9387 66.4145 58.0457C66.2922 58.1527 66.211 58.2988 66.1845 58.4591C66.1713 58.5325 66.1747 58.6078 66.1944 58.6797C66.214 58.7516 66.2495 58.8182 66.2982 58.8746C66.3468 58.9311 66.4075 58.9759 66.4757 59.0059C66.5439 59.036 66.618 59.0504 66.6925 59.0481Z" fill="white"/>
<path opacity="0.4" d="M66.3779 61.2349H76.5392C76.7011 61.2271 76.8556 61.1646 76.9773 61.0576C77.0991 60.9506 77.1809 60.8054 77.2093 60.6459C77.2217 60.5727 77.2177 60.4978 77.1976 60.4264C77.1776 60.355 77.1421 60.2889 77.0935 60.2329C77.045 60.1768 76.9847 60.1322 76.9169 60.1022C76.8491 60.0722 76.7755 60.0575 76.7014 60.0592H66.5425C66.3801 60.0642 66.2245 60.1255 66.1023 60.2325C65.9801 60.3395 65.8988 60.4856 65.8724 60.6459C65.8592 60.719 65.8626 60.7942 65.8821 60.8659C65.9016 60.9376 65.9369 61.004 65.9853 61.0604C66.0337 61.1168 66.094 61.1617 66.1619 61.1919C66.2299 61.2221 66.3036 61.2368 66.3779 61.2349Z" fill="white"/>
<path opacity="0.2" d="M55.2629 70.545H70.8209C71.0488 70.5375 71.267 70.4512 71.4384 70.3007C71.6097 70.1502 71.7236 69.9449 71.7604 69.7199C71.7786 69.617 71.7736 69.5113 71.7457 69.4106C71.7178 69.3099 71.6677 69.2167 71.5991 69.1378C71.5305 69.0589 71.4452 68.9964 71.3493 68.9547C71.2534 68.9131 71.1495 68.8934 71.045 68.8972H55.4919C55.2643 68.9038 55.0462 68.9895 54.8751 69.1397C54.704 69.2899 54.5907 69.4951 54.5547 69.7199C54.5362 69.8224 54.5408 69.9277 54.5682 70.0282C54.5955 70.1287 54.6449 70.2218 54.7127 70.3008C54.7805 70.3798 54.8651 70.4427 54.9603 70.485C55.0554 70.5272 55.1588 70.5477 55.2629 70.545Z" fill="white"/>
<path opacity="0.2" d="M54.8359 73.6117H66.2683C66.4961 73.6045 66.7142 73.5183 66.8853 73.3677C67.0563 73.2171 67.1696 73.0116 67.2055 72.7866C67.2237 72.6836 67.2186 72.578 67.1907 72.4772C67.1628 72.3765 67.1127 72.2833 67.0441 72.2044C66.9756 72.1256 66.8902 72.063 66.7943 72.0214C66.6985 71.9798 66.5945 71.9601 66.4901 71.9638H55.0649C54.8372 71.9708 54.6189 72.0566 54.4475 72.2067C54.2761 72.3568 54.1622 72.5618 54.1253 72.7866C54.1094 72.8889 54.1159 72.9934 54.1444 73.093C54.1729 73.1925 54.2226 73.2847 54.2902 73.3631C54.3577 73.4416 54.4415 73.5044 54.5357 73.5473C54.63 73.5903 54.7324 73.6122 54.8359 73.6117Z" fill="white"/>
<path opacity="0.2" d="M60.6711 33.007H79.2219C79.3384 33.0018 79.4496 32.9565 79.5365 32.8787C79.6234 32.8009 79.6808 32.6954 79.6988 32.5801C79.708 32.5272 79.7054 32.4729 79.691 32.4211C79.6767 32.3694 79.651 32.3215 79.6158 32.2808C79.5807 32.2402 79.5369 32.2079 79.4878 32.1863C79.4386 32.1646 79.3853 32.1542 79.3316 32.1557H60.7904C60.6744 32.1616 60.564 32.2069 60.4773 32.2841C60.3906 32.3613 60.3328 32.4657 60.3134 32.5801C60.3044 32.6324 60.3069 32.6859 60.3207 32.7371C60.3345 32.7883 60.3593 32.8359 60.3933 32.8765C60.4274 32.9171 60.4698 32.9498 60.5178 32.9724C60.5658 32.9949 60.6181 33.0067 60.6711 33.007Z" fill="white"/>
<path opacity="0.4" d="M61.7895 61.5801C63.3236 60.149 63.5579 57.9067 62.3127 56.5719C61.0676 55.2371 58.8145 55.3152 57.2803 56.7463C55.7461 58.1775 55.5118 60.4197 56.757 61.7545C58.0022 63.0894 60.2553 63.0113 61.7895 61.5801Z" fill="white"/>
<path d="M56.3624 59.1675C56.2858 59.6762 56.345 60.1961 56.5341 60.6746C56.7405 61.1773 57.0954 61.605 57.5513 61.9008C58.0072 62.1965 58.5425 62.3461 59.0857 62.3296C59.6837 62.3155 60.2694 62.1577 60.7936 61.8697C61.3178 61.5816 61.7651 61.1718 62.0976 60.6746C62.4079 60.2243 62.6103 59.7086 62.689 59.1675C62.9275 57.4195 61.7137 56.0029 59.9657 56.0029C59.0905 56.0281 58.2516 56.358 57.5937 56.9358C56.9358 57.5135 56.5003 58.3028 56.3624 59.1675Z" fill="white"/>
<path opacity="0.4" d="M57.2327 60.3766C57.3908 60.7626 57.663 61.0911 58.0128 61.3183C58.3627 61.5454 58.7736 61.6603 59.1905 61.6476C59.6494 61.6366 60.0989 61.5154 60.5011 61.2942C60.9033 61.073 61.2463 60.7582 61.5013 60.3766C60.9076 59.9465 60.1907 59.7198 59.4576 59.7303C58.6705 59.7359 57.9003 59.9596 57.2327 60.3766Z" fill="#D7D4D3"/>
<path opacity="0.4" d="M58.5609 58.3899C58.5371 58.5244 58.5436 58.6626 58.5799 58.7943C58.6161 58.926 58.6813 59.048 58.7705 59.1515C58.8598 59.2549 58.971 59.3372 59.096 59.3923C59.221 59.4474 59.3568 59.474 59.4933 59.4701C59.7922 59.4617 60.0787 59.3491 60.3033 59.1518C60.528 58.9546 60.6767 58.6851 60.7239 58.3899C60.748 58.2553 60.7418 58.1171 60.7059 57.9853C60.67 57.8534 60.6051 57.7312 60.516 57.6276C60.427 57.5239 60.316 57.4414 60.1911 57.386C60.0661 57.3305 59.9304 57.3036 59.7938 57.3072C59.4943 57.3157 59.2073 57.4285 58.9821 57.6262C58.757 57.8239 58.608 58.094 58.5609 58.3899Z" fill="#D7D4D3"/>
</svg>
