<svg width="140" height="89" viewBox="0 0 140 89" fill="none" xmlns="http://www.w3.org/2000/svg">
<path d="M131.287 2.69727H113.963V28.7611H131.287V2.69727Z" fill="#E0E0E0"/>
<path d="M130.42 2.69727H113.095V28.7611H130.42V2.69727Z" fill="#F5F5F5"/>
<path d="M128.267 5.52075H115.248V25.9397H128.267V5.52075Z" fill="white"/>
<path d="M128.267 25.9376C128.267 25.9376 128.267 25.9029 128.267 25.8374C128.267 25.7719 128.267 25.6737 128.267 25.5489C128.267 25.2911 128.267 24.9167 128.267 24.4277C128.267 23.4497 128.267 22.0237 128.267 20.2232C128.267 16.6223 128.254 11.5237 128.246 5.52074L128.289 5.56575H115.28L115.327 5.51664C115.327 13.2177 115.327 20.3194 115.327 25.9335L115.289 25.8947L124.765 25.9151L127.382 25.9254H128.07H128.309H128.078H127.398L124.788 25.9356L115.289 25.9561H115.217V25.9172C115.217 20.303 115.217 13.2014 115.207 5.50028V5.45117H115.256H128.265H128.309V5.49618C128.309 11.5114 128.291 16.6202 128.287 20.2273C128.287 22.0237 128.277 23.4477 128.275 24.4236C128.275 24.9065 128.275 25.2788 128.275 25.5346C128.275 25.6573 128.275 25.7535 128.275 25.819C128.275 25.8844 128.267 25.9376 128.267 25.9376Z" fill="#E0E0E0"/>
<path d="M130.467 2.69727C130.378 2.86213 130.275 3.01827 130.159 3.16375C129.962 3.442 129.673 3.82256 129.345 4.2338C129.018 4.64504 128.715 5.00718 128.49 5.26702C128.374 5.41494 128.246 5.55188 128.108 5.67622C128.205 5.51737 128.316 5.36747 128.439 5.22815L129.272 4.17651C129.59 3.77959 129.874 3.4195 130.106 3.12692C130.215 2.97396 130.336 2.83028 130.467 2.69727Z" fill="#E0E0E0"/>
<path d="M128.332 25.8721C128.98 26.9403 129.742 27.9293 130.603 28.8203L128.332 25.8721Z" fill="white"/>
<path d="M130.603 28.8203C130.461 28.7087 130.329 28.5834 130.209 28.4459C129.606 27.8069 129.066 27.1064 128.598 26.3549C128.495 26.2037 128.406 26.0419 128.334 25.8721C128.451 26.0114 128.558 26.1598 128.654 26.316C128.851 26.5943 129.113 26.9749 129.426 27.382C129.74 27.7892 130.039 28.1431 130.258 28.405C130.383 28.5342 130.498 28.6731 130.603 28.8203Z" fill="#E0E0E0"/>
<path d="M113.094 28.7408C113.848 27.771 114.604 26.8019 115.362 25.8335L113.094 28.7408Z" fill="white"/>
<path d="M115.362 25.8335C115.022 26.3482 114.655 26.844 114.264 27.3189C113.898 27.8132 113.507 28.2878 113.094 28.7408C113.433 28.226 113.8 27.7309 114.191 27.2575C114.557 26.7617 114.948 26.2864 115.362 25.8335Z" fill="#E0E0E0"/>
<path d="M113.095 2.69727C113.486 3.13236 113.853 3.58857 114.197 4.06398C114.565 4.52129 114.908 4.99942 115.224 5.49617C114.833 5.06169 114.465 4.60544 114.122 4.12946C113.756 3.67126 113.413 3.19319 113.095 2.69727Z" fill="#E0E0E0"/>
<path d="M124.211 9.66577H119.85V22.5125H124.211V9.66577Z" fill="#E0E0E0"/>
<path d="M128.748 34.0745H110.85V46.4895H128.748V34.0745Z" fill="#EBEBEB"/>
<path d="M128.748 34.0745H121.463V46.4895H128.748V34.0745Z" fill="#E0E0E0"/>
<path d="M22.3246 20.6079H9.39001V34.6025H22.3246V20.6079Z" fill="#E0E0E0"/>
<path d="M21.4495 20.6079H8.51489V34.6025H21.4495V20.6079Z" fill="#FAFAFA"/>
<path d="M21.4532 34.6065H8.51074V20.6038H21.4532V34.6065ZM8.51863 34.6065H21.4453V20.6119H8.51863V34.6065Z" fill="#E0E0E0"/>
<path d="M19.7109 22.488H10.2534V32.72H19.7109V22.488Z" fill="#FAFAFA"/>
<path d="M10.2537 32.7896C10.1867 32.8912 10.1086 32.9846 10.0211 33.0678C9.86933 33.2335 9.65645 33.4586 9.42977 33.7021C9.20309 33.9455 8.97247 34.1604 8.81084 34.3159C8.72908 34.4048 8.63781 34.4837 8.53882 34.5511C8.60436 34.4483 8.68181 34.3541 8.76944 34.2708C8.92122 34.1051 9.1341 33.8801 9.37261 33.6366C9.61112 33.3931 9.82991 33.1762 9.99154 33.0228C10.069 32.9338 10.1571 32.8554 10.2537 32.7896Z" fill="#E0E0E0"/>
<path d="M19.7109 32.7632C19.8093 32.8338 19.8998 32.9155 19.981 33.0067C20.1406 33.1622 20.3575 33.3831 20.592 33.6307C20.8266 33.8782 21.0336 34.1033 21.1834 34.2711C21.2694 34.3563 21.3455 34.4518 21.4101 34.5555C21.3113 34.4862 21.2206 34.4052 21.14 34.314C20.9803 34.1585 20.7635 33.9376 20.529 33.69C20.2944 33.4425 20.0855 33.2133 19.9376 33.0455C19.85 32.9626 19.7737 32.8676 19.7109 32.7632Z" fill="#E0E0E0"/>
<path d="M19.6854 22.5169C19.7511 22.413 19.8293 22.3181 19.918 22.2346C20.0698 22.0688 20.2807 21.8458 20.5094 21.6024C20.738 21.3589 20.9667 21.142 21.1263 20.9886C21.2088 20.8991 21.3007 20.8195 21.4003 20.7512C21.3342 20.8542 21.2561 20.9484 21.1677 21.0315C21.0179 21.1972 20.805 21.4223 20.5764 21.6658C20.3477 21.9092 20.1171 22.1282 19.9574 22.2796C19.8753 22.3686 19.7841 22.4482 19.6854 22.5169Z" fill="#E0E0E0"/>
<path d="M10.2278 22.5413C10.1289 22.4722 10.0383 22.3911 9.95774 22.2999C9.79808 22.1423 9.58323 21.9214 9.34866 21.6759C9.1141 21.4303 8.90516 21.2012 8.75732 21.0334C8.67003 20.9494 8.59381 20.8538 8.53064 20.749C8.62844 20.8211 8.71834 20.9042 8.79871 20.9966C8.95838 21.1541 9.17323 21.3751 9.4078 21.6227C9.64236 21.8702 9.85327 22.0973 9.99914 22.2651C10.0851 22.3479 10.1618 22.4406 10.2278 22.5413Z" fill="#E0E0E0"/>
<path d="M19.6853 32.7199C19.6831 32.7036 19.6831 32.6871 19.6853 32.6708C19.6853 32.636 19.6853 32.589 19.6853 32.5276C19.6853 32.4007 19.6853 32.2166 19.6853 31.9752C19.6853 31.4923 19.6853 30.7865 19.6853 29.8903C19.6853 28.098 19.6734 25.5446 19.6656 22.4879L19.703 22.5268H10.2731L10.3145 22.4818C10.3145 26.2382 10.3145 29.7512 10.3145 32.7117L10.279 32.6749L17.107 32.6954H19.0269H19.5335H19.7109H19.6675H19.5414H19.0407H17.1307L10.279 32.7158H10.2435V32.6769C10.2435 29.7144 10.2435 26.2014 10.2435 22.447V22.4041H10.2869H19.7168H19.7523V22.4409C19.7523 25.5099 19.7385 28.0694 19.7345 29.8678C19.7345 30.7599 19.7345 31.4616 19.7345 31.9445C19.7345 32.1818 19.7345 32.3537 19.7345 32.4887C19.7345 32.5481 19.7345 32.5951 19.7345 32.6278C19.7345 32.6606 19.6853 32.722 19.6853 32.7199Z" fill="#E0E0E0"/>
<path d="M16.5591 25.9663H13.4033V29.2419H16.5591V25.9663Z" fill="#EBEBEB"/>
<path d="M139.757 88.956C139.757 88.9847 108.646 89.0092 70.2783 89.0092C31.9102 89.0092 0.79187 88.9847 0.79187 88.956C0.79187 88.9274 31.8964 88.9028 70.2783 88.9028C108.66 88.9028 139.757 88.9233 139.757 88.956Z" fill="#263238"/>
<path d="M12.4196 75.0108C9.46287 73.3494 6.13559 70.3296 4.84253 66.8984C8.04168 68.6191 10.7461 71.504 12.4196 75.0108Z" fill="#FF725E"/>
<path d="M12.2266 69.8714C9.26988 68.2121 5.9426 65.1902 4.64954 61.759C7.84869 63.4715 10.5491 66.3564 12.2266 69.8714Z" fill="#FF725E"/>
<path d="M11.7849 64.8401C8.82823 63.1808 5.50095 60.1589 4.20789 56.7278C7.40507 58.4403 10.1016 61.3251 11.7849 64.8401Z" fill="#FF725E"/>
<path d="M11.1404 59.5555C8.39462 57.4788 5.44186 54.0006 4.5509 50.4099C7.52732 52.5725 9.87297 55.8256 11.1404 59.5555Z" fill="#FF725E"/>
<path d="M10.3026 55.4776C8.44583 52.3923 6.86104 47.9197 7.22373 44.2124C9.29455 47.5717 10.3655 51.49 10.3026 55.4776Z" fill="#FF725E"/>
<path d="M10.7244 57.4152C11.5128 53.5687 13.4091 48.8221 16.1489 46.1479C15.3457 50.3402 13.4722 54.2316 10.7244 57.4152Z" fill="#FF725E"/>
<path d="M11.3374 61.7693C12.457 57.8349 14.8145 53.0616 17.8796 50.5164C16.7155 54.8106 14.4551 58.6986 11.3374 61.7693Z" fill="#FF725E"/>
<path d="M12.0057 67.0703C13.1253 63.1338 15.4828 58.3626 18.5479 55.8174C17.3826 60.1111 15.1224 63.9988 12.0057 67.0703Z" fill="#FF725E"/>
<path d="M12.3447 73.5295C13.4643 69.5931 15.8218 64.8218 18.8869 62.2766C17.7216 66.5704 15.4614 70.4581 12.3447 73.5295Z" fill="#FF725E"/>
<path d="M10.2295 54.7002C10.2375 54.7206 10.2434 54.7419 10.2472 54.7636C10.2591 54.8127 10.2729 54.8741 10.2886 54.9478C10.3261 55.1217 10.3754 55.357 10.4404 55.6639C10.5705 56.2776 10.742 57.1861 10.9352 58.3052C11.1283 59.4244 11.3294 60.7604 11.5403 62.2458C11.7512 63.7312 11.9345 65.3741 12.0804 67.1009C12.2263 68.8277 12.3327 70.4768 12.4017 71.9765C12.4707 73.4762 12.4963 74.8307 12.4983 75.9682C12.5002 77.1058 12.4983 78.0142 12.4766 78.6587C12.4766 78.9676 12.4608 79.2111 12.4549 79.3891C12.4549 79.4669 12.4549 79.5282 12.4549 79.5794C12.4575 79.6004 12.4575 79.6218 12.4549 79.6428C12.4523 79.6218 12.4523 79.6004 12.4549 79.5794C12.4549 79.5282 12.4549 79.4669 12.4549 79.3891V78.6567C12.4549 78.0224 12.4549 77.1037 12.4391 75.9682C12.4234 74.8327 12.3839 73.4824 12.315 71.9826C12.246 70.4829 12.1356 68.838 11.9858 67.1112C11.836 65.3843 11.6448 63.7496 11.4555 62.2622C11.2663 60.7747 11.0613 59.4387 10.876 58.3195C10.6907 57.2004 10.535 56.2961 10.4187 55.672C10.3655 55.3672 10.3221 55.1278 10.2906 54.9539L10.261 54.7657C10.2476 54.7455 10.237 54.7235 10.2295 54.7002Z" fill="#263238"/>
<g opacity="0.5">
<path d="M12.4196 75.0108C9.46287 73.3494 6.13559 70.3296 4.84253 66.8984C8.04168 68.6191 10.7461 71.504 12.4196 75.0108Z" fill="black"/>
<path d="M12.2266 69.8714C9.26988 68.2121 5.9426 65.1902 4.64954 61.759C7.84869 63.4715 10.5491 66.3564 12.2266 69.8714Z" fill="black"/>
<path d="M11.7849 64.8401C8.82823 63.1808 5.50095 60.1589 4.20789 56.7278C7.40507 58.4403 10.1016 61.3251 11.7849 64.8401Z" fill="black"/>
<path d="M11.1404 59.5555C8.39462 57.4788 5.44186 54.0006 4.5509 50.4099C7.52732 52.5725 9.87297 55.8256 11.1404 59.5555Z" fill="black"/>
<path d="M10.3026 55.4776C8.44583 52.3923 6.86104 47.9197 7.22373 44.2124C9.29455 47.5717 10.3655 51.49 10.3026 55.4776Z" fill="black"/>
<path d="M10.7244 57.4152C11.5128 53.5687 13.4091 48.8221 16.1489 46.1479C15.3457 50.3402 13.4722 54.2316 10.7244 57.4152Z" fill="black"/>
<path d="M11.3374 61.7693C12.457 57.8349 14.8145 53.0616 17.8796 50.5164C16.7155 54.8106 14.4551 58.6986 11.3374 61.7693Z" fill="black"/>
<path d="M12.0057 67.0703C13.1253 63.1338 15.4828 58.3626 18.5479 55.8174C17.3826 60.1111 15.1224 63.9988 12.0057 67.0703Z" fill="black"/>
<path d="M12.3447 73.5295C13.4643 69.5931 15.8218 64.8218 18.8869 62.2766C17.7216 66.5704 15.4614 70.4581 12.3447 73.5295Z" fill="black"/>
</g>
<path d="M13.7186 76.3468C12.3388 73.3535 11.3395 69.1449 12.0156 65.8611C13.5548 69.1096 14.1467 72.754 13.7186 76.3468Z" fill="#FF725E"/>
<path d="M16.0089 72.4719C14.6291 69.4786 13.6298 65.27 14.3059 61.9841C15.8449 65.2335 16.4368 68.8784 16.0089 72.4719Z" fill="#FF725E"/>
<path d="M18.0629 68.5312C16.6831 65.5379 15.6837 61.3293 16.3598 58.0435C17.8992 61.2927 18.4911 64.9377 18.0629 68.5312Z" fill="#FF725E"/>
<path d="M20.0873 64.2795C19.0623 61.1123 18.5499 56.7932 19.5946 53.6404C20.7491 57.0622 20.9203 60.7585 20.0873 64.2795Z" fill="#FF725E"/>
<path d="M21.4041 60.7991C21.5046 57.4293 22.4606 53.2064 24.4771 50.7185C24.4322 54.3196 23.3631 57.8266 21.4041 60.7991Z" fill="#FF725E"/>
<path d="M20.799 62.471C23.188 60.1324 26.8188 57.8082 30.083 57.5054C27.5297 60.0775 24.2988 61.8056 20.799 62.471Z" fill="#FF725E"/>
<path d="M19.1847 66.0083C21.8615 63.8068 25.8373 61.7404 29.2749 61.7322C26.3944 64.1645 22.8822 65.6529 19.1847 66.0083Z" fill="#FF725E"/>
<path d="M17.172 70.2927C19.8488 68.0912 23.8246 66.0248 27.2622 66.0166C24.3817 68.4489 20.8695 69.9373 17.172 70.2927Z" fill="#FF725E"/>
<path d="M14.3669 75.2156C17.0437 73.0141 21.0215 70.9476 24.4592 70.9395C21.5776 73.3714 18.0649 74.8597 14.3669 75.2156Z" fill="#FF725E"/>
<path d="M21.7173 60.1875C21.7146 60.2073 21.7093 60.2265 21.7015 60.2448C21.6858 60.2857 21.668 60.3389 21.6463 60.4023L21.4216 61.0161C21.2245 61.5419 20.9289 62.2969 20.5465 63.2237C19.7817 65.0774 18.6502 67.6042 17.2448 70.3131C16.5391 71.6675 15.8335 72.936 15.1712 74.0798C14.5089 75.2235 13.886 76.2239 13.3479 77.0567C12.8097 77.8894 12.3623 78.5686 12.0469 79.0269L11.6823 79.5528L11.5837 79.6878C11.5733 79.7033 11.5614 79.7177 11.5482 79.7308C11.5482 79.7308 11.5482 79.7124 11.5738 79.6796L11.6625 79.5384C11.7473 79.4055 11.8597 79.2254 12.0095 78.9983C12.315 78.5339 12.7486 77.8546 13.2749 77.0096C13.8012 76.1646 14.4162 75.1457 15.0766 74.0061C15.7369 72.8665 16.4327 71.5918 17.1384 70.2394C18.5418 67.5346 19.6851 65.016 20.4676 63.1746C20.8618 62.2539 21.1693 61.5051 21.3783 60.9834L21.6227 60.388L21.6897 60.2325C21.697 60.2163 21.7063 60.2012 21.7173 60.1875Z" fill="#263238"/>
<path d="M17.6431 88.9563H9.18492L7.60999 76.8584H19.2633L17.6431 88.9563Z" fill="#263238"/>
<path d="M18.8494 78.6301C18.8494 78.6608 16.4032 78.6833 13.3854 78.6833C10.3676 78.6833 7.91943 78.6608 7.91943 78.6301C7.91943 78.5994 10.3676 78.5769 13.3854 78.5769C16.4032 78.5769 18.8494 78.6015 18.8494 78.6301Z" fill="#455A64"/>
<path d="M97.3932 1.37744H43.1535C41.8961 1.37744 40.8768 2.43544 40.8768 3.74056V86.5928C40.8768 87.8979 41.8961 88.9559 43.1535 88.9559H97.3932C98.6506 88.9559 99.6699 87.8979 99.6699 86.5928V3.74056C99.6699 2.43544 98.6506 1.37744 97.3932 1.37744Z" fill="#263238"/>
<path d="M97.7893 7.62598H42.704V80.7639H97.7893V7.62598Z" fill="white"/>
<path d="M72.5292 84.5548C72.5289 85.0177 72.3963 85.47 72.1483 85.8546C71.9002 86.2393 71.5479 86.5389 71.1358 86.7158C70.7238 86.8926 70.2704 86.9387 69.8331 86.8481C69.3958 86.7576 68.9942 86.5345 68.6791 86.2071C68.3639 85.8797 68.1493 85.4626 68.0625 85.0086C67.9756 84.5547 68.0204 84.0842 68.1911 83.6566C68.3619 83.229 68.6509 82.8636 69.0217 82.6065C69.3925 82.3494 69.8284 82.2122 70.2743 82.2122C70.5706 82.2122 70.864 82.2728 71.1377 82.3905C71.4114 82.5083 71.6601 82.6809 71.8695 82.8984C72.0789 83.116 72.245 83.3743 72.3582 83.6585C72.4714 83.9427 72.5295 84.2473 72.5292 84.5548Z" fill="#455A64"/>
<path d="M78.8881 3.90015H61.6604C61.5276 3.90015 61.4199 4.0119 61.4199 4.14976V4.61829C61.4199 4.75614 61.5276 4.8679 61.6604 4.8679H78.8881C79.0209 4.8679 79.1286 4.75614 79.1286 4.61829V4.14976C79.1286 4.0119 79.0209 3.90015 78.8881 3.90015Z" fill="#455A64"/>
<path d="M60.1368 19.3821H47.7718C47.2711 19.3821 46.8651 19.8035 46.8651 20.3232V33.1577C46.8651 33.6775 47.2711 34.0989 47.7718 34.0989H60.1368C60.6375 34.0989 61.0435 33.6775 61.0435 33.1577V20.3232C61.0435 19.8035 60.6375 19.3821 60.1368 19.3821Z" fill="#FF725E"/>
<path d="M56.3383 24.3967H51.5445C51.268 24.3967 51.0438 24.6294 51.0438 24.9164V27.0852C51.0438 27.3722 51.268 27.6048 51.5445 27.6048H56.3383C56.6148 27.6048 56.839 27.3722 56.839 27.0852V24.9164C56.839 24.6294 56.6148 24.3967 56.3383 24.3967Z" fill="#FAFAFA"/>
<path d="M57.9211 25.7881H49.9853C49.8721 25.7881 49.7803 25.8834 49.7803 26.0009V28.6525C49.7803 28.77 49.8721 28.8653 49.9853 28.8653H57.9211C58.0343 28.8653 58.1261 28.77 58.1261 28.6525V26.0009C58.1261 25.8834 58.0343 25.7881 57.9211 25.7881Z" fill="#FAFAFA"/>
<path d="M56.839 25.7881C56.8875 26.1424 56.9079 26.5003 56.9002 26.8581V26.9195H56.839C56.1294 26.9379 55.0946 26.9502 53.9415 26.9502C52.7884 26.9502 51.7535 26.9379 51.0439 26.9195H50.9828V26.8581C50.975 26.5003 50.9955 26.1424 51.0439 25.7881C51.0936 26.1423 51.114 26.5003 51.105 26.8581L51.0439 26.7947C51.7535 26.7763 52.7884 26.764 53.9415 26.764C55.0946 26.764 56.1294 26.7763 56.839 26.7947L56.7779 26.8581C56.7689 26.5003 56.7894 26.1423 56.839 25.7881Z" fill="#263238"/>
<path d="M51.0164 28.8387C50.965 28.8387 50.9255 28.1717 50.9255 27.3492C50.9255 26.5268 50.965 25.8618 51.0164 25.8618C51.0678 25.8618 51.1053 26.5268 51.1053 27.3492C51.1053 28.1717 51.0658 28.8387 51.0164 28.8387Z" fill="#263238"/>
<path d="M56.8451 28.8654C56.7938 28.8654 56.7543 28.2229 56.7543 27.4332C56.7543 26.6434 56.7938 26.001 56.8451 26.001C56.8965 26.001 56.934 26.6434 56.934 27.4332C56.934 28.2229 56.8945 28.8654 56.8451 28.8654Z" fill="#263238"/>
<path d="M76.1758 19.3821H63.8109C63.3101 19.3821 62.9042 19.8035 62.9042 20.3232V33.1577C62.9042 33.6775 63.3101 34.0989 63.8109 34.0989H76.1758C76.6766 34.0989 77.0826 33.6775 77.0826 33.1577V20.3232C77.0826 19.8035 76.6766 19.3821 76.1758 19.3821Z" fill="#E0E0E0"/>
<path d="M72.3795 24.3967H67.5857C67.3092 24.3967 67.0851 24.6294 67.0851 24.9164V27.0852C67.0851 27.3722 67.3092 27.6048 67.5857 27.6048H72.3795C72.6561 27.6048 72.8802 27.3722 72.8802 27.0852V24.9164C72.8802 24.6294 72.6561 24.3967 72.3795 24.3967Z" fill="#FF725E"/>
<path d="M73.9623 25.7881H66.0265C65.9133 25.7881 65.8215 25.8834 65.8215 26.0009V28.6525C65.8215 28.77 65.9133 28.8653 66.0265 28.8653H73.9623C74.0755 28.8653 74.1673 28.77 74.1673 28.6525V26.0009C74.1673 25.8834 74.0755 25.7881 73.9623 25.7881Z" fill="#FF725E"/>
<path d="M72.8801 25.7881C72.9271 26.1426 72.9469 26.5004 72.9392 26.8581V26.9195H72.8781C72.1685 26.9379 71.1317 26.9502 69.9805 26.9502C68.8294 26.9502 67.7906 26.9379 67.083 26.9195H67.0199V26.8581C67.0109 26.5003 67.0313 26.1423 67.081 25.7881C67.1307 26.1423 67.1511 26.5003 67.1421 26.8581L67.081 26.7947C67.7886 26.7763 68.8255 26.764 69.9786 26.764C71.1317 26.764 72.1665 26.7763 72.8761 26.7947L72.815 26.8581C72.8073 26.5002 72.8291 26.1422 72.8801 25.7881Z" fill="#263238"/>
<path d="M67.0557 28.8387C67.0063 28.8387 66.9648 28.1717 66.9648 27.3492C66.9648 26.5268 67.0063 25.8618 67.0557 25.8618C67.1051 25.8618 67.1466 26.5268 67.1466 27.3492C67.1466 28.1717 67.1071 28.8387 67.0557 28.8387Z" fill="#263238"/>
<path d="M72.8843 28.8654C72.8349 28.8654 72.7954 28.2229 72.7954 27.4332C72.7954 26.6434 72.8349 26.001 72.8843 26.001C72.9337 26.001 72.9752 26.6434 72.9752 27.4332C72.9752 28.2229 72.9357 28.8654 72.8843 28.8654Z" fill="#263238"/>
<path d="M92.2168 19.3821H79.8519C79.3511 19.3821 78.9452 19.8035 78.9452 20.3232V33.1577C78.9452 33.6775 79.3511 34.0989 79.8519 34.0989H92.2168C92.7176 34.0989 93.1236 33.6775 93.1236 33.1577V20.3232C93.1236 19.8035 92.7176 19.3821 92.2168 19.3821Z" fill="#E0E0E0"/>
<path d="M88.4204 24.3967H83.6266C83.3501 24.3967 83.126 24.6294 83.126 24.9164V27.0852C83.126 27.3722 83.3501 27.6048 83.6266 27.6048H88.4204C88.697 27.6048 88.9211 27.3722 88.9211 27.0852V24.9164C88.9211 24.6294 88.697 24.3967 88.4204 24.3967Z" fill="#455A64"/>
<path d="M90.0033 25.7881H82.0675C81.9543 25.7881 81.8625 25.8834 81.8625 26.0009V28.6525C81.8625 28.77 81.9543 28.8653 82.0675 28.8653H90.0033C90.1166 28.8653 90.2083 28.77 90.2083 28.6525V26.0009C90.2083 25.8834 90.1166 25.7881 90.0033 25.7881Z" fill="#455A64"/>
<path d="M88.9191 25.7881C88.9688 26.1423 88.9893 26.5003 88.9802 26.8581V26.9195H88.9172C88.2095 26.9379 87.1727 26.9502 86.0216 26.9502C84.8704 26.9502 83.8316 26.9379 83.124 26.9195H83.0609V26.8581C83.0519 26.5003 83.0723 26.1423 83.122 25.7881C83.1705 26.1424 83.1909 26.5003 83.1831 26.8581L83.122 26.7947C83.8297 26.7763 84.8665 26.764 86.0196 26.764C87.1727 26.764 88.2075 26.7763 88.9152 26.7947L88.8541 26.8581C88.8476 26.5002 88.8694 26.1423 88.9191 25.7881Z" fill="#263238"/>
<path d="M83.0967 28.8387C83.0473 28.8387 83.0059 28.1717 83.0059 27.3492C83.0059 26.5268 83.0473 25.8618 83.0967 25.8618C83.1461 25.8618 83.1876 26.5268 83.1876 27.3492C83.1876 28.1717 83.1461 28.8387 83.0967 28.8387Z" fill="#263238"/>
<path d="M88.9253 28.8654C88.876 28.8654 88.8345 28.2229 88.8345 27.4332C88.8345 26.6434 88.876 26.001 88.9253 26.001C88.9747 26.001 89.0162 26.6434 89.0162 27.4332C89.0162 28.2229 88.9767 28.8654 88.9253 28.8654Z" fill="#263238"/>
<path d="M60.1368 37.8984H47.7718C47.2711 37.8984 46.8651 38.3198 46.8651 38.8396V51.6741C46.8651 52.1938 47.2711 52.6152 47.7718 52.6152H60.1368C60.6375 52.6152 61.0435 52.1938 61.0435 51.6741V38.8396C61.0435 38.3198 60.6375 37.8984 60.1368 37.8984Z" fill="#E0E0E0"/>
<path d="M50.9967 44.9999L51.657 47.3896L56.1906 47.408L56.9141 45.1206C56.6633 45.0348 56.3984 45.0028 56.1354 45.0265L56.0566 42.4792C56.0554 42.4221 56.0406 42.3662 56.0137 42.3165C55.9867 42.2667 55.9483 42.2246 55.902 42.1938C55.8556 42.1631 55.8026 42.1447 55.7478 42.1402C55.693 42.1358 55.6379 42.1454 55.5875 42.1682L55.1459 42.3728H52.5835L52.2898 42.2194C52.2391 42.1927 52.1827 42.18 52.1259 42.1825C52.0692 42.185 52.014 42.2026 51.9657 42.2336C51.9174 42.2647 51.8776 42.3081 51.8501 42.3597C51.8226 42.4113 51.8084 42.4694 51.8088 42.5283V45.0428C51.5441 44.9692 51.2673 44.9546 50.9967 44.9999Z" fill="#FF725E"/>
<path d="M51.8911 47.3912L51.6521 47.3901L51.6433 49.565L51.8824 49.566L51.8911 47.3912Z" fill="#263238"/>
<path d="M52.729 47.4009L52.49 47.3999L52.4855 48.5109L52.7245 48.5119L52.729 47.4009Z" fill="#263238"/>
<path d="M55.1298 47.4114L54.8907 47.4104L54.8863 48.5214L55.1253 48.5224L55.1298 47.4114Z" fill="#263238"/>
<path d="M56.192 47.41L55.953 47.4089L55.9442 49.5838L56.1833 49.5848L56.192 47.41Z" fill="#263238"/>
<path d="M52.617 46.0128C52.5992 46.0128 52.5874 45.1944 52.5913 44.1939C52.5953 43.1934 52.615 42.375 52.6327 42.375C52.6505 42.375 52.6623 43.1934 52.6584 44.1939C52.6544 45.1944 52.6347 46.0128 52.617 46.0128Z" fill="#263238"/>
<path d="M55.1754 46.0252C55.1577 46.0252 55.1459 45.2068 55.1498 44.2063C55.1537 43.2058 55.1735 42.3875 55.1912 42.3875C55.2089 42.3875 55.2208 43.2058 55.2168 44.2063C55.2129 45.2068 55.1951 46.0252 55.1754 46.0252Z" fill="#263238"/>
<path d="M56.1314 45.0284C56.094 45.045 56.055 45.0573 56.0151 45.0653L55.95 45.0816L55.8771 45.1103L55.7904 45.143L55.6997 45.1941C55.5491 45.2831 55.425 45.4133 55.3409 45.5706C55.2373 45.774 55.1935 46.0045 55.2148 46.2335V46.2683H53.973L52.6149 46.2581H52.5873V46.2294C52.5846 46.0144 52.5304 45.8035 52.4296 45.6156C52.355 45.4741 52.2569 45.3473 52.1398 45.2412C52.0312 45.1502 51.9128 45.0726 51.787 45.01C51.8237 45.0182 51.8594 45.0305 51.8934 45.0468C51.9897 45.0899 52.0799 45.1464 52.1615 45.2146C52.2893 45.3205 52.397 45.4503 52.4789 45.5972C52.5874 45.7877 52.6472 46.004 52.6523 46.2253L52.6228 46.1967H53.9809H55.1911L55.1616 46.2315C55.1411 45.9952 55.1869 45.7579 55.2936 45.5481C55.3871 45.3841 55.5239 45.2513 55.6879 45.1655L55.7825 45.1184L55.8712 45.0878L55.9481 45.0612L56.0131 45.0489C56.0519 45.0385 56.0915 45.0317 56.1314 45.0284Z" fill="#263238"/>
<path d="M52.5674 46.2419C52.5674 46.2521 52.4827 46.2685 52.3565 46.3278C52.1939 46.4042 52.0517 46.5208 51.9426 46.6674C51.8388 46.8178 51.7712 46.9918 51.7455 47.1748C51.7416 47.253 51.7337 47.3308 51.7218 47.4081C51.6958 47.3313 51.6884 47.2491 51.7001 47.1687C51.7158 46.9724 51.7841 46.7846 51.8972 46.6265C52.0133 46.4699 52.1698 46.3507 52.3486 46.2828C52.4171 46.2505 52.4923 46.2364 52.5674 46.2419Z" fill="#263238"/>
<path d="M56.1414 47.4613C56.1315 47.4613 56.1295 47.361 56.0921 47.2055C56.0445 47.0051 55.9527 46.8188 55.824 46.6613C55.6939 46.5061 55.5315 46.3836 55.349 46.3033C55.2071 46.2419 55.1124 46.2255 55.1144 46.2153C55.2001 46.2089 55.2861 46.2243 55.3647 46.2603C55.5625 46.3298 55.7387 46.4533 55.8746 46.6178C56.0106 46.7823 56.1014 46.9818 56.1374 47.1953C56.1597 47.2823 56.161 47.3736 56.1414 47.4613Z" fill="#263238"/>
<path d="M76.1758 37.8984H63.8109C63.3101 37.8984 62.9042 38.3198 62.9042 38.8396V51.6741C62.9042 52.1938 63.3101 52.6152 63.8109 52.6152H76.1758C76.6766 52.6152 77.0826 52.1938 77.0826 51.6741V38.8396C77.0826 38.3198 76.6766 37.8984 76.1758 37.8984Z" fill="#E0E0E0"/>
<path d="M92.2168 37.8984H79.8519C79.3511 37.8984 78.9452 38.3198 78.9452 38.8396V51.6741C78.9452 52.1938 79.3511 52.6152 79.8519 52.6152H92.2168C92.7176 52.6152 93.1236 52.1938 93.1236 51.6741V38.8396C93.1236 38.3198 92.7176 37.8984 92.2168 37.8984Z" fill="#FF725E"/>
<path d="M60.1368 56.4146H47.7718C47.2711 56.4146 46.8651 56.8359 46.8651 57.3557V70.1902C46.8651 70.71 47.2711 71.1313 47.7718 71.1313H60.1368C60.6375 71.1313 61.0435 70.71 61.0435 70.1902V57.3557C61.0435 56.8359 60.6375 56.4146 60.1368 56.4146Z" fill="#FF725E"/>
<path d="M76.1758 56.4146H63.8109C63.3101 56.4146 62.9042 56.8359 62.9042 57.3557V70.1902C62.9042 70.71 63.3101 71.1313 63.8109 71.1313H76.1758C76.6766 71.1313 77.0826 70.71 77.0826 70.1902V57.3557C77.0826 56.8359 76.6766 56.4146 76.1758 56.4146Z" fill="#E0E0E0"/>
<path d="M92.2168 56.4146H79.8519C79.3511 56.4146 78.9452 56.8359 78.9452 57.3557V70.1902C78.9452 70.71 79.3511 71.1313 79.8519 71.1313H92.2168C92.7176 71.1313 93.1236 70.71 93.1236 70.1902V57.3557C93.1236 56.8359 92.7176 56.4146 92.2168 56.4146Z" fill="#E0E0E0"/>
<path d="M68.2224 75.9886C68.5033 75.9886 68.731 75.7523 68.731 75.4607C68.731 75.1692 68.5033 74.9329 68.2224 74.9329C67.9416 74.9329 67.7139 75.1692 67.7139 75.4607C67.7139 75.7523 67.9416 75.9886 68.2224 75.9886Z" fill="#263238"/>
<path d="M70.7827 75.4606C70.7823 75.5649 70.7522 75.6667 70.6961 75.7533C70.6399 75.8398 70.5604 75.9072 70.4674 75.9468C70.3745 75.9864 70.2723 75.9966 70.1738 75.976C70.0752 75.9554 69.9848 75.905 69.9139 75.8311C69.843 75.7572 69.7947 75.6631 69.7753 75.5608C69.7558 75.4584 69.766 75.3524 69.8045 75.2561C69.8431 75.1597 69.9083 75.0774 69.9918 75.0195C70.0754 74.9616 70.1737 74.9307 70.2742 74.9307C70.3411 74.9307 70.4074 74.9444 70.4692 74.971C70.5311 74.9977 70.5872 75.0368 70.6345 75.086C70.6817 75.1352 70.7191 75.1937 70.7446 75.2579C70.77 75.3222 70.783 75.3911 70.7827 75.4606Z" fill="#263238"/>
<path d="M72.8368 75.4606C72.8368 75.5655 72.8069 75.668 72.7507 75.7552C72.6945 75.8424 72.6146 75.9103 72.5212 75.9503C72.4278 75.9904 72.3251 76.0008 72.226 75.9802C72.1269 75.9595 72.0359 75.9089 71.9646 75.8346C71.8933 75.7602 71.8448 75.6656 71.8254 75.5627C71.8059 75.4598 71.8163 75.3532 71.8552 75.2564C71.8942 75.1596 71.9599 75.077 72.0441 75.019C72.1283 74.961 72.2272 74.9303 72.3283 74.9307C72.4634 74.9312 72.5927 74.9873 72.688 75.0866C72.7833 75.1859 72.8368 75.3204 72.8368 75.4606Z" fill="#263238"/>
<path d="M50.1193 13.7537H47.5253C47.4992 13.7537 47.4741 13.7429 47.4556 13.7237C47.4371 13.7045 47.4268 13.6785 47.4268 13.6514C47.4268 13.6242 47.4371 13.5982 47.4556 13.579C47.4741 13.5599 47.4992 13.5491 47.5253 13.5491H50.1193C50.1455 13.5491 50.1705 13.5599 50.189 13.579C50.2075 13.5982 50.2179 13.6242 50.2179 13.6514C50.2179 13.6785 50.2075 13.7045 50.189 13.7237C50.1705 13.7429 50.1455 13.7537 50.1193 13.7537Z" fill="#263238"/>
<path d="M48.5326 14.615C48.5122 14.6149 48.4923 14.6085 48.4754 14.5966L47.3105 13.7352C47.2971 13.7261 47.2861 13.7136 47.2786 13.699C47.271 13.6843 47.2671 13.6679 47.2671 13.6513C47.268 13.6349 47.2723 13.6189 47.2798 13.6044C47.2873 13.5899 47.2978 13.5773 47.3105 13.5674L48.5109 12.7184C48.5214 12.7088 48.5337 12.7018 48.547 12.6975C48.5603 12.6933 48.5744 12.6921 48.5882 12.6939C48.602 12.6958 48.6153 12.7006 48.6272 12.7082C48.639 12.7157 48.6492 12.7258 48.6571 12.7377C48.6649 12.7497 48.6703 12.7632 48.6727 12.7774C48.6752 12.7917 48.6747 12.8063 48.6713 12.8203C48.6679 12.8343 48.6617 12.8474 48.6531 12.8588C48.6445 12.8701 48.6336 12.8794 48.6213 12.8861L47.5391 13.6534L48.5917 14.4288C48.6089 14.4413 48.6219 14.4592 48.6286 14.4799C48.6354 14.5006 48.6356 14.5229 48.6292 14.5438C48.6228 14.5646 48.6102 14.5827 48.5931 14.5955C48.5761 14.6083 48.5556 14.6152 48.5345 14.615H48.5326Z" fill="#263238"/>
<path d="M92.0178 13.7639H89.4238C89.3976 13.7639 89.3725 13.7531 89.3541 13.734C89.3356 13.7148 89.3252 13.6888 89.3252 13.6616C89.3252 13.6345 89.3356 13.6085 89.3541 13.5893C89.3725 13.5701 89.3976 13.5593 89.4238 13.5593H92.0178C92.0439 13.5593 92.069 13.5701 92.0875 13.5893C92.1059 13.6085 92.1163 13.6345 92.1163 13.6616C92.1163 13.6888 92.1059 13.7148 92.0875 13.734C92.069 13.7531 92.0439 13.7639 92.0178 13.7639Z" fill="#263238"/>
<path d="M90.971 14.6149C90.9548 14.6147 90.9388 14.6106 90.9244 14.6027C90.91 14.5949 90.8976 14.5837 90.8882 14.5699C90.8743 14.5474 90.8692 14.5203 90.8739 14.494C90.8787 14.4677 90.893 14.4444 90.9139 14.4287L91.998 13.6594L90.9474 12.886C90.9263 12.87 90.912 12.8461 90.9076 12.8194C90.9032 12.7927 90.909 12.7652 90.9237 12.7428C90.9312 12.7317 90.9407 12.7223 90.9517 12.7151C90.9627 12.7079 90.975 12.703 90.9878 12.7007C91.0006 12.6984 91.0138 12.6988 91.0264 12.7018C91.0391 12.7048 91.0511 12.7104 91.0617 12.7183L92.2267 13.5796C92.2402 13.5884 92.2512 13.6009 92.2585 13.6156C92.2658 13.6304 92.2691 13.647 92.268 13.6635C92.2678 13.6798 92.264 13.6959 92.2568 13.7105C92.2496 13.725 92.2393 13.7376 92.2267 13.7474L91.0262 14.5965C91.01 14.6081 90.9908 14.6145 90.971 14.6149Z" fill="#263238"/>
<path d="M56.7892 62.2608L51.8831 62.2697C51.6229 62.2701 51.4124 62.4894 51.4128 62.7595L51.418 65.8367C51.4184 66.1067 51.6297 66.3253 51.8899 66.3248L56.7961 66.3159C57.0562 66.3154 57.2668 66.0961 57.2663 65.8261L57.2612 62.7489C57.2607 62.4788 57.0494 62.2603 56.7892 62.2608Z" fill="#E0E0E0"/>
<path d="M55.6662 63.0168C55.6636 62.991 55.6636 62.9649 55.6662 62.9391C55.6662 62.8791 55.6702 62.8054 55.6781 62.7181C55.6998 62.4458 55.6998 62.172 55.6781 61.8997C55.646 61.5011 55.4888 61.1245 55.2306 60.8276C55.0733 60.6607 54.8727 60.5449 54.6531 60.4941C54.4137 60.4446 54.1697 60.4233 53.9257 60.4307C53.429 60.4307 52.9402 60.5371 52.6011 60.8235C52.4435 60.9582 52.3191 61.1301 52.2384 61.3248C52.1683 61.495 52.1225 61.6749 52.1024 61.8588C52.0758 62.1309 52.0758 62.4051 52.1024 62.6772C52.1103 62.7672 52.1162 62.8409 52.1202 62.8981C52.1202 62.9493 52.1202 62.9759 52.1202 62.9759C52.1119 62.9514 52.1066 62.926 52.1044 62.9002C52.1044 62.8511 52.0867 62.7754 52.0748 62.6813C52.0377 62.4102 52.0297 62.1357 52.0512 61.8629C52.0696 61.6729 52.1148 61.4868 52.1852 61.3105C52.2662 61.1057 52.3941 60.9245 52.5578 60.7826C52.7413 60.6301 52.9545 60.5205 53.1826 60.4614C53.4251 60.3995 53.674 60.3685 53.9238 60.3693C54.173 60.3619 54.4223 60.3839 54.6669 60.4348C54.8984 60.4894 55.1094 60.6132 55.274 60.7908C55.5397 61.0993 55.6985 61.491 55.7254 61.9038C55.7457 62.1765 55.7405 62.4506 55.7096 62.7222C55.7096 62.8184 55.6919 62.892 55.6859 62.9411C55.6813 62.9669 55.6747 62.9922 55.6662 63.0168Z" fill="#263238"/>
<path d="M56.0501 62.2415L51.144 62.2504C50.8838 62.2508 50.6732 62.4701 50.6737 62.7402L50.6788 65.8174C50.6793 66.0874 50.8906 66.306 51.1508 66.3055L56.0569 66.2966C56.3171 66.2961 56.5277 66.0768 56.5272 65.8068L56.522 62.7296C56.5216 62.4596 56.3103 62.241 56.0501 62.2415Z" fill="#FAFAFA"/>
<path d="M56.0525 66.3009C56.1156 66.2949 56.1774 66.2791 56.2359 66.2539C56.305 66.2222 56.3653 66.1729 56.4113 66.1107C56.4753 66.0269 56.5101 65.923 56.5098 65.816C56.5098 65.3209 56.5098 64.6109 56.496 63.7353C56.496 63.5163 56.496 63.2851 56.496 63.0458C56.496 62.9271 56.496 62.8002 56.496 62.6836C56.483 62.5633 56.4249 62.4531 56.3344 62.3767C56.2382 62.299 56.1166 62.2631 55.9954 62.2765H55.6012H54.7831H51.1444C51.0695 62.2768 50.9958 62.2971 50.9306 62.3354C50.8654 62.3738 50.8107 62.4288 50.7719 62.4954C50.7324 62.5605 50.7106 62.6354 50.7088 62.7123C50.7088 62.7941 50.7088 62.8739 50.7088 62.9557C50.7088 63.2831 50.7088 63.6043 50.7088 63.9194V65.7424C50.7049 65.8114 50.7122 65.8805 50.7305 65.947C50.7506 66.0097 50.7828 66.0674 50.8251 66.1168C50.8675 66.1655 50.9196 66.2041 50.9778 66.2299C51.036 66.2556 51.0989 66.268 51.1622 66.2662H53.3225H55.3252H55.8712H55.3272L53.3225 66.2825H51.9427H51.1543C51.0823 66.2849 51.0108 66.2711 50.9445 66.2421C50.8781 66.2132 50.8186 66.1697 50.7699 66.1147C50.7201 66.0593 50.683 65.9928 50.6615 65.9204C50.6405 65.8482 50.6318 65.7727 50.6359 65.6974C50.6359 65.1163 50.6359 64.5066 50.6359 63.8744C50.6359 63.5593 50.6359 63.2381 50.6359 62.9107C50.6359 62.8289 50.6359 62.7491 50.6359 62.6632C50.6389 62.5748 50.664 62.4888 50.7088 62.4136C50.754 62.3368 50.8174 62.2733 50.893 62.2293C50.9686 62.1852 51.0538 62.162 51.1405 62.1619H54.7792H55.9875C56.1221 62.1492 56.2563 62.191 56.362 62.2785C56.4125 62.321 56.4543 62.3734 56.4851 62.4327C56.5159 62.4921 56.535 62.5572 56.5414 62.6243C56.5414 62.7532 56.5414 62.8719 56.5414 62.9926C56.5414 63.232 56.5414 63.4631 56.5414 63.6821C56.5414 64.5578 56.5414 65.2677 56.5414 65.7628C56.5396 65.8755 56.5014 65.9843 56.433 66.0718C56.3829 66.1348 56.3186 66.184 56.2457 66.215C56.1906 66.2623 56.1235 66.2921 56.0525 66.3009Z" fill="#263238"/>
<path d="M72.7001 62.2605L67.794 62.2694C67.5338 62.2699 67.3232 62.4892 67.3237 62.7593L67.3289 65.8364C67.3293 66.1065 67.5406 66.325 67.8008 66.3245L72.7069 66.3157C72.9671 66.3152 73.1777 66.0959 73.1772 65.8258L73.172 62.7487C73.1716 62.4786 72.9603 62.2601 72.7001 62.2605Z" fill="#FF725E"/>
<path d="M71.5771 63.0168C71.5745 62.991 71.5745 62.9649 71.5771 62.9391C71.5771 62.8791 71.5811 62.8054 71.589 62.7181C71.6106 62.4458 71.6106 62.172 71.589 61.8997C71.5569 61.5011 71.3997 61.1245 71.1415 60.8276C70.9842 60.6607 70.7835 60.5449 70.564 60.4941C70.3246 60.4446 70.0806 60.4233 69.8366 60.4307C69.3399 60.4307 68.851 60.5371 68.512 60.8235C68.3544 60.9582 68.23 61.1301 68.1493 61.3248C68.0792 61.495 68.0334 61.6749 68.0133 61.8588C67.9867 62.1309 67.9867 62.4051 68.0133 62.6772C68.0212 62.7672 68.0271 62.8409 68.0311 62.8981C68.0311 62.9493 68.0311 62.9759 68.0311 62.9759C68.0228 62.9514 68.0175 62.926 68.0153 62.9002C68.0153 62.8511 67.9975 62.7754 67.9857 62.6813C67.9486 62.4102 67.9406 62.1357 67.9621 61.8629C67.9805 61.6729 68.0257 61.4868 68.0961 61.3105C68.1771 61.1057 68.305 60.9245 68.4686 60.7826C68.6522 60.6301 68.8654 60.5205 69.0935 60.4614C69.336 60.3995 69.5849 60.3685 69.8346 60.3693C70.0839 60.3619 70.3332 60.3839 70.5778 60.4348C70.8093 60.4894 71.0203 60.6132 71.1849 60.7908C71.4506 61.0993 71.6094 61.491 71.6363 61.9038C71.6566 62.1765 71.6514 62.4506 71.6205 62.7222C71.6205 62.8184 71.6028 62.892 71.5968 62.9411C71.5934 62.9671 71.5868 62.9926 71.5771 63.0168Z" fill="#263238"/>
<path d="M71.961 62.2415L67.0548 62.2504C66.7947 62.2508 66.5841 62.4701 66.5846 62.7402L66.5897 65.8174C66.5902 66.0874 66.8015 66.306 67.0617 66.3055L71.9678 66.2966C72.228 66.2961 72.4385 66.0768 72.4381 65.8068L72.4329 62.7296C72.4325 62.4596 72.2212 62.241 71.961 62.2415Z" fill="#FF725E"/>
<path d="M71.9636 66.3009C72.0267 66.2949 72.0885 66.2791 72.1469 66.2539C72.2161 66.2222 72.2764 66.1729 72.3224 66.1107C72.3864 66.0269 72.4212 65.923 72.4209 65.816C72.4209 65.3209 72.4209 64.6109 72.4071 63.7353C72.4071 63.5163 72.4071 63.2851 72.4071 63.0458C72.4071 62.9271 72.4071 62.8002 72.4071 62.6836C72.3941 62.5633 72.336 62.4531 72.2455 62.3767C72.1493 62.299 72.0277 62.2631 71.9065 62.2765H71.5122H70.6942H67.0555C66.9805 62.2768 66.9069 62.2971 66.8417 62.3354C66.7764 62.3738 66.7218 62.4288 66.683 62.4954C66.6435 62.5605 66.6217 62.6354 66.6199 62.7123C66.6199 62.7941 66.6199 62.8739 66.6199 62.9557C66.6199 63.2831 66.6199 63.6043 66.6199 63.9194V65.7424C66.616 65.8114 66.6233 65.8805 66.6416 65.947C66.6617 66.0097 66.6939 66.0674 66.7362 66.1168C66.7789 66.1657 66.8314 66.2043 66.8899 66.2301C66.9484 66.2559 67.0117 66.2682 67.0752 66.2662H69.2297H71.2343L69.2297 66.2825H67.8499H67.0792C67.0072 66.2849 66.9357 66.2711 66.8693 66.2421C66.803 66.2132 66.7435 66.1697 66.6948 66.1147C66.645 66.0593 66.6079 65.9928 66.5864 65.9204C66.566 65.848 66.558 65.7726 66.5627 65.6974C66.5627 65.1163 66.5627 64.5066 66.5627 63.8744C66.5627 63.5593 66.5627 63.2381 66.5627 62.9107C66.5627 62.8289 66.5627 62.7491 66.5627 62.6632C66.5658 62.5748 66.5909 62.4888 66.6357 62.4136C66.6809 62.3368 66.7443 62.2733 66.8199 62.2293C66.8954 62.1852 66.9806 62.162 67.0673 62.1619H70.706H71.9144C72.049 62.1492 72.1832 62.191 72.2889 62.2785C72.3907 62.3646 72.4558 62.4888 72.4702 62.6243C72.4702 62.7532 72.4702 62.8719 72.4702 62.9926C72.4702 63.232 72.4702 63.4631 72.4702 63.6821C72.4702 64.5578 72.4702 65.2677 72.4702 65.7628C72.4694 65.8601 72.4409 65.9549 72.3882 66.0353C72.3356 66.1158 72.2613 66.1783 72.1745 66.215C72.1145 66.2657 72.0408 66.2957 71.9636 66.3009Z" fill="#263238"/>
<path d="M89.242 62.2593L84.3358 62.2682C84.0757 62.2687 83.8651 62.488 83.8656 62.758L83.8707 65.8352C83.8712 66.1053 84.0825 66.3238 84.3427 66.3233L89.2488 66.3144C89.509 66.314 89.7195 66.0947 89.7191 65.8246L89.7139 62.7474C89.7135 62.4774 89.5022 62.2588 89.242 62.2593Z" fill="#455A64"/>
<path d="M88.1189 63.0168C88.1163 62.991 88.1163 62.9649 88.1189 62.9391C88.1189 62.8791 88.1228 62.8054 88.1307 62.7181C88.1524 62.4458 88.1524 62.172 88.1307 61.8997C88.0976 61.5014 87.9406 61.1251 87.6833 60.8276C87.5259 60.6607 87.3253 60.5449 87.1057 60.4941C86.8663 60.4447 86.6223 60.4234 86.3784 60.4307C85.8797 60.4307 85.3928 60.5371 85.0518 60.8235C84.8953 60.9589 84.7717 61.1306 84.6911 61.3248C84.6209 61.495 84.5751 61.6749 84.5551 61.8588C84.5284 62.1309 84.5284 62.4051 84.5551 62.6772C84.5629 62.7672 84.5689 62.8409 84.5728 62.8981C84.5759 62.924 84.5759 62.9501 84.5728 62.9759C84.5646 62.9514 84.5593 62.926 84.557 62.9002C84.557 62.8511 84.5393 62.7754 84.5275 62.6813C84.4903 62.4102 84.4824 62.1357 84.5038 61.8629C84.5213 61.6728 84.5665 61.4865 84.6378 61.3105C84.7182 61.1053 84.8462 60.924 85.0104 60.7826C85.194 60.6301 85.4071 60.5205 85.6352 60.4614C85.8777 60.3992 86.1266 60.3683 86.3764 60.3693C86.6257 60.3619 86.875 60.3839 87.1195 60.4348C87.3508 60.4898 87.5618 60.6135 87.7266 60.7908C87.9926 61.0989 88.1509 61.4909 88.176 61.9038C88.1979 62.1764 88.1933 62.4506 88.1622 62.7222C88.1622 62.8184 88.1445 62.892 88.1386 62.9411C88.134 62.9669 88.1274 62.9922 88.1189 63.0168Z" fill="#263238"/>
<path d="M88.5027 62.24L83.5966 62.2489C83.3364 62.2494 83.1259 62.4687 83.1263 62.7387L83.1315 65.8159C83.1319 66.086 83.3432 66.3045 83.6034 66.304L88.5096 66.2952C88.7697 66.2947 88.9803 66.0754 88.9798 65.8053L88.9747 62.7281C88.9742 62.4581 88.7629 62.2395 88.5027 62.24Z" fill="#455A64"/>
<path d="M88.5054 66.3009C88.5684 66.2949 88.6302 66.2791 88.6887 66.2539C88.7579 66.2222 88.8182 66.1729 88.8641 66.1107C88.9282 66.0269 88.9629 65.923 88.9627 65.816C88.9627 65.3209 88.9627 64.6109 88.9489 63.7353C88.9489 63.5163 88.9489 63.2851 88.9489 63.0458C88.9489 62.9271 88.9489 62.8002 88.9489 62.6836C88.9357 62.5629 88.8769 62.4525 88.7853 62.3767C88.6899 62.2988 88.5689 62.2628 88.4482 62.2765H88.054H87.236H83.5973C83.5223 62.2768 83.4487 62.2971 83.3834 62.3354C83.3182 62.3738 83.2635 62.4288 83.2247 62.4954C83.1853 62.5605 83.1635 62.6354 83.1616 62.7123C83.1616 62.7941 83.1616 62.8739 83.1616 62.9557C83.1616 63.2831 83.1616 63.6043 83.1616 63.9194V65.7424C83.1577 65.8114 83.165 65.8805 83.1833 65.947C83.2026 66.01 83.2349 66.068 83.2779 66.1168C83.3203 66.1656 83.3724 66.2043 83.4306 66.2301C83.4888 66.2559 83.5517 66.2682 83.615 66.2662H85.7675H87.7702L85.7675 66.2825H84.3877H83.615C83.5434 66.2847 83.4722 66.2709 83.4062 66.2419C83.3402 66.213 83.281 66.1696 83.2326 66.1147C83.1828 66.0589 83.1452 65.9926 83.1222 65.9204C83.1028 65.8479 83.0948 65.7725 83.0986 65.6974C83.0986 65.1163 83.0986 64.5066 83.0986 63.8744C83.0986 63.5593 83.0986 63.2381 83.0986 62.9107C83.0986 62.8289 83.0986 62.7491 83.0986 62.6632C83.1016 62.5748 83.1267 62.4888 83.1715 62.4136C83.2164 62.3369 83.2795 62.2736 83.3547 62.2295C83.4299 62.1854 83.5148 62.1622 83.6012 62.1619H87.2419H88.4502C88.5848 62.1492 88.719 62.191 88.8247 62.2785C88.8752 62.321 88.917 62.3734 88.9478 62.4327C88.9786 62.4921 88.9977 62.5572 89.0041 62.6243C89.0041 62.7532 89.0041 62.8719 89.0041 62.9926C89.0041 63.232 89.0041 63.4631 89.0041 63.6821C89.0041 64.5578 89.0041 65.2677 89.0041 65.7628C89.0023 65.8755 88.9641 65.9843 88.8957 66.0718C88.8456 66.1348 88.7813 66.184 88.7084 66.215C88.6506 66.2641 88.5798 66.2941 88.5054 66.3009Z" fill="#263238"/>
<path d="M67.3175 45.4008L67.9778 47.7987L72.5114 47.8192L73.2309 45.5236C72.9802 45.4378 72.7152 45.4065 72.4523 45.4315L72.3774 42.8884C72.3757 42.8315 72.3607 42.7758 72.3336 42.7263C72.3065 42.6769 72.2682 42.635 72.2219 42.6043C72.1757 42.5737 72.123 42.5552 72.0683 42.5505C72.0137 42.5458 71.9587 42.555 71.9083 42.5774L71.4667 42.782L68.9043 42.7697L68.6106 42.6162C68.5599 42.5896 68.5035 42.5769 68.4467 42.5794C68.39 42.5819 68.3348 42.5995 68.2865 42.6305C68.2382 42.6615 68.1984 42.7049 68.1709 42.7565C68.1434 42.8081 68.1292 42.8662 68.1296 42.9252V45.4417C67.8649 45.3679 67.5879 45.3539 67.3175 45.4008Z" fill="#455A64"/>
<path d="M68.2124 47.7938L67.9734 47.7927L67.9646 49.9676L68.2037 49.9686L68.2124 47.7938Z" fill="#263238"/>
<path d="M69.0541 47.7952L68.8151 47.7942L68.8106 48.9052L69.0496 48.9062L69.0541 47.7952Z" fill="#263238"/>
<path d="M71.451 47.8118L71.2119 47.8108L71.2074 48.9218L71.4465 48.9228L71.451 47.8118Z" fill="#263238"/>
<path d="M72.5094 47.8187L72.2704 47.8176L72.2616 49.9925L72.5006 49.9935L72.5094 47.8187Z" fill="#263238"/>
<path d="M68.9378 46.4158C68.92 46.4158 68.9082 45.5974 68.9121 44.597C68.9161 43.5965 68.9338 42.7781 68.9535 42.7781C68.9732 42.7781 68.9811 43.5965 68.9772 44.597C68.9732 45.5974 68.9555 46.4158 68.9378 46.4158Z" fill="#263238"/>
<path d="M71.4962 46.4261C71.4785 46.4261 71.4667 45.6077 71.4706 44.6072C71.4746 43.6067 71.4923 42.7883 71.512 42.7883C71.5317 42.7883 71.5416 43.6067 71.5357 44.6072C71.5297 45.6077 71.514 46.4261 71.4962 46.4261Z" fill="#263238"/>
<path d="M72.4523 45.4318C72.4136 45.4459 72.3742 45.4575 72.3341 45.4666L72.271 45.483L72.1961 45.5136L72.1113 45.5464L72.0207 45.5975C71.8697 45.6851 71.7454 45.8148 71.6619 45.9719C71.5583 46.1761 71.5144 46.4072 71.5358 46.6369V46.6696H70.294H68.9358H68.9082V46.641C68.9069 46.426 68.8534 46.2149 68.7525 46.0272C68.6762 45.8834 68.5753 45.7551 68.4549 45.6487C68.3463 45.5577 68.2279 45.4801 68.1021 45.4175C68.138 45.4253 68.173 45.4369 68.2065 45.4523C68.3033 45.4956 68.3941 45.552 68.4766 45.62C68.6044 45.7267 68.712 45.8572 68.7939 46.0047C68.9016 46.1956 68.9613 46.4116 68.9674 46.6328L68.9378 46.6021H70.2959H71.5062L71.4766 46.6369C71.4568 46.3956 71.5062 46.1535 71.6186 45.9413C71.7092 45.7785 71.8425 45.6458 72.0029 45.5587L72.0995 45.5096L72.1882 45.4789L72.2651 45.4543L72.3301 45.442C72.3703 45.4336 72.4114 45.4301 72.4523 45.4318Z" fill="#263238"/>
<path d="M68.8944 46.6429C68.8944 46.6552 68.8096 46.6715 68.6835 46.7309C68.5197 46.8062 68.377 46.9234 68.2688 47.0715C68.1605 47.2197 68.0903 47.3939 68.0646 47.5779C68.0605 47.656 68.0526 47.7339 68.0409 47.8112C68.0155 47.7343 68.008 47.6522 68.0192 47.5718C68.0332 47.3751 68.1017 47.1868 68.2163 47.0296C68.3321 46.8735 68.4878 46.7544 68.6658 46.6859C68.7374 46.6524 68.816 46.6376 68.8944 46.6429Z" fill="#263238"/>
<path d="M72.4623 47.8622C72.4525 47.8622 72.4505 47.762 72.413 47.6085C72.3658 47.4079 72.274 47.2215 72.145 47.0643C72.0145 46.9085 71.8513 46.786 71.6679 46.7062C71.528 46.6448 71.4314 46.6264 71.4334 46.6162C71.5198 46.6097 71.6064 46.6251 71.6857 46.6612C71.8833 46.7316 72.0592 46.8557 72.1951 47.0204C72.3309 47.1852 72.4218 47.3847 72.4584 47.5983C72.4807 47.6846 72.482 47.7752 72.4623 47.8622Z" fill="#263238"/>
<path d="M83.4099 44.7728L84.0722 47.1645L88.6058 47.185L89.3292 44.8955C89.0785 44.8098 88.8136 44.7778 88.5506 44.8014L88.4777 42.2603C88.4761 42.2031 88.4611 42.1473 88.4339 42.0975C88.4067 42.0478 88.3681 42.0057 88.3217 41.9751C88.2752 41.9444 88.2221 41.926 88.1672 41.9215C88.1123 41.917 88.0571 41.9266 88.0066 41.9493L87.5651 42.1539L85.0124 42.1437L84.7187 41.9902C84.668 41.9631 84.6114 41.95 84.5543 41.9523C84.4973 41.9545 84.4418 41.972 84.3932 42.0031C84.3446 42.0342 84.3046 42.0778 84.277 42.1297C84.2494 42.1815 84.2352 42.2399 84.2358 42.2992V44.8137C83.9665 44.7387 83.6849 44.7248 83.4099 44.7728Z" fill="#FAFAFA"/>
<path d="M84.3052 47.1641L84.0662 47.1631L84.0574 49.338L84.2964 49.339L84.3052 47.1641Z" fill="#263238"/>
<path d="M85.1471 47.1675L84.9081 47.1665L84.9036 48.2775L85.1426 48.2785L85.1471 47.1675Z" fill="#263238"/>
<path d="M87.5478 47.178L87.3087 47.177L87.3042 48.288L87.5433 48.289L87.5478 47.178Z" fill="#263238"/>
<path d="M88.6002 47.1907L88.3612 47.1897L88.3524 49.3646L88.5915 49.3656L88.6002 47.1907Z" fill="#263238"/>
<path d="M85.0301 45.7856C85.0124 45.7856 85.0025 44.9672 85.0065 43.9667C85.0104 42.9663 85.0282 42.1499 85.0459 42.1499C85.0636 42.1499 85.0755 42.9683 85.0715 43.9688C85.0676 44.9693 85.0577 45.7856 85.0301 45.7856Z" fill="#263238"/>
<path d="M87.5907 45.7979C87.571 45.7979 87.5611 44.9795 87.5651 43.979C87.569 42.9786 87.5868 42.1602 87.6045 42.1602C87.6222 42.1602 87.6341 42.9786 87.6301 43.979C87.6262 44.9795 87.6084 45.7979 87.5907 45.7979Z" fill="#263238"/>
<path d="M88.5447 44.8013C88.5074 44.8183 88.4684 44.8307 88.4284 44.8382L88.3633 44.8545L88.2904 44.8832L88.2037 44.9159L88.113 44.9671C87.9624 45.056 87.8383 45.1862 87.7542 45.3435C87.6508 45.547 87.6069 45.7774 87.6281 46.0064V46.0412H86.3843H85.0262H84.9986V46.0126C84.9969 45.7974 84.9426 45.5862 84.8409 45.3988C84.7645 45.2544 84.6637 45.1255 84.5433 45.0182C84.4354 44.9267 84.3168 44.8498 84.1904 44.7891C84.2277 44.7938 84.2638 44.8056 84.2969 44.8238C84.3931 44.8669 84.4833 44.9234 84.5649 44.9916C84.6923 45.098 84.7999 45.2277 84.8823 45.3742C84.9903 45.565 85.05 45.7811 85.0558 46.0023L85.0262 45.9737H86.3843H87.5946L87.565 46.0085C87.5446 45.7662 87.5948 45.5232 87.7089 45.3108C87.7985 45.1477 87.9321 45.0154 88.0933 44.9302L88.1879 44.8811L88.2766 44.8504L88.3535 44.8259L88.4205 44.8136C88.4616 44.8066 88.5031 44.8025 88.5447 44.8013Z" fill="#263238"/>
<path d="M84.981 46.0149C84.981 46.0251 84.8962 46.0415 84.7721 46.1008C84.6082 46.1759 84.4654 46.2931 84.3571 46.4413C84.2488 46.5895 84.1786 46.7638 84.1531 46.9479C84.1314 47.089 84.1393 47.1811 84.1295 47.1811C84.1011 47.1057 84.0929 47.0236 84.1058 46.9438C84.1205 46.7466 84.1889 46.5579 84.3029 46.3995C84.4174 46.2426 84.5736 46.1238 84.7524 46.0578C84.8235 46.0227 84.9025 46.0079 84.981 46.0149Z" fill="#263238"/>
<path d="M88.5546 47.2342C88.5447 47.2342 88.5428 47.134 88.5053 46.9785C88.4591 46.778 88.3676 46.5918 88.2384 46.4353C88.1092 46.2787 87.946 46.1564 87.7622 46.0783C87.6203 46.0148 87.5256 45.9985 87.5276 45.9882C87.6134 45.9818 87.6993 45.9973 87.778 46.0333C87.9759 46.1032 88.1522 46.2268 88.2885 46.3913C88.4233 46.5563 88.5138 46.7553 88.5506 46.9683C88.5729 47.0553 88.5742 47.1466 88.5546 47.2342Z" fill="#263238"/>
<path d="M63.3754 13.5346C63.3735 13.4233 63.3939 13.3128 63.4352 13.21C63.4766 13.1073 63.538 13.0145 63.6156 12.9376C63.6932 12.8608 63.7853 12.8014 63.8861 12.7633C63.9869 12.7252 64.0942 12.7091 64.2013 12.7162C64.3234 12.7101 64.4451 12.7336 64.557 12.7847C64.6689 12.8358 64.7677 12.9132 64.8458 13.0109L64.5758 13.2646C64.5346 13.2079 64.4812 13.162 64.42 13.1304C64.3588 13.0988 64.2913 13.0824 64.2229 13.0825C64.1143 13.0901 64.0124 13.1403 63.9381 13.2229C63.8637 13.3056 63.8223 13.4144 63.8223 13.5275C63.8223 13.6405 63.8637 13.7494 63.9381 13.832C64.0124 13.9146 64.1143 13.9648 64.2229 13.9725C64.2912 13.9721 64.3586 13.9555 64.4197 13.9239C64.4809 13.8923 64.5343 13.8467 64.5758 13.7904L64.8458 14.0441C64.7675 14.1413 64.6686 14.2183 64.5567 14.2691C64.4449 14.3199 64.3232 14.343 64.2013 14.3367C64.0955 14.3436 63.9896 14.3281 63.8898 14.291C63.7901 14.2538 63.6988 14.1959 63.6214 14.1208C63.544 14.0457 63.4823 13.9549 63.44 13.8541C63.3977 13.7533 63.3757 13.6446 63.3754 13.5346Z" fill="#263238"/>
<path d="M66.0205 14.0114H65.3858L65.2675 14.3142H64.8339L65.4981 12.7551H65.916L66.5803 14.3142H66.1348L66.0205 14.0114ZM65.8963 13.686L65.6992 13.1889L65.5021 13.686H65.8963Z" fill="#263238"/>
<path d="M66.9449 13.105H66.4836V12.7551H67.828V13.105H67.3687V14.3142H66.9449V13.105Z" fill="#263238"/>
<path d="M68.9181 14.0114H68.2834L68.1651 14.3142H67.7314L68.3937 12.7551H68.8116L69.4779 14.3142H69.0363L68.9181 14.0114ZM68.7939 13.686L68.5968 13.1889L68.3997 13.686H68.7939Z" fill="#263238"/>
<path d="M69.5981 12.7551H70.0219V13.9643H70.7375V14.3142H69.5981V12.7551Z" fill="#263238"/>
<path d="M70.8044 13.5348C70.795 13.3613 70.8359 13.189 70.9218 13.04C71.0078 12.8909 71.1349 12.7721 71.2867 12.6989C71.4384 12.6258 71.6079 12.6015 71.773 12.6294C71.9382 12.6573 72.0915 12.736 72.2131 12.8554C72.3347 12.9747 72.419 13.1292 72.455 13.2988C72.491 13.4684 72.4772 13.6454 72.4153 13.8067C72.3534 13.9681 72.2462 14.1064 72.1076 14.2039C71.9691 14.3013 71.8056 14.3533 71.6382 14.3532C71.5309 14.3596 71.4235 14.3432 71.3226 14.3049C71.2216 14.2667 71.1292 14.2074 71.0512 14.1308C70.9731 14.0541 70.9109 13.9617 70.8685 13.8592C70.8261 13.7567 70.8043 13.6463 70.8044 13.5348ZM72.0443 13.5348C72.0397 13.4526 72.012 13.3737 71.9647 13.3077C71.9173 13.2417 71.8524 13.1915 71.7779 13.1633C71.7034 13.1351 71.6226 13.1302 71.5455 13.1492C71.4684 13.1681 71.3982 13.21 71.3438 13.2698C71.2893 13.3296 71.253 13.4047 71.2391 13.4857C71.2253 13.5667 71.2346 13.6502 71.2659 13.7258C71.2972 13.8014 71.3491 13.8658 71.4153 13.9111C71.4815 13.9564 71.559 13.9807 71.6382 13.9808C71.6944 13.9834 71.7505 13.9734 71.8027 13.9516C71.8549 13.9299 71.902 13.8967 71.9409 13.8545C71.9797 13.8122 72.0094 13.7618 72.0279 13.7067C72.0464 13.6515 72.0533 13.5929 72.0482 13.5348H72.0443Z" fill="#263238"/>
<path d="M73.702 13.5019H74.0766V14.1464C73.8913 14.2798 73.6712 14.3511 73.4458 14.351C73.3339 14.3668 73.22 14.3575 73.1119 14.3236C73.0038 14.2897 72.9039 14.2322 72.8191 14.1548C72.7343 14.0774 72.6665 13.982 72.6202 13.8751C72.574 13.7681 72.5505 13.6521 72.5512 13.5349C72.5519 13.4177 72.5768 13.302 72.6244 13.1957C72.6719 13.0893 72.7409 12.9948 72.8266 12.9186C72.9124 12.8423 73.0129 12.7861 73.1215 12.7536C73.23 12.7212 73.3439 12.7133 73.4556 12.7306C73.5786 12.7241 73.7013 12.7463 73.8149 12.7955C73.9285 12.8447 74.03 12.9197 74.112 13.015L73.842 13.2687C73.7969 13.2142 73.7409 13.1706 73.678 13.1409C73.615 13.1112 73.5465 13.0962 73.4773 13.0968C73.3686 13.1045 73.2668 13.1547 73.1924 13.2373C73.1181 13.3199 73.0767 13.4288 73.0767 13.5418C73.0767 13.6549 73.1181 13.7637 73.1924 13.8464C73.2668 13.929 73.3686 13.9792 73.4773 13.9868C73.5569 13.9872 73.6355 13.9698 73.708 13.9357L73.702 13.5019Z" fill="#263238"/>
<path d="M74.3348 13.6308V12.7654H74.7586V13.6165C74.7586 13.8845 74.8651 13.9909 75.0444 13.9909C75.2238 13.9909 75.3263 13.8845 75.3263 13.6165V12.7654H75.7462V13.6308C75.7462 13.8251 75.6718 14.0114 75.5395 14.1488C75.4072 14.2861 75.2277 14.3633 75.0405 14.3633C74.8533 14.3633 74.6739 14.2861 74.5415 14.1488C74.4092 14.0114 74.3348 13.8251 74.3348 13.6308Z" fill="#263238"/>
<path d="M77.2382 13.9745V14.3142H76.0319V12.7551H77.2145V13.0968H76.4557V13.3587H77.1239V13.6881H76.4557V13.9745H77.2382Z" fill="#263238"/>
<path d="M78.3952 15.5398C78.3952 15.5684 74.7782 15.593 70.3136 15.593C65.849 15.593 62.2319 15.5684 62.2319 15.5398C62.2319 15.5111 65.849 15.4866 70.3136 15.4866C74.7782 15.4866 78.3952 15.5091 78.3952 15.5398Z" fill="#E0E0E0"/>
<path d="M72.9688 16.219C72.9688 16.2476 71.7861 16.2722 70.3156 16.2722C68.8452 16.2722 67.6625 16.2476 67.6625 16.219C67.6625 16.1903 68.8452 16.1658 70.3156 16.1658C71.7861 16.1658 72.9688 16.1883 72.9688 16.219Z" fill="#E0E0E0"/>
<path d="M23.1404 81.1483L23.3769 88.8412L32.6137 88.6796C32.5447 87.7651 27.3527 86.0485 27.3527 86.0485L27.3152 80.8762L23.1404 81.1483Z" fill="#FF725E"/>
<g opacity="0.3">
<path d="M23.1404 81.1483L23.3769 88.8412L32.6137 88.6796C32.5447 87.7651 27.3527 86.0485 27.3527 86.0485L27.3152 80.8762L23.1404 81.1483Z" fill="black"/>
</g>
<path d="M24.871 85.6498C24.7828 85.6791 24.7081 85.7414 24.6615 85.8245C24.6149 85.9077 24.5997 86.0058 24.6187 86.0999C24.6442 86.1928 24.7028 86.272 24.7827 86.3215C24.8626 86.3709 24.9576 86.3868 25.0484 86.3659C25.1425 86.3347 25.2218 86.2679 25.2707 86.1789C25.3196 86.0899 25.3345 85.985 25.3126 85.8851C25.2768 85.7911 25.2072 85.7153 25.1186 85.6737C25.0299 85.6321 24.9291 85.6279 24.8375 85.6621" fill="#263238"/>
<path d="M23.377 88.8353L23.3534 88.0579L32.2412 88.1929C32.2412 88.1929 32.6552 88.3729 32.6138 88.6737L23.377 88.8353Z" fill="#263238"/>
<path d="M27.5006 86.1262C27.5006 86.1732 27.2739 86.1998 27.0551 86.3533C26.8363 86.5067 26.722 86.7072 26.6786 86.6888C26.6352 86.6704 26.7003 86.4003 26.9684 86.2182C27.2364 86.0361 27.5006 86.0832 27.5006 86.1262Z" fill="#263238"/>
<path d="M28.7108 86.5417C28.7206 86.5867 28.5275 86.6706 28.3777 86.8711C28.2279 87.0716 28.1805 87.2803 28.1411 87.2803C28.1017 87.2803 28.0643 87.0143 28.2555 86.7688C28.4467 86.5233 28.7088 86.4967 28.7108 86.5417Z" fill="#263238"/>
<path d="M29.2609 87.6956C29.2194 87.7079 29.1523 87.4746 29.2609 87.2148C29.3696 86.9549 29.581 86.8506 29.6007 86.8895C29.6205 86.9283 29.4921 87.0675 29.4032 87.2823C29.3143 87.4971 29.3044 87.6956 29.2609 87.6956Z" fill="#263238"/>
<path d="M27.3999 84.8434C27.3802 84.8864 27.1732 84.827 26.919 84.8434C26.6647 84.8598 26.4656 84.9539 26.4419 84.915C26.4183 84.8761 26.6056 84.7104 26.9071 84.6818C27.2087 84.6531 27.4196 84.8066 27.3999 84.8434Z" fill="#263238"/>
<path d="M27.5439 83.6894C27.3924 83.7332 27.2322 83.7332 27.0807 83.6894C26.9133 83.6619 26.7498 83.6131 26.5938 83.5442C26.5018 83.5028 26.4122 83.4557 26.3257 83.403C26.274 83.3728 26.2263 83.3356 26.1838 83.2925C26.1538 83.2595 26.1351 83.2171 26.1308 83.1719C26.1265 83.1267 26.1369 83.0813 26.1602 83.0429C26.1822 83.0095 26.2115 82.9821 26.2458 82.9628C26.2801 82.9436 26.3183 82.9332 26.3573 82.9324C26.4159 82.9305 26.4744 82.9381 26.5307 82.9549C26.6301 82.9771 26.7272 83.0093 26.8205 83.0511C26.9779 83.1217 27.1236 83.2177 27.2522 83.3355C27.471 83.5401 27.5459 83.7099 27.5301 83.7201C27.5143 83.7304 27.404 83.5912 27.1832 83.4255C26.9803 83.2695 26.7467 83.162 26.4992 83.1104C26.4007 83.0859 26.3179 83.0859 26.3021 83.1309C26.2863 83.1759 26.2922 83.1554 26.3021 83.1861C26.3333 83.2175 26.3684 83.2444 26.4066 83.2659C26.4864 83.3172 26.5686 83.3643 26.653 83.4071C26.7982 83.4777 26.9493 83.5345 27.1043 83.5769C27.2532 83.604 27.4 83.6416 27.5439 83.6894Z" fill="#263238"/>
<path d="M32.318 16.9043C32.2819 16.008 31.9219 15.1587 31.3097 14.5255C30.6975 13.8923 29.878 13.5217 29.0143 13.4875H28.835C26.9131 13.5285 25.8783 15.2471 25.963 17.2399L25.829 25.7737C27.4374 26.8642 28.9828 27.6765 30.2522 27.1609L30.4493 23.6111C30.4493 23.6111 32.3061 23.386 32.3988 21.473C32.4461 20.5319 32.3889 18.6209 32.318 16.9043Z" fill="#FFBE9D"/>
<path d="M30.4574 23.5926C29.6057 23.575 28.7784 23.2951 28.0802 22.7886C28.0802 22.7886 28.5809 24.2024 30.4278 24.1041L30.4574 23.5926Z" fill="#EB996E"/>
<path d="M31.777 18.3206C31.7749 18.392 31.7461 18.4598 31.6968 18.5095C31.6474 18.5593 31.5812 18.5871 31.5124 18.5871C31.479 18.589 31.4456 18.584 31.4141 18.5725C31.3826 18.5609 31.3537 18.543 31.3289 18.5198C31.3041 18.4965 31.284 18.4684 31.2697 18.437C31.2555 18.4057 31.2474 18.3717 31.2458 18.337C31.2474 18.2654 31.276 18.1974 31.3255 18.1475C31.375 18.0977 31.4415 18.07 31.5104 18.0706C31.5438 18.0684 31.5774 18.0731 31.609 18.0846C31.6406 18.096 31.6697 18.1139 31.6945 18.1372C31.7194 18.1605 31.7395 18.1888 31.7536 18.2203C31.7678 18.2518 31.7757 18.2859 31.777 18.3206Z" fill="#263238"/>
<path d="M31.8883 17.813C31.8529 17.8478 31.6597 17.6862 31.3759 17.6759C31.092 17.6657 30.8791 17.8048 30.8496 17.768C30.82 17.7312 30.8712 17.6882 30.9639 17.6227C31.09 17.5389 31.2382 17.4981 31.3877 17.5061C31.5346 17.5119 31.6759 17.5656 31.7918 17.6596C31.8765 17.7332 31.9041 17.7987 31.8883 17.813Z" fill="#263238"/>
<path d="M29.1316 18.3188C29.129 18.39 29.1001 18.4575 29.0508 18.5071C29.0015 18.5567 28.9356 18.5847 28.867 18.5852C28.834 18.5868 28.8011 18.5817 28.7701 18.5702C28.739 18.5586 28.7105 18.5408 28.6861 18.5177C28.6617 18.4947 28.6419 18.4669 28.6279 18.4359C28.6139 18.4049 28.6059 18.3714 28.6044 18.3372C28.6064 18.2662 28.6349 18.1987 28.6839 18.149C28.7329 18.0993 28.7985 18.0713 28.867 18.0708C28.9336 18.068 28.9986 18.0924 29.048 18.1387C29.0975 18.1851 29.1275 18.2497 29.1316 18.3188Z" fill="#263238"/>
<path d="M29.0993 17.7578C29.0658 17.7925 28.8726 17.6309 28.5887 17.6207C28.3049 17.6105 28.092 17.7496 28.0624 17.7128C28.0329 17.6759 28.0841 17.633 28.1768 17.5675C28.3022 17.484 28.4497 17.4432 28.5986 17.4509C28.7463 17.4554 28.8887 17.5092 29.0047 17.6043C29.0894 17.6759 29.117 17.7434 29.0993 17.7578Z" fill="#263238"/>
<path d="M30.0471 19.9734C30.199 19.9314 30.3552 19.9087 30.5123 19.9058C30.5833 19.9058 30.6523 19.8895 30.668 19.8383C30.6752 19.7608 30.6608 19.6827 30.6266 19.6133C30.5655 19.4291 30.5025 19.2348 30.4295 19.0322C30.1634 18.2138 29.9722 17.5284 30.0038 17.5182C30.0353 17.508 30.2797 18.1668 30.5458 18.9933L30.7311 19.5764C30.7726 19.6692 30.7817 19.7741 30.7567 19.8731C30.7453 19.8992 30.7284 19.9223 30.7072 19.9407C30.6861 19.9591 30.6613 19.9723 30.6345 19.9795C30.5937 19.9881 30.552 19.9922 30.5104 19.9918C30.3558 20.0053 30.2002 19.9991 30.0471 19.9734Z" fill="#263238"/>
<path d="M27.8061 17.0825C27.8357 17.0027 28.1176 17.0416 28.4507 17.0007C28.7838 16.9597 29.0539 16.8677 29.0972 16.9393C29.1169 16.9741 29.0696 17.0477 28.9612 17.1255C28.8172 17.2223 28.653 17.2819 28.4822 17.2994C28.3116 17.3191 28.1388 17.2974 27.9776 17.236C27.8554 17.1848 27.7943 17.1214 27.8061 17.0825Z" fill="#263238"/>
<path d="M31.8372 16.7918C31.7741 16.8552 31.5356 16.7775 31.2458 16.7631C30.9561 16.7488 30.7097 16.7856 30.6545 16.714C30.6308 16.6793 30.6722 16.6138 30.7826 16.5545C30.9334 16.4815 31.0998 16.4505 31.2656 16.4644C31.4318 16.4708 31.5932 16.5239 31.7327 16.6179C31.8372 16.6997 31.8667 16.7611 31.8372 16.7918Z" fill="#263238"/>
<path d="M26.0617 18.6456C26.0321 18.6292 24.81 18.2057 24.8022 19.5172C24.7943 20.8287 26.0617 20.5647 26.0657 20.5259C26.0696 20.487 26.0617 18.6456 26.0617 18.6456Z" fill="#FFBE9D"/>
<path d="M25.683 20.0286C25.683 20.0286 25.6593 20.0429 25.6219 20.0613C25.5694 20.0833 25.5108 20.0833 25.4583 20.0613C25.3773 20.0072 25.3117 19.9317 25.268 19.8425C25.2244 19.7534 25.2043 19.6538 25.2099 19.5539C25.2074 19.4413 25.2289 19.3295 25.273 19.2266C25.2851 19.1856 25.3067 19.1483 25.3359 19.1179C25.3651 19.0876 25.401 19.0652 25.4406 19.0527C25.4657 19.0455 25.4925 19.048 25.516 19.0596C25.5395 19.0712 25.5582 19.0913 25.5687 19.1161C25.5864 19.1529 25.5785 19.1795 25.5844 19.1816C25.5904 19.1836 25.612 19.1591 25.6022 19.1059C25.5949 19.0731 25.5776 19.0437 25.5529 19.022C25.5177 18.9952 25.474 18.9834 25.4307 18.9893C25.3786 18.9999 25.33 19.0244 25.2896 19.0602C25.2492 19.096 25.2184 19.1421 25.2001 19.1939C25.1457 19.3075 25.1186 19.4332 25.1212 19.5601C25.1146 19.6765 25.1412 19.7923 25.1977 19.8931C25.2541 19.9939 25.3379 20.0752 25.4386 20.1268C25.4717 20.1367 25.5066 20.139 25.5407 20.1333C25.5747 20.1276 25.6072 20.1143 25.6357 20.0941C25.6791 20.0593 25.6869 20.0307 25.683 20.0286Z" fill="#EB996E"/>
<path d="M28.1122 18.9712C28.1035 18.9718 28.0949 18.9689 28.0881 18.9632C28.0814 18.9575 28.0771 18.9493 28.0761 18.9404C28.0752 18.9361 28.0752 18.9317 28.0761 18.9274C28.0769 18.9231 28.0786 18.919 28.081 18.9153C28.0835 18.9117 28.0866 18.9086 28.0902 18.9062C28.0939 18.9038 28.0979 18.9022 28.1022 18.9015C28.1064 18.9006 28.1108 18.9007 28.1151 18.9017C28.1193 18.9027 28.1233 18.9046 28.1267 18.9074C28.1301 18.9101 28.1329 18.9135 28.1349 18.9175C28.1369 18.9214 28.1381 18.9258 28.1383 18.9302C28.1394 18.9347 28.1397 18.9393 28.139 18.9439C28.1383 18.9484 28.1367 18.9528 28.1342 18.9567C28.1317 18.9605 28.1285 18.9638 28.1247 18.9663C28.1209 18.9688 28.1167 18.9705 28.1122 18.9712Z" fill="#EB996E"/>
<path d="M28.6583 18.8647C28.6422 18.8647 28.6242 18.8524 28.6222 18.8298C28.6202 18.8073 28.6222 18.7868 28.6462 18.7847C28.651 18.7845 28.6557 18.7851 28.6602 18.7867C28.6647 18.7883 28.6688 18.7908 28.6724 18.7941C28.6759 18.7973 28.6788 18.8012 28.6808 18.8056C28.6829 18.81 28.6841 18.8147 28.6843 18.8196C28.6855 18.8243 28.6858 18.8292 28.6852 18.834C28.6845 18.8388 28.6829 18.8435 28.6805 18.8477C28.6781 18.8519 28.6749 18.8555 28.671 18.8584C28.6672 18.8613 28.6629 18.8635 28.6583 18.8647Z" fill="#EB996E"/>
<path d="M29.0242 18.8709C29.0064 18.8709 28.9906 18.8504 28.9866 18.8196C28.9827 18.7889 28.9965 18.7663 29.0143 18.7643C29.0321 18.7622 29.0479 18.7848 29.0498 18.8135C29.0518 18.8422 29.04 18.8688 29.0242 18.8709Z" fill="#EB996E"/>
<path d="M28.3664 19.335C28.3484 19.335 28.3344 19.3227 28.3344 19.3125C28.3344 19.3022 28.3504 19.292 28.3684 19.292C28.3865 19.292 28.3985 19.3022 28.3985 19.3145C28.3985 19.3268 28.3845 19.335 28.3664 19.335Z" fill="#EB996E"/>
<path d="M28.8672 19.2349C28.8584 19.2344 28.85 19.2306 28.8437 19.2242C28.8374 19.2177 28.8336 19.2092 28.8331 19.2001C28.8326 19.1955 28.8329 19.1908 28.8341 19.1864C28.8354 19.182 28.8374 19.1778 28.8402 19.1742C28.843 19.1706 28.8465 19.1675 28.8504 19.1653C28.8544 19.1631 28.8587 19.1616 28.8632 19.1611C28.8723 19.1611 28.8809 19.1648 28.8873 19.1713C28.8937 19.1779 28.8973 19.1867 28.8973 19.196C28.8979 19.2051 28.8952 19.2142 28.8896 19.2214C28.8841 19.2286 28.8761 19.2334 28.8672 19.2349Z" fill="#EB996E"/>
<path d="M31.4631 19.0161C31.4586 19.0166 31.4541 19.0163 31.4497 19.0151C31.4454 19.0138 31.4413 19.0117 31.4378 19.0088C31.4342 19.006 31.4313 19.0024 31.4291 18.9984C31.4269 18.9944 31.4255 18.9899 31.425 18.9853C31.4232 18.9764 31.4249 18.967 31.4298 18.9594C31.4347 18.9517 31.4423 18.9463 31.4511 18.9443C31.4596 18.9443 31.4679 18.9474 31.4744 18.953C31.481 18.9586 31.4854 18.9664 31.4868 18.975C31.4883 18.9836 31.4867 18.9925 31.4823 19C31.478 19.0075 31.4712 19.0132 31.4631 19.0161Z" fill="#EB996E"/>
<path d="M31.8376 18.9956C31.8327 18.9956 31.8279 18.9946 31.8235 18.9926C31.8191 18.9906 31.8151 18.9876 31.8119 18.9839C31.8087 18.9803 31.8063 18.9759 31.8048 18.9712C31.8034 18.9665 31.8029 18.9615 31.8035 18.9566C31.8022 18.9472 31.8043 18.9376 31.8095 18.9296C31.8147 18.9217 31.8225 18.916 31.8315 18.9136C31.8363 18.9138 31.8409 18.9151 31.8452 18.9172C31.8495 18.9193 31.8533 18.9222 31.8565 18.9258C31.8597 18.9294 31.8621 18.9337 31.8637 18.9382C31.8652 18.9428 31.8659 18.9477 31.8656 18.9525C31.8636 18.9751 31.8516 18.9956 31.8376 18.9956Z" fill="#EB996E"/>
<path d="M31.1358 19.014C31.1281 19.0152 31.1203 19.0133 31.1139 19.0087C31.1076 19.0042 31.1032 18.9972 31.1017 18.9894C31.1012 18.9855 31.1014 18.9815 31.1024 18.9777C31.1035 18.9738 31.1053 18.9703 31.1077 18.9672C31.1102 18.9641 31.1132 18.9616 31.1167 18.9597C31.1201 18.9579 31.1239 18.9569 31.1278 18.9566C31.1355 18.9548 31.1436 18.9561 31.1504 18.9603C31.1571 18.9645 31.162 18.9713 31.1639 18.9792C31.1645 18.9875 31.1619 18.9958 31.1567 19.0023C31.1514 19.0088 31.144 19.013 31.1358 19.014Z" fill="#EB996E"/>
<path d="M31.3957 19.4068C31.3873 19.4094 31.3783 19.4085 31.3705 19.4043C31.3628 19.4001 31.3569 19.3929 31.3542 19.3843C31.3519 19.3802 31.3504 19.3756 31.35 19.3709C31.3496 19.3662 31.3501 19.3614 31.3516 19.3569C31.3531 19.3524 31.3555 19.3484 31.3587 19.3449C31.3619 19.3415 31.3657 19.3389 31.37 19.3371C31.3784 19.3346 31.3874 19.3355 31.3951 19.3397C31.4029 19.3439 31.4087 19.3511 31.4114 19.3597C31.4135 19.3638 31.4146 19.3684 31.4149 19.373C31.4152 19.3777 31.4146 19.3823 31.4131 19.3867C31.4117 19.3911 31.4094 19.3951 31.4063 19.3986C31.4033 19.4021 31.3997 19.4048 31.3957 19.4068Z" fill="#EB996E"/>
<path d="M31.7131 19.3596C31.7098 19.3586 31.7068 19.3568 31.7041 19.3546C31.7015 19.3523 31.6993 19.3495 31.6977 19.3463C31.6962 19.3432 31.6952 19.3398 31.6949 19.3363C31.6946 19.3327 31.695 19.3292 31.6961 19.3258C31.6971 19.3225 31.6988 19.3193 31.7011 19.3166C31.7033 19.314 31.706 19.3117 31.7091 19.3101C31.7122 19.3085 31.7155 19.3075 31.719 19.3072C31.7224 19.3069 31.7259 19.3073 31.7292 19.3084C31.733 19.3088 31.7368 19.3101 31.7401 19.3122C31.7434 19.3143 31.7462 19.3171 31.7484 19.3204C31.7505 19.3238 31.7518 19.3276 31.7523 19.3315C31.7528 19.3355 31.7524 19.3395 31.7512 19.3432C31.7499 19.347 31.7479 19.3504 31.7452 19.3533C31.7425 19.3562 31.7393 19.3585 31.7357 19.36C31.7321 19.3615 31.7283 19.3623 31.7244 19.3622C31.7205 19.3622 31.7167 19.3613 31.7131 19.3596Z" fill="#EB996E"/>
<path d="M30.4671 20.9963C30.4533 21.0229 30.2246 20.9022 29.9191 20.8469C29.6136 20.7917 29.3593 20.8183 29.3553 20.7876C29.5422 20.7211 29.7422 20.7049 29.9367 20.7407C30.1312 20.7765 30.3137 20.8631 30.4671 20.9922V20.9963Z" fill="#263238"/>
<path d="M33.4731 14.3122C33.3957 14.2882 33.3226 14.2516 33.2563 14.2037C33.2149 14.1507 33.1846 14.0893 33.1673 14.0234C33.15 13.9575 33.1461 13.8887 33.1558 13.8211C33.1641 13.7535 33.1561 13.6847 33.1323 13.6211C33.1086 13.5575 33.0699 13.5011 33.0197 13.457C32.864 13.3669 32.661 13.5204 32.4954 13.457C32.3298 13.3935 32.3121 13.1521 32.2254 12.9884C32.1651 12.8856 32.0714 12.8085 31.9612 12.771C31.8509 12.7334 31.7314 12.738 31.6242 12.7838C31.4783 12.8513 31.3206 12.9987 31.1826 12.9127C31.0447 12.8268 31.0801 12.6508 31.0269 12.5158C31.0073 12.4716 30.9791 12.432 30.9441 12.3996C30.9091 12.3671 30.8681 12.3425 30.8236 12.3271C30.779 12.3118 30.732 12.3061 30.6852 12.3104C30.6385 12.3147 30.5931 12.3289 30.5519 12.3521C30.4297 12.4278 30.3153 12.5936 30.1853 12.5322C30.0552 12.4708 30.0808 12.2846 29.9783 12.2048C29.9336 12.1782 29.8816 12.1682 29.8307 12.1764C29.7799 12.1845 29.7332 12.2104 29.6984 12.2498C29.629 12.3291 29.5676 12.4155 29.5151 12.5076C29.4881 12.5531 29.4509 12.591 29.4065 12.6181C29.3622 12.6452 29.3122 12.6607 29.2608 12.6631C29.1484 12.6631 29.0637 12.5485 28.9829 12.4728C28.6892 12.215 28.2279 12.2682 27.9106 12.4974C27.7125 12.6491 27.5456 12.8404 27.4197 13.06C27.0798 12.9818 26.7266 12.991 26.3908 13.0866C25.6378 13.3158 25.0386 14.083 25.084 14.8953C25.1076 15.2758 25.2574 15.6339 25.3185 16.0103C25.3603 16.4612 25.3675 16.9148 25.3402 17.3668C25.3402 17.819 25.3678 18.2343 25.6536 18.576L26.0301 18.6763C26.056 18.7231 26.0857 18.7676 26.1188 18.8093C26.1724 18.8896 26.252 18.9475 26.3431 18.9722C26.4342 18.997 26.5308 18.9871 26.6155 18.9443C26.6988 18.8667 26.7544 18.7621 26.7732 18.6476C27.0038 17.8292 27.2345 16.9454 27.128 16.1106C27.0947 15.8867 27.1276 15.6575 27.2222 15.4534C27.3169 15.2492 27.4689 15.0796 27.6583 14.9669C27.7772 14.8938 27.9043 14.8361 28.0367 14.795C28.167 14.7695 28.3007 14.7695 28.4309 14.795C28.7093 14.8508 28.9555 15.0175 29.1169 15.2595C29.2293 15.4272 29.314 15.6462 29.5111 15.6973C29.7082 15.7485 29.9152 15.5827 30.1261 15.5827C30.337 15.5827 30.5203 15.7648 30.682 15.9244C30.8436 16.084 31.0565 16.2395 31.2733 16.172C31.4901 16.1045 31.5729 15.8937 31.7602 15.8283C31.8994 15.7944 32.0458 15.814 32.1722 15.8835C32.2971 15.9531 32.4294 16.0073 32.5664 16.0451C32.6351 16.0639 32.7076 16.0613 32.7748 16.0376C32.8421 16.014 32.9012 15.9703 32.9448 15.9121C33.0296 15.771 32.9764 15.5664 33.0769 15.4354C33.1774 15.3045 33.3292 15.3147 33.4711 15.2574C33.5588 15.2185 33.6337 15.1539 33.6868 15.0717C33.7398 14.9894 33.7687 14.8929 33.77 14.7939C33.7712 14.6949 33.7448 14.5977 33.6938 14.514C33.6429 14.4303 33.5696 14.3637 33.483 14.3224L33.4731 14.3122Z" fill="#263238"/>
<path d="M25.3146 16.7511C25.3146 16.7347 25.4427 16.7511 25.6418 16.7225C25.9001 16.6946 26.1495 16.6088 26.3728 16.471C26.5961 16.3332 26.7878 16.1468 26.9348 15.9245C26.9902 15.8263 27.0507 15.7314 27.1162 15.6401C27.1034 15.7574 27.062 15.8694 26.996 15.9654C26.8572 16.2116 26.6606 16.4171 26.4244 16.5627C26.1882 16.7084 25.9203 16.7894 25.6457 16.7982C25.5333 16.8116 25.4194 16.7954 25.3146 16.7511Z" fill="#455A64"/>
<path d="M25.2417 17.242C25.5763 17.2511 25.9099 17.1992 26.2273 17.0886C26.5308 16.947 26.8088 16.7525 27.0492 16.5137C27.0591 16.5137 27.0039 16.6282 26.8738 16.7694C26.7006 16.9486 26.4931 17.088 26.2647 17.1786C26.032 17.2787 25.7811 17.3248 25.5295 17.3137C25.4295 17.3137 25.3309 17.2891 25.2417 17.242Z" fill="#455A64"/>
<path d="M23.8894 43.3223L21.5969 50.8208L23.0575 84.776L27.5261 84.2134L28.1115 68.0623L30.5222 49.9963L30.7647 43.6026L23.8894 43.3223Z" fill="#263238"/>
<path d="M25.3599 76.635L20.9821 82.8507L28.3561 88.6245C28.8449 87.8593 25.7719 83.1883 25.7719 83.1883L28.8094 79.0963L25.3599 76.635Z" fill="#FF725E"/>
<path d="M24.0569 81.2855C23.9696 81.2524 23.8736 81.2539 23.7874 81.2898C23.7012 81.3257 23.6307 81.3934 23.5897 81.4799C23.5545 81.5689 23.5534 81.6686 23.5868 81.7584C23.6201 81.8482 23.6854 81.9213 23.7691 81.9627C23.8613 81.999 23.9632 81.9981 24.0548 81.9603C24.1464 81.9224 24.2209 81.8503 24.2638 81.7581C24.2908 81.661 24.2806 81.5568 24.2355 81.4673C24.1903 81.3778 24.1136 81.3097 24.0214 81.2773" fill="#263238"/>
<path d="M20.9821 82.8505L21.4256 82.2224L28.3482 88.0085C28.3482 88.0085 28.567 88.4177 28.3482 88.6223L20.9821 82.8505Z" fill="#263238"/>
<path d="M25.8309 83.3457C25.8033 83.3825 25.6102 83.2577 25.346 83.2393C25.0819 83.2209 24.873 83.3048 24.8513 83.2638C24.8296 83.2229 25.0385 83.0592 25.3598 83.0756C25.6811 83.092 25.8644 83.317 25.8309 83.3457Z" fill="#263238"/>
<path d="M26.5447 84.4508C26.527 84.4917 26.3259 84.4344 26.0874 84.4958C25.8489 84.5572 25.6932 84.7004 25.6597 84.6697C25.6262 84.639 25.7563 84.4099 26.0539 84.3382C26.3516 84.2666 26.5703 84.4221 26.5447 84.4508Z" fill="#263238"/>
<path d="M26.2982 85.7068C26.2588 85.6884 26.3435 85.4634 26.586 85.3304C26.8284 85.1974 27.0551 85.2485 27.0472 85.2915C27.0393 85.3345 26.8501 85.3631 26.653 85.4736C26.4559 85.5841 26.3356 85.7314 26.2982 85.7068Z" fill="#263238"/>
<path d="M26.515 82.2737C26.4756 82.2962 26.3475 82.1161 26.1346 81.9709C25.9217 81.8256 25.7266 81.7622 25.7266 81.7212C25.7266 81.6803 25.9808 81.6599 26.2312 81.8358C26.4815 82.0118 26.5584 82.2593 26.515 82.2737Z" fill="#263238"/>
<path d="M27.3174 81.4573C27.3174 81.4737 27.1478 81.3857 26.9507 81.1668C26.8348 81.0377 26.7348 80.8941 26.6531 80.7392C26.6037 80.6478 26.5609 80.5527 26.525 80.4548C26.5023 80.3985 26.4871 80.3394 26.4796 80.2789C26.477 80.235 26.488 80.1914 26.5111 80.1546C26.5342 80.1177 26.5681 80.0896 26.6078 80.0743C26.6449 80.0625 26.6842 80.0599 26.7226 80.0666C26.7609 80.0734 26.7972 80.0893 26.8285 80.1131C26.875 80.149 26.9162 80.1917 26.9507 80.24C27.015 80.322 27.0724 80.4097 27.1222 80.5019C27.2042 80.6579 27.2621 80.8264 27.2937 81.0011C27.3401 81.1577 27.3401 81.3252 27.2937 81.4819C27.2681 81.4819 27.2701 81.2998 27.1932 81.0277C27.1473 80.8691 27.081 80.7177 26.9961 80.5776C26.948 80.495 26.8939 80.4164 26.8344 80.3423C26.7714 80.2604 26.7043 80.2072 26.659 80.2277C26.6137 80.2482 26.6373 80.242 26.6354 80.2789C26.6416 80.3233 26.6535 80.3666 26.6708 80.4078C26.7018 80.4996 26.7386 80.5891 26.7812 80.6758C26.8528 80.825 26.9379 80.9668 27.0355 81.0993C27.2011 81.3182 27.3331 81.4389 27.3174 81.4573Z" fill="#263238"/>
<path d="M30.7649 43.6025L33.3589 43.7089C33.3589 43.7089 39.1304 65.1325 38.5489 67.0107C37.9674 68.8889 27.2858 81.353 27.2858 81.353L24.0886 77.8749C24.0886 77.8749 27.5105 71.8331 29.046 70.1165C30.1459 68.8889 32.9883 66.5299 32.9883 66.5299L29.3358 58.8861L30.7649 43.6025Z" fill="#263238"/>
<path d="M31.0171 51.9319C30.9881 52.047 30.9512 52.1598 30.9067 52.2695C30.8298 52.4741 30.7195 52.7953 30.5894 53.1799C30.3292 53.9533 29.998 55.0315 29.7181 56.2489C29.4382 57.4663 29.2588 58.5793 29.1544 59.3915C29.1012 59.8007 29.0617 60.1261 29.0381 60.3532C29.0296 60.4715 29.0131 60.5891 28.9888 60.7051C28.9788 60.5866 28.9788 60.4675 28.9888 60.3491C29.0006 60.1199 29.0282 59.7905 29.0716 59.3813C29.1892 58.3188 29.3682 57.2646 29.6077 56.2244C29.8497 55.1837 30.1512 54.1589 30.5105 53.1554C30.6505 52.7707 30.7707 52.4638 30.8594 52.2531C30.9032 52.1416 30.9559 52.0342 31.0171 51.9319Z" fill="#455A64"/>
<path d="M27.2856 81.353L27.2225 81.2936L27.049 81.1136L26.3926 80.4159L24.0568 77.8973L24.0352 77.8748L24.0529 77.8441C24.8827 76.3996 25.8723 74.6544 27.0293 72.8396C27.9222 71.3975 28.9595 70.0574 30.124 68.8418C30.6081 68.3529 31.1188 67.8931 31.6536 67.4648C31.9 67.2766 32.1306 67.0965 32.3514 66.9349L32.9743 66.4971H32.9861L34.2279 66.7855L34.5571 66.8653C34.5956 66.8717 34.6333 66.8826 34.6694 66.8981C34.631 66.8947 34.5927 66.8886 34.5551 66.8797L34.222 66.8162L32.9743 66.5564H32.9959L32.3809 67.0024C32.1621 67.1641 31.9335 67.3482 31.6891 67.5364C31.1612 67.9685 30.6565 68.4302 30.1772 68.9195C29.0234 70.1356 27.9942 71.4727 27.1062 72.9092C25.9491 74.7199 24.9557 76.461 24.116 77.9014V77.8462L26.4242 80.3914L27.0628 81.1034L27.2284 81.2936C27.2495 81.3111 27.2687 81.331 27.2856 81.353Z" fill="#455A64"/>
<path d="M33.9461 39.2773C33.956 39.3325 34.8844 38.9888 34.9849 38.6103C35.0855 38.2318 35.0579 37.1392 35.0579 37.1392L32.6925 35.6538L32.7043 37.6998C33.0268 37.826 33.3114 38.0383 33.5295 38.3153C33.7475 38.5923 33.8913 38.9241 33.9461 39.2773Z" fill="#FFBE9D"/>
<path d="M31.3246 23.2715L32.3713 23.9651C32.3713 23.9651 32.6985 24.806 33.1163 25.1927C33.5342 25.5794 34.2537 26.361 34.2537 26.361L34.571 27.5435L36.8556 26.94L35.87 23.513L35.5822 22.6066C35.5822 22.6066 35.0816 21.8107 34.435 22.2342C34.435 22.2342 34.5159 21.9375 34.2379 21.9191C34.0094 21.9191 33.7815 21.9438 33.5579 21.9928C33.389 21.8656 33.1886 21.791 32.9803 21.778C32.8327 21.7789 32.6855 21.7947 32.5408 21.825C32.5408 21.825 32.4639 21.4874 32.2904 21.5304C32.117 21.5734 31.8962 21.8946 31.8351 22.0849C31.7958 22.3214 31.7898 22.5626 31.8174 22.8009L31.3246 23.2715Z" fill="#FFBE9D"/>
<path d="M34.5473 22.2241C34.3851 22.3195 34.2529 22.4617 34.1668 22.6333C34.0776 22.8184 34.0349 23.0239 34.0427 23.2307C34.0439 23.3542 34.0544 23.4773 34.0742 23.599C34.0841 23.6624 34.0939 23.7279 34.1057 23.7934C34.1123 23.8568 34.1255 23.9192 34.1452 23.9796C34.158 24.0027 34.1756 24.0226 34.1967 24.0379C34.2179 24.0531 34.242 24.0632 34.2674 24.0676C34.3209 24.0829 34.3774 24.0829 34.431 24.0676C34.4819 24.0541 34.5283 24.0263 34.5652 23.9874C34.602 23.9484 34.6279 23.8997 34.6399 23.8466C34.6951 23.642 34.6261 23.4108 34.6557 23.2205C34.6636 23.1317 34.6973 23.0475 34.7523 22.9791C34.7932 22.927 34.8481 22.8885 34.91 22.8686C35.0144 22.8379 35.0696 22.885 35.0657 22.887C35.0176 22.8848 34.9695 22.8917 34.9238 22.9075C34.8654 22.9367 34.8161 22.9823 34.7812 23.039C34.7464 23.0958 34.7275 23.1614 34.7266 23.2287C34.705 23.3985 34.7858 23.6133 34.7266 23.8732C34.707 23.9442 34.6692 24.0083 34.6173 24.0588C34.5654 24.1093 34.5012 24.1442 34.4317 24.16C34.3622 24.1757 34.2899 24.1716 34.2224 24.1481C34.155 24.1247 34.0949 24.0827 34.0486 24.0266C34.024 23.9574 34.0081 23.8852 34.0013 23.8118C33.9894 23.7443 33.9796 23.6788 33.9697 23.6072C33.9517 23.4806 33.9431 23.3526 33.9441 23.2246C33.9409 23.0029 33.9939 22.7841 34.0979 22.5904C34.1687 22.46 34.2714 22.3514 34.3955 22.2753C34.4881 22.2241 34.5453 22.2241 34.5473 22.2241Z" fill="#EB996E"/>
<path d="M35.3209 23.499C35.3209 23.5277 35.1946 23.54 35.0445 23.5482C34.8945 23.5564 34.7681 23.5605 34.7622 23.5318C34.7562 23.5031 34.8787 23.4519 35.0386 23.4416C35.1985 23.4314 35.3229 23.4703 35.3209 23.499Z" fill="#EB996E"/>
<path d="M34.0626 23.9835C34.0626 23.9835 34.0883 24.0326 34.0942 24.1308C34.1004 24.2028 34.0917 24.2753 34.0686 24.3434C34.0455 24.4115 34.0085 24.4737 33.9601 24.5257C33.9245 24.5628 33.8821 24.5922 33.8354 24.6122C33.7887 24.6323 33.7386 24.6425 33.6881 24.6423C33.6289 24.6388 33.5715 24.6202 33.5209 24.5881C33.4703 24.556 33.4282 24.5113 33.3984 24.4582C33.3372 24.3498 33.2963 24.2304 33.2781 24.1062C33.2558 23.9835 33.238 23.8566 33.2249 23.7257C33.1992 23.4784 33.1907 23.2295 33.1993 22.981C33.1977 22.7731 33.2262 22.5662 33.284 22.3672C33.3268 22.2316 33.4113 22.1145 33.5245 22.0337C33.5642 22.0018 33.6124 21.9832 33.6625 21.9805C33.6625 21.9805 33.6172 22.0071 33.5482 22.0664C33.4535 22.1527 33.385 22.2657 33.3511 22.3917C33.3074 22.5834 33.2876 22.78 33.2919 22.9769C33.2891 23.2208 33.3003 23.4647 33.3254 23.7073C33.3348 23.9462 33.3862 24.1812 33.4772 24.4009C33.4982 24.4418 33.5286 24.4766 33.5658 24.5024C33.6029 24.5281 33.6456 24.5438 33.6901 24.5482C33.7706 24.5499 33.8488 24.5199 33.9089 24.4643C33.9976 24.3748 34.0493 24.253 34.0528 24.1247C34.0519 24.0774 34.0552 24.0301 34.0626 23.9835Z" fill="#EB996E"/>
<path d="M33.1497 23.7974C33.1714 23.7974 33.1103 24.002 32.8205 24.1022C32.7297 24.1047 32.6408 24.0744 32.5689 24.0166C32.4971 23.9588 32.4467 23.8771 32.4263 23.7851C32.3731 23.5854 32.3491 23.3785 32.3553 23.1713C32.3513 22.7972 32.4182 22.426 32.5524 22.0788C32.5988 21.9699 32.6814 21.882 32.785 21.8312C32.8599 21.7985 32.9053 21.8087 32.9053 21.8148C32.9053 21.821 32.8639 21.8292 32.8028 21.868C32.7183 21.9261 32.6541 22.0107 32.6195 22.1095C32.5092 22.4518 32.4532 22.8104 32.4539 23.1713C32.4472 23.3668 32.4664 23.5623 32.511 23.7524C32.5258 23.8236 32.5614 23.8883 32.6129 23.9377C32.6644 23.9871 32.7293 24.0189 32.7988 24.0286C32.8972 24.005 32.9881 23.9557 33.063 23.8854C33.128 23.8342 33.1418 23.7954 33.1497 23.7974Z" fill="#EB996E"/>
<path d="M32.5564 21.8252C32.5689 21.9132 32.5642 22.003 32.5426 22.0891C32.5263 22.3116 32.449 22.5246 32.3199 22.7029C32.2773 22.7588 32.2186 22.7989 32.1523 22.8175C32.1188 22.8262 32.0839 22.8275 32.0499 22.8212C32.0159 22.8148 31.9836 22.801 31.9552 22.7806C31.9116 22.7513 31.875 22.7122 31.848 22.6661C31.8211 22.6201 31.8045 22.5683 31.7995 22.5146C31.7811 22.4239 31.7929 22.3294 31.833 22.2466C31.8507 22.2466 31.833 22.353 31.8704 22.5003C31.8772 22.5422 31.8924 22.5821 31.9152 22.6174C31.938 22.6527 31.9677 22.6825 32.0025 22.7049C32.0421 22.7272 32.0883 22.7331 32.1318 22.7213C32.1754 22.7095 32.213 22.681 32.2371 22.6415C32.3516 22.4771 32.4296 22.2885 32.4657 22.0891C32.5111 21.9193 32.5426 21.8149 32.5564 21.8252Z" fill="#EB996E"/>
<path d="M35.3951 24.7797C35.2546 24.6484 35.1072 24.5255 34.9535 24.4114C34.7831 24.3252 34.6081 24.2494 34.4292 24.1843C34.529 24.1654 34.6314 24.1677 34.7303 24.1909C34.8292 24.2141 34.9225 24.2578 35.0048 24.3193C35.0961 24.3652 35.1777 24.4295 35.2447 24.5086C35.3117 24.5876 35.3629 24.6798 35.3951 24.7797Z" fill="#EB996E"/>
<path d="M35.7912 25.3462C35.6524 25.5859 35.4444 25.7742 35.1968 25.8844C34.9491 25.9945 34.6743 26.021 34.4114 25.96C34.6642 25.9292 34.9128 25.8688 35.1525 25.7799C35.3807 25.6612 35.595 25.5157 35.7912 25.3462Z" fill="#EB996E"/>
<path d="M32.3831 21.3442C32.3732 21.7382 32.266 22.1229 32.0716 22.4615C31.8773 22.8001 31.6024 23.0811 31.2733 23.2777C31.5415 23.0173 31.7796 22.7255 31.9829 22.4082C32.1548 22.0704 32.289 21.7135 32.3831 21.3442Z" fill="#EB996E"/>
<path d="M32.5801 27.7156C32.5801 27.7156 33.2562 28.0389 33.5893 29.0516C33.816 29.7432 35.0973 32.1615 35.0973 32.1615L34.571 27.5437L36.8319 26.7253C36.8319 26.7253 38.7419 31.0403 39.1972 33.6817C39.6526 36.2699 38.4088 37.9783 37.0822 37.9292C35.7556 37.8801 32.5486 35.562 32.5486 35.562L32.5801 27.7156Z" fill="#FF725E"/>
<path d="M34.571 27.5437C34.5955 27.6327 34.6126 27.7238 34.6223 27.8158C34.6479 28.0204 34.6834 28.2639 34.7248 28.5646C34.8056 29.1969 34.912 30.0725 35.0224 31.0382C35.0638 31.4147 35.1052 31.7768 35.1426 32.1103C35.1998 32.4582 35.253 32.7835 35.3023 33.0781C35.345 33.3308 35.4062 33.5798 35.4856 33.8228C35.6256 34.232 35.7399 34.4571 35.7261 34.4632C35.6902 34.4148 35.6591 34.3627 35.6335 34.3077C35.5604 34.1564 35.4946 34.0014 35.4363 33.8433C35.346 33.6004 35.2761 33.3499 35.2274 33.0945C35.1742 32.7998 35.117 32.4807 35.0539 32.1288C35.0145 31.7953 34.9712 31.4331 34.9278 31.0567C34.8174 30.091 34.7307 29.2153 34.6597 28.579C34.6321 28.2782 34.6085 28.0266 34.5907 27.8281C34.5732 27.7345 34.5666 27.639 34.571 27.5437Z" fill="#263238"/>
<g opacity="0.3">
<path d="M39.292 35.0829C39.292 34.6144 37.7151 35.1955 37.106 35.6231C36.4834 36.0922 36.0077 36.7411 35.738 37.489C35.738 37.489 36.8163 38.1335 37.6441 37.8409C38.8189 37.4276 39.2782 35.887 39.292 35.0829Z" fill="black"/>
</g>
<path d="M25.1726 24.6587C25.1726 24.6587 20.8991 26.8029 20.4418 28.1164C19.9845 29.4299 20.7454 32.8058 20.7454 32.8058L22.4327 41.9166L22.7835 45.3211L21.8709 46.696L22.2651 48.1077C26.8717 48.744 31.1786 48.877 34.8508 47.9338L34.5966 44.7953L32.9014 37.5218L32.6806 31.4104L32.5781 27.7154L30.2817 25.7614C30.2817 25.7614 29.9072 26.8254 28.9591 26.6023C28.011 26.3793 25.7875 24.0408 25.7875 24.0408L25.1726 24.6587Z" fill="#FF725E"/>
<path d="M20.9012 33.6548C21.0313 33.7939 23.7278 41.225 25.632 42.1416C27.5361 43.0582 28.6576 42.739 29.4855 42.5037C30.3134 42.2684 33.9344 39.6148 33.9344 39.6148C33.9344 39.6148 33.6801 37.8307 32.6275 37.7734C31.9619 37.7443 31.2954 37.7992 30.6426 37.9371L29.3653 37.0593C29.3653 37.0593 28.6241 35.5555 28.1964 35.4921L25.7147 29.7634C25.7147 29.7634 23.4065 25.0883 21.1121 27.2468C18.8788 29.3439 20.9012 33.6548 20.9012 33.6548Z" fill="#FF725E"/>
<path d="M30.6919 26.3158C30.6566 26.3979 30.6101 26.4744 30.5539 26.5429C30.4163 26.7377 30.2508 26.9095 30.0631 27.0524C29.9278 27.1515 29.7781 27.2275 29.6196 27.2774C29.4362 27.3299 29.2457 27.35 29.0559 27.3368C28.6281 27.2963 28.2097 27.1822 27.818 26.9992C27.4187 26.8297 27.046 26.5994 26.7122 26.3158C26.446 26.083 26.1982 25.8285 25.971 25.5547C25.7739 25.3235 25.63 25.1271 25.5315 24.99C25.4748 24.9225 25.4258 24.8483 25.3856 24.769C25.4505 24.831 25.5093 24.8996 25.5611 24.9736C25.6714 25.1025 25.8252 25.2908 26.0262 25.5138C26.2577 25.7771 26.5067 26.0232 26.7713 26.2503C27.0989 26.5217 27.4619 26.7436 27.8495 26.9091C28.2307 27.0868 28.6365 27.2007 29.0519 27.2467C29.3897 27.2801 29.7284 27.1927 30.0119 26.9992C30.2016 26.8636 30.3722 26.701 30.5185 26.5163C30.5718 26.4455 30.6298 26.3785 30.6919 26.3158Z" fill="#263238"/>
<path d="M32.3516 29.7759C32.3793 29.7759 32.4859 31.5457 32.5887 33.7308C32.6914 35.9159 32.7526 37.6877 32.723 37.6898C32.6934 37.6918 32.5887 35.92 32.4859 33.7349C32.3832 31.5497 32.322 29.7779 32.3516 29.7759Z" fill="#263238"/>
<path d="M21.6858 27.339L21.7331 27.3165L21.879 27.2551C22.0694 27.1811 22.2681 27.1323 22.4703 27.1099C22.8033 27.0721 23.1401 27.1127 23.4559 27.2285C23.8748 27.3901 24.2553 27.6434 24.5716 27.9712C24.962 28.3727 25.294 28.831 25.5571 29.3318C25.705 29.6019 25.8232 29.9026 25.9513 30.2034C26.0795 30.5042 26.2194 30.8172 26.3594 31.1425L28.2379 35.4616L28.2024 35.435C28.3595 35.4906 28.4968 35.594 28.5966 35.7317C28.703 35.8617 28.8018 35.9984 28.8923 36.1409C29.0772 36.4284 29.247 36.7262 29.4008 37.0329L29.391 37.0206L29.8916 37.5403L29.8601 37.526L32.2925 37.6958L32.6059 37.7163C32.7173 37.7251 32.8268 37.7506 32.9311 37.792C33.1363 37.8813 33.3142 38.027 33.4456 38.2134C33.6996 38.5894 33.8724 39.018 33.9522 39.4697C33.9522 39.5147 33.9699 39.5597 33.9758 39.6027V39.6354L33.9502 39.6538C32.8858 40.4272 31.8372 41.1699 30.7964 41.8389C30.5342 42.0026 30.274 42.1683 30.0079 42.3136C29.9429 42.3525 29.8759 42.3852 29.8108 42.42C29.743 42.4555 29.6732 42.4869 29.6019 42.5141C29.4607 42.5662 29.3165 42.6092 29.1702 42.643C28.6068 42.7979 28.0202 42.8402 27.4415 42.7678C26.8936 42.69 26.3588 42.533 25.8528 42.3013C25.7282 42.2504 25.6071 42.1909 25.4901 42.1233C25.4312 42.0909 25.3752 42.0532 25.3226 42.0108C25.2688 41.9712 25.2174 41.9281 25.1688 41.8819C24.9762 41.706 24.7987 41.5129 24.6386 41.3049C24.0745 40.5351 23.5797 39.7133 23.1602 38.8497C22.3718 37.2846 21.8356 35.969 21.4631 35.0626C21.2837 34.6105 21.1418 34.2585 21.0452 34.0151C20.9486 33.7716 20.8954 33.6509 20.8954 33.6509C20.9622 33.7636 21.0183 33.8829 21.0629 34.0069L21.5005 35.0462C21.8829 35.9465 22.4309 37.258 23.2233 38.815C23.6484 39.6712 24.1457 40.4866 24.7095 41.2517C25.01 41.6811 25.4194 42.0155 25.8922 42.2174C26.391 42.4442 26.9177 42.5978 27.4573 42.6737C28.0243 42.7432 28.599 42.7002 29.1505 42.5468C29.2936 42.5142 29.4345 42.4718 29.5723 42.42C29.6398 42.3935 29.7056 42.3628 29.7694 42.3279C29.8369 42.2968 29.9027 42.2619 29.9665 42.2236C30.2307 42.0803 30.4889 41.9167 30.755 41.7509C31.7938 41.084 32.8424 40.3413 33.9088 39.5699L33.8871 39.6211L33.8635 39.4922C33.7872 39.0567 33.6211 38.6435 33.3766 38.2809C33.256 38.1099 33.0933 37.9756 32.9055 37.8922C32.7085 37.8313 32.5039 37.8009 32.2984 37.8022L29.866 37.6242H29.8483L29.8345 37.6099L29.3358 37.0902C29.1835 36.7876 29.0164 36.4932 28.8351 36.2084C28.7467 36.0717 28.6506 35.9405 28.5473 35.8155C28.4596 35.695 28.3406 35.6027 28.2044 35.5496H28.1768V35.5291L26.3121 31.2018L25.908 30.2607C25.7739 29.9558 25.6596 29.6612 25.5138 29.3932C25.2574 28.8962 24.9327 28.4406 24.5499 28.0408C24.2419 27.7152 23.8702 27.4619 23.4598 27.2981C23.1529 27.1824 22.8252 27.1377 22.4999 27.1672C22.2986 27.1858 22.1001 27.229 21.9086 27.296L21.7607 27.3513L21.6858 27.339Z" fill="#263238"/>
<path d="M30.9126 37.6525C30.9126 37.7159 30.3745 37.6934 29.7201 37.6382L28.8804 37.5686C28.7633 37.5673 28.6469 37.5515 28.5334 37.5216C28.5334 37.4868 29.0716 37.4806 29.728 37.5379C30.0571 37.5645 30.3548 37.5973 30.5696 37.6218L30.9126 37.6525Z" fill="#263238"/>
<path d="M26.2981 35.6048C26.6084 35.5297 26.9256 35.4893 27.2442 35.4841C27.5609 35.4447 27.8807 35.4399 28.1983 35.4698C27.8873 35.5449 27.5694 35.5854 27.2502 35.5905C26.9342 35.6299 26.6151 35.6347 26.2981 35.6048Z" fill="#263238"/>
<g opacity="0.3">
<path d="M30.6268 41.8881C30.3312 41.3528 29.9296 40.8887 29.4485 40.5265C28.9673 40.1643 28.4176 39.9122 27.8356 39.7869C26.653 39.5495 25.2475 39.9628 24.2876 40.7239C24.6011 41.2529 25.0238 41.7031 25.5252 42.042C26.0266 42.381 26.5942 42.6002 27.1871 42.684C28.3895 42.8839 29.62 42.5992 30.6268 41.8881Z" fill="black"/>
</g>
<g opacity="0.3">
<path d="M25.632 25.0435C25.9592 25.8864 26.4204 26.6987 27.1103 27.2613C27.8002 27.824 28.7424 28.1022 29.5742 27.8219C30.0039 27.6787 30.4179 27.335 30.4593 26.8705C29.6149 27.208 28.6835 27.2292 27.8257 26.9305C26.9679 26.6317 26.2374 26.0316 25.7601 25.2337" fill="black"/>
</g>
<g opacity="0.3">
<path d="M32.6905 35.6537C32.9497 33.9499 32.9437 32.2139 32.6727 30.5121C32.653 30.3934 32.584 30.24 32.4756 30.2686C32.3672 30.2973 32.3672 30.4118 32.3633 30.506C32.3389 32.2445 32.4192 33.9828 32.6037 35.711" fill="black"/>
</g>
<path d="M32.3712 46.8146C32.3408 46.8309 32.3083 46.8426 32.2747 46.8493L31.9987 46.9291C31.8785 46.9619 31.7306 47.0007 31.5572 47.0376C31.3837 47.0744 31.1866 47.1255 30.9658 47.1624C30.5282 47.2463 30 47.3199 29.4126 47.367C28.7739 47.4186 28.133 47.4343 27.4927 47.414C26.8527 47.3879 26.2144 47.3264 25.5807 47.2299C24.9893 47.1358 24.4749 47.0253 24.0432 46.9087C23.8264 46.8575 23.6332 46.7941 23.4519 46.7429C23.2705 46.6918 23.1365 46.6447 23.0182 46.6018L22.7482 46.5036C22.7163 46.4924 22.6853 46.4787 22.6555 46.4626C22.6891 46.4646 22.7223 46.4715 22.7541 46.4831L23.03 46.5629C23.1503 46.5997 23.2961 46.6427 23.4676 46.6857C23.6391 46.7286 23.8323 46.788 24.059 46.835C24.4906 46.9414 25.011 47.0396 25.5925 47.1337C26.174 47.2278 26.8166 47.281 27.4947 47.3076C28.1727 47.3342 28.8173 47.3076 29.4027 47.2688C29.9881 47.2299 30.5144 47.1583 30.952 47.0826C31.1728 47.0519 31.3699 47.0089 31.5434 46.9762C31.7168 46.9435 31.8666 46.9128 31.9869 46.8841L32.2687 46.8248C32.3023 46.8165 32.3368 46.8131 32.3712 46.8146Z" fill="#263238"/>
<g opacity="0.3">
<path d="M23.5583 46.6305C23.6531 46.4998 23.7757 46.3938 23.9166 46.3206C24.0575 46.2475 24.2129 46.2093 24.3704 46.209C24.6849 46.2095 24.9979 46.2542 25.3008 46.342C27.4273 46.8283 29.6335 46.7968 31.7464 46.2499C31.7535 46.3854 31.7234 46.5203 31.6595 46.6387C31.5957 46.7572 31.5007 46.8544 31.3857 46.9189C31.1499 47.037 30.8954 47.1098 30.6347 47.1338C28.2693 47.5941 25.8211 47.2954 23.5386 46.7246" fill="black"/>
</g>
<path d="M133.081 46.5039H106.52V66.3254H133.081V46.5039Z" fill="#FF725E"/>
<path d="M113.639 46.5039C113.677 46.5039 113.639 50.69 113.639 50.69H111.668V46.5039H113.639Z" fill="#263238"/>
<g opacity="0.4">
<path d="M119.799 66.3252H133.081V46.5037H119.799V66.3252Z" fill="black"/>
</g>
<path d="M110.884 62.4438H107.328V65.0566H110.884V62.4438Z" fill="#FAFAFA"/>
<path d="M110.89 65.0606H107.332V62.4397H110.897L110.89 65.0606ZM107.342 65.0504H110.89V62.4499H107.332L107.342 65.0504Z" fill="#263238"/>
<path d="M113.318 62.4438H111.54V65.0566H113.318V62.4438Z" fill="#FAFAFA"/>
<path d="M113.324 65.0606H111.536V62.4397H113.324V65.0606ZM111.55 65.0504H113.324V62.4499H111.55V65.0504Z" fill="#263238"/>
<path d="M131.896 66.3416H101.68V88.8883H131.896V66.3416Z" fill="#FF725E"/>
<path d="M109.786 66.3416C109.827 66.3416 109.786 71.1005 109.786 71.1005H107.548V66.3416H109.786Z" fill="#263238"/>
<g opacity="0.4">
<path d="M116.789 88.8862H131.896V66.3395H116.789V88.8862Z" fill="black"/>
</g>
<path d="M106.646 84.4731H102.601V87.4439H106.646V84.4731Z" fill="#FAFAFA"/>
<path d="M106.652 87.45H102.601V84.469H106.656L106.652 87.45ZM102.601 87.4398H106.642V84.4792H102.601V87.4398Z" fill="#263238"/>
<path d="M109.415 84.4731H107.393V87.4439H109.415V84.4731Z" fill="#FAFAFA"/>
<path d="M109.421 87.45H107.389V84.469H109.421V87.45ZM107.399 87.4398H109.411V84.4792H107.399V87.4398Z" fill="#263238"/>
<path d="M133.081 66.3254C133.081 66.3541 127.134 66.3786 119.799 66.3786C112.465 66.3786 106.52 66.3541 106.52 66.3254C106.52 66.2968 112.465 66.2722 119.799 66.2722C127.134 66.2722 133.081 66.2968 133.081 66.3254Z" fill="#263238"/>
<path d="M15.3568 7.40102C15.3972 7.42128 15.4314 7.45292 15.4555 7.49234C15.4795 7.53176 15.4924 7.57738 15.4928 7.62403V8.85162C15.4926 8.89008 15.4839 8.928 15.4673 8.96239C15.4508 8.99679 15.4267 9.02675 15.3972 9.04992C15.3676 9.07309 15.3333 9.08886 15.2968 9.09599C15.2604 9.10311 15.2229 9.10141 15.1872 9.091C15.0879 9.063 14.984 9.05673 14.8823 9.07258C14.7805 9.08842 14.6829 9.12605 14.5959 9.18307C14.5185 9.23302 14.4518 9.29892 14.3999 9.3767C14.3481 9.45447 14.3121 9.54246 14.2943 9.63523C14.2787 9.72917 14.2815 9.82541 14.3025 9.91821C14.3235 10.011 14.3623 10.0985 14.4165 10.1754C14.4728 10.2625 14.5451 10.3372 14.6294 10.3952C14.7136 10.4531 14.8081 10.4931 14.9073 10.513C15.1094 10.5336 15.3122 10.4826 15.4826 10.3681C15.653 10.2536 15.781 10.0825 15.8456 9.8828C15.8649 9.82012 15.9075 9.76799 15.9639 9.73787C16.0202 9.70775 16.0858 9.70211 16.1462 9.72219C16.2066 9.74226 16.2568 9.78642 16.2858 9.84493C16.3148 9.90344 16.3203 9.97153 16.3009 10.0342C16.2007 10.3463 16 10.6131 15.7326 10.7898C15.4651 10.9664 15.1473 11.042 14.8324 11.004C14.6689 10.9742 14.5129 10.9104 14.3737 10.8166C14.2345 10.7227 14.115 10.6007 14.0223 10.4577C13.9283 10.3268 13.8621 10.1767 13.8282 10.0173C13.7943 9.85782 13.7934 9.69273 13.8257 9.53292C13.8579 9.37311 13.9225 9.22225 14.0152 9.09033C14.1079 8.95841 14.2266 8.84845 14.3633 8.76774C14.5617 8.64255 14.7895 8.5767 15.0217 8.57746V7.62403C15.0217 7.55837 15.0468 7.4954 15.0915 7.44897C15.1362 7.40255 15.1969 7.37646 15.2602 7.37646C15.2937 7.37733 15.3266 7.3857 15.3568 7.40102Z" fill="#FF725E"/>
<path d="M15.0255 6.87975C15.0255 6.83921 15.0371 6.79959 15.0589 6.76589C15.0806 6.73218 15.1115 6.70592 15.1477 6.6904C15.1838 6.67489 15.2236 6.67084 15.262 6.67874C15.3004 6.68665 15.3357 6.70617 15.3633 6.73483C15.391 6.76349 15.4099 6.80001 15.4175 6.83977C15.4251 6.87952 15.4212 6.92073 15.4062 6.95818C15.3912 6.99563 15.3659 7.02763 15.3333 7.05015C15.3008 7.07267 15.2625 7.08469 15.2234 7.08469C15.1709 7.08469 15.1206 7.0631 15.0835 7.02467C15.0464 6.98623 15.0255 6.9341 15.0255 6.87975Z" fill="#FF725E"/>
<path d="M20.8641 13.504C20.8641 13.504 20.805 13.504 20.7084 13.5551C20.571 13.6159 20.4548 13.7186 20.3753 13.8498C20.3202 13.9387 20.2852 14.0394 20.2728 14.1444C20.2597 14.2645 20.2803 14.3859 20.3319 14.4943C20.3906 14.6187 20.4822 14.7232 20.5959 14.7957C20.7097 14.8682 20.841 14.9055 20.9745 14.9034C21.1072 14.89 21.2334 14.8374 21.3382 14.7518C21.443 14.6663 21.522 14.5513 21.5658 14.4206C21.6058 14.3072 21.6127 14.1841 21.5855 14.0666C21.5607 13.9643 21.515 13.8687 21.4515 13.7863C21.3575 13.6654 21.2303 13.5769 21.0868 13.5326C20.9863 13.504 20.9252 13.5081 20.9252 13.5019C20.9395 13.499 20.9543 13.499 20.9686 13.5019C20.9863 13.5002 21.0041 13.5002 21.0218 13.5019C21.0454 13.4995 21.0692 13.4995 21.0928 13.5019C21.2466 13.5389 21.3849 13.6265 21.487 13.7516C21.5576 13.8365 21.6083 13.9374 21.6348 14.0462C21.6649 14.172 21.6594 14.3041 21.619 14.4267C21.5749 14.5621 21.495 14.6819 21.3884 14.7725C21.2778 14.8719 21.1399 14.9328 20.9942 14.9464C20.846 14.9518 20.6998 14.9089 20.5763 14.8237C20.4605 14.7456 20.3677 14.6359 20.3082 14.5065C20.2527 14.3907 20.2321 14.2602 20.2491 14.1321C20.263 14.0205 20.3022 13.914 20.3634 13.8211C20.4479 13.6857 20.5724 13.5823 20.7182 13.5265C20.7406 13.5176 20.7637 13.5108 20.7872 13.506C20.8042 13.5035 20.8215 13.5035 20.8385 13.506C20.8503 13.5019 20.8641 13.5019 20.8641 13.504Z" fill="#263238"/>
<path d="M22.6045 15.3005C22.6045 15.3005 22.569 15.3005 22.5079 15.3353C22.4261 15.376 22.3575 15.4407 22.3108 15.5215C22.2726 15.5815 22.2502 15.651 22.2461 15.7228C22.2419 15.7947 22.2561 15.8664 22.2872 15.9307C22.3208 16.009 22.3766 16.0749 22.4472 16.1194C22.5178 16.1639 22.5998 16.1851 22.6823 16.18C22.7648 16.1748 22.8438 16.1437 22.9088 16.0908C22.9738 16.0378 23.0217 15.9656 23.0461 15.8836C23.0699 15.8141 23.0751 15.7391 23.0612 15.6667C23.0474 15.5944 23.0149 15.5272 22.9672 15.4724C22.9101 15.3972 22.8325 15.3416 22.7445 15.3128C22.6794 15.2944 22.642 15.2944 22.642 15.2903C22.6768 15.2802 22.7136 15.2802 22.7484 15.2903C22.8456 15.3132 22.9328 15.3685 22.9968 15.4479C23.0417 15.5015 23.0741 15.5653 23.0914 15.634C23.1156 15.7139 23.1156 15.7996 23.0914 15.8796C23.0626 15.9699 23.0091 16.0496 22.9373 16.1089C22.8655 16.1681 22.7786 16.2043 22.6873 16.2131C22.5953 16.2152 22.5047 16.1897 22.4264 16.1396C22.348 16.0895 22.2853 16.017 22.2458 15.9307C22.2107 15.8558 22.1977 15.7718 22.2083 15.6893C22.2172 15.6159 22.2429 15.5457 22.2832 15.4847C22.3367 15.3986 22.4166 15.3338 22.5099 15.3005C22.5411 15.2932 22.5734 15.2932 22.6045 15.3005Z" fill="#263238"/>
<path d="M20.576 9.82129C20.576 9.82129 20.576 9.7906 20.576 9.72922C20.576 9.66784 20.576 9.57373 20.576 9.45506C20.576 9.39573 20.576 9.32821 20.576 9.25046C20.576 9.17271 20.576 9.09497 20.5602 9.00904C20.5445 8.92311 20.5465 8.82694 20.5386 8.72669C20.5358 8.67442 20.5292 8.62244 20.5189 8.57119C20.509 8.518 20.4991 8.4648 20.4893 8.40752C20.4062 7.8638 20.2447 7.33616 20.0103 6.84234C19.6971 6.18458 19.264 5.59607 18.735 5.10939L18.5122 4.90479C18.4334 4.84136 18.3486 4.78203 18.2658 4.7186L18.1397 4.62653C18.0987 4.593 18.0552 4.56289 18.0096 4.53651L17.7356 4.37078L17.5957 4.28894L17.4478 4.21938L17.1482 4.07616C17.0457 4.03115 16.9373 4.00046 16.8309 3.95954L16.6692 3.90225L16.5884 3.87566L16.5037 3.8552C16.2776 3.79275 16.0478 3.74627 15.8157 3.71607C15.6975 3.70175 15.5792 3.67924 15.459 3.67106H15.0943C15.0332 3.67106 14.9721 3.67106 14.909 3.67106L14.7237 3.68538C14.6015 3.69765 14.4754 3.70175 14.3512 3.71811C14.0983 3.75576 13.8481 3.81043 13.6021 3.88179L13.405 3.93703L13.3084 3.9534L13.2178 3.99023L12.8492 4.13959C12.7289 4.19483 12.6107 4.26235 12.4924 4.32373C12.4333 4.35646 12.3702 4.38306 12.313 4.42193L12.1415 4.53446C11.9116 4.68688 11.6916 4.85502 11.4832 5.03778L11.1796 5.32831L11.1027 5.40401L11.0338 5.48585L10.8938 5.64953L10.7558 5.81525L10.6297 5.99325L10.5055 6.1733L10.4444 6.26332C10.4247 6.29401 10.4069 6.32675 10.3892 6.35948L10.1724 6.74617L9.99102 7.15537C9.52624 8.29113 9.43142 9.55335 9.72098 10.7502L9.83924 11.1757C9.89049 11.3169 9.94371 11.454 9.99496 11.5849L10.0344 11.6893L10.0817 11.7875L10.1783 11.9921L10.2749 12.1967L10.3872 12.3829L10.5015 12.567L10.5567 12.6591L10.6218 12.745L10.8761 13.0867C11.0611 13.2989 11.2586 13.4992 11.4674 13.6862L11.6192 13.8253C11.6704 13.8703 11.7276 13.9071 11.7808 13.9501C11.8912 14.0299 11.9957 14.1138 12.108 14.1895L12.449 14.3941L12.52 14.4493L12.6087 14.4923L12.7861 14.5762C13.0197 14.6866 13.26 14.781 13.5056 14.8585C13.6278 14.8933 13.75 14.9199 13.8722 14.9506L14.0516 14.9935C14.1127 15.0079 14.1738 15.012 14.2349 15.0201L14.5976 15.0692C14.7178 15.0815 14.838 15.0692 14.9563 15.0836C15.1891 15.0932 15.4222 15.0863 15.6541 15.0631H15.7408L15.8256 15.0488L15.9931 15.0181C16.1035 14.9956 16.2159 14.9813 16.3223 14.9547L16.6416 14.8626L16.7974 14.8176L16.9491 14.7562L17.2448 14.6375C17.2937 14.6188 17.3411 14.5963 17.3867 14.57L17.5247 14.4984C17.6154 14.4493 17.708 14.4043 17.7947 14.3552L18.0471 14.1895C18.6417 13.7937 19.1571 13.2824 19.5648 12.6836L19.6989 12.4913L19.8092 12.2867L19.9177 12.0964C19.9354 12.0637 19.9531 12.0351 19.9689 12.0023L20.0103 11.9082C20.0681 11.7813 20.1213 11.6606 20.17 11.5461C20.2192 11.4294 20.2508 11.3149 20.2882 11.2085C20.306 11.1532 20.3237 11.1021 20.3415 11.0509C20.3586 11.0022 20.3724 10.9523 20.3828 10.9016C20.4065 10.8034 20.4262 10.7113 20.4459 10.6254C20.4656 10.5394 20.4853 10.4617 20.4991 10.3901C20.5129 10.3185 20.5169 10.2489 20.5248 10.1855C20.5405 10.0682 20.5524 9.97815 20.5602 9.91541C20.5602 9.85403 20.576 9.82334 20.576 9.82334C20.576 9.82334 20.576 9.85403 20.5662 9.91541C20.5563 9.97679 20.5484 10.0689 20.5346 10.1875C20.5346 10.2469 20.5208 10.3144 20.511 10.3921C20.5011 10.4699 20.4794 10.5435 20.4617 10.6295C20.444 10.7154 20.4223 10.8075 20.4006 10.9057C20.3902 10.9571 20.3764 11.0077 20.3592 11.0571C20.3415 11.1082 20.3257 11.1594 20.3079 11.2146C20.2705 11.321 20.239 11.4376 20.1916 11.5542L20.032 11.9184L19.9906 12.0146C19.9748 12.0473 19.9571 12.076 19.9393 12.1087L19.8329 12.301C19.7974 12.3665 19.76 12.432 19.7205 12.5056C19.6811 12.5793 19.6338 12.6345 19.5885 12.7102C19.1797 13.3141 18.6623 13.8303 18.0648 14.2304L17.8125 14.3961C17.7258 14.4473 17.6331 14.4923 17.5405 14.5414L17.4025 14.615C17.356 14.6408 17.308 14.6634 17.2586 14.6826L16.961 14.8033C16.9117 14.8237 16.8624 14.8462 16.8111 14.8646L16.6535 14.9097L16.3322 15.0038C16.2238 15.0324 16.1114 15.0467 15.999 15.0692L15.8315 15.0999L15.7448 15.1143H15.66C15.4251 15.141 15.1886 15.1512 14.9524 15.1449C14.8341 15.1449 14.7119 15.1449 14.5917 15.1306L14.227 15.0631C14.1659 15.0631 14.1028 15.0488 14.0417 15.0365L13.8604 14.9915C13.7382 14.9608 13.614 14.9363 13.4918 14.8994C13.2455 14.822 13.0045 14.7277 12.7703 14.6171L12.5909 14.5312C12.5614 14.5168 12.5318 14.5046 12.5022 14.4882L12.4155 14.437L12.0706 14.2324C11.9602 14.1588 11.8537 14.0729 11.7434 13.991C11.6868 13.9524 11.6322 13.9107 11.5798 13.8662L11.426 13.7271C11.216 13.5363 11.0185 13.3312 10.8347 13.1133L10.5764 12.7696L10.5114 12.6816L10.4542 12.5895L10.3517 12.4033L10.2374 12.2151L10.1389 12.0105L10.0423 11.8059L9.99299 11.7056L9.95357 11.6013C9.90232 11.4622 9.8491 11.321 9.79588 11.1819L9.6717 10.7665C9.37818 9.55881 9.47443 8.28449 9.94569 7.139C10.0068 6.99988 10.0659 6.8628 10.127 6.72981L10.3517 6.33084C10.3715 6.2981 10.3872 6.26537 10.4069 6.23468L10.47 6.14261L10.5962 5.96256L10.7223 5.78251L10.8623 5.61474L11.0022 5.44902L11.0732 5.36718L11.15 5.29148L11.4556 4.99276C11.6681 4.81053 11.892 4.64307 12.1258 4.4915L12.2992 4.37692C12.3564 4.34009 12.4195 4.31145 12.4786 4.27872C12.5988 4.21734 12.7171 4.14982 12.8393 4.09458L13.2119 3.94522L13.3025 3.90635L13.3971 3.87975L13.5943 3.82451C13.8427 3.75236 14.0956 3.69768 14.3512 3.66083C14.4773 3.64446 14.6035 3.63832 14.7277 3.62809L14.9248 3.61377C14.9859 3.61377 15.049 3.61377 15.1101 3.61377H15.4787C15.5989 3.61377 15.7191 3.64446 15.8374 3.65674C16.0715 3.68829 16.3033 3.73613 16.5312 3.79995L16.616 3.82041L16.6968 3.84906L16.8604 3.90635C16.9669 3.94727 17.0753 3.98 17.1778 4.02501L17.4813 4.16823L17.6292 4.23984C17.6784 4.26644 17.7238 4.29508 17.7711 4.32373L18.0471 4.4915C18.0928 4.51767 18.1363 4.54779 18.1771 4.58152L18.3033 4.67564C18.3861 4.73906 18.4708 4.7984 18.5497 4.86182L18.7744 5.06642C19.3056 5.5571 19.7394 6.1506 20.0517 6.81369C20.2923 7.31007 20.4573 7.84223 20.5405 8.39115C20.5504 8.44844 20.5602 8.50368 20.5681 8.55687C20.5784 8.60812 20.585 8.6601 20.5878 8.71237C20.5878 8.81194 20.5938 8.90605 20.6056 8.99471C20.6056 9.08269 20.6194 9.16248 20.6194 9.23819C20.6194 9.31389 20.6194 9.37936 20.6194 9.44278C20.6194 9.56145 20.6194 9.64738 20.6194 9.71695C20.6194 9.78651 20.576 9.82129 20.576 9.82129Z" fill="#263238"/>
</svg>
