<svg width="190" height="44" viewBox="0 0 190 44" fill="none" xmlns="http://www.w3.org/2000/svg">
<g clip-path="url(#clip0_1182_10956)">
<path d="M184.664 0C183.866 0.00213005 183.08 0.183194 182.361 0.529922L163.805 9.43163V15.309C162.037 15.3102 160.341 16.0157 159.092 17.2704C157.842 18.5251 157.14 20.2262 157.14 22C157.14 23.7737 157.842 25.4749 159.092 26.7296C160.341 27.9842 162.037 28.6897 163.805 28.691V34.5684L182.361 43.4701C183.174 43.8632 184.074 44.0426 184.975 43.9915C185.876 43.9403 186.749 43.6602 187.513 43.1775C188.277 42.6948 188.906 42.0253 189.341 41.2319C189.776 40.4386 190.002 39.5473 190 38.6419V5.35814C190 3.93799 189.438 2.57593 188.437 1.57124C187.437 0.566542 186.079 0.00140431 184.664 0ZM186.798 38.6419C186.798 39.21 186.573 39.7548 186.173 40.1571C185.773 40.5593 185.23 40.7863 184.664 40.7883C184.344 40.787 184.03 40.7129 183.743 40.5715L167.007 32.5423V11.4577L183.743 3.42846C184.03 3.28713 184.344 3.213 184.664 3.21167C185.23 3.21368 185.773 3.44064 186.173 3.8429C186.573 4.24516 186.798 4.78996 186.798 5.35813V38.6419Z" fill="#B34F18"/>
<path d="M160.47 13.2509V7.83382L145.249 0.529932C144.436 0.136777 143.536 -0.0426356 142.635 0.00854203C141.734 0.0597197 140.861 0.339808 140.097 0.822507C139.333 1.30521 138.705 1.97468 138.27 2.76806C137.835 3.56144 137.608 4.4527 137.61 5.35815V38.6419C137.608 39.5473 137.835 40.4386 138.27 41.232C138.705 42.0253 139.333 42.6948 140.097 43.1775C140.861 43.6602 141.734 43.9403 142.635 43.9915C143.536 44.0426 144.436 43.8632 145.249 43.4701L160.47 36.1689V30.7491C158.704 30.0719 157.185 28.8729 156.113 27.3106C155.041 25.7484 154.467 23.8965 154.467 22C154.467 20.1035 155.041 18.2516 156.113 16.6894C157.185 15.1271 158.704 13.9281 160.47 13.2509ZM151.265 22C151.275 24.1527 151.831 26.2675 152.881 28.1448C153.932 30.0221 155.442 31.6001 157.268 32.7297V34.1428L143.867 40.5715C143.58 40.7129 143.266 40.787 142.946 40.7883C142.38 40.7863 141.838 40.5594 141.438 40.1571C141.038 39.7548 140.813 39.21 140.812 38.6419V5.35815C140.813 4.78998 141.038 4.24517 141.438 3.84291C141.838 3.44065 142.38 3.2137 142.946 3.21169C143.266 3.21302 143.58 3.28715 143.867 3.42848L157.268 9.85718V11.2703C155.441 12.3997 153.931 13.9776 152.881 15.8549C151.831 17.7323 151.275 19.8472 151.265 22Z" fill="#B34F18"/>
<path d="M13.2447 11.4282C14.6762 11.4069 16.079 11.8316 17.2597 12.6438C18.4892 13.5226 19.441 14.7374 20.0017 16.1434H20.271L21.9113 11.9193H25.0205L19.3162 38.8354H16.0601L16.6967 33.7027H16.5008C13.5791 37.4521 10.5026 39.3267 7.2712 39.3266C5.00245 39.3266 3.22344 38.5162 1.93419 36.8953C0.644702 35.2744 1.61295e-05 33.056 0.000132311 30.2399C-0.0301462 26.9977 0.559918 23.7796 1.73833 20.7604C2.89702 17.8463 4.49649 15.5624 6.53675 13.9086C8.41202 12.3155 10.7874 11.4372 13.2447 11.4282ZM8.59322 35.9129C10.1761 35.9129 11.7511 35.1557 13.3182 33.6413C14.9935 31.961 16.2951 29.9439 17.1373 27.7227C18.0938 25.4057 18.5927 22.9244 18.6063 20.4166C18.6063 18.7304 18.1493 17.3879 17.2353 16.389C16.7789 15.8934 16.2208 15.5028 15.5996 15.2442C14.9783 14.9856 14.3086 14.8651 13.6365 14.8909C11.9388 14.8909 10.3598 15.5949 8.89925 17.0029C7.43837 18.4112 6.29181 20.3186 5.45955 22.725C4.62013 25.1744 4.19804 27.7481 4.21098 30.3382C4.21098 32.2046 4.59453 33.6004 5.36162 34.5254C6.1286 35.4505 7.2058 35.9131 8.59322 35.9129ZM41.3284 11.4282C42.3186 11.4117 43.3065 11.5273 44.2662 11.772L45.8024 15.0382C43.7709 15.1001 41.6628 15.1365 40.8143 15.1365C39.2981 15.1471 37.8289 15.6657 36.6402 16.61C35.2345 17.7205 34.0755 19.1132 33.2372 20.699C32.2384 22.517 31.5163 24.4747 31.0951 26.5071L28.4755 38.8354H24.3626L30.0913 11.9193H33.4943L32.9557 16.9047H33.2005C34.0667 15.6997 35.0419 14.5775 36.1138 13.5525C36.8309 12.9055 37.6446 12.3751 38.5253 11.9807C39.4112 11.6032 40.3659 11.415 41.3284 11.4282ZM49.4347 35.9621C50.6332 35.9104 51.8192 35.6956 52.96 35.3235V38.4916C52.2947 38.7529 51.6061 38.9503 50.9036 39.081C50.2598 39.224 49.6041 39.3063 48.945 39.3266C46.9046 39.3266 45.3419 38.8395 44.2568 37.8653C43.1712 36.8914 42.6285 35.4384 42.6287 33.5062C42.6472 32.2662 42.7949 31.0316 43.0694 29.8224L46.1786 15.0382H41.9678L42.3105 13.2455L46.8396 11.3299L49.8998 5.73058H52.299L50.9525 11.9193H57.6605L57.024 15.0382H50.3405L47.1824 29.8716C46.9347 30.9359 46.7872 32.0213 46.7417 33.1133C46.6902 33.8838 46.9455 34.6434 47.4517 35.2253C47.7133 35.4791 48.0247 35.6757 48.3661 35.8025C48.7074 35.9293 49.0713 35.9837 49.4347 35.9621ZM58.5692 38.8354H54.4562L60.185 11.9193H64.2979L58.5692 38.8354ZM61.3356 5.04296C61.3017 4.22115 61.582 3.41739 62.119 2.79587C62.3735 2.51025 62.6873 2.28414 63.0384 2.1335C63.3895 1.98286 63.7693 1.91136 64.151 1.92404C65.587 1.92404 66.3051 2.6608 66.3054 4.1343C66.3281 4.97199 66.0352 5.7875 65.4852 6.41824C65.2576 6.70497 64.9693 6.93742 64.6411 7.0988C64.313 7.26019 63.9533 7.34648 63.5879 7.35146C62.9912 7.37279 62.4104 7.1565 61.9721 6.74978C61.7522 6.52625 61.5819 6.25867 61.4722 5.96454C61.3625 5.67042 61.3159 5.35637 61.3356 5.04296ZM80.7282 31.1977C80.7282 33.7518 79.8265 35.7451 78.023 37.1777C76.2194 38.6105 73.6774 39.3268 70.3969 39.3266C67.809 39.3657 65.2492 38.7848 62.93 37.632V33.7518C64.0865 34.4456 65.3296 34.9824 66.6268 35.3481C67.8191 35.7053 69.0548 35.8954 70.299 35.9129C72.3555 35.9129 73.906 35.5036 74.9506 34.685C75.4436 34.3252 75.8432 33.8519 76.1159 33.3048C76.3885 32.7578 76.5262 32.1531 76.5174 31.5415C76.5417 30.6748 76.2352 29.8316 75.6605 29.1839C75.0891 28.5454 73.8568 27.6695 71.9638 26.5562C69.8419 25.3612 68.3404 24.1906 67.4592 23.0443C66.5701 21.8753 66.1039 20.4376 66.1372 18.9676C66.1033 17.9275 66.3087 16.8935 66.7375 15.9459C67.1663 14.9983 67.807 14.1625 68.6098 13.5034C70.2581 12.12 72.4288 11.4283 75.1219 11.4282C77.9156 11.4288 80.6745 12.0494 83.2009 13.2455L81.8789 16.61L80.5079 15.996C78.8027 15.2809 76.9701 14.9216 75.1219 14.94C73.6041 14.94 72.4126 15.2961 71.5476 16.0083C71.1806 16.3138 70.878 16.6895 70.6573 17.1136C70.4367 17.5377 70.3026 18.0017 70.2627 18.4784C70.2228 18.9551 70.278 19.435 70.425 19.89C70.5721 20.3451 70.8081 20.7662 71.1192 21.1287C71.6984 21.7838 72.8939 22.6269 74.7058 23.6583C76.0461 24.3623 77.3062 25.2105 78.4637 26.1878C79.1736 26.826 79.7516 27.5979 80.1652 28.4595C80.551 29.3197 80.7432 30.2546 80.7282 31.1977ZM96.84 11.4282C98.2715 11.4069 99.6743 11.8316 100.855 12.6438C102.084 13.5226 103.036 14.7374 103.597 16.1434H103.866L105.507 11.9193H108.616L102.911 38.8354H99.6554L100.292 33.7027H100.096C97.1744 37.4521 94.0978 39.3267 90.8665 39.3266C88.5977 39.3266 86.8187 38.5161 85.5295 36.8953C84.24 35.2744 83.5953 33.056 83.5954 30.2399C83.5651 26.9977 84.1552 23.7796 85.3336 20.7604C86.4923 17.8463 88.0918 15.5624 90.132 13.9086C92.0073 12.3155 94.3827 11.4372 96.84 11.4282ZM92.1885 35.9129C93.7714 35.9129 95.3464 35.1557 96.9135 33.6413C98.5887 31.961 99.8903 29.9439 100.733 27.7227C101.689 25.4057 102.188 22.9244 102.202 20.4166C102.202 18.7304 101.745 17.3879 100.831 16.389C100.374 15.8934 99.8161 15.5028 99.1949 15.2442C98.5736 14.9856 97.9039 14.8651 97.2317 14.8909C95.5341 14.8909 93.955 15.5949 92.4945 17.0029C91.0337 18.4112 89.8871 20.3186 89.0548 22.7251C88.2154 25.1744 87.7933 27.7481 87.8063 30.3382C87.8063 32.2046 88.1898 33.6004 88.9569 34.5254C89.7239 35.4505 90.8011 35.9131 92.1885 35.9129ZM124.36 38.8354L127.984 21.841C128.24 20.6771 128.404 19.4945 128.473 18.3045C128.517 17.3957 128.205 16.5056 127.604 15.8241C127.025 15.2021 126.098 14.891 124.825 14.8909C123.29 14.9188 121.803 15.4347 120.578 16.3644C119.076 17.486 117.832 18.9181 116.93 20.5639C115.788 22.6242 114.982 24.8544 114.543 27.1701L112.07 38.8354H107.958L113.686 11.9193H117.089L116.551 16.9047H116.795C118.362 14.9074 119.876 13.4953 121.337 12.6684C122.716 11.8637 124.282 11.436 125.878 11.4282C127.951 11.4282 129.587 11.9971 130.787 13.135C131.986 14.2731 132.586 15.8653 132.586 17.9116C132.562 19.4014 132.373 20.884 132.023 22.3321L128.522 38.8354H124.36Z" fill="#B34F18"/>
</g>
<defs>
<clipPath id="clip0_1182_10956">
<rect width="190" height="44" fill="white"/>
</clipPath>
</defs>
</svg>
