<svg width="165" height="38" viewBox="0 0 165 38" fill="none" xmlns="http://www.w3.org/2000/svg">
<g clip-path="url(#clip0_868_9958)">
<path d="M159.982 0C159.292 0.00183959 158.61 0.158213 157.988 0.45766L141.912 8.1455V13.2214C140.38 13.2225 138.911 13.8318 137.828 14.9154C136.745 15.9989 136.137 17.4681 136.137 19C136.137 20.5319 136.745 22.001 137.828 23.0846C138.911 24.1682 140.38 24.7775 141.912 24.7786V29.8545L157.988 37.5423C158.692 37.8819 159.471 38.0368 160.252 37.9926C161.033 37.9484 161.789 37.7065 162.451 37.2897C163.113 36.8728 163.657 36.2946 164.034 35.6094C164.411 34.9242 164.608 34.1545 164.605 33.3725V4.62748C164.605 3.401 164.118 2.22467 163.252 1.35698C162.385 0.489287 161.209 0.00121281 159.982 0ZM161.832 33.3725C161.831 33.8632 161.636 34.3337 161.29 34.6811C160.943 35.0285 160.473 35.2245 159.983 35.2263C159.706 35.2251 159.433 35.1611 159.185 35.039L144.685 28.1047V9.89526L159.185 2.96094C159.433 2.83889 159.706 2.77487 159.983 2.77372C160.473 2.77545 160.943 2.97146 161.29 3.31887C161.636 3.66627 161.831 4.13679 161.832 4.62748V33.3725Z" fill="#243B4D"/>
<path d="M139.022 11.4439V6.76557L125.835 0.457669C125.131 0.118125 124.352 -0.0368217 123.571 0.00737721C122.79 0.0515761 122.034 0.293471 121.372 0.710347C120.711 1.12722 120.166 1.7054 119.789 2.3906C119.412 3.07579 119.216 3.84552 119.218 4.62749V33.3725C119.216 34.1545 119.412 34.9242 119.789 35.6094C120.166 36.2946 120.711 36.8728 121.372 37.2897C122.034 37.7065 122.79 37.9484 123.571 37.9926C124.352 38.0368 125.131 37.8819 125.835 37.5423L139.022 31.2367V26.5561C137.492 25.9712 136.176 24.9357 135.247 23.5865C134.319 22.2372 133.821 20.6379 133.821 19C133.821 17.3621 134.319 15.7628 135.247 14.4136C136.176 13.0643 137.492 12.0288 139.022 11.4439ZM131.048 19C131.056 20.8592 131.538 22.6856 132.448 24.3069C133.358 25.9282 134.666 27.291 136.248 28.2666V29.487L124.638 35.0391C124.39 35.1611 124.117 35.2251 123.841 35.2263C123.35 35.2245 122.88 35.0285 122.533 34.6811C122.187 34.3337 121.992 33.8632 121.992 33.3725V4.62749C121.992 4.1368 122.187 3.66628 122.533 3.31888C122.88 2.97147 123.35 2.77546 123.841 2.77373C124.117 2.77488 124.39 2.8389 124.638 2.96096L136.248 8.51302V9.73346C134.666 10.7088 133.357 12.0715 132.447 13.6929C131.537 15.3142 131.056 17.1408 131.048 19Z" fill="#243B4D"/>
<path d="M11.4744 9.86974C12.7145 9.85136 13.9298 10.2182 14.9527 10.9196C16.0179 11.6786 16.8424 12.7277 17.3282 13.942H17.5615L18.9826 10.2939H21.6762L16.7343 33.5396H13.9135L14.4649 29.1068H14.2952C11.764 32.3449 9.09869 33.9639 6.29923 33.9638C4.33371 33.9638 2.79248 33.2639 1.67554 31.8641C0.558402 30.4642 -0.00011655 28.5483 -1.58972e-05 26.1163C-0.0262475 23.3161 0.484951 20.5369 1.50586 17.9294C2.50968 15.4127 3.89538 13.4402 5.66294 12.0119C7.28757 10.6361 9.34547 9.87753 11.4744 9.86974ZM7.44455 31.0157C8.8159 31.0157 10.1804 30.3617 11.538 29.0538C12.9894 27.6026 14.117 25.8606 14.8467 23.9423C15.6753 21.9412 16.1075 19.7983 16.1193 17.6324C16.1193 16.1763 15.7234 15.0168 14.9315 14.1541C14.5361 13.726 14.0527 13.3888 13.5145 13.1654C12.9762 12.9421 12.396 12.838 11.8137 12.8603C10.343 12.8603 8.97498 13.4683 7.70968 14.6843C6.44406 15.9005 5.45074 17.5478 4.72971 19.6261C4.00249 21.7415 3.63681 23.9643 3.64802 26.2011C3.64802 27.813 3.98031 29.0185 4.64488 29.8174C5.30935 30.6163 6.24257 31.0158 7.44455 31.0157ZM35.8045 9.86974C36.6623 9.85553 37.5182 9.95538 38.3496 10.1667L39.6805 12.9875C37.9205 13.041 36.0941 13.0724 35.3591 13.0724C34.0455 13.0815 32.7727 13.5295 31.7428 14.345C30.5251 15.3041 29.5209 16.5069 28.7947 17.8764C27.9294 19.4465 27.3039 21.1372 26.9389 22.8924L24.6695 33.5396H21.1062L26.0693 10.2939H29.0174L28.5508 14.5995H28.7629C29.5133 13.5588 30.3582 12.5897 31.2868 11.7044C31.9081 11.1456 32.613 10.6876 33.376 10.347C34.1436 10.0209 34.9706 9.85839 35.8045 9.86974ZM42.8273 31.0581C43.8656 31.0135 44.8931 30.828 45.8815 30.5067V33.2427C45.3051 33.4684 44.7085 33.6389 44.0999 33.7517C43.5421 33.8753 42.9741 33.9463 42.4031 33.9638C40.6354 33.9638 39.2815 33.5432 38.3414 32.7019C37.4009 31.8607 36.9308 30.6058 36.931 28.9372C36.947 27.8663 37.075 26.8 37.3128 25.7557L40.0064 12.9875H36.3584L36.6553 11.4392L40.5791 9.78489L43.2303 4.94911H45.3088L44.1423 10.2939H49.9537L49.4023 12.9875H43.612L40.876 25.7981C40.6615 26.7174 40.5336 27.6547 40.4942 28.5978C40.4496 29.2633 40.6708 29.9192 41.1093 30.4218C41.336 30.641 41.6058 30.8108 41.9015 30.9203C42.1972 31.0298 42.5125 31.0768 42.8273 31.0581ZM50.7409 33.5396H47.1777L52.1407 10.2939H55.7039L50.7409 33.5396ZM53.1375 4.35525C53.1082 3.64551 53.351 2.95135 53.8163 2.41458C54.0367 2.16791 54.3086 1.97264 54.6128 1.84254C54.917 1.71244 55.246 1.65069 55.5767 1.66164C56.8207 1.66164 57.4429 2.29793 57.4431 3.5705C57.4628 4.29396 57.2091 4.99826 56.7326 5.54299C56.5353 5.79062 56.2856 5.99137 56.0013 6.13075C55.717 6.27013 55.4054 6.34466 55.0888 6.34896C54.5719 6.36738 54.0687 6.18058 53.689 5.82932C53.4985 5.63627 53.3509 5.40518 53.2559 5.15116C53.1609 4.89714 53.1205 4.62592 53.1375 4.35525ZM69.9383 26.9435C69.9383 29.1493 69.157 30.8708 67.5946 32.108C66.0321 33.3454 63.8298 33.964 60.9878 33.9638C58.7458 33.9976 56.528 33.4959 54.5189 32.5004V29.1493C55.5208 29.7484 56.5977 30.212 57.7215 30.5279C58.7545 30.8363 59.8251 31.0005 60.903 31.0157C62.6846 31.0157 64.0279 30.6622 64.9328 29.9552C65.3599 29.6445 65.7062 29.2357 65.9424 28.7632C66.1786 28.2908 66.2979 27.7685 66.2902 27.2404C66.3113 26.4919 66.0457 25.7636 65.5479 25.2043C65.0528 24.6528 63.9852 23.8963 62.3452 22.9348C60.507 21.9028 59.2061 20.8919 58.4427 19.9019C57.6724 18.8923 57.2685 17.6507 57.2974 16.3811C57.268 15.4828 57.446 14.5898 57.8175 13.7714C58.189 12.953 58.744 12.2312 59.4395 11.662C60.8675 10.4673 62.7481 9.86985 65.0813 9.86975C67.5015 9.87031 69.8917 10.4063 72.0804 11.4393L70.9351 14.345L69.7474 13.8147C68.2701 13.1971 66.6824 12.8868 65.0813 12.9027C63.7663 12.9027 62.7341 13.2103 61.9847 13.8253C61.6667 14.0891 61.4045 14.4137 61.2134 14.7799C61.0223 15.1462 60.906 15.5469 60.8715 15.9586C60.8369 16.3703 60.8847 16.7847 61.0121 17.1777C61.1395 17.5707 61.344 17.9344 61.6135 18.2475C62.1153 18.8132 63.151 19.5414 64.7207 20.4321C65.8819 21.0402 66.9736 21.7727 67.9764 22.6167C68.5914 23.1679 69.0922 23.8345 69.4505 24.5786C69.7847 25.3215 69.9512 26.1289 69.9383 26.9435ZM83.8966 9.86974C85.1367 9.85136 86.3521 10.2182 87.375 10.9196C88.4401 11.6786 89.2647 12.7277 89.7504 13.942H89.9837L91.4048 10.2939H94.0984L89.1566 33.5396H86.3357L86.8872 29.1068H86.7175C84.1863 32.3449 81.5209 33.9639 78.7215 33.9638C76.7559 33.9638 75.2147 33.2639 74.0978 31.8641C72.9806 30.4643 72.4221 28.5483 72.4222 26.1163C72.396 23.3161 72.9072 20.5369 73.9281 17.9294C74.9319 15.4127 76.3176 13.4402 78.0852 12.0119C79.7098 10.6361 81.7677 9.87753 83.8966 9.86974ZM79.8668 31.0157C81.2381 31.0157 82.6026 30.3617 83.9602 29.0538C85.4116 27.6026 86.5392 25.8606 87.2689 23.9423C88.0976 21.9412 88.5298 19.7983 88.5415 17.6324C88.5415 16.1763 88.1456 15.0168 87.3538 14.1541C86.9584 13.726 86.4749 13.3888 85.9367 13.1654C85.3985 12.9421 84.8183 12.838 84.236 12.8603C82.7652 12.8603 81.3972 13.4683 80.1319 14.6843C78.8663 15.9005 77.873 17.5478 77.152 19.6262C76.4247 21.7415 76.0591 23.9643 76.0703 26.2011C76.0703 27.8131 76.4025 29.0185 77.0671 29.8174C77.7316 30.6163 78.6648 31.0158 79.8668 31.0157ZM107.739 33.5396L110.878 18.8626C111.1 17.8575 111.242 16.8361 111.302 15.8084C111.34 15.0235 111.07 14.2548 110.549 13.6663C110.047 13.1291 109.244 12.8604 108.142 12.8603C106.811 12.8844 105.523 13.33 104.462 14.1329C103.161 15.1015 102.083 16.3383 101.301 17.7597C100.312 19.539 99.6141 21.4652 99.2336 23.4651L97.0914 33.5396H93.5282L98.4912 10.2939H101.439L100.973 14.5995H101.185C102.542 12.8745 103.854 11.655 105.119 10.9408C106.314 10.2459 107.671 9.87654 109.054 9.86974C110.849 9.86974 112.267 10.3611 113.306 11.3438C114.345 12.3267 114.865 13.7018 114.865 15.4691C114.844 16.7558 114.68 18.0361 114.377 19.2868L111.344 33.5396H107.739Z" fill="#243B4D"/>
</g>
<defs>
<clipPath id="clip0_868_9958">
<rect width="164.605" height="38" fill="white"/>
</clipPath>
</defs>
</svg>
