<svg width="31" height="28" viewBox="0 0 31 28" fill="none" xmlns="http://www.w3.org/2000/svg">
<path d="M9.58594 6.98688V7.84688C9.86119 7.84688 10.1198 7.71512 10.2816 7.49246L9.58594 6.98688ZM11.3438 4.5681L10.6481 4.06251V4.06251L11.3438 4.5681ZM20.3281 4.5681L21.0238 4.06251L20.3281 4.5681ZM22.0859 6.98688L21.3902 7.49246C21.5521 7.71512 21.8107 7.84688 22.0859 7.84688V6.98688ZM18.7259 15.5869C18.7259 16.9434 17.5034 18.1669 15.8359 18.1669V19.8869C18.3106 19.8869 20.4459 18.03 20.4459 15.5869H18.7259ZM15.8359 18.1669C14.1685 18.1669 12.9459 16.9434 12.9459 15.5869H11.2259C11.2259 18.03 13.3613 19.8869 15.8359 19.8869V18.1669ZM12.9459 15.5869C12.9459 14.2303 14.1685 13.0069 15.8359 13.0069V11.2869C13.3613 11.2869 11.2259 13.1437 11.2259 15.5869H12.9459ZM15.8359 13.0069C17.5034 13.0069 18.7259 14.2303 18.7259 15.5869H20.4459C20.4459 13.1437 18.3106 11.2869 15.8359 11.2869V13.0069ZM10.2816 7.49246L12.0395 5.07368L10.6481 4.06251L8.89025 6.48129L10.2816 7.49246ZM13.4239 4.40688H18.248V2.68687H13.4239V4.40688ZM19.6324 5.07368L21.3902 7.49246L22.7816 6.48129L21.0238 4.06251L19.6324 5.07368ZM18.248 4.40688C18.8279 4.40688 19.3416 4.67352 19.6324 5.07368L21.0238 4.06251C20.3873 3.18667 19.3398 2.68687 18.248 2.68687V4.40688ZM12.0395 5.07368C12.3303 4.67352 12.8439 4.40688 13.4239 4.40688V2.68687C12.3321 2.68687 11.2846 3.18666 10.6481 4.06251L12.0395 5.07368ZM27.4759 11.5735V19.6002H29.1959V11.5735H27.4759ZM23.3359 23.3269H8.33594V25.0469H23.3359V23.3269ZM4.19594 19.6002V11.5735H2.47594V19.6002H4.19594ZM8.33594 23.3269C5.97812 23.3269 4.19594 21.59 4.19594 19.6002H2.47594C2.47594 22.6767 5.17091 25.0469 8.33594 25.0469V23.3269ZM27.4759 19.6002C27.4759 21.59 25.6938 23.3269 23.3359 23.3269V25.0469C26.501 25.0469 29.1959 22.6767 29.1959 19.6002H27.4759ZM23.3359 7.84688C25.6938 7.84688 27.4759 9.58371 27.4759 11.5735H29.1959C29.1959 8.49708 26.501 6.12687 23.3359 6.12687V7.84688ZM8.33594 6.12687C5.17091 6.12687 2.47594 8.49708 2.47594 11.5735H4.19594C4.19594 9.58371 5.97812 7.84688 8.33594 7.84688V6.12687ZM8.33594 7.84688H9.58594V6.12687H8.33594V7.84688ZM23.3359 6.12687H22.0859V7.84688H23.3359V6.12687Z" fill="#000E08"/>
<ellipse cx="15.8359" cy="6.98749" rx="1.25" ry="1.14667" fill="#000E08"/>
</svg>
