<svg width="14" height="15" viewBox="0 0 14 15" fill="none" xmlns="http://www.w3.org/2000/svg">
<rect y="0.591797" width="13.8167" height="13.8167" rx="6.90833" fill="#213646"/>
<path d="M9.73143 9.91172C9.75844 9.93874 9.77988 9.97081 9.7945 10.0061C9.80912 10.0414 9.81665 10.0793 9.81665 10.1175C9.81665 10.1557 9.80912 10.1935 9.7945 10.2288C9.77988 10.2641 9.75844 10.2962 9.73143 10.3232C9.70441 10.3502 9.67233 10.3717 9.63702 10.3863C9.60172 10.4009 9.56388 10.4084 9.52567 10.4084C9.48746 10.4084 9.44962 10.4009 9.41432 10.3863C9.37902 10.3717 9.34694 10.3502 9.31992 10.3232L6.90832 7.91126L4.49673 10.3232C4.44216 10.3778 4.36815 10.4084 4.29098 10.4084C4.21381 10.4084 4.13979 10.3778 4.08523 10.3232C4.03066 10.2687 4 10.1946 4 10.1175C4 10.0403 4.03066 9.96629 4.08523 9.91172L6.49718 7.50012L4.08523 5.08853C4.03066 5.03396 4 4.95995 4 4.88277C4 4.8056 4.03066 4.73159 4.08523 4.67702C4.13979 4.62245 4.21381 4.5918 4.29098 4.5918C4.36815 4.5918 4.44216 4.62245 4.49673 4.67702L6.90832 7.08898L9.31992 4.67702C9.37449 4.62245 9.4485 4.5918 9.52567 4.5918C9.60284 4.5918 9.67686 4.62245 9.73143 4.67702C9.78599 4.73159 9.81665 4.8056 9.81665 4.88277C9.81665 4.95995 9.78599 5.03396 9.73143 5.08853L7.31947 7.50012L9.73143 9.91172Z" fill="white"/>
</svg>
