<svg width="14" height="15" viewBox="0 0 14 15" fill="none" xmlns="http://www.w3.org/2000/svg">
<path d="M0.503906 13.5938C0.503906 14.3701 1.13502 15 1.91291 15H12.2456C13.0235 15 13.6546 14.3701 13.6546 13.5938V5.625H0.503906V13.5938ZM9.89725 7.85156C9.89725 7.6582 10.0558 7.5 10.2495 7.5H11.4237C11.6174 7.5 11.7759 7.6582 11.7759 7.85156V9.02344C11.7759 9.2168 11.6174 9.375 11.4237 9.375H10.2495C10.0558 9.375 9.89725 9.2168 9.89725 9.02344V7.85156ZM9.89725 11.6016C9.89725 11.4082 10.0558 11.25 10.2495 11.25H11.4237C11.6174 11.25 11.7759 11.4082 11.7759 11.6016V12.7734C11.7759 12.9668 11.6174 13.125 11.4237 13.125H10.2495C10.0558 13.125 9.89725 12.9668 9.89725 12.7734V11.6016ZM6.13991 7.85156C6.13991 7.6582 6.29843 7.5 6.49216 7.5H7.66633C7.86007 7.5 8.01858 7.6582 8.01858 7.85156V9.02344C8.01858 9.2168 7.86007 9.375 7.66633 9.375H6.49216C6.29843 9.375 6.13991 9.2168 6.13991 9.02344V7.85156ZM6.13991 11.6016C6.13991 11.4082 6.29843 11.25 6.49216 11.25H7.66633C7.86007 11.25 8.01858 11.4082 8.01858 11.6016V12.7734C8.01858 12.9668 7.86007 13.125 7.66633 13.125H6.49216C6.29843 13.125 6.13991 12.9668 6.13991 12.7734V11.6016ZM2.38258 7.85156C2.38258 7.6582 2.54109 7.5 2.73483 7.5H3.90899C4.10273 7.5 4.26124 7.6582 4.26124 7.85156V9.02344C4.26124 9.2168 4.10273 9.375 3.90899 9.375H2.73483C2.54109 9.375 2.38258 9.2168 2.38258 9.02344V7.85156ZM2.38258 11.6016C2.38258 11.4082 2.54109 11.25 2.73483 11.25H3.90899C4.10273 11.25 4.26124 11.4082 4.26124 11.6016V12.7734C4.26124 12.9668 4.10273 13.125 3.90899 13.125H2.73483C2.54109 13.125 2.38258 12.9668 2.38258 12.7734V11.6016ZM12.2456 1.875H10.8366V0.46875C10.8366 0.210938 10.6252 0 10.3669 0H9.42758C9.16927 0 8.95792 0.210938 8.95792 0.46875V1.875H5.20058V0.46875C5.20058 0.210938 4.98923 0 4.73091 0H3.79158C3.53326 0 3.32191 0.210938 3.32191 0.46875V1.875H1.91291C1.13502 1.875 0.503906 2.50488 0.503906 3.28125V4.6875H13.6546V3.28125C13.6546 2.50488 13.0235 1.875 12.2456 1.875Z" fill="#93919A"/>
</svg>
