<svg width="60" height="60" viewBox="0 0 60 60" fill="none"
    xmlns="http://www.w3.org/2000/svg">
    <rect width="60" height="60" rx="30" fill="#B34F18"/>
    <path d="M23.4375 42C22.7156 42 22.0979 41.7391 21.5842 41.2173C21.0706 40.6956 20.8134 40.0676 20.8125 39.3333V22H19.5V19.3333H26.0625V18H33.9375V19.3333H40.5V22H39.1875V39.3333C39.1875 40.0667 38.9307 40.6947 38.4171 41.2173C37.9034 41.74 37.2852 42.0009 36.5625 42H23.4375ZM36.5625 22H23.4375V39.3333H36.5625V22ZM26.0625 36.6667H28.6875V24.6667H26.0625V36.6667ZM31.3125 36.6667H33.9375V24.6667H31.3125V36.6667Z" fill="white"/>
</svg>
