<svg width="25" height="25" viewBox="0 0 25 25" fill="none" xmlns="http://www.w3.org/2000/svg">
<path d="M12.5 23.75C18.7132 23.75 23.75 18.7132 23.75 12.5C23.75 6.2868 18.7132 1.25 12.5 1.25C6.2868 1.25 1.25 6.2868 1.25 12.5C1.25 18.7132 6.2868 23.75 12.5 23.75Z" stroke="#C3C2C7" stroke-width="2" stroke-linecap="round" stroke-linejoin="round"/>
<path d="M11.6338 9.67375L16.25 8.75L15.3262 13.3662C15.2296 13.8501 14.9918 14.2945 14.6431 14.6435C14.2943 14.9925 13.85 15.2305 13.3662 15.3275L8.75 16.25L9.67375 11.6338C9.77067 11.1501 10.0085 10.706 10.3572 10.3572C10.706 10.0085 11.1501 9.77067 11.6338 9.67375Z" stroke="#C3C2C7" stroke-width="2" stroke-linecap="round" stroke-linejoin="round"/>
</svg>
