<svg width="21" height="18" viewBox="0 0 21 18" fill="none" xmlns="http://www.w3.org/2000/svg">
<path d="M14.4792 2.92206L17.6111 6.09377C17.7431 6.22739 17.7431 6.4454 17.6111 6.57902L10.0278 14.2586L6.80556 14.6208C6.375 14.6701 6.01042 14.3008 6.05903 13.8648L6.41667 10.6017L14 2.92206C14.1319 2.78844 14.3472 2.78844 14.4792 2.92206ZM20.1042 2.11682L18.4097 0.40086C17.8819 -0.13362 17.0243 -0.13362 16.4931 0.40086L15.2639 1.64563C15.1319 1.77925 15.1319 1.99727 15.2639 2.13089L18.3958 5.3026C18.5278 5.43622 18.7431 5.43622 18.875 5.3026L20.1042 4.05782C20.6319 3.51983 20.6319 2.6513 20.1042 2.11682ZM13.8333 12.17V15.7496H2.72222V4.49736H10.7014C10.8125 4.49736 10.9167 4.45165 10.9965 4.37429L12.3854 2.96777C12.6493 2.70053 12.4618 2.24692 12.0903 2.24692H2.16667C1.24653 2.24692 0.5 3.00293 0.5 3.93475V16.3122C0.5 17.244 1.24653 18 2.16667 18H14.3889C15.309 18 16.0556 17.244 16.0556 16.3122V10.7634C16.0556 10.3872 15.6076 10.2008 15.3438 10.4645L13.9549 11.8711C13.8785 11.9519 13.8333 12.0574 13.8333 12.17Z" fill="#CD8964"/>
</svg>
