<svg width="28" height="26" viewBox="0 0 28 26" fill="none" xmlns="http://www.w3.org/2000/svg">
<path d="M15.581 19.3604L19.3177 25.2109C19.4713 25.4515 19.6887 25.6507 19.9486 25.789C20.2085 25.9273 20.5021 26 20.8009 26H26.8089C27.5088 26 27.9186 25.2601 27.5175 24.7213L21.503 16.6491C19.8966 18.0593 17.8534 19.0272 15.581 19.3604ZM0.866653 26H6.87465C7.4822 26 8.04543 25.7004 8.35786 25.2109L12.0945 19.3604C9.82216 19.0272 7.77895 18.0593 6.1725 16.6496L0.158018 24.7213C-0.243055 25.2601 0.166666 26 0.866653 26ZM13.8378 17.875C19.0917 17.875 23.3511 13.8734 23.3511 8.9375C23.3511 4.00156 19.0917 0 13.8378 0C8.5838 0 4.32442 4.00156 4.32442 8.9375C4.32442 13.8734 8.5838 17.875 13.8378 17.875ZM8.83677 9.88914L10.887 8.01227L10.4021 5.36047C10.3157 4.88516 10.8486 4.52207 11.3021 4.74652L13.8378 5.99828L16.3728 4.74652C16.8269 4.52055 17.3593 4.88566 17.2728 5.36047L16.788 8.01227L18.8382 9.88914C19.2068 10.2263 19.0031 10.8149 18.495 10.8839L15.661 11.2719L14.3945 13.685C14.2805 13.9024 14.0599 14.0095 13.8388 14.0095C13.6167 14.0095 13.3945 13.9009 13.2805 13.685L12.014 11.2719L9.18001 10.8839C8.67191 10.8149 8.46813 10.2263 8.83677 9.88914Z" fill="#9AA5AD"/>
</svg>
