<svg width="26" height="26" viewBox="0 0 26 26" fill="none" xmlns="http://www.w3.org/2000/svg">
<path d="M1 11.25C1 9.99097 1.59278 8.80542 2.6 8.05L10.6 2.05C12.0222 0.983333 13.9778 0.983333 15.4 2.05L23.4 8.05C24.4072 8.80542 25 9.99097 25 11.25V20.25C25 22.4591 23.2091 24.25 21 24.25H17.7895C17.2372 24.25 16.7895 23.8023 16.7895 23.25V19.05C16.7895 17.9454 15.894 17.05 14.7895 17.05H11.2105C10.106 17.05 9.21053 17.9454 9.21053 19.05V23.25C9.21053 23.8023 8.76281 24.25 8.21053 24.25H5C2.79086 24.25 1 22.4591 1 20.25L1 11.25Z" stroke="#B44F18" stroke-width="2"/>
</svg>
