<svg width="183" height="43" viewBox="0 0 183 43" fill="none" xmlns="http://www.w3.org/2000/svg">
<g id="Artisan logomark_logomark_white_rgb 2" clip-path="url(#clip0_870_12827)">
<g id="Artisan logomark-logomark">
<path id="Vector" d="M177.861 0C177.093 0.00204516 176.335 0.175893 175.643 0.508804L157.77 9.05576V14.6989C156.067 14.7001 154.434 15.3775 153.231 16.5822C152.027 17.7868 151.351 19.4202 151.351 21.1233C151.351 22.8263 152.027 24.4597 153.231 25.6643C154.434 26.869 156.067 27.5464 157.77 27.5476V33.1908L175.643 41.7377C176.426 42.1152 177.292 42.2875 178.16 42.2383C179.028 42.1892 179.869 41.9203 180.605 41.4568C181.341 40.9933 181.946 40.3505 182.365 39.5888C182.784 38.827 183.003 37.9713 183 37.1019V5.14461C183 3.78106 182.459 2.47328 181.495 1.50862C180.531 0.543965 179.224 0.00134834 177.861 0ZM179.916 37.1019C179.916 37.6474 179.699 38.1705 179.314 38.5568C178.929 38.943 178.406 39.1609 177.861 39.1628C177.553 39.1616 177.25 39.0904 176.974 38.9547L160.854 31.2454V11.0011L176.974 3.29183C177.25 3.15614 177.553 3.08496 177.861 3.08368C178.406 3.08561 178.929 3.30352 179.314 3.68975C179.699 4.07598 179.916 4.59907 179.916 5.1446V37.1019Z" fill="#243B4D"/>
<path id="Vector_2" d="M154.559 12.7228V7.52163L139.898 0.508814C139.115 0.131326 138.249 -0.0409365 137.381 0.00820161C136.513 0.0573398 135.672 0.326266 134.936 0.789729C134.201 1.25319 133.595 1.89598 133.176 2.65775C132.757 3.41951 132.539 4.27525 132.541 5.14462V37.1019C132.539 37.9713 132.757 38.827 133.176 39.5888C133.595 40.3506 134.201 40.9933 134.936 41.4568C135.672 41.9203 136.513 42.1892 137.381 42.2383C138.249 42.2875 139.115 42.1152 139.898 41.7377L154.559 34.7275V29.5237C152.858 28.8735 151.394 27.7222 150.362 26.2222C149.329 24.7223 148.777 22.9442 148.777 21.1233C148.777 19.3023 149.329 17.5243 150.362 16.0243C151.394 14.5243 152.858 13.373 154.559 12.7228ZM145.693 21.1233C145.702 23.1902 146.238 25.2207 147.25 27.0232C148.261 28.8257 149.715 30.3407 151.475 31.4254V32.7822L138.567 38.9547C138.291 39.0904 137.988 39.1616 137.681 39.1628C137.135 39.1609 136.612 38.943 136.227 38.5568C135.842 38.1705 135.625 37.6474 135.625 37.1019V5.14462C135.625 4.59909 135.842 4.07599 136.227 3.68976C136.612 3.30354 137.135 3.08562 137.681 3.0837C137.988 3.08498 138.291 3.15615 138.567 3.29185L151.475 9.46435V10.8212C149.715 11.9056 148.261 13.4205 147.249 15.2231C146.237 17.0256 145.702 19.0562 145.693 21.1233Z" fill="#243B4D"/>
<path id="Vector_3" d="M12.7567 10.9727C14.1355 10.9523 15.4866 11.3601 16.6238 12.1399C17.808 12.9837 18.7247 14.15 19.2648 15.5H19.5241L21.104 11.4443H24.0986L18.6045 37.2877H15.4684L16.0815 32.3595H15.8929C13.0788 35.9595 10.1156 37.7594 7.00328 37.7593C4.81811 37.7593 3.10465 36.9812 1.86289 35.4249C0.620913 33.8686 -2.04434e-05 31.7386 9.14577e-05 29.0348C-0.0290716 25.9217 0.539253 22.8319 1.67425 19.933C2.79025 17.1351 4.3308 14.9422 6.29589 13.3542C8.10207 11.8247 10.3899 10.9813 12.7567 10.9727ZM8.27659 34.4817C9.80119 34.4817 11.3182 33.7547 12.8275 32.3006C14.441 30.6872 15.6947 28.7505 16.5059 26.6179C17.4272 24.3932 17.9077 22.0107 17.9207 19.6029C17.9207 17.984 17.4806 16.6949 16.6003 15.7358C16.1607 15.2599 15.6232 14.885 15.0248 14.6367C14.4264 14.3884 13.7814 14.2726 13.134 14.2974C11.4989 14.2974 9.97805 14.9734 8.57135 16.3253C7.16429 17.6774 6.05997 19.5088 5.25837 21.8194C4.44988 24.1711 4.04334 26.6423 4.0558 29.1291C4.0558 30.9212 4.42522 32.2613 5.16405 33.1495C5.90278 34.0377 6.94029 34.4818 8.27659 34.4817ZM39.8058 10.9727C40.7594 10.9569 41.7109 11.0679 42.6353 11.3028L44.1149 14.4389C42.1582 14.4983 40.1278 14.5332 39.3106 14.5332C37.8502 14.5434 36.4351 15.0414 35.2902 15.948C33.9364 17.0143 32.82 18.3515 32.0126 19.874C31.0506 21.6196 30.3552 23.4993 29.9494 25.4507L27.4264 37.2877H23.465L28.9827 11.4443H32.2602L31.7415 16.231H31.9773C32.8115 15.074 33.7509 13.9965 34.7833 13.0123C35.4739 12.3911 36.2576 11.8819 37.1059 11.5032C37.9592 11.1408 38.8787 10.9601 39.8058 10.9727ZM47.6134 34.5289C48.7677 34.4793 49.91 34.2731 51.0089 33.9158V36.9576C50.368 37.2085 49.7048 37.398 49.0281 37.5235C48.4081 37.6609 47.7765 37.7398 47.1418 37.7593C45.1765 37.7593 43.6714 37.2916 42.6262 36.3563C41.5806 35.4212 41.0579 34.0261 41.0582 32.1709C41.076 30.9803 41.2182 29.7949 41.4826 28.6339L44.4773 14.4389H40.4215L40.7517 12.7176L45.1139 10.8784L48.0614 5.50217H50.3722L49.0753 11.4443H55.5362L54.9231 14.4389H48.4858L45.444 28.6811C45.2055 29.703 45.0634 30.7451 45.0196 31.7936C44.97 32.5334 45.2159 33.2627 45.7034 33.8215C45.9554 34.0652 46.2553 34.2539 46.5841 34.3757C46.9129 34.4974 47.2634 34.5496 47.6134 34.5289ZM56.4113 37.2877H52.4499L57.9676 11.4443H61.929L56.4113 37.2877ZM59.0758 4.84194C59.0432 4.05289 59.3131 3.28116 59.8304 2.6844C60.0755 2.41017 60.3778 2.19308 60.7159 2.04844C61.0541 1.9038 61.4199 1.83515 61.7875 1.84733C63.1706 1.84733 63.8623 2.55472 63.8625 3.9695C63.8844 4.77381 63.6023 5.55681 63.0726 6.16242C62.8533 6.43773 62.5756 6.66091 62.2596 6.81586C61.9436 6.97082 61.5971 7.05367 61.2451 7.05845C60.6705 7.07893 60.111 6.87126 59.6889 6.48075C59.4771 6.26613 59.313 6.00921 59.2074 5.7268C59.1017 5.4444 59.0569 5.14287 59.0758 4.84194ZM77.754 29.9544C77.754 32.4067 76.8855 34.3206 75.1484 35.6961C73.4113 37.0718 70.9629 37.7595 67.8033 37.7593C65.3108 37.7969 62.8452 37.2391 60.6115 36.1323V32.4067C61.7253 33.0728 62.9226 33.5882 64.1721 33.9394C65.3204 34.2823 66.5107 34.4648 67.709 34.4817C69.6897 34.4817 71.1831 34.0887 72.1892 33.3027C72.664 32.9573 73.049 32.5028 73.3116 31.9775C73.5742 31.4523 73.7068 30.8717 73.6983 30.2845C73.7217 29.4524 73.4265 28.6427 72.873 28.0209C72.3226 27.4078 71.1357 26.5668 69.3125 25.4978C67.2688 24.3505 65.8226 23.2265 64.9738 22.1259C64.1175 21.0035 63.6684 19.6231 63.7005 18.2117C63.6679 17.213 63.8657 16.2202 64.2787 15.3104C64.6917 14.4005 65.3088 13.5981 66.082 12.9652C67.6696 11.637 69.7604 10.9728 72.3543 10.9727C75.045 10.9733 77.7022 11.5692 80.1356 12.7176L78.8623 15.948L77.5418 15.3585C75.8994 14.6719 74.1343 14.3269 72.3543 14.3446C70.8923 14.3446 69.7448 14.6865 68.9116 15.3703C68.5581 15.6636 68.2666 16.0244 68.0541 16.4316C67.8416 16.8388 67.7124 17.2842 67.674 17.7419C67.6356 18.1996 67.6888 18.6604 67.8304 19.0973C67.972 19.5343 68.1993 19.9386 68.499 20.2867C69.0568 20.9156 70.2083 21.7252 71.9534 22.7154C73.2444 23.3914 74.458 24.2058 75.5729 25.1441C76.2566 25.7569 76.8134 26.498 77.2117 27.3253C77.5833 28.1512 77.7684 29.0488 77.754 29.9544ZM93.2722 10.9727C94.6509 10.9523 96.0021 11.3601 97.1393 12.1399C98.3234 12.9837 99.2401 14.15 99.7802 15.5H100.04L101.619 11.4443H104.614L99.12 37.2877H95.9839L96.597 32.3595H96.4083C93.5942 35.9595 90.631 37.7594 87.5187 37.7593C85.3336 37.7593 83.6201 36.9812 82.3784 35.4249C81.1364 33.8686 80.5154 31.7386 80.5155 29.0348C80.4864 25.9217 81.0547 22.8319 82.1897 19.933C83.3057 17.1351 84.8463 14.9422 86.8113 13.3542C88.6175 11.8247 90.9054 10.9814 93.2722 10.9727ZM88.792 34.4817C90.3166 34.4817 91.8336 33.7547 93.3429 32.3006C94.9565 30.6872 96.2101 28.7505 97.0214 26.6179C97.9426 24.3932 98.4231 22.0107 98.4362 19.6029C98.4362 17.984 97.996 16.6949 97.1157 15.7358C96.6761 15.2599 96.1386 14.885 95.5403 14.6367C94.9419 14.3884 94.2969 14.2726 93.6495 14.2974C92.0144 14.2974 90.4935 14.9734 89.0868 16.3253C87.6798 17.6774 86.5754 19.5088 85.7738 21.8194C84.9654 24.1711 84.5588 26.6423 84.5713 29.1291C84.5713 30.9212 84.9407 32.2613 85.6795 33.1495C86.4182 34.0377 87.4557 34.4818 88.792 34.4817ZM119.779 37.2877L123.268 20.9705C123.516 19.853 123.673 18.7176 123.74 17.575C123.782 16.7024 123.482 15.8478 122.903 15.1935C122.345 14.5962 121.453 14.2975 120.227 14.2974C118.748 14.3242 117.315 14.8196 116.135 15.7122C114.689 16.7891 113.491 18.1641 112.622 19.7444C111.522 21.7225 110.746 23.8639 110.323 26.0873L107.942 37.2877H103.98L109.498 11.4443H112.775L112.257 16.231H112.492C114.002 14.3132 115.46 12.9574 116.866 12.1635C118.195 11.3908 119.703 10.9802 121.24 10.9727C123.237 10.9727 124.813 11.5189 125.968 12.6115C127.124 13.7042 127.701 15.233 127.701 17.1977C127.678 18.6282 127.496 20.0517 127.159 21.4421L123.787 37.2877H119.779Z" fill="#243B4D"/>
</g>
</g>
<defs>
<clipPath id="clip0_870_12827">
<rect width="183" height="42.2465" fill="white"/>
</clipPath>
</defs>
</svg>
