<svg width="213" height="60" viewBox="0 0 213 60" fill="none" xmlns="http://www.w3.org/2000/svg">
<path id="Vector" d="M21.261 15.2878C23.5589 15.2537 25.8108 15.9334 27.7061 17.2331C29.6797 18.6394 31.2076 20.5833 32.1077 22.8333H32.54L35.1731 16.0738H40.1641L31.0073 59.1461H25.7804L26.8022 50.9325H26.4878C21.7977 56.9324 16.859 59.9323 11.6719 59.9321C8.02992 59.9321 5.17415 58.6353 3.10456 56.0415C1.03459 53.4477 -0.000298558 49.8976 -0.000112056 45.3913C-0.0487171 40.2028 0.898491 35.0532 2.79016 30.2216C4.65016 25.5584 7.21773 21.9036 10.4929 19.257C13.5032 16.7078 17.3163 15.3022 21.261 15.2878ZM13.7941 54.4695C16.335 54.4695 18.8633 53.2577 21.3789 50.8343C24.0681 48.1454 26.1575 44.9175 27.5096 41.3631C29.045 37.6552 29.8459 33.6845 29.8676 29.6714C29.8676 26.9732 29.134 24.8248 27.6668 23.2263C26.9342 22.4332 26.0384 21.8082 25.0411 21.3944C24.0438 20.9806 22.9687 20.7877 21.8898 20.829C19.1646 20.829 16.6298 21.9556 14.2853 24.2088C11.9402 26.4623 10.0997 29.5146 8.76368 33.3656C7.4162 37.2852 6.73863 41.4038 6.7594 45.5485C6.7594 48.5352 7.3751 50.7688 8.60649 52.2491C9.8377 53.7295 11.5669 54.4697 13.7941 54.4695ZM66.3427 15.2878C67.9321 15.2614 69.518 15.4464 71.0586 15.838L73.5247 21.0648C70.2634 21.1639 66.8794 21.222 65.5174 21.222C63.0834 21.239 60.725 22.0689 58.8168 23.58C56.5603 25.3571 54.6998 27.5858 53.3542 30.1234C51.7508 33.0326 50.5917 36.1654 49.9154 39.4177L45.7104 59.1461H39.1081L48.3042 16.0738H53.7668L52.9022 24.0516H53.2952C54.6856 22.1233 56.2512 20.3275 57.9719 18.6872C59.123 17.6518 60.4291 16.8032 61.8429 16.172C63.2651 15.5679 64.7976 15.2667 66.3427 15.2878ZM79.3553 54.5481C81.2793 54.4655 83.1831 54.1217 85.0145 53.5263V58.5959C83.9464 59.0142 82.8411 59.33 81.7133 59.5391C80.6799 59.768 79.6273 59.8996 78.5693 59.9321C75.294 59.9321 72.7854 59.1527 71.0434 57.5938C69.3008 56.0353 68.4296 53.7101 68.43 50.6181C68.4597 48.6339 68.6968 46.6581 69.1374 44.7232L74.1285 21.0648H67.369L67.9192 18.1959L75.1896 15.1306L80.102 6.17024H83.9534L81.7919 16.0737H92.56L91.5382 21.0648H80.8094L75.7398 44.8018C75.3422 46.505 75.1054 48.2418 75.0324 49.9893C74.9498 51.2224 75.3596 52.4379 76.1721 53.3691C76.5921 53.7753 77.092 54.0898 77.6399 54.2927C78.1879 54.4957 78.772 54.5826 79.3553 54.5481ZM94.0186 59.1461H87.4163L96.6124 16.0738H103.215L94.0186 59.1461ZM98.4594 5.06987C98.4051 3.75478 98.8549 2.46857 99.717 1.47397C100.126 1.01691 100.629 0.655085 101.193 0.414023C101.757 0.172961 102.366 0.0585396 102.979 0.0788346C105.284 0.0788346 106.437 1.25782 106.437 3.6158C106.474 4.95631 106.004 6.26131 105.121 7.27066C104.755 7.7295 104.292 8.10148 103.766 8.35973C103.239 8.61799 102.662 8.75608 102.075 8.76405C101.117 8.79818 100.185 8.45205 99.4812 7.80121C99.1282 7.4435 98.8548 7.01531 98.6787 6.54463C98.5026 6.07396 98.4279 5.57141 98.4594 5.06987ZM129.59 46.924C129.59 51.0111 128.142 54.2009 125.247 56.4934C122.352 58.7863 118.271 59.9325 113.005 59.9321C108.851 59.9948 104.742 59.0651 101.019 57.2204V51.0111C102.875 52.1213 104.871 52.9803 106.953 53.5656C108.867 54.1371 110.851 54.4413 112.848 54.4695C116.149 54.4695 118.638 53.8145 120.315 52.5045C121.106 51.9287 121.748 51.1713 122.186 50.2959C122.623 49.4205 122.844 48.4528 122.83 47.4741C122.869 46.0872 122.377 44.7377 121.455 43.7014C120.537 42.6796 118.559 41.2779 115.52 39.4963C112.114 37.5841 109.704 35.7108 108.289 33.8765C106.862 32.0057 106.114 29.7052 106.167 27.3528C106.113 25.6883 106.443 24.0337 107.131 22.5173C107.819 21.0009 108.848 19.6634 110.136 18.6086C112.782 16.3949 116.267 15.288 120.59 15.2878C125.075 15.2888 129.503 16.2819 133.559 18.196L131.437 23.58L129.236 22.5975C126.499 21.4531 123.557 20.8781 120.59 20.9076C118.154 20.9076 116.241 21.4775 114.852 22.6172C114.263 23.106 113.777 23.7073 113.423 24.3859C113.069 25.0646 112.854 25.807 112.79 26.5699C112.726 27.3327 112.814 28.1007 113.05 28.8289C113.286 29.5571 113.665 30.2309 114.165 30.8111C115.094 31.8593 117.014 33.2086 119.922 34.859C122.074 35.9856 124.096 37.3429 125.955 38.9068C127.094 39.9282 128.022 41.1633 128.686 42.542C129.305 43.9186 129.614 45.4147 129.59 46.924ZM155.453 15.2878C157.751 15.2537 160.003 15.9334 161.899 17.2331C163.872 18.6394 165.4 20.5833 166.3 22.8333H166.732L169.365 16.0738H174.356L165.2 59.1461H159.973L160.995 50.9325H160.68C155.99 56.9324 151.051 59.9323 145.864 59.9321C142.222 59.9321 139.367 58.6352 137.297 56.0415C135.227 53.4477 134.192 49.8976 134.192 45.3913C134.144 40.2028 135.091 35.0532 136.983 30.2216C138.843 25.5585 141.41 21.9036 144.685 19.257C147.696 16.7078 151.509 15.3022 155.453 15.2878ZM147.986 54.4695C150.527 54.4695 153.056 53.2577 155.571 50.8343C158.261 48.1454 160.35 44.9175 161.702 41.3631C163.237 37.6552 164.038 33.6845 164.06 29.6714C164.06 26.9732 163.326 24.8248 161.859 23.2263C161.127 22.4332 160.231 21.8082 159.234 21.3944C158.236 20.9806 157.161 20.7877 156.082 20.829C153.357 20.829 150.822 21.9556 148.478 24.2088C146.133 26.4623 144.292 29.5146 142.956 33.3656C141.609 37.2852 140.931 41.4038 140.952 45.5485C140.952 48.5353 141.568 50.7688 142.799 52.2491C144.03 53.7295 145.759 54.4697 147.986 54.4695ZM199.631 59.1461L205.447 31.9508C205.859 30.0883 206.122 28.1959 206.233 26.2917C206.303 24.8373 205.803 23.4129 204.838 22.3224C203.908 21.327 202.421 20.8292 200.377 20.829C197.912 20.8737 195.525 21.6993 193.559 23.187C191.148 24.9817 189.151 27.2735 187.703 29.9072C185.87 33.2042 184.577 36.7731 183.872 40.4788L179.902 59.1461H173.3L182.496 16.0738H187.959L187.094 24.0516H187.487C190.002 20.8554 192.432 18.5957 194.777 17.2724C196.992 15.9847 199.505 15.3004 202.067 15.2878C205.394 15.2878 208.021 16.1982 209.947 18.0191C211.872 19.8403 212.835 22.3883 212.835 25.6629C212.796 28.047 212.493 30.4195 211.931 32.7368L206.312 59.1461H199.631Z" fill="#B34F18"/>
</svg>
