<svg width="22" height="18" viewBox="0 0 22 18" fill="none" xmlns="http://www.w3.org/2000/svg">
<path d="M8.38638 14.8241L9.95329 13.2572C10.3388 13.3051 10.7248 13.3299 11.1099 13.3299C13.424 13.3299 15.7714 12.4376 17.8475 10.9656C18.6619 10.3881 19.3802 9.7541 19.9029 9.17513C20.0716 8.9883 20.211 8.81642 20.3141 8.67164C20.211 8.52685 20.0716 8.35497 19.9029 8.16814C19.3802 7.58917 18.6619 6.95518 17.8475 6.37771C17.6478 6.23612 17.4456 6.09988 17.2412 5.9693L18.5536 4.65682C20.5777 5.98408 22.0001 7.56205 22.0001 8.67164C22.0001 10.9507 15.9991 15.2058 11.1099 15.2058C10.2245 15.2058 9.30254 15.0662 8.38638 14.8241ZM3.67119 12.6897C1.6445 11.3618 0.219727 9.78213 0.219727 8.67164C0.219727 6.39257 6.22076 2.13751 11.1099 2.13751C11.9975 2.13751 12.9217 2.27774 13.84 2.52092L12.2739 4.08702C11.8859 4.03844 11.4975 4.01342 11.1099 4.01342C8.79583 4.01342 6.44844 4.90565 4.37234 6.37771C3.55792 6.95518 2.83969 7.58917 2.31698 8.16814C2.14831 8.35497 2.00883 8.52685 1.90574 8.67164C2.00883 8.81642 2.14831 8.9883 2.31698 9.17513C2.83969 9.7541 3.55792 10.3881 4.37234 10.9656C4.57368 11.1083 4.77756 11.2456 4.98372 11.3772L3.67119 12.6897ZM10.7445 12.4659L14.9042 8.30625C14.9157 8.4265 14.9215 8.54839 14.9215 8.67164C14.9215 10.7767 13.215 12.4832 11.1099 12.4832C10.9867 12.4832 10.8648 12.4774 10.7445 12.4659ZM7.31637 9.04453C7.30446 8.92185 7.29836 8.79745 7.29836 8.67164C7.29836 6.56656 9.00486 4.86007 11.1099 4.86007C11.2357 4.86007 11.3601 4.86616 11.4828 4.87807L7.31637 9.04453ZM2.94701 15.7615L18.4206 0.287908C18.7397 -0.0312621 19.2572 -0.0312621 19.5764 0.287908C19.8956 0.607079 19.8956 1.12456 19.5764 1.44373L4.10283 16.9173C3.78366 17.2365 3.26618 17.2365 2.94701 16.9173C2.62784 16.5981 2.62784 16.0806 2.94701 15.7615Z" fill="#6C7C88"/>
</svg>
