<svg width="53" height="71" viewBox="0 0 53 71" fill="none" xmlns="http://www.w3.org/2000/svg">
<path id="Vector" d="M44.4341 0C43.1542 0.00340861 41.8913 0.293156 40.738 0.848006L10.9504 15.0929V24.4982C8.11197 24.5002 5.39049 25.6292 3.38413 27.6369C1.37777 29.6447 0.250732 32.367 0.250732 35.2054C0.250732 38.0438 1.37777 40.7661 3.38413 42.7739C5.39049 44.7817 8.11197 45.9107 10.9504 45.9127V55.3179L40.738 69.5629C42.0432 70.192 43.4869 70.4791 44.9335 70.3972C46.3802 70.3153 47.7822 69.8671 49.0081 69.0947C50.234 68.3222 51.2435 67.2509 51.9417 65.9813C52.64 64.7117 53.0041 63.2855 52.9999 61.8365V8.57435C52.9999 6.30176 52.0977 4.12213 50.4916 2.51437C48.8854 0.906608 46.7067 0.00224724 44.4341 0ZM47.8604 61.8365C47.8595 62.7457 47.4985 63.6176 46.8564 64.2613C46.2143 64.905 45.3433 65.2682 44.4341 65.2714C43.9217 65.2693 43.4164 65.1506 42.9565 64.9245L16.0899 52.0757V18.3351L42.9565 5.48638C43.4164 5.26023 43.9217 5.1416 44.4341 5.13947C45.3433 5.14268 46.2143 5.50587 46.8564 6.14959C47.4985 6.7933 47.8595 7.66512 47.8604 8.57434V61.8365Z" fill="#B34F18"/>
</svg>
