<svg width="221" height="186" viewBox="0 0 221 186" fill="none" xmlns="http://www.w3.org/2000/svg">
<g id="Artisan logomark_logomark_fullcolor_icon_rgb 2" clip-path="url(#clip0_868_9945)">
<g id="Artisan logomark-logomark">
<path id="Vector" d="M198.49 -0.000244141C195.127 0.00876016 191.808 0.774167 188.777 2.23988L110.5 39.8698V64.715C103.041 64.7204 95.8892 67.7027 90.6167 73.0065C85.3443 78.3103 82.3826 85.5016 82.3826 92.9997C82.3826 100.498 85.3443 107.689 90.6167 112.993C95.8892 118.297 103.041 121.279 110.5 121.284V146.13L188.777 183.76C192.207 185.422 196.001 186.18 199.803 185.964C203.604 185.747 207.289 184.563 210.51 182.523C213.731 180.482 216.384 177.652 218.219 174.298C220.054 170.945 221.011 167.177 221 163.349V22.6501C221 16.6467 218.629 10.8889 214.408 6.64178C210.187 2.39466 204.462 0.00567343 198.49 -0.000244141ZM207.494 163.349C207.491 165.751 206.543 168.054 204.855 169.755C203.168 171.455 200.879 172.415 198.49 172.423C197.143 172.417 195.816 172.104 194.607 171.507L124.006 137.565V48.4345L194.607 14.4928C195.816 13.8954 197.143 13.582 198.49 13.5764C200.879 13.5849 203.168 14.5443 204.855 16.2447C206.543 17.9452 207.491 20.2482 207.494 22.65V163.349Z" fill="#B34F18" fill-opacity="0.18"/>
<path id="Vector_2" d="M96.4315 56.015V33.1157L32.2227 2.24017C28.7928 0.578193 24.9989 -0.180233 21.1973 0.0361095C17.3958 0.252452 13.7113 1.43646 10.4899 3.47696C7.26845 5.51746 4.61574 8.34751 2.78085 11.7013C0.945955 15.0552 -0.0109125 18.8228 9.38877e-05 22.6504V163.35C-0.0109125 167.177 0.945955 170.945 2.78085 174.299C4.61574 177.653 7.26845 180.483 10.4899 182.523C13.7113 184.564 17.3958 185.748 21.1973 185.964C24.9989 186.18 28.7928 185.422 32.2227 183.76L96.4315 152.896V129.985C88.9821 127.122 82.5726 122.054 78.0509 115.449C73.5291 108.845 71.1081 101.017 71.1081 93C71.1081 84.9829 73.5291 77.1546 78.0509 70.5506C82.5726 63.9466 88.9821 58.8779 96.4315 56.015ZM57.6023 93C57.6428 102.1 59.9891 111.04 64.4197 118.976C68.8504 126.912 75.2194 133.582 82.9257 138.357V144.331L26.3927 171.507C25.1843 172.104 23.8565 172.418 22.5098 172.423C20.1205 172.415 17.8319 171.455 16.1445 169.755C14.4571 168.055 13.5084 165.752 13.5059 163.35V22.6504C13.5084 20.2485 14.4571 17.9455 16.1445 16.245C17.8319 14.5446 20.1205 13.5852 22.5098 13.5767C23.8565 13.5823 25.1843 13.8957 26.3927 14.4931L82.9258 41.669V47.6427C75.2185 52.417 68.8487 59.087 64.4179 67.0231C59.9871 74.9592 57.6414 83.8995 57.6023 93Z" fill="#B34F18" fill-opacity="0.18"/>
</g>
</g>
<defs>
<clipPath id="clip0_868_9945">
<rect width="221" height="186" fill="white"/>
</clipPath>
</defs>
</svg>
