<svg width="38" height="71" viewBox="0 0 38 71" fill="none" xmlns="http://www.w3.org/2000/svg">
<path id="Vector" d="M37.5966 21.2047V12.536L13.1627 0.848023C11.8574 0.218877 10.4137 -0.0682276 8.96709 0.0136694C7.52046 0.0955663 6.11838 0.543777 4.8925 1.31622C3.66661 2.08865 2.65715 3.15997 1.95891 4.42958C1.26066 5.69919 0.896543 7.12542 0.900732 8.57436V61.8365C0.896543 63.2855 1.26066 64.7117 1.95891 65.9813C2.65715 67.2509 3.66661 68.3222 4.8925 69.0947C6.11838 69.8671 7.52046 70.3153 8.96709 70.3972C10.4137 70.4791 11.8574 70.192 13.1627 69.5629L37.5966 57.8791V49.2062C34.7618 48.1225 32.3227 46.2037 30.6021 43.7038C28.8814 41.2038 27.9601 38.2404 27.9601 35.2054C27.9601 32.1705 28.8814 29.2071 30.6021 26.7071C32.3227 24.2072 34.7618 22.2884 37.5966 21.2047ZM22.8206 35.2054C22.836 38.6503 23.7289 42.0345 25.4149 45.0387C27.1009 48.0429 29.5246 50.5679 32.4572 52.3756V54.637L10.9442 64.9245C10.4843 65.1506 9.97903 65.2693 9.46656 65.2714C8.55735 65.2682 7.68642 64.905 7.04431 64.2613C6.4022 63.6176 6.0412 62.7457 6.04025 61.8365V8.57436C6.04119 7.66515 6.4022 6.79332 7.04431 6.14961C7.68642 5.5059 8.55735 5.14271 9.46656 5.13949C9.97903 5.14163 10.4843 5.26026 10.9442 5.48641L32.4572 15.7739V18.0353C29.5242 19.8426 27.1003 22.3676 25.4142 25.3718C23.7281 28.376 22.8355 31.7604 22.8206 35.2054Z" fill="#B34F18"/>
</svg>
