<svg width="15" height="12" viewBox="0 0 15 12" fill="none" xmlns="http://www.w3.org/2000/svg">
<path d="M4.51172 0.642857V2.78571C4.51172 3.14076 4.22335 3.42857 3.86761 3.42857H1.14802C0.792282 3.42857 0.503906 3.14076 0.503906 2.78571V0.642857C0.503906 0.287813 0.792282 0 1.14802 0H3.86761C4.22335 0 4.51172 0.287813 4.51172 0.642857ZM9.37839 7.07143V4.92857C9.37839 4.57353 9.09001 4.28571 8.73427 4.28571H6.01466C5.65892 4.28571 5.37054 4.57353 5.37054 4.92857V7.07143C5.37054 7.42647 5.65892 7.71429 6.01466 7.71429H8.73425C9.09001 7.71429 9.37839 7.42647 9.37839 7.07143ZM10.2372 0.642857V2.78571C10.2372 3.14076 10.5256 3.42857 10.8813 3.42857H13.6009C13.9567 3.42857 14.245 3.14076 14.245 2.78571V0.642857C14.245 0.287813 13.9567 0 13.6009 0H10.8813C10.5256 0 10.2372 0.287813 10.2372 0.642857ZM9.37839 2.78571V0.642857C9.37839 0.287813 9.09001 0 8.73427 0H6.01466C5.65892 0 5.37054 0.287813 5.37054 0.642857V2.78571C5.37054 3.14076 5.65892 3.42857 6.01466 3.42857H8.73425C9.09001 3.42857 9.37839 3.14076 9.37839 2.78571ZM3.86761 4.28571H1.14802C0.792282 4.28571 0.503906 4.57353 0.503906 4.92857V7.07143C0.503906 7.42647 0.792282 7.71429 1.14802 7.71429H3.86761C4.22335 7.71429 4.51172 7.42647 4.51172 7.07143V4.92857C4.51172 4.57353 4.22335 4.28571 3.86761 4.28571ZM0.503906 9.21429V11.3571C0.503906 11.7122 0.792282 12 1.14802 12H3.86761C4.22335 12 4.51172 11.7122 4.51172 11.3571V9.21429C4.51172 8.85924 4.22335 8.57143 3.86761 8.57143H1.14802C0.792282 8.57143 0.503906 8.85924 0.503906 9.21429ZM10.8813 7.71429H13.6009C13.9567 7.71429 14.245 7.42647 14.245 7.07143V4.92857C14.245 4.57353 13.9567 4.28571 13.6009 4.28571H10.8813C10.5256 4.28571 10.2372 4.57353 10.2372 4.92857V7.07143C10.2372 7.42647 10.5256 7.71429 10.8813 7.71429ZM10.8813 12H13.6009C13.9567 12 14.245 11.7122 14.245 11.3571V9.21429C14.245 8.85924 13.9567 8.57143 13.6009 8.57143H10.8813C10.5256 8.57143 10.2372 8.85924 10.2372 9.21429V11.3571C10.2372 11.7122 10.5256 12 10.8813 12ZM5.37054 9.21429V11.3571C5.37054 11.7122 5.65892 12 6.01466 12H8.73425C9.08999 12 9.37836 11.7122 9.37836 11.3571V9.21429C9.37836 8.85924 9.08999 8.57143 8.73425 8.57143H6.01466C5.65892 8.57143 5.37054 8.85924 5.37054 9.21429Z" fill="#93919A"/>
</svg>
