<svg width="16" height="12" viewBox="0 0 16 12" fill="none" xmlns="http://www.w3.org/2000/svg">
<path d="M14.9375 4.5H11.75V0.5625C11.75 0.251719 11.4983 0 11.1875 0H7.8125C7.50172 0 7.25 0.251719 7.25 0.5625V2.25H5.75V0.375C5.75 0.167812 5.58219 0 5.375 0H5C4.79281 0 4.625 0.167812 4.625 0.375V2.25H3.125V0.375C3.125 0.167812 2.95719 0 2.75 0H2.375C2.16781 0 2 0.167812 2 0.375V2.25H1.0625C0.751719 2.25 0.5 2.50172 0.5 2.8125V11.25C0.5 11.6641 0.835859 12 1.25 12H14.75C15.1641 12 15.5 11.6641 15.5 11.25V5.0625C15.5 4.75172 15.248 4.5 14.9375 4.5ZM3.5 9.46875C3.5 9.62414 3.37414 9.75 3.21875 9.75H2.28125C2.12586 9.75 2 9.62414 2 9.46875V8.53125C2 8.37586 2.12586 8.25 2.28125 8.25H3.21875C3.37414 8.25 3.5 8.37586 3.5 8.53125V9.46875ZM3.5 7.21875C3.5 7.37414 3.37414 7.5 3.21875 7.5H2.28125C2.12586 7.5 2 7.37414 2 7.21875V6.28125C2 6.12586 2.12586 6 2.28125 6H3.21875C3.37414 6 3.5 6.12586 3.5 6.28125V7.21875ZM3.5 4.96875C3.5 5.12414 3.37414 5.25 3.21875 5.25H2.28125C2.12586 5.25 2 5.12414 2 4.96875V4.03125C2 3.87586 2.12586 3.75 2.28125 3.75H3.21875C3.37414 3.75 3.5 3.87586 3.5 4.03125V4.96875ZM6.5 9.46875C6.5 9.62414 6.37414 9.75 6.21875 9.75H5.28125C5.12586 9.75 5 9.62414 5 9.46875V8.53125C5 8.37586 5.12586 8.25 5.28125 8.25H6.21875C6.37414 8.25 6.5 8.37586 6.5 8.53125V9.46875ZM6.5 7.21875C6.5 7.37414 6.37414 7.5 6.21875 7.5H5.28125C5.12586 7.5 5 7.37414 5 7.21875V6.28125C5 6.12586 5.12586 6 5.28125 6H6.21875C6.37414 6 6.5 6.12586 6.5 6.28125V7.21875ZM6.5 4.96875C6.5 5.12414 6.37414 5.25 6.21875 5.25H5.28125C5.12586 5.25 5 5.12414 5 4.96875V4.03125C5 3.87586 5.12586 3.75 5.28125 3.75H6.21875C6.37414 3.75 6.5 3.87586 6.5 4.03125V4.96875ZM10.25 7.21875C10.25 7.37414 10.1241 7.5 9.96875 7.5H9.03125C8.87586 7.5 8.75 7.37414 8.75 7.21875V6.28125C8.75 6.12586 8.87586 6 9.03125 6H9.96875C10.1241 6 10.25 6.12586 10.25 6.28125V7.21875ZM10.25 4.96875C10.25 5.12414 10.1241 5.25 9.96875 5.25H9.03125C8.87586 5.25 8.75 5.12414 8.75 4.96875V4.03125C8.75 3.87586 8.87586 3.75 9.03125 3.75H9.96875C10.1241 3.75 10.25 3.87586 10.25 4.03125V4.96875ZM10.25 2.71875C10.25 2.87414 10.1241 3 9.96875 3H9.03125C8.87586 3 8.75 2.87414 8.75 2.71875V1.78125C8.75 1.62586 8.87586 1.5 9.03125 1.5H9.96875C10.1241 1.5 10.25 1.62586 10.25 1.78125V2.71875ZM14 9.46875C14 9.62414 13.8741 9.75 13.7188 9.75H12.7812C12.6259 9.75 12.5 9.62414 12.5 9.46875V8.53125C12.5 8.37586 12.6259 8.25 12.7812 8.25H13.7188C13.8741 8.25 14 8.37586 14 8.53125V9.46875ZM14 7.21875C14 7.37414 13.8741 7.5 13.7188 7.5H12.7812C12.6259 7.5 12.5 7.37414 12.5 7.21875V6.28125C12.5 6.12586 12.6259 6 12.7812 6H13.7188C13.8741 6 14 6.12586 14 6.28125V7.21875Z" fill="#93919A"/>
</svg>
