<svg width="23" height="23" viewBox="0 0 23 23" fill="none" xmlns="http://www.w3.org/2000/svg">
<path d="M7.75016 9.62283C7.75016 9.37419 7.84893 9.13573 8.02475 8.95992C8.20056 8.7841 8.43902 8.68533 8.68766 8.68533H14.3127C14.5613 8.68533 14.7998 8.7841 14.9756 8.95992C15.1514 9.13573 15.2502 9.37419 15.2502 9.62283C15.2502 9.87147 15.1514 10.1099 14.9756 10.2857C14.7998 10.4616 14.5613 10.5603 14.3127 10.5603H8.68766C8.43902 10.5603 8.20056 10.4616 8.02475 10.2857C7.84893 10.1099 7.75016 9.87147 7.75016 9.62283ZM8.68766 12.4353C8.43902 12.4353 8.20056 12.5341 8.02475 12.7099C7.84893 12.8857 7.75016 13.1242 7.75016 13.3728C7.75016 13.6215 7.84893 13.8599 8.02475 14.0357C8.20056 14.2116 8.43902 14.3103 8.68766 14.3103H12.4377C12.6863 14.3103 12.9248 14.2116 13.1006 14.0357C13.2764 13.8599 13.3752 13.6215 13.3752 13.3728C13.3752 13.1242 13.2764 12.8857 13.1006 12.7099C12.9248 12.5341 12.6863 12.4353 12.4377 12.4353H8.68766ZM0.250159 11.4978C0.250638 9.02104 1.06846 6.61364 2.57675 4.64907C4.08504 2.6845 6.1995 1.27259 8.59211 0.632357C10.9847 -0.00787595 13.5217 0.159361 15.8096 1.10812C18.0975 2.05689 20.0083 3.73414 21.2457 5.8797C22.483 8.02525 22.9777 10.5192 22.6531 12.9746C22.3285 15.43 21.2026 17.7097 19.4501 19.4599C17.6977 21.2102 15.4166 22.3332 12.9608 22.6548C10.505 22.9764 8.01167 22.4785 5.86766 21.2385L1.48391 22.701C1.32195 22.755 1.1483 22.7638 0.981699 22.7265C0.815097 22.6891 0.661871 22.6069 0.538557 22.4888C0.415244 22.3707 0.326527 22.2211 0.28198 22.0563C0.237433 21.8915 0.238748 21.7176 0.285784 21.5535L1.62078 16.8828C0.71894 15.2314 0.247566 13.3795 0.250159 11.4978ZM11.5002 2.12283C9.84487 2.12273 8.21907 2.56089 6.78801 3.39278C5.35695 4.22467 4.17167 5.42063 3.35263 6.85908C2.53359 8.29754 2.11002 9.9272 2.12495 11.5824C2.13989 13.2376 2.5928 14.8594 3.43766 16.2828C3.50266 16.3928 3.54451 16.5149 3.56063 16.6416C3.57675 16.7683 3.56681 16.897 3.53141 17.0197L2.57703 20.3572L5.68578 19.3222C5.81781 19.2781 5.95799 19.264 6.09615 19.2809C6.23431 19.2978 6.36698 19.3452 6.48453 19.4197C7.71316 20.1973 9.10581 20.6784 10.5524 20.825C11.999 20.9717 13.4599 20.7798 14.8195 20.2647C16.1792 19.7495 17.4004 18.9252 18.3867 17.8568C19.3729 16.7884 20.0971 15.5052 20.5021 14.1088C20.907 12.7123 20.9816 11.2408 20.7199 9.81052C20.4582 8.38026 19.8674 7.03047 18.9942 5.86785C18.1211 4.70523 16.9894 3.76164 15.6888 3.11167C14.3882 2.4617 12.9542 2.12317 11.5002 2.12283Z" fill="#C3C2C7"/>
</svg>
