<?xml version="1.0" encoding="UTF-8"?>
<svg version="1.1" xmlns="http://www.w3.org/2000/svg" width="512" height="512">
<path d="M0 0 C1.42467061 -0.00186953 2.84934071 -0.0041708 4.27401 -0.00686532 C8.17997761 -0.01297228 12.08592379 -0.01285103 15.99189508 -0.01167095 C20.20813156 -0.01146666 24.4243612 -0.01698842 28.64059448 -0.02172852 C36.89810089 -0.03002983 45.15560016 -0.03278313 53.4131104 -0.03334089 C60.12718218 -0.03381635 66.84125161 -0.03587257 73.55532265 -0.03904152 C92.59996367 -0.04784707 111.64459907 -0.05246111 130.68924215 -0.05171105 C131.71563211 -0.05167109 132.74202208 -0.05163113 133.79951477 -0.05158997 C134.82716125 -0.05154909 135.85480772 -0.0515082 136.913595 -0.05146609 C153.56282507 -0.05105976 170.2120325 -0.06062624 186.86125603 -0.07472833 C203.96540489 -0.08910116 221.06954272 -0.095998 238.17369777 -0.09513456 C247.77276713 -0.09480288 257.37181278 -0.09753722 266.97087669 -0.10831261 C275.14485948 -0.11742959 283.31880779 -0.11958306 291.49279346 -0.11280318 C295.66032624 -0.10954389 299.82779293 -0.10945989 303.99531937 -0.11815643 C307.81683165 -0.12604863 311.63822575 -0.1245624 315.45973525 -0.1158723 C317.48357077 -0.11362367 319.50741003 -0.1211446 321.53123111 -0.12911195 C340.24998653 -0.05882979 353.37224745 4.25915398 366.62226868 17.5690155 C368.92571823 20.00231173 371.10630996 22.53844817 373.29804993 25.07218933 C376.21253615 28.40010302 379.25280869 31.60653095 382.29096985 34.82121277 C383.61427791 36.22709447 384.93718957 37.63334938 386.25971985 39.03996277 C386.90940735 39.73090027 387.55909485 40.42183777 388.22846985 41.13371277 C392.39831774 45.58155052 396.52330394 50.07088274 400.65180969 54.55705261 C402.63175616 56.70748892 404.61460384 58.8552392 406.59761047 61.00285339 C408.09598078 62.62560204 409.59386693 64.24879666 411.0917511 65.87199402 C413.64421574 68.63737197 416.19996421 71.39969285 418.7570343 74.16081238 C420.27022446 75.79875703 421.77670915 77.4426941 423.28315735 79.08683777 C425.02949052 80.988269 426.79871927 82.83979162 428.61128235 84.68058777 C440.09930798 96.59698046 443.61727203 108.96060948 443.3808136 125.12590027 C443.15943069 131.05367553 441.93600872 135.90509543 439.10346985 141.13371277 C438.51952454 142.22232605 438.51952454 142.22232605 437.92378235 143.33293152 C433.80998116 150.11218377 428.13126537 155.72072439 422.70014954 161.44425964 C420.14242901 164.1505939 417.6245164 166.89326479 415.10346985 169.63371277 C414.10367282 170.71723343 413.10367247 171.80056651 412.10346985 172.88371277 C411.36096985 173.68808777 411.36096985 173.68808777 410.60346985 174.50871277 C401.10346985 184.80037944 391.60346985 195.0920461 382.10346985 205.38371277 C381.60830872 205.92044617 381.11314758 206.45717957 380.60298157 207.01017761 C379.60585281 208.0897781 378.60748545 209.16823595 377.60786438 210.24552917 C375.05240309 213.00275935 372.52360619 215.77846653 370.03315735 218.59465027 C359.39919503 230.54408441 348.60318167 238.79479344 332.10346985 240.13371277 C327.44373829 240.27876512 322.78634613 240.27293257 318.12464905 240.26742554 C316.70324018 240.26929564 315.28183183 240.27159714 313.86042428 240.27429086 C309.96811756 240.28039063 306.07583239 240.28027742 302.18352199 240.27909648 C297.9802548 240.27889202 293.77699445 240.28441564 289.57373047 240.28915405 C281.34376674 240.29745118 273.11381018 240.30020847 264.88384262 240.30076643 C258.19220131 240.30124204 251.50056237 240.30329903 244.80892181 240.30646706 C225.82552646 240.3152711 206.84213676 240.31988683 187.85873935 240.31913658 C186.83590178 240.31909663 185.81306421 240.31905667 184.75923157 240.3190155 C183.73514121 240.31897462 182.71105085 240.31893374 181.65592745 240.31889162 C165.0617264 240.31848523 148.46754805 240.32805368 131.87335357 240.34215387 C114.82341364 240.35652668 97.77348478 240.36342355 80.72353864 240.36256009 C71.15578328 240.36222844 61.58805171 240.36496187 52.02030182 240.37573814 C43.87379159 240.38485505 35.72731595 240.38700861 27.58080283 240.38022872 C23.42743989 240.37696952 19.27414325 240.37688509 15.12078667 240.38558197 C11.3122671 240.39347449 7.50386613 240.39198762 3.69534937 240.38329784 C1.67852046 240.38104936 -0.3383122 240.38856983 -2.35512662 240.39653748 C-16.40301597 240.34361558 -28.37964842 238.57942604 -39.89653015 230.13371277 C-40.88653015 229.41183777 -41.87653015 228.68996277 -42.89653015 227.94621277 C-49.91033532 221.94224866 -55.08006805 212.15177328 -56.89653015 203.13371277 C-56.99474586 200.89899881 -57.03577593 198.66157031 -57.04370117 196.42471313 C-57.04737786 195.75118697 -57.05105455 195.0776608 -57.05484265 194.38372475 C-57.06585179 192.12777223 -57.06971865 189.87186583 -57.0735321 187.6158905 C-57.07979899 185.99769953 -57.086446 184.37950999 -57.09344482 182.76132202 C-57.11446595 177.44666034 -57.1248474 172.13199845 -57.1348114 166.81730652 C-57.1388601 164.98497566 -57.14297705 163.15264496 -57.14716148 161.32031441 C-57.16621119 152.70845487 -57.18044103 144.09660388 -57.18877345 135.48472732 C-57.19853655 125.55907769 -57.22483273 115.63365161 -57.26527435 105.70808071 C-57.2954906 98.02721041 -57.31024766 90.34640398 -57.31355447 82.66547543 C-57.31589923 78.08255117 -57.32478434 73.49986579 -57.35001564 68.91700554 C-57.37339712 64.60034235 -57.3774894 60.2840736 -57.36725426 55.96736336 C-57.36676118 54.3900483 -57.37301383 52.81271317 -57.3868103 51.23545837 C-57.49148676 38.55036324 -55.35858541 28.54374048 -47.89653015 18.13371277 C-47.17465515 17.12308777 -46.45278015 16.11246277 -45.70903015 15.07121277 C-33.69760634 1.38117383 -16.98711197 -0.01996389 0 0 Z M361.10346985 102.13371277 C355.64160683 109.5443473 354.97726402 117.14511672 356.10346985 126.13371277 C357.99809143 133.30998893 362.19584469 139.74709361 368.57221985 143.64152527 C376.5781367 147.76221776 383.09760211 149.34415442 392.04096985 147.00871277 C399.91006389 144.44946334 406.2071525 139.50349132 410.10346985 132.13371277 C412.98428001 124.84516127 413.43672457 116.85835329 411.29878235 109.28215027 C407.91081983 101.73517169 401.88494477 95.5351807 394.29096985 92.13371277 C381.50042404 88.235399 369.78069489 92.3435393 361.10346985 102.13371277 Z " fill="#F91F3E" transform="translate(62.89653015136719,135.8662872314453)"/>
<path d="M0 0 C3.88670098 0.80972937 5.85940715 2.37681053 8 5.625 C9.36342812 9.42032302 10.13956272 13.30226428 10.9375 17.25 C11.18201904 18.37978271 11.42653809 19.50956543 11.6784668 20.67358398 C12.19710472 23.07391494 12.7080476 25.47591942 13.21191406 27.87939453 C14.27747394 32.94377485 15.38940595 37.99740747 16.50805664 43.05029297 C17.03889557 45.45042603 17.56424292 47.85178112 18.08374023 50.25439453 C18.32036377 51.3370459 18.5569873 52.41969727 18.80078125 53.53515625 C19.00872314 54.49558838 19.21666504 55.45602051 19.4309082 56.44555664 C19.79408762 58.58759391 19.79408762 58.58759391 21 59.625 C23.9804378 49.91879549 26.64905188 40.1757905 29.0625 30.3125 C34.99328458 6.33296614 34.99328458 6.33296614 41 1.625 C41.33 1.295 41.66 0.965 42 0.625 C46.42510166 0.24999138 49.12006746 0.26964263 53.25 1.9375 C59.90121065 8.43754677 61.25671074 19.98110967 63.4375 28.75 C66.06600432 39.11684379 68.87013092 49.3988379 72 59.625 C73.84812159 55.43626428 74.87997262 51.1755058 75.83984375 46.71875 C76.00746719 45.95759888 76.17509064 45.19644775 76.34779358 44.41223145 C76.88171516 41.98401509 77.40980381 39.55457606 77.9375 37.125 C78.28800314 35.52334809 78.638911 33.92178469 78.99023438 32.3203125 C79.1621077 31.53650711 79.33398102 30.75270172 79.51106262 29.94514465 C80.18339155 26.88303265 80.85809917 23.82144592 81.5328064 20.75985718 C81.97552153 18.73685519 82.40905301 16.71207721 82.84106445 14.68676758 C83.22137817 12.94882935 83.22137817 12.94882935 83.609375 11.17578125 C83.82432617 10.17458252 84.03927734 9.17338379 84.26074219 8.1418457 C85.39504309 4.2800531 86.59078567 2.76566946 90 0.625 C93.7185985 -0.07223722 95.47252854 0.37273104 98.875 2 C102.08535546 5.96573321 101.3941871 9.68082406 101 14.625 C100.38171701 18.36756204 99.49147438 22.01416559 98.55078125 25.6875 C98.29628708 26.7182666 98.04179291 27.7490332 97.77958679 28.81103516 C96.96805662 32.08516577 96.14029667 35.35494907 95.3125 38.625 C94.77568261 40.78750992 94.23986733 42.95026887 93.70507812 45.11328125 C91.32338145 54.70243465 88.87892573 64.27622725 86.29296875 73.8125 C86.10398514 74.5245459 85.91500153 75.2365918 85.72029114 75.97021484 C84.35313991 80.91772128 82.78899504 85.63722774 79.3125 89.5 C75.87948512 91.17011535 72.69302621 91.24419002 69 90.625 C64.73085213 88.58745215 63.57655988 85.94117081 62.04296875 81.6796875 C60.00538556 75.88628899 58.47971065 70.03321043 57.0625 64.0625 C55.06078155 55.83576952 52.96365365 47.65374903 50.64868164 39.50952148 C49.34031399 34.90140249 48.1423098 30.2773163 47 25.625 C45.53497647 29.10093287 44.43466387 32.51803609 43.51953125 36.17578125 C43.24592773 37.25577393 42.97232422 38.3357666 42.69042969 39.44848633 C42.40071289 40.59986084 42.11099609 41.75123535 41.8125 42.9375 C39.41575929 52.30779036 36.93344856 61.64496447 34.25 70.9375 C33.96874268 71.92596924 33.68748535 72.91443848 33.39770508 73.93286133 C29.84741698 86.08548585 29.84741698 86.08548585 25.75 89.5 C22.20809325 90.94896185 19.79755549 91.09969444 16 90.625 C10.78437873 88.07783613 9.82451598 83.93428885 8.01928711 78.78881836 C6.29678465 73.44225325 4.9484771 68.01938681 3.625 62.5625 C3.32827393 61.35891846 3.03154785 60.15533691 2.72583008 58.9152832 C0.37475015 49.32009861 -1.8693031 39.70030266 -4.04638672 30.06420898 C-5.45448859 23.83803572 -5.45448859 23.83803572 -7.140625 17.68359375 C-8.3002533 13.5563712 -8.76864865 9.86445388 -8 5.625 C-5.56887157 2.12131491 -4.17862962 0.87054784 0 0 Z " fill="#FEFAFB" transform="translate(245,210.375)"/>
<path d="M0 0 C5.06937243 2.77052039 7.70351184 6.06615497 10.5234375 10.96875 C11.38867067 12.41061699 12.25699538 13.85063201 13.12792969 15.2890625 C13.81912903 16.4352002 13.81912903 16.4352002 14.52429199 17.60449219 C17.1318194 21.83727553 19.89990134 25.96221905 22.6640625 30.09375 C23.51723053 31.37173462 23.51723053 31.37173462 24.38763428 32.67553711 C26.1314447 35.28502069 27.87814944 37.89255086 29.625 40.5 C30.83224996 42.30584339 32.03928245 44.11183218 33.24609375 45.91796875 C36.16156687 50.28031906 39.07968357 54.64089069 42 59 C42.00142502 58.34933563 42.00285004 57.69867126 42.00431824 57.02828979 C42.02402735 50.24694842 42.07832778 43.4665057 42.15258789 36.68554688 C42.17576361 34.1559901 42.19016257 31.62633688 42.19555664 29.09667969 C42.20484865 25.45707122 42.2458493 21.81897879 42.29296875 18.1796875 C42.2890361 17.05134491 42.28510345 15.92300232 42.28105164 14.76046753 C42.44359499 5.98379334 42.44359499 5.98379334 45.35668945 2.27783203 C48 0 48 0 51 -0.625 C54.64909866 0.13522889 56.37904668 1.37904668 59 4 C60.1821111 7.54633331 60.14158123 10.38586867 60.16113281 14.13012695 C60.16858017 15.21360413 60.16858017 15.21360413 60.17617798 16.31896973 C60.19078333 18.70874993 60.19759919 21.09846374 60.203125 23.48828125 C60.2088782 25.15113832 60.21463591 26.81399538 60.22039795 28.47685242 C60.23090358 31.96463327 60.23674898 35.4523911 60.24023438 38.94018555 C60.24571541 43.40235456 60.26973678 47.86421786 60.29820633 52.32629108 C60.31686073 55.7621702 60.32203982 59.19797612 60.32357025 62.6339016 C60.32659145 64.27849179 60.33460198 65.92308086 60.34775543 67.56762123 C60.36487345 69.87254485 60.3629219 72.17672748 60.35644531 74.48168945 C60.36191376 76.44668144 60.36191376 76.44668144 60.36749268 78.45137024 C59.96930297 82.29642056 58.99474124 84.71202927 57 88 C54.61415923 89.87458918 52.76387351 90.04086805 49.75 90.5625 C44.13139212 89.71970882 41.63304088 87.27605697 38 83 C34.62442529 78.36258015 31.64897525 73.45838625 28.62597656 68.58789062 C25.00176011 62.8196182 21.21949815 57.15174402 17.47827148 51.45898438 C12.85149674 44.38502619 8.40041643 37.21625119 4 30 C3.99857498 30.67794113 3.99714996 31.35588226 3.99568176 32.05436707 C3.97599354 39.1112818 3.92173784 46.16733054 3.84741211 53.22387695 C3.82421678 55.85727729 3.80983284 58.4907706 3.80444336 61.12426758 C3.79516572 64.91025843 3.75419623 68.69478375 3.70703125 72.48046875 C3.71293022 74.2463459 3.71293022 74.2463459 3.71894836 76.04789734 C3.55641954 85.15571912 3.55641954 85.15571912 0.6472168 88.24731445 C-2.60382424 90.39978366 -4.17636506 90.73218541 -8 90 C-10.30275556 88.1329009 -11.67823871 86.64352259 -13 84 C-13.10828479 81.61588745 -13.15730039 79.26053518 -13.16113281 76.87573242 C-13.16609772 76.14220047 -13.17106262 75.40866852 -13.17617798 74.65290833 C-13.19081107 72.220419 -13.19760397 69.78799491 -13.203125 67.35546875 C-13.20887612 65.66636655 -13.21463386 63.97726438 -13.22039795 62.28816223 C-13.23091162 58.74313045 -13.23675168 55.19812136 -13.24023438 51.65307617 C-13.24571569 47.11343295 -13.26973427 42.57409019 -13.29820633 38.03454113 C-13.31684409 34.54379912 -13.32203894 31.05312925 -13.32357025 27.56234169 C-13.32659544 25.88901441 -13.3346195 24.21568835 -13.34775543 22.5424099 C-13.3648378 20.19885909 -13.36293048 17.85603922 -13.35644531 15.51245117 C-13.3656601 14.82291351 -13.37487488 14.13337585 -13.3843689 13.42294312 C-13.33825657 8.09513448 -11.923346 4.923346 -8.1875 1.1875 C-5.17911811 -0.4456216 -3.3871607 -0.4742025 0 0 Z " fill="#FEFAFA" transform="translate(88,211)"/>
<path d="M0 0 C1.6966832 -0.01395813 1.6966832 -0.01395813 3.42764282 -0.02819824 C4.63923065 -0.01180298 5.85081848 0.00459229 7.09912109 0.02148438 C8.3501059 0.02144409 9.6010907 0.02140381 10.88998413 0.0213623 C13.531859 0.02672037 16.17151384 0.0416411 18.81298828 0.07324219 C22.19716405 0.11300205 25.58022874 0.11727629 28.96459389 0.10977936 C32.19703019 0.10597242 35.42925509 0.12678198 38.66162109 0.14648438 C39.87725739 0.14668579 41.09289368 0.14688721 42.34536743 0.14709473 C43.47018524 0.16300659 44.59500305 0.17891846 45.75390625 0.1953125 C46.74476227 0.20373169 47.73561829 0.21215088 48.75650024 0.2208252 C51.24755859 0.61523438 51.24755859 0.61523438 53.06356812 1.92272949 C55.07209132 4.79389729 54.66860502 7.24686296 54.24755859 10.61523438 C52.46552044 12.75669326 50.98554441 13.52249124 48.22253418 13.86972046 C45.626323 13.96377593 43.04824266 13.95192422 40.45068359 13.90820312 C39.50191345 13.90395828 38.55314331 13.89971344 37.57562256 13.89533997 C34.54931094 13.8785652 31.52366849 13.84091494 28.49755859 13.80273438 C26.4441828 13.78768599 24.39079656 13.77399786 22.33740234 13.76171875 C17.30699005 13.73121908 12.27802217 13.67249513 7.24755859 13.61523438 C7.24755859 20.54523438 7.24755859 27.47523438 7.24755859 34.61523438 C10.00486328 34.56882813 12.76216797 34.52242187 15.60302734 34.47460938 C18.28049886 34.44339337 20.95794993 34.41911727 23.63549805 34.39550781 C25.49301258 34.37542132 27.3504641 34.34814659 29.20776367 34.31347656 C31.88134322 34.264827 34.55408515 34.24223628 37.22802734 34.22460938 C38.05529831 34.20396423 38.88256927 34.18331909 39.73490906 34.16204834 C43.74003913 34.16049786 45.77086744 34.32573367 49.2722168 36.45214844 C51.24755859 38.61523438 51.24755859 38.61523438 51.87255859 41.61523438 C51.24755859 44.61523438 51.24755859 44.61523438 49.2722168 46.77832031 C45.14810503 49.28294675 41.9580341 49.12390009 37.22802734 49.00585938 C35.94017082 48.99736969 35.94017082 48.99736969 34.626297 48.9887085 C31.895307 48.96639225 29.1656492 48.91620604 26.43505859 48.86523438 C24.57895781 48.84516317 22.72283637 48.82691348 20.86669922 48.81054688 C16.32606478 48.76995113 11.7882953 48.69165631 7.24755859 48.61523438 C7.24755859 56.53523438 7.24755859 64.45523438 7.24755859 72.61523438 C10.29361328 72.58042969 13.33966797 72.545625 16.47802734 72.50976562 C19.43350284 72.48635845 22.38896794 72.46814846 25.34448242 72.45043945 C27.39596186 72.43536815 29.44740916 72.41490756 31.4987793 72.38891602 C34.45027607 72.35246013 37.40134622 72.33549131 40.35302734 72.32226562 C41.72517647 72.29903984 41.72517647 72.29903984 43.12504578 72.27534485 C48.01278111 72.2740578 51.26159321 72.44918752 55.24755859 75.61523438 C56.24755859 76.61523438 56.24755859 76.61523438 56.56005859 79.42773438 C56.24755859 82.61523438 56.24755859 82.61523438 54.58421326 84.78111267 C51.6871169 87.0551446 50.20073239 87.12618748 46.54858398 87.14868164 C45.40382095 87.16451797 44.25905792 87.18035431 43.0796051 87.19667053 C41.84725632 87.19171066 40.61490753 87.18675079 39.34521484 87.18164062 C38.0753624 87.1878392 36.80550995 87.19403778 35.49717712 87.20042419 C32.81095458 87.20753025 30.12622784 87.20627852 27.44018555 87.19165039 C24.00541983 87.17447199 20.57232851 87.197945 17.13774967 87.23313999 C13.85271839 87.26043886 10.56782754 87.25037567 7.28271484 87.24414062 C6.05239029 87.25739883 4.82206573 87.27065704 3.55445862 87.28431702 C1.83258583 87.26551735 1.83258583 87.26551735 0.07592773 87.24633789 C-0.93126816 87.24537613 -1.93846405 87.24441437 -2.97618103 87.24342346 C-6.91116534 86.35304797 -8.36189 84.83071266 -10.75244141 81.61523438 C-11.24893199 78.91516561 -11.43920238 76.84257502 -11.39941406 74.15039062 C-11.40817566 73.41642059 -11.41693726 72.68245056 -11.42596436 71.92623901 C-11.44790148 69.50946248 -11.43342787 67.09452822 -11.41650391 64.67773438 C-11.41987373 62.99291636 -11.42472773 61.30810072 -11.43099976 59.62329102 C-11.43836331 56.09595546 -11.42768287 52.56925391 -11.40429688 49.04199219 C-11.37580867 44.52559444 -11.39221552 40.01068226 -11.42215919 35.49433899 C-11.4402466 32.01636608 -11.43446769 28.5387441 -11.42152023 25.0607605 C-11.41819017 23.39582136 -11.42225927 21.73085013 -11.433918 20.06594849 C-11.4466515 17.73646954 -11.42721956 15.40937954 -11.39941406 13.08007812 C-11.41459579 12.05284134 -11.41459579 12.05284134 -11.43008423 11.00485229 C-11.34924402 7.34030798 -10.78139962 5.65411385 -8.5715332 2.68713379 C-5.36440083 0.33004287 -3.92943232 -0.00813423 0 0 Z " fill="#FEF9FA" transform="translate(175.75244140625,212.384765625)"/>
</svg>
