<svg width="64" height="64" viewBox="0 0 64 64" fill="none" xmlns="http://www.w3.org/2000/svg">
<path d="M42.6667 26.6667C42.6667 29.4956 41.5429 32.2087 39.5425 34.2091C37.5421 36.2095 34.829 37.3333 32 37.3333C29.1711 37.3333 26.458 36.2095 24.4576 34.2091C22.4572 32.2087 21.3334 29.4956 21.3334 26.6667C21.3334 23.8377 22.4572 21.1246 24.4576 19.1242C26.458 17.1238 29.1711 16 32 16C34.829 16 37.5421 17.1238 39.5425 19.1242C41.5429 21.1246 42.6667 23.8377 42.6667 26.6667Z" fill="white"/>
<path fill-rule="evenodd" clip-rule="evenodd" d="M30.912 58.6453C16.6894 58.0746 5.33337 46.3626 5.33337 31.9999C5.33337 17.2719 17.272 5.33325 32 5.33325C46.728 5.33325 58.6667 17.2719 58.6667 31.9999C58.6667 46.7279 46.728 58.6666 32 58.6666C31.8783 58.6674 31.7565 58.6674 31.6347 58.6666C31.3934 58.6666 31.152 58.6586 30.912 58.6453ZM14.888 48.8266C14.6887 48.254 14.6208 47.6439 14.6895 47.0415C14.7582 46.4391 14.9616 45.8599 15.2848 45.3469C15.608 44.834 16.0425 44.4003 16.5562 44.0783C17.0699 43.7562 17.6495 43.554 18.252 43.4866C28.6467 42.3359 35.4174 42.4399 45.7614 43.5106C46.3647 43.5734 46.9458 43.7731 47.4603 44.0944C47.9748 44.4158 48.4092 44.8503 48.7304 45.3649C49.0516 45.8794 49.2511 46.4605 49.3138 47.0639C49.3765 47.6673 49.3006 48.277 49.092 48.8466C53.5253 44.3611 56.008 38.3065 56 31.9999C56 18.7453 45.2547 7.99992 32 7.99992C18.7454 7.99992 8.00004 18.7453 8.00004 31.9999C8.00004 38.5546 10.628 44.4959 14.888 48.8266Z" fill="white"/>
</svg>
