<svg width="26" height="24" viewBox="0 0 26 24" fill="none" xmlns="http://www.w3.org/2000/svg">
<path d="M3 24C2.3125 24 1.72417 23.7554 1.235 23.2663C0.745833 22.7771 0.500833 22.1883 0.5 21.5V7.75C0.5 7.0625 0.745 6.47417 1.235 5.985C1.725 5.49583 2.31333 5.25083 3 5.25H8V2.75C8 2.0625 8.245 1.47417 8.735 0.985C9.225 0.495833 9.81333 0.250833 10.5 0.25H15.5C16.1875 0.25 16.7763 0.495 17.2663 0.985C17.7563 1.475 18.0008 2.06333 18 2.75V5.25H23C23.6875 5.25 24.2763 5.495 24.7663 5.985C25.2563 6.475 25.5008 7.06333 25.5 7.75V21.5C25.5 22.1875 25.2554 22.7763 24.7663 23.2663C24.2771 23.7563 23.6883 24.0008 23 24H3ZM3 21.5H23V7.75H3V21.5ZM10.5 5.25H15.5V2.75H10.5V5.25Z" fill="#C3C2C7"/>
</svg>
