<svg width="23" height="23" viewBox="0 0 23 23" fill="none" xmlns="http://www.w3.org/2000/svg">
<path d="M19.1041 18.0614L22.2778 21.2334C22.4258 21.3866 22.5077 21.5919 22.5058 21.8049C22.504 22.0179 22.4185 22.2217 22.2679 22.3724C22.1172 22.523 21.9134 22.6085 21.7004 22.6103C21.4874 22.6122 21.2821 22.5303 21.1289 22.3823L17.9553 19.2086C15.8814 20.9855 13.1999 21.89 10.4735 21.7324C7.74705 21.5748 5.18764 20.3673 3.3323 18.3634C1.47696 16.3594 0.469907 13.7147 0.522466 10.9842C0.575026 8.25376 1.68311 5.64977 3.61419 3.71869C5.54528 1.7876 8.14926 0.679518 10.8797 0.626959C13.6102 0.574399 16.2549 1.58145 18.2589 3.43679C20.2628 5.29213 21.4703 7.85154 21.6279 10.578C21.7855 13.3044 20.881 15.9859 19.1041 18.0598V18.0614ZM11.0831 20.1251C13.4535 20.1251 15.7268 19.1835 17.4029 17.5074C19.079 15.8313 20.0206 13.558 20.0206 11.1876C20.0206 8.81726 19.079 6.54397 17.4029 4.86787C15.7268 3.19176 13.4535 2.25013 11.0831 2.25013C8.71277 2.25013 6.43948 3.19176 4.76337 4.86787C3.08727 6.54397 2.14564 8.81726 2.14564 11.1876C2.14564 13.558 3.08727 15.8313 4.76337 17.5074C6.43948 19.1835 8.71277 20.1251 11.0831 20.1251Z" fill="black"/>
</svg>
