<svg width="11" height="12" viewBox="0 0 11 12" fill="none" xmlns="http://www.w3.org/2000/svg">
<path fill-rule="evenodd" clip-rule="evenodd" d="M4.82845 0.470737C4.86076 0.613478 4.83507 0.76321 4.75702 0.887014C4.67897 1.01082 4.55495 1.09856 4.41223 1.13095C4.30391 1.1556 4.19655 1.18432 4.0904 1.21707C4.02113 1.23845 3.94833 1.24598 3.87616 1.23923C3.80398 1.23248 3.73384 1.21158 3.66974 1.17773C3.60564 1.14387 3.54883 1.09772 3.50257 1.04191C3.4563 0.9861 3.42149 0.921724 3.4001 0.852458C3.37872 0.783191 3.37118 0.710391 3.37793 0.638214C3.38468 0.566036 3.40558 0.495895 3.43944 0.431795C3.4733 0.367695 3.51945 0.310891 3.57526 0.264627C3.63107 0.218362 3.69544 0.183544 3.76471 0.162158C3.89719 0.120941 4.03152 0.0850597 4.16768 0.0545147C4.2384 0.0384328 4.31159 0.0364433 4.38308 0.0486597C4.45457 0.0608761 4.52294 0.087059 4.58431 0.125712C4.64567 0.164366 4.69882 0.214732 4.74071 0.273933C4.7826 0.333134 4.81241 0.400009 4.82845 0.470737ZM5.96009 0.470737C5.99248 0.328013 6.08022 0.203993 6.20402 0.125942C6.32783 0.0478921 6.47756 0.0222001 6.6203 0.0545147C9.07899 0.612053 10.915 2.81019 10.915 5.4378C10.915 8.4866 8.44307 10.958 5.39482 10.958C2.76666 10.958 0.568521 9.12252 0.0109826 6.66383C-0.0176349 6.52251 0.010183 6.37559 0.0884869 6.25451C0.166791 6.13343 0.289364 6.04779 0.429992 6.01592C0.57062 5.98404 0.718138 6.00846 0.840997 6.08394C0.963856 6.15943 1.0523 6.27999 1.08742 6.41984C1.26308 7.18922 1.6417 7.89747 2.18389 8.47091C2.72608 9.04434 3.41203 9.46201 4.17038 9.68046C4.92872 9.8989 5.73174 9.91015 6.4959 9.71302C7.26006 9.51588 7.95743 9.11758 8.51547 8.55955C9.0735 8.00152 9.4718 7.30415 9.66893 6.53999C9.86606 5.77583 9.85482 4.9728 9.63637 4.21446C9.41793 3.45612 9.00026 2.77017 8.42682 2.22798C7.85339 1.68579 7.14514 1.30716 6.37576 1.1315C6.23302 1.099 6.10903 1.01112 6.03108 0.887202C5.95313 0.763286 5.92759 0.613481 5.96009 0.470737ZM2.4211 1.4191C2.47046 1.47226 2.50887 1.53462 2.53412 1.60263C2.55937 1.67064 2.57097 1.74295 2.56825 1.81545C2.56553 1.88794 2.54856 1.95918 2.51829 2.02511C2.48801 2.09104 2.44505 2.15035 2.39184 2.19966C2.31014 2.2751 2.23157 2.35349 2.15613 2.43482C2.05585 2.53916 1.9186 2.59995 1.77394 2.6041C1.62929 2.60825 1.48878 2.55543 1.38269 2.457C1.27659 2.35858 1.21339 2.22243 1.20669 2.07786C1.19999 1.9333 1.25033 1.79189 1.34687 1.68407C1.44071 1.5825 1.5386 1.48443 1.64054 1.38985C1.6937 1.34048 1.75606 1.30207 1.82407 1.27682C1.89207 1.25157 1.96439 1.23997 2.03688 1.24269C2.10938 1.24541 2.18062 1.26239 2.24655 1.29266C2.31247 1.32293 2.37179 1.3659 2.4211 1.4191ZM5.39427 2.12569C5.54067 2.12569 5.68108 2.18385 5.7846 2.28737C5.88813 2.39089 5.94629 2.5313 5.94629 2.67771V5.20926L7.4406 6.70358C7.54116 6.80769 7.5968 6.94713 7.59554 7.09187C7.59428 7.23661 7.53622 7.37506 7.43388 7.47741C7.33153 7.57976 7.19307 7.63781 7.04834 7.63907C6.9036 7.64033 6.76416 7.58469 6.66005 7.48413L5.00399 5.82808C4.90046 5.72458 4.84228 5.58419 4.84225 5.4378V2.67771C4.84225 2.5313 4.90041 2.39089 5.00393 2.28737C5.10746 2.18385 5.24786 2.12569 5.39427 2.12569ZM0.80865 3.44391C0.948527 3.48704 1.06554 3.58397 1.13397 3.71337C1.2024 3.84276 1.21663 3.99404 1.17353 4.13393C1.14079 4.24009 1.11207 4.34744 1.08742 4.45576C1.0523 4.59561 0.963856 4.71617 0.840997 4.79166C0.718138 4.86714 0.57062 4.89156 0.429992 4.85968C0.289364 4.82781 0.166791 4.74217 0.0884869 4.62109C0.010183 4.50001 -0.0176349 4.35309 0.0109826 4.21177C0.0418956 4.0756 0.0777769 3.94128 0.118626 3.80879C0.161761 3.66892 0.258685 3.5519 0.388083 3.48347C0.517482 3.41505 0.66876 3.40081 0.80865 3.44391Z" fill="black"/>
</svg>
