<svg width="126" height="126" viewBox="0 0 126 126" fill="none" xmlns="http://www.w3.org/2000/svg">
<path d="M69.25 0.6875V13.3125C96.6875 16.6875 116.125 41.625 112.75 69.0625C109.875 91.8125 92 109.875 69.25 112.562V125.062C103.625 121.625 128.625 91.125 125.188 56.75C122.375 27.0625 98.8125 3.625 69.25 0.6875ZM56.75 0.875C44.5625 2.0625 32.9375 6.75 23.4375 14.625L32.375 23.875C39.375 18.25 47.8125 14.625 56.75 13.375V0.875ZM14.625 23.4375C6.81035 32.9209 2.00126 44.5193 0.8125 56.75H13.3125C14.5 47.875 18 39.4375 23.5625 32.375L14.625 23.4375ZM84.875 41.125L54.375 71.625L41.125 58.375L34.5 65L54.375 84.875L91.5 47.75L84.875 41.125ZM0.875 69.25C2.125 81.5 6.9375 93.0625 14.6875 102.562L23.5625 93.625C18.0433 86.56 14.5247 78.1412 13.375 69.25H0.875ZM32.375 102.812L23.4375 111.375C32.9049 119.267 44.4954 124.181 56.75 125.5V113C47.8588 111.85 39.44 108.332 32.375 102.812Z" fill="url(#paint0_linear_1114_20346)"/>
<defs>
<linearGradient id="paint0_linear_1114_20346" x1="63.158" y1="0.6875" x2="63.158" y2="125.5" gradientUnits="userSpaceOnUse">
<stop stop-color="#130744"/>
<stop offset="1" stop-color="#927BD5"/>
</linearGradient>
</defs>
</svg>
